<svg width="80" height="80" viewBox="0 0 80 80" fill="none" xmlns="http://www.w3.org/2000/svg">
<path d="M52.3079 36.9238H63.0773C64.3594 36.9238 65.4494 36.4752 66.3469 35.5777C67.244 34.6801 67.6931 33.5905 67.6931 32.308V30.7702C67.6931 27.3726 66.4909 24.4722 64.0868 22.068C61.6828 19.6647 58.7819 18.4626 55.3846 18.4626H52.3079C51.4747 18.4626 50.7538 18.158 50.1446 17.5492C49.5357 16.9402 49.2312 16.2193 49.2312 15.3859V9.2315C49.2312 8.39829 49.5359 7.67673 50.1446 7.06766C50.7537 6.45942 51.4746 6.1543 52.3079 6.1543H55.3846C58.7183 6.1543 61.8987 6.80396 64.9279 8.10142C67.9568 9.39972 70.5766 11.1547 72.7884 13.3665C75.0001 15.5774 76.7546 18.1974 78.0527 21.2266C79.3508 24.2555 80 27.4367 80 30.7701V64.6154C80 67.1809 79.103 69.3592 77.3081 71.1547C75.513 72.9493 73.333 73.8465 70.7691 73.8465H52.3068C49.743 73.8465 47.5637 72.9493 45.7684 71.1547C43.9739 69.3592 43.0764 67.1809 43.0764 64.6154V46.1547C43.0764 43.5898 43.9739 41.4114 45.7696 39.6157C47.564 37.8213 49.7442 36.9238 52.3079 36.9238Z" fill="black" fill-opacity="0.1"/>
<path d="M2.69074 39.6157C4.48513 37.8213 6.66463 36.9238 9.22907 36.9238H19.9982C21.2797 36.9238 22.3707 36.4752 23.2667 35.5777C24.1646 34.6801 24.6129 33.5905 24.6129 32.308V30.7702C24.6129 27.3726 23.4107 24.4722 21.0077 22.068C18.6046 19.6647 15.7039 18.4626 12.3049 18.4626H9.2289C8.39553 18.4626 7.67414 18.158 7.0654 17.5492C6.457 16.9402 6.15137 16.2193 6.15137 15.3859V9.2315C6.15137 8.39829 6.45683 7.67673 7.0654 7.06766C7.67397 6.45942 8.39536 6.1543 9.2289 6.1543H12.3049C15.6404 6.1543 18.8202 6.80396 21.8502 8.10142C24.8786 9.39972 27.4976 11.1547 29.7094 13.3665C31.9212 15.5774 33.6766 18.1974 34.9742 21.2266C36.272 24.2555 36.922 27.4367 36.922 30.7701V64.6154C36.922 67.1809 36.0241 69.3592 34.2297 71.1547C32.4352 72.9493 30.2557 73.8465 27.6914 73.8465H9.23007C6.66563 73.8465 4.4863 72.9493 2.69192 71.1547C0.896188 69.3592 0.000176511 67.1809 0.000176511 64.6154V46.1547C8.11922e-06 43.5896 0.89619 41.4114 2.69074 39.6157Z" fill="black" fill-opacity="0.1"/>
</svg>
