<svg width="180" height="50" viewBox="0 0 180 50" fill="none" xmlns="http://www.w3.org/2000/svg">
<path fill-rule="evenodd" clip-rule="evenodd" d="M151.44 34.0449H156.741L158.508 31.2598H170.039L167.852 27.4709H160.709L164.827 20.5824L173.153 34.0449H178.454L167.433 16.0449H162.132L151.44 34.0449ZM53.6375 34.0449H58.9387L60.7057 31.2598H72.2365L70.0502 27.4709H62.8921L67.0252 20.5824L75.3513 34.0449H80.6525L69.6309 16.0449H64.3297L53.6375 34.0449ZM127.989 33.9551H132.616V20.0882H143.443C145.03 20.0882 145.884 20.8369 145.884 22.0948C145.884 23.3977 144.745 23.9667 143.443 23.9667H133.709L134.473 27.8902H141.961C145.495 27.8902 145.584 28.729 146.004 34.0449H150.466L150.212 29.6572C150.122 27.8155 149.118 27.0518 148.355 26.5422L148.1 26.3777C149.448 25.614 150.541 24.5358 150.541 21.6755C150.541 18.0663 147.845 16.0449 143.892 16.0449H127.988L127.989 33.9551ZM100.974 16.0449H87.0768C83.3779 16.0449 80.353 18.0666 80.353 21.9301V28.729C80.353 32.0982 83.4678 34.0449 86.5826 34.0449H100.974V30.3311L87.2565 30.3161C85.729 30.3161 84.9803 29.073 84.9803 27.6354V22.7687C84.9803 20.5824 86.2382 19.8336 88.2598 19.8336H100.974V16.0449ZM103.639 16.0449V27.8153C103.639 31.005 105.346 34.0447 109.539 34.0447H119.483C123.766 34.0447 125.218 30.9301 125.218 27.89V16.0449H120.501V28.3093C120.501 29.822 119.393 30.4956 117.686 30.4956H111.007C108.686 30.4956 108.342 28.9834 108.342 27.1414V16.0449H103.639Z" fill="white"/>
<path fill-rule="evenodd" clip-rule="evenodd" d="M21.3017 45.043C6.67584 45.043 0 36.5112 0 25.0428C0 11.7188 7.61766 5.04297 21.3017 5.04297C35.706 5.04297 42.6035 12.162 42.6035 25.0428C42.6035 38.0066 34.7365 45.043 21.3017 45.043ZM11.0248 40.5274L13.3794 24.101L19.3073 7.06511C10.637 7.64682 3.32407 11.9681 3.32407 24.9874C3.32407 32.6054 6.14953 37.757 11.0248 40.5274ZM20.6923 7.00971V20.8046H22.0497V7.00971H20.6923ZM23.4901 7.06511L29.418 24.101L31.7726 40.5555C36.6479 37.8127 39.4179 32.6604 39.4179 24.9878C39.4179 11.5526 31.8834 7.59142 23.4901 7.06511ZM30.6091 41.1368L22.5206 23.7686H20.166L12.1328 41.1091C14.7367 42.3002 17.8392 42.9096 21.3571 42.9096C24.9305 42.9096 28.033 42.3279 30.6091 41.1368Z" fill="white"/>
</svg>
