<svg width="81" height="50" viewBox="0 0 81 50" fill="none" xmlns="http://www.w3.org/2000/svg">
<path fill-rule="evenodd" clip-rule="evenodd" d="M68.1095 49.6463V38.9151H63.6808V49.6463H68.1095ZM44.6634 45.1905V39.0775H40.3708V43.7504C40.3708 45.1086 40.3165 45.4894 40.2351 45.8427C39.9362 46.8209 38.9036 47.2547 37.8444 47.2547C36.3776 47.2547 35.6983 46.6843 35.4265 45.7879C35.3451 45.4899 35.318 45.1638 35.2908 44.8377C35.2637 44.4845 35.2908 44.1036 35.2908 43.6971V39.0779H30.944V45.2181C30.944 46.6043 31.4062 47.6364 32.1665 48.3424C33.4704 49.6196 35.6712 50 37.7087 50C40.1808 50 42.0827 49.6468 43.4409 48.3157C44.1478 47.6359 44.6634 46.7395 44.6634 45.1905ZM23.5813 44.4297C23.3661 44.3923 23.148 44.3743 22.9296 44.3759H18.0396C17.7949 44.3759 17.5231 44.4031 17.3874 44.4297C17.4688 44.3479 17.6321 44.1855 17.7949 43.968L19.9952 40.3271C20.2942 39.8387 20.4299 39.5126 20.4841 39.3769C20.5384 39.5126 20.6741 39.8387 20.973 40.3552L23.2281 44.0231C23.3371 44.1855 23.4999 44.3479 23.5813 44.4297ZM31.7861 49.6463L22.0056 34.9762H16.5181L17.9577 36.6876C17.9848 36.7148 18.0396 36.7415 18.0934 36.7695C18.0391 36.7967 17.9848 36.8233 17.9577 36.8505L9.42729 49.6463H14.3716L15.7031 47.4455C15.7574 47.337 15.7845 47.228 15.7845 47.1742C15.8388 47.1742 15.9749 47.228 16.1106 47.228H24.94C25.0757 47.228 25.1842 47.2008 25.2385 47.1742C25.2335 47.2506 25.2525 47.3266 25.2927 47.3917L26.6785 49.6463H31.7861ZM62.4858 44.1317C62.4858 42.9359 61.9965 41.5501 60.4755 39.6211L56.8075 34.9758H51.6999L54.6067 38.2358C55.0961 38.7794 55.7207 39.2679 55.7207 39.2679C55.0147 38.8599 54.1183 38.6976 53.4118 38.6976C51.7275 38.6976 50.0152 39.0508 48.4946 39.8934C46.8642 40.7889 45.7773 42.2837 45.7773 44.2674C45.7773 45.7884 46.4567 46.9571 47.3259 47.8535C49.2825 49.8091 52.8406 49.9995 54.1449 49.9995C56.0734 49.9995 59.0892 49.5649 60.8016 48.0163C61.807 47.0923 62.4858 45.816 62.4858 44.1317ZM58.2476 44.2674C58.2476 45.3813 57.5135 46.223 56.59 46.6848C55.8292 47.0928 54.9323 47.2013 54.1449 47.2013C53.3575 47.2013 52.4335 47.038 51.6728 46.6577C50.7492 46.1959 50.0423 45.2995 50.0423 44.3212C50.0423 43.1534 50.9387 42.2289 51.9989 41.7672C52.6511 41.4691 53.4389 41.3601 54.0631 41.3601C54.6614 41.3601 55.5307 41.4411 56.21 41.7134C57.433 42.2289 58.2476 43.2072 58.2476 44.2674ZM66.7025 2.024e-05C63.5216 -0.00511512 60.4328 1.06803 57.9403 3.04433C55.4479 1.0679 52.3591 -0.00526048 49.1781 2.024e-05C45.9973 -0.0049021 42.9088 1.06823 40.4163 3.04433C37.9241 1.06781 34.8354 -0.00537451 31.6546 2.024e-05C28.4738 -0.0049021 25.3853 1.06823 22.8928 3.04433C20.4004 1.06816 17.3118 -0.00497475 14.131 2.024e-05C6.32549 2.024e-05 0 6.32505 0 14.1311C0 21.9362 6.32503 28.2621 14.131 28.2621C17.3118 28.267 20.4003 27.1939 22.8928 25.2178C25.3852 27.194 28.4738 28.2671 31.6546 28.2621C34.8354 28.2674 37.9241 27.1942 40.4163 25.2178C42.9088 27.1939 45.9973 28.267 49.1781 28.2621C52.3591 28.2673 55.4478 27.1942 57.9403 25.2178C60.4328 27.1942 63.5216 28.2673 66.7025 28.2621C74.5081 28.2621 80.8331 21.9366 80.8331 14.1311C80.8331 6.32551 74.5081 2.024e-05 66.7025 2.024e-05ZM20.5807 22.9094C18.7801 24.223 16.5305 25.0246 14.131 25.0246C8.10958 25.0246 3.23702 20.1525 3.23702 14.1311C3.23702 8.10959 8.10958 3.23704 14.131 3.23704C16.5305 3.23704 18.7787 4.03917 20.5807 5.3532C18.5953 7.84754 17.5173 10.943 17.524 14.1311C17.5255 17.3179 18.6025 20.4109 20.5807 22.9094ZM22.8933 20.6037C21.5046 18.7318 20.7569 16.4618 20.7615 14.1311C20.7556 11.8001 21.5034 9.52968 22.8933 7.6584C24.2829 9.52981 25.0306 11.8001 25.0251 14.1311C25.0294 16.4618 24.2818 18.7318 22.8933 20.6037ZM38.1047 22.9094C36.2339 24.2867 33.9703 25.027 31.6472 25.0214C29.3289 25.0261 27.0704 24.2857 25.2049 22.9094C27.1833 20.4112 28.2604 17.3182 28.2616 14.1315C28.2683 10.9435 27.1903 7.848 25.2049 5.35366C27.0703 3.97693 29.3288 3.23634 31.6472 3.24118C34.0642 3.24118 36.2972 4.02307 38.1047 5.35366C36.1193 7.848 35.0413 10.9435 35.048 14.1315C35.0493 17.3182 36.1264 20.4111 38.1047 22.9094ZM40.4163 20.6037C39.0276 18.7318 38.28 16.4618 38.2845 14.1311C38.2789 11.8001 39.0267 9.52978 40.4163 7.6584C41.8063 9.52966 42.5542 11.8001 42.5486 14.1311C42.553 16.4619 41.8052 18.7319 40.4163 20.6037ZM55.6282 22.9094C53.8207 24.2404 51.5877 25.0214 49.1712 25.0214C46.7547 25.0214 44.536 24.239 42.7284 22.9094C44.707 20.4113 45.7841 17.3183 45.7852 14.1315C45.7918 10.9435 44.7139 7.848 42.7284 5.35366C44.536 4.02353 46.7547 3.24118 49.1712 3.24118C51.5877 3.24118 53.8207 4.02307 55.6282 5.35366C53.643 7.84812 52.5651 10.9435 52.5715 14.1315C52.5731 17.3182 53.6501 20.411 55.6282 22.9094ZM57.9408 20.6037C56.5521 18.7318 55.8044 16.4618 55.809 14.1311C55.8029 11.8001 56.5507 9.52958 57.9408 7.6584C59.3304 9.52981 60.0781 11.8001 60.0726 14.1311C60.0767 16.4618 59.3292 18.7317 57.9408 20.6037ZM66.7025 25.0246C64.3021 25.0246 62.0531 24.223 60.2529 22.9094C62.2311 20.4111 63.3081 17.3182 63.3096 14.1315C63.316 10.9435 62.2381 7.84812 60.2529 5.35366C62.0549 4.04009 64.3026 3.2375 66.7025 3.2375C72.7231 3.2375 77.5966 8.11005 77.5966 14.1315C77.5966 20.1521 72.7231 25.0246 66.7025 25.0246Z" fill="white"/>
</svg>
