<svg width="50" height="50" viewBox="0 0 50 50" fill="none" xmlns="http://www.w3.org/2000/svg">
<path d="M12.8109 36.1664C13.9383 35.0594 15.4828 34.375 17.1875 34.375H32.8125C34.5172 34.375 36.0609 35.0594 37.1891 36.1664L37.2867 35.8156C37.4281 35.3055 37.5 34.7828 37.5 34.2609C37.5 33.9977 37.482 33.7305 37.4453 33.4664L35.5688 19.8609C35.1742 17.0008 32.6992 14.8438 29.8117 14.8438H20.1883C17.3008 14.8438 14.8258 17.0008 14.4313 19.8609L12.5547 33.4664C12.5187 33.7305 12.5 33.9977 12.5 34.2609C12.5 34.782 12.5719 35.3047 12.7133 35.8141L12.8109 36.1664Z" fill="#F5B754"/>
<path d="M30.925 20.5016L32.0984 29.0133L33.6461 28.8L32.4727 20.2883C32.2937 18.9875 31.1242 17.9688 29.8117 17.9688H28.125V19.5312H29.8117C30.3523 19.5312 30.8516 19.9664 30.925 20.5016Z" fill="white"/>
<path d="M32.3362 30.5781L33.884 30.3642L34.1 31.9266L32.5522 32.1406L32.3362 30.5781Z" fill="white"/>
<path d="M40.5781 39.8438C41.6203 38.1797 42.1875 36.2273 42.1875 34.2609C42.1875 33.7836 42.1547 33.3008 42.0891 32.8266L40.2125 19.2203C39.7641 15.9703 37.8281 13.2258 35.1562 11.6336V8.59375H35.9375C37.2297 8.59375 38.2812 7.54219 38.2812 6.25V4.6875C38.2812 2.53359 36.5289 0.78125 34.375 0.78125H15.625C13.4711 0.78125 11.7188 2.53359 11.7188 4.6875V6.25C11.7188 7.54219 12.7703 8.59375 14.0625 8.59375H14.8438V11.6344C12.1719 13.2258 10.2359 15.9711 9.7875 19.2211L7.91094 32.8273C7.84531 33.3008 7.8125 33.7828 7.8125 34.2609C7.8125 36.2273 8.37969 38.1797 9.42188 39.8438H6.25V42.1875C6.25 46.0648 9.40469 49.2188 13.2812 49.2188H36.7188C40.5953 49.2188 43.75 46.0648 43.75 42.1875V39.8438H40.5781ZM13.2812 6.25V4.6875C13.2812 3.39531 14.3328 2.34375 15.625 2.34375H34.375C35.6672 2.34375 36.7188 3.39531 36.7188 4.6875V6.25C36.7188 6.68047 36.368 7.03125 35.9375 7.03125H14.0625C13.632 7.03125 13.2812 6.68047 13.2812 6.25ZM16.4062 8.59375H33.5938V10.8703C32.4141 10.4102 31.1375 10.1562 29.8117 10.1562H20.1883C18.8625 10.1562 17.5859 10.4102 16.4062 10.8703V8.59375ZM9.45859 33.0398L11.3352 19.4336C11.9422 15.0359 15.7484 11.7188 20.1883 11.7188H29.8117C34.2516 11.7188 38.0578 15.0359 38.6648 19.4336L40.5414 33.0398C40.5969 33.4437 40.625 33.8547 40.625 34.2609C40.625 35.7523 40.2383 37.2313 39.5273 38.5391C38.6367 35.6766 35.9633 33.5938 32.8125 33.5938H17.1875C14.0367 33.5938 11.3633 35.6773 10.4727 38.5383C9.76172 37.2313 9.375 35.7523 9.375 34.2609C9.375 33.8547 9.40313 33.4437 9.45859 33.0398ZM38.2187 39.8438H11.7812C12.1625 37.1984 14.4383 35.1562 17.1875 35.1562H32.8125C35.5617 35.1562 37.8375 37.1984 38.2187 39.8438ZM42.1875 42.1875C42.1875 45.2023 39.7344 47.6562 36.7188 47.6562H13.2812C10.2656 47.6562 7.8125 45.2023 7.8125 42.1875V41.4062H42.1875V42.1875Z" fill="white"/>
</svg>
