<svg width="30" height="30" viewBox="0 0 30 30" fill="none" xmlns="http://www.w3.org/2000/svg">
<path d="M23.5788 20.2989L22.5086 19.4246L21.2219 15.2195C21.1613 15.0241 21.0517 14.8476 20.9035 14.7066C20.7553 14.5657 20.5735 14.4651 20.3753 14.4144C18.6149 13.9955 16.8102 13.7914 15.0006 13.8064C13.1911 13.7914 11.3864 13.9955 9.62594 14.4144C9.4275 14.4649 9.24537 14.5656 9.09701 14.7067C8.94865 14.8479 8.83903 15.0248 8.77868 15.2204L7.49196 19.4256L6.4225 20.2989C6.19603 20.4834 6.01359 20.7161 5.88846 20.98C5.76333 21.244 5.69868 21.5325 5.69922 21.8246V24.9875C5.69991 25.2687 5.80018 25.5405 5.98223 25.7547C6.16428 25.9689 6.41634 26.1117 6.69368 26.1578V27.7351C6.69392 28.0095 6.80302 28.2725 6.99703 28.4665C7.19103 28.6605 7.45408 28.7696 7.72844 28.7699H9.56125C9.83561 28.7696 10.0987 28.6605 10.2927 28.4665C10.4867 28.2725 10.5958 28.0095 10.596 27.7351V26.1777H19.4069V27.7349C19.4072 28.0093 19.5163 28.2724 19.7104 28.4664C19.9044 28.6604 20.1675 28.7696 20.4419 28.7699H22.2742C22.5486 28.7696 22.8117 28.6604 23.0057 28.4664C23.1998 28.2724 23.3089 28.0093 23.3092 27.7349V26.1578C23.5866 26.1117 23.8386 25.9689 24.0207 25.7547C24.2027 25.5405 24.303 25.2687 24.3037 24.9875V21.8246C24.304 21.5324 24.2392 21.2438 24.1137 20.9798C23.9883 20.7158 23.8055 20.4832 23.5788 20.2989ZM9.77407 27.7351C9.77407 27.792 9.75147 27.8465 9.71125 27.8868C9.67104 27.927 9.61649 27.9496 9.55961 27.9496H7.7268C7.66992 27.9496 7.61538 27.927 7.57516 27.8868C7.53494 27.8465 7.51235 27.792 7.51235 27.7351V26.1777H9.77407V27.7351ZM22.2728 27.9496H20.4412C20.3843 27.9495 20.3297 27.9269 20.2894 27.8866C20.2492 27.8464 20.2265 27.7918 20.2265 27.7349V26.1777H22.4882V27.7349C22.4881 27.7918 22.4655 27.8464 22.4253 27.8866C22.385 27.9269 22.3304 27.9495 22.2735 27.9496H22.2728ZM23.482 24.9875C23.4818 25.0856 23.4428 25.1796 23.3735 25.2489C23.3042 25.3182 23.2102 25.3573 23.1121 25.3574H6.88844C6.79039 25.3573 6.69639 25.3182 6.62706 25.2489C6.55773 25.1796 6.51872 25.0856 6.5186 24.9875V21.8246C6.51818 21.6541 6.55584 21.4857 6.62883 21.3316C6.70182 21.1775 6.80829 21.0417 6.94047 20.934L8.10719 19.981C8.16989 19.9296 8.21603 19.8608 8.23985 19.7832L9.56313 15.4593C9.58143 15.3982 9.61534 15.343 9.6615 15.2992C9.70766 15.2553 9.76447 15.2242 9.82633 15.2089C11.5212 14.8066 13.2587 14.6111 15.0006 14.6268C16.7425 14.6111 18.4798 14.8066 20.1747 15.2089C20.2366 15.2241 20.2935 15.2552 20.3397 15.2992C20.3859 15.3431 20.4199 15.3984 20.4381 15.4595L21.7614 19.7835C21.7852 19.861 21.8314 19.9298 21.8941 19.9813L23.0608 20.934C23.1929 21.0417 23.2994 21.1776 23.3724 21.3317C23.4453 21.4857 23.483 21.6542 23.4827 21.8246L23.482 24.9875Z" fill="black"/>
<path d="M9.39772 19.9564C11.2564 20.1851 13.1283 20.2895 15.0009 20.2689C16.8735 20.2895 18.7454 20.1851 20.6041 19.9564C20.6631 19.9484 20.7196 19.9276 20.7697 19.8956C20.8198 19.8635 20.8624 19.8209 20.8944 19.7708C20.9265 19.7206 20.9472 19.6641 20.9553 19.6052C20.9633 19.5462 20.9584 19.4862 20.9409 19.4293L19.9083 16.0543C19.887 15.9846 19.8476 15.9218 19.7941 15.8724C19.7405 15.823 19.6748 15.7887 19.6036 15.7731C18.0902 15.455 16.5473 15.2991 15.0009 15.3081C13.4545 15.298 11.9114 15.4539 10.3983 15.7731C10.3271 15.7887 10.2614 15.823 10.2078 15.8724C10.1543 15.9219 10.1149 15.9846 10.0936 16.0543L9.06092 19.4293C9.04353 19.4862 9.0387 19.5461 9.04676 19.605C9.05483 19.6639 9.0756 19.7203 9.10763 19.7704C9.13967 19.8204 9.1822 19.863 9.23229 19.895C9.28238 19.927 9.33882 19.9477 9.39772 19.9557V19.9564ZM10.808 16.5252C12.1889 16.2535 13.5935 16.1206 15.0009 16.1284C16.4086 16.1217 17.8135 16.2552 19.1948 16.5268L20.0137 19.2036C18.3488 19.38 16.6751 19.4618 15.0009 19.4485C13.3267 19.4619 11.6531 19.3803 9.98811 19.2041L10.808 16.5252Z" fill="black"/>
<path d="M16.7544 22.2061H13.2472C13.1315 22.206 13.0173 22.2317 12.9128 22.2813C12.8083 22.3309 12.7161 22.4032 12.643 22.4928C12.5699 22.5825 12.5177 22.6873 12.4902 22.7997C12.4626 22.912 12.4605 23.0291 12.4838 23.1424L12.7079 24.2322C12.7444 24.4078 12.8402 24.5655 12.9792 24.6788C13.1182 24.7922 13.2919 24.8543 13.4712 24.8547H16.5303C16.7096 24.8543 16.8834 24.7922 17.0224 24.6788C17.1614 24.5655 17.2571 24.4078 17.2937 24.2322L17.5177 23.1424C17.5411 23.0291 17.5389 22.912 17.5114 22.7997C17.4838 22.6873 17.4316 22.5825 17.3585 22.4928C17.2854 22.4032 17.1933 22.3309 17.0888 22.2813C16.9843 22.2317 16.87 22.206 16.7544 22.2061ZM13.2971 23.0264H14.5906V24.0342H13.5045L13.2971 23.0264ZM16.497 24.0342H15.4109V23.0264H16.7044L16.497 24.0342Z" fill="#F5B754"/>
<path d="M22.4796 22.237C22.3276 22.1204 22.1505 22.0409 21.9624 22.0046C21.7743 21.9684 21.5803 21.9766 21.3959 22.0284L19.9139 22.4392C19.7007 22.4988 19.5129 22.6265 19.3789 22.8027C19.245 22.9789 19.1723 23.1941 19.1719 23.4154V23.8181C19.1722 24.0867 19.279 24.3442 19.469 24.5341C19.6589 24.724 19.9165 24.8308 20.1851 24.831H21.957C22.2253 24.8303 22.4824 24.7234 22.6721 24.5335C22.8617 24.3437 22.9684 24.0864 22.9687 23.8181V23.2251C22.9696 23.0337 22.9258 22.8448 22.8409 22.6733C22.756 22.5017 22.6323 22.3524 22.4796 22.237ZM22.1491 23.8181C22.1491 23.8692 22.1287 23.9182 22.0926 23.9543C22.0564 23.9904 22.0074 24.0107 21.9562 24.0107H20.1844C20.1333 24.0107 20.0842 23.9904 20.0481 23.9543C20.0119 23.9182 19.9915 23.8692 19.9915 23.8181V23.4154C19.9915 23.3734 20.0053 23.3325 20.0307 23.299C20.056 23.2655 20.0917 23.2412 20.1321 23.2298L21.6143 22.8189C21.6513 22.8087 21.6896 22.8035 21.728 22.8034C21.8396 22.8038 21.9466 22.8484 22.0254 22.9275C22.1042 23.0066 22.1484 23.1137 22.1484 23.2253L22.1491 23.8181Z" fill="black"/>
<path d="M10.0863 22.439L8.60391 22.0282C8.41954 21.9773 8.22591 21.9697 8.03811 22.0059C7.85031 22.0421 7.67342 22.1212 7.52121 22.2371C7.36901 22.3529 7.2456 22.5023 7.16062 22.6736C7.07563 22.845 7.03136 23.0336 7.03125 23.2249V23.8179C7.03156 24.0865 7.13842 24.344 7.32837 24.5339C7.51832 24.7238 7.77585 24.8306 8.04445 24.8308H9.81633C10.0849 24.8306 10.3425 24.7238 10.5324 24.5339C10.7224 24.344 10.8292 24.0865 10.8295 23.8179V23.4152C10.829 23.1937 10.7561 22.9785 10.622 22.8022C10.4878 22.626 10.2997 22.4985 10.0863 22.439ZM10.0085 23.8179C10.0085 23.869 9.9881 23.918 9.95194 23.9541C9.91577 23.9902 9.86674 24.0105 9.81563 24.0105H8.04375C7.99263 24.0105 7.94361 23.9902 7.90744 23.9541C7.87127 23.918 7.85092 23.869 7.85086 23.8179V23.2249C7.85086 23.1132 7.89511 23.0061 7.97393 22.9271C8.05274 22.848 8.15968 22.8034 8.27133 22.803C8.30966 22.8031 8.34782 22.8083 8.38477 22.8185L9.86719 23.2296C9.90763 23.241 9.94325 23.2653 9.96863 23.2988C9.99401 23.3323 10.0078 23.3732 10.0078 23.4152L10.0085 23.8179Z" fill="black"/>
<path d="M21.357 1.23047C20.0839 1.23486 18.8616 1.73004 17.9444 2.61295C17.0272 3.49586 16.4858 4.69847 16.433 5.97047C16.3801 7.24246 16.8199 8.48583 17.6607 9.44178C18.5014 10.3977 19.6785 10.9926 20.9468 11.1026V13.0366C20.9468 13.1454 20.99 13.2497 21.067 13.3267C21.1439 13.4036 21.2482 13.4468 21.357 13.4468C21.4658 13.4468 21.5701 13.4036 21.647 13.3267C21.7239 13.2497 21.7671 13.1454 21.7671 13.0366V11.1026C23.0355 10.9926 24.2125 10.3977 25.0533 9.44178C25.8941 8.48583 26.3338 7.24246 26.281 5.97047C26.2281 4.69847 25.6868 3.49586 24.7696 2.61295C23.8524 1.73004 22.6301 1.23486 21.357 1.23047ZM21.357 6.77508C21.0989 6.77512 20.8465 6.69863 20.6319 6.55526C20.4173 6.41189 20.25 6.2081 20.1512 5.96964C20.0523 5.73119 20.0265 5.46879 20.0768 5.21563C20.1271 4.96247 20.2514 4.72992 20.4339 4.54739C20.6164 4.36486 20.8489 4.24054 21.1021 4.19017C21.3552 4.1398 21.6176 4.16563 21.8561 4.26439C22.0946 4.36316 22.2984 4.53042 22.4418 4.74503C22.5852 4.95965 22.6618 5.21196 22.6618 5.47008C22.6614 5.81603 22.5238 6.14771 22.2792 6.39236C22.0346 6.63701 21.7029 6.77464 21.357 6.77508ZM20.5132 7.41937C20.7794 7.53526 21.0667 7.59507 21.357 7.59507C21.6473 7.59507 21.9345 7.53526 22.2007 7.41937L23.4985 7.70648C23.6347 7.73745 23.7565 7.81362 23.844 7.92261C23.9314 8.0316 23.9794 8.16698 23.9801 8.30672V9.35883C23.2419 9.96898 22.3142 10.3028 21.3565 10.3028C20.3988 10.3028 19.4711 9.96898 18.7329 9.35883V8.30648C18.7322 8.16638 18.7797 8.03029 18.8674 7.92101C18.9551 7.81174 19.0776 7.73591 19.2146 7.70625L20.5132 7.41937ZM24.8023 8.44359V8.30695C24.8039 7.97981 24.693 7.66205 24.4882 7.40695C24.2834 7.15186 23.9971 6.97494 23.6773 6.90586L23.0396 6.76523C23.2825 6.45091 23.4325 6.07477 23.4724 5.67952C23.5124 5.28427 23.4408 4.88572 23.2657 4.52912C23.0906 4.17251 22.8191 3.87212 22.4819 3.66204C22.1447 3.45196 21.7554 3.34061 21.3582 3.34061C20.9609 3.34061 20.5716 3.45196 20.2344 3.66204C19.8972 3.87212 19.6257 4.17251 19.4506 4.52912C19.2755 4.88572 19.2039 5.28427 19.2439 5.67952C19.2838 6.07477 19.4338 6.45091 19.6768 6.76523L19.039 6.90586C18.7192 6.9749 18.4329 7.15181 18.2281 7.40691C18.0232 7.66202 17.9123 7.9798 17.914 8.30695V8.44406C17.5035 7.82207 17.2691 7.1005 17.2357 6.35599C17.2023 5.61147 17.3711 4.87181 17.7243 4.21555C18.0775 3.55928 18.6018 3.01092 19.2415 2.62868C19.8813 2.24644 20.6127 2.04461 21.3579 2.04461C22.1032 2.04461 22.8345 2.24644 23.4743 2.62868C24.1141 3.01092 24.6384 3.55928 24.9916 4.21555C25.3447 4.87181 25.5136 5.61147 25.4802 6.35599C25.4468 7.1005 25.2124 7.82207 24.8018 8.44406L24.8023 8.44359Z" fill="black"/>
<path d="M8.2336 13.0366C8.2336 13.1453 8.27681 13.2497 8.35373 13.3266C8.43065 13.4035 8.53497 13.4467 8.64375 13.4467C8.75253 13.4467 8.85686 13.4035 8.93378 13.3266C9.0107 13.2497 9.05391 13.1453 9.05391 13.0366V11.1025C10.3259 10.9967 11.5077 10.4033 12.3523 9.44633C13.1969 8.48941 13.6389 7.24305 13.586 5.96779C13.533 4.69254 12.9892 3.48712 12.0681 2.60352C11.1471 1.71993 9.92011 1.22656 8.64375 1.22656C7.3674 1.22656 6.14045 1.71993 5.2194 2.60352C4.29835 3.48712 3.75449 4.69254 3.70153 5.96779C3.64857 7.24305 4.0906 8.48941 4.93521 9.44633C5.77982 10.4033 6.96164 10.9967 8.2336 11.1025V13.0366ZM8.64375 6.775C8.38564 6.77504 8.13331 6.69855 7.91867 6.55518C7.70403 6.41181 7.53673 6.20801 7.43792 5.96956C7.33912 5.73111 7.31324 5.46871 7.36357 5.21555C7.41389 4.96239 7.53816 4.72984 7.72066 4.54731C7.90316 4.36477 8.13569 4.24046 8.38884 4.19009C8.64199 4.13972 8.9044 4.16555 9.14287 4.26431C9.38134 4.36308 9.58517 4.53034 9.72857 4.74495C9.87198 4.95956 9.94852 5.21188 9.94852 5.47C9.94809 5.81593 9.81049 6.14757 9.5659 6.39221C9.32131 6.63684 8.98969 6.7745 8.64375 6.775ZM7.8 7.41953C8.0662 7.53542 8.35342 7.59522 8.64375 7.59522C8.93408 7.59522 9.2213 7.53542 9.4875 7.41953L10.7852 7.70687C10.9222 7.73654 11.0447 7.81236 11.1324 7.92163C11.2201 8.03091 11.2676 8.167 11.2669 8.30711V9.35945C10.5287 9.9696 9.60097 10.3034 8.64328 10.3034C7.6856 10.3034 6.75785 9.9696 6.01969 9.35945V8.30687C6.0204 8.16714 6.06839 8.03175 6.15584 7.92276C6.2433 7.81378 6.36507 7.7376 6.50133 7.70664L7.8 7.41953ZM4.51875 6.17734C4.51795 5.53384 4.66767 4.89906 4.95595 4.32374C5.24423 3.74842 5.66307 3.2485 6.17902 2.86392C6.69497 2.47935 7.29371 2.22078 7.92741 2.10888C8.56111 1.99698 9.2122 2.03485 9.82866 2.21946C10.4451 2.40407 11.0098 2.73031 11.4777 3.17211C11.9456 3.6139 12.3037 4.15901 12.5233 4.76388C12.743 5.36874 12.8181 6.01659 12.7427 6.65566C12.6673 7.29473 12.4434 7.90731 12.0891 8.44445V8.30734C12.0907 7.98018 11.9799 7.6624 11.775 7.4073C11.5702 7.1522 11.2839 6.97529 10.9641 6.90625L10.3266 6.76562C10.5696 6.45127 10.7196 6.07509 10.7597 5.67978C10.7997 5.28446 10.7281 4.88584 10.553 4.52916C10.3779 4.17247 10.1063 3.87202 9.76911 3.66189C9.43188 3.45176 9.0425 3.34038 8.64516 3.34038C8.24782 3.34038 7.85844 3.45176 7.52121 3.66189C7.18398 3.87202 6.91241 4.17247 6.73732 4.52916C6.56223 4.88584 6.49063 5.28446 6.53066 5.67978C6.57068 6.07509 6.72072 6.45127 6.96375 6.76562L6.32602 6.90625C6.00625 6.97533 5.71995 7.15225 5.51512 7.40734C5.31029 7.66244 5.1994 7.9802 5.20102 8.30734V8.44398C4.75515 7.77196 4.51742 6.98335 4.51758 6.17687L4.51875 6.17734Z" fill="black"/>
</svg>
