<svg width="40" height="40" viewBox="0 0 40 40" fill="none" xmlns="http://www.w3.org/2000/svg">
<g clip-path="url(#clip0_637_344)">
<path d="M20 0.625C9.31625 0.625 0.625 9.31625 0.625 20C0.625 28.4969 6.125 35.7281 13.75 38.335V35H15L15.0006 34.1437C9.18 32.08 5 26.5187 5 20C5 11.7294 11.7294 5 20 5C28.2706 5 35 11.7294 35 20C35 26.5187 30.82 32.08 24.9994 34.1437L25 35H26.25V38.335C33.875 35.7281 39.375 28.4969 39.375 20C39.375 9.31625 30.6838 0.625 20 0.625Z" fill="#F5B754"/>
<path d="M10.625 18.125H8.125C7.43562 18.125 6.875 18.6856 6.875 19.375V20.625C6.875 21.3144 7.43562 21.875 8.125 21.875H10.625C11.3144 21.875 11.875 21.3144 11.875 20.625V19.375C11.875 18.6856 11.3144 18.125 10.625 18.125ZM8.125 20.625V19.375H10.625L10.6263 20.625H8.125Z" fill="white"/>
<path d="M35.625 20C35.625 11.3844 28.6156 4.375 20 4.375C11.3844 4.375 4.375 11.3844 4.375 20C4.375 26.2856 8.1625 31.94 13.8881 34.375H13.125V39.375H26.875V34.375H26.1119C31.8375 31.94 35.625 26.2856 35.625 20ZM33.6906 23.125C32.2944 23.125 30.8456 23.245 29.3731 23.4706C29.3731 23.4669 29.375 23.4631 29.375 23.4594C29.375 22.5863 28.6613 21.875 27.785 21.875C26.44 21.875 25.2262 22.4475 24.375 23.3619V20C24.375 18.9663 23.5338 18.125 22.5 18.125C22.28 18.125 22.0713 18.17 21.875 18.24V17.5C21.875 16.4663 21.0338 15.625 20 15.625C18.9663 15.625 18.125 16.4663 18.125 17.5V17.615C17.9288 17.545 17.72 17.5 17.5 17.5C16.4663 17.5 15.625 18.3413 15.625 19.375V19.49C15.4288 19.42 15.22 19.375 15 19.375C13.9663 19.375 13.125 20.2163 13.125 21.25V23.9637C10.7531 23.4106 8.51063 23.125 6.30938 23.125H5.97625C5.75 22.1125 5.625 21.0669 5.625 20C5.625 18.9269 5.74687 17.8819 5.97125 16.875H14.2875L14.4738 16.6687C15.7913 15.2113 17.805 14.375 20 14.375C22.195 14.375 24.2087 15.2113 25.5262 16.6687L25.7125 16.875H34.0294C34.2531 17.8819 34.375 18.9269 34.375 20C34.375 21.0669 34.25 22.1125 34.0238 23.125H33.6906ZM24.375 32.9169V34.375H15.625V32.9775L14.705 31.1375C14.4894 30.7056 14.375 30.2225 14.375 29.74V21.25C14.375 20.905 14.655 20.625 15 20.625C15.345 20.625 15.625 20.905 15.625 21.25V23.75H16.875V21.25V19.375C16.875 19.03 17.155 18.75 17.5 18.75C17.845 18.75 18.125 19.03 18.125 19.375V23.75H19.375V19.375V17.5C19.375 17.155 19.655 16.875 20 16.875C20.345 16.875 20.625 17.155 20.625 17.5V20V23.75H21.875V20C21.875 19.655 22.155 19.375 22.5 19.375C22.845 19.375 23.125 19.655 23.125 20V27.5H24.375V26.535C24.375 24.6544 25.9044 23.125 27.785 23.125C27.9756 23.125 28.125 23.2719 28.125 23.4594C28.125 23.5256 28.1056 23.59 28.0688 23.645L27.4256 24.61C27.08 25.1275 26.8575 25.7275 26.7806 26.3444L26.3781 29.56C26.3113 30.0981 26.1038 30.6125 25.7775 31.0469L24.375 32.9169ZM20 5.625C26.4012 5.625 31.8369 9.83187 33.6919 15.625H26.2606C24.7094 14.0325 22.445 13.125 20 13.125C17.555 13.125 15.2913 14.0325 13.7394 15.625H6.30813C8.16313 9.83187 13.5988 5.625 20 5.625ZM6.30938 24.375C8.50187 24.375 10.74 24.6681 13.125 25.2456V29.74C13.125 30.4156 13.285 31.0925 13.5869 31.6963L14.345 33.2131C10.4706 31.5544 7.56438 28.2931 6.30938 24.375ZM25.625 38.125H14.375V35.625H25.625V38.125ZM25.7406 33.1794L26.7775 31.7969C27.2338 31.1887 27.5244 30.4688 27.6187 29.7144L28.0212 26.4994C28.0744 26.0737 28.2281 25.66 28.4663 25.3031L28.7775 24.8369C30.4575 24.5337 32.1106 24.375 33.6906 24.375C32.4444 28.2644 29.5731 31.5094 25.7406 33.1794Z" fill="white"/>
<path d="M26.875 18.125H28.125V19.375H26.875V18.125Z" fill="white"/>
<path d="M29.375 18.125H30.625V19.375H29.375V18.125Z" fill="white"/>
<path d="M31.875 18.125H33.125V19.375H31.875V18.125Z" fill="white"/>
<path d="M31.875 20.625H33.125V21.875H31.875V20.625Z" fill="white"/>
<path d="M29.375 20.625H30.625V21.875H29.375V20.625Z" fill="white"/>
<path d="M9.39187 14.6569C9.59687 14.2506 9.82875 13.8506 10.0806 13.4687L9.03687 12.7812C8.75937 13.2025 8.50312 13.6444 8.27625 14.0931L9.39187 14.6569Z" fill="white"/>
<path d="M20 8.125V6.875C16.16 6.875 12.5244 8.54938 10.0256 11.4688L10.9756 12.2819C13.2362 9.64 16.5256 8.125 20 8.125Z" fill="white"/>
</g>
<defs>
<clipPath id="clip0_637_344">
<rect width="40" height="40" fill="white"/>
</clipPath>
</defs>
</svg>
