<svg width="25" height="25" viewBox="0 0 25 25" fill="none" xmlns="http://www.w3.org/2000/svg">
<g clip-path="url(#clip0_855_1182)">
<path d="M15.5111 22.9647C16.5918 23.6629 17.8795 23.9672 19.1578 23.8264C20.4361 23.6855 21.627 23.1082 22.5303 22.1914L23.32 21.4181C23.6662 21.0634 23.86 20.5872 23.86 20.0912C23.86 19.5952 23.6662 19.1189 23.32 18.7643L19.9683 15.4426C19.6172 15.097 19.1445 14.9033 18.6522 14.9033C18.1599 14.9033 17.6873 15.097 17.3361 15.4426V15.4426C16.982 15.7893 16.5065 15.9835 16.0113 15.9835C15.516 15.9835 15.0405 15.7893 14.6864 15.4426L9.422 10.1701C9.24639 9.99682 9.10693 9.79025 9.01174 9.56245C8.91656 9.33466 8.86754 9.09018 8.86754 8.84324C8.86754 8.5963 8.91656 8.35182 9.01174 8.12403C9.10693 7.89623 9.24639 7.68966 9.422 7.51633V7.51633C9.76709 7.16466 9.96046 6.6913 9.96046 6.19822C9.96046 5.70513 9.76709 5.23178 9.422 4.8801L6.0879 1.54086C5.73379 1.19414 5.25825 1 4.76303 1C4.26781 1 3.79226 1.19414 3.43816 1.54086L2.66605 2.33173C1.75065 3.23639 1.17419 4.42913 1.03357 5.7094C0.892958 6.98967 1.19678 8.27939 1.89394 9.3617C5.52644 14.7233 10.1484 19.3404 15.5111 22.9647V22.9647Z" stroke="black" stroke-width="1.5" stroke-linecap="round" stroke-linejoin="round"/>
</g>
<defs>
<clipPath id="clip0_855_1182">
<rect width="25" height="25" fill="white"/>
</clipPath>
</defs>
</svg>
