<svg width="60" height="60" viewBox="0 0 60 60" fill="none" xmlns="http://www.w3.org/2000/svg">
<g clip-path="url(#clip0_637_106)">
<path d="M23.4375 40.3125C20.8491 40.3125 18.75 42.4116 18.75 45V46.875H22.5581C26.2903 46.875 29.4553 44.1309 29.9831 40.4353L30 40.3125H23.4375Z" fill="#F0BC5E"/>
<path d="M48.0066 21.5625C42.2925 21.5625 36.8785 23.6747 32.6869 27.465C32.7647 27.6712 32.8125 27.8916 32.8125 28.125C32.8125 30.1959 31.1335 31.875 29.0625 31.875H27.6375L26.5641 32.8125H55.3125V21.5625H48.0066Z" fill="#F0BC5E"/>
<path d="M59.0625 17.8125H48.75C47.8884 17.8125 47.0325 17.8538 46.1831 17.9288C47.8416 15.4509 48.75 12.54 48.75 9.51656V4.21875C48.75 2.41031 47.2781 0.9375 45.4688 0.9375C44.5931 0.9375 43.7691 1.27875 43.1484 1.8975C42.5288 2.51812 42.1875 3.34125 42.1875 4.21781V8.97187C42.1875 11.0691 40.8197 12.8522 38.8875 13.4466C39.7772 12.3263 40.3125 10.9134 40.3125 9.375C40.3125 5.75625 37.3688 2.8125 33.75 2.8125C30.1313 2.8125 27.1875 5.75625 27.1875 9.375C27.1875 11.3231 28.0453 13.0697 29.3972 14.2734L24.3056 17.5678C23.3269 15.3347 21.72 13.4653 19.695 12.1875H21.5625C22.5966 12.1875 23.4375 11.3466 23.4375 10.3125V8.4375C23.4375 7.40344 22.5966 6.5625 21.5625 6.5625H2.8125C1.77844 6.5625 0.9375 7.40344 0.9375 8.4375V53.4375H12.1875V56.25C12.1875 57.8006 13.4494 59.0625 15 59.0625H20.625C22.1756 59.0625 23.4375 57.8006 23.4375 56.25V53.3822C26.6906 53.0203 29.3841 50.8013 30.4453 47.8125H59.0625V17.8125ZM31.875 15.9356L33.6637 15.9338C33.6928 15.9338 33.7209 15.9375 33.75 15.9375C33.7809 15.9375 33.81 15.9338 33.84 15.9328H33.8438H33.8466C34.2244 15.9272 34.5928 15.8888 34.9528 15.8222L35.625 15.7547V15.9375C35.625 16.9716 34.7841 17.8125 33.75 17.8125C32.7159 17.8125 31.875 16.9716 31.875 15.9375V15.9356ZM29.0625 9.375C29.0625 6.79031 31.1653 4.6875 33.75 4.6875C36.3347 4.6875 38.4375 6.79031 38.4375 9.375C38.4375 11.9597 36.3347 14.0625 33.75 14.0625C31.1653 14.0625 29.0625 11.9597 29.0625 9.375ZM30.0169 16.1053C30.1069 18.0938 31.74 19.6875 33.75 19.6875C35.8181 19.6875 37.5 18.0056 37.5 15.9375V15.5672L38.1534 15.5016C41.5219 15.165 44.0625 12.3572 44.0625 8.97187V4.21781C44.0625 3.84281 44.2087 3.48937 44.4741 3.22406C44.7394 2.95875 45.0928 2.8125 45.4688 2.8125C46.2441 2.8125 46.875 3.44344 46.875 4.21875V9.51656C46.875 12.7575 45.6928 15.8541 43.5553 18.2812C38.9653 19.1109 34.6453 21.0328 30.9375 23.9128V20.625H28.7784L25.4334 22.8553L25.3013 21.3975C25.2384 20.7075 25.1016 20.0447 24.9328 19.3959L30.0169 16.1053ZM4.81406 45.9375L8.4375 41.5894V38.4375H2.8125V36.5625H15V41.5716C15 42.3234 14.7075 43.0303 14.1769 43.5609L11.7994 45.9375H4.81406ZM2.8125 45.4106V40.3125H6.5625V40.9106L2.8125 45.4106ZM6.64781 34.6875C6.59625 34.3781 6.5625 34.0659 6.5625 33.75C6.5625 30.6478 9.08531 28.125 12.1875 28.125C15.2897 28.125 17.8125 30.6478 17.8125 33.75C17.8125 34.0659 17.7769 34.3781 17.7253 34.6875H6.64781ZM15 26.6334C15 26.1253 15.2541 25.6575 15.6816 25.3819L19.7841 22.7269L20.1581 26.3719L17.9044 27.8747C17.6719 28.0294 17.4019 28.1091 17.1244 28.1184C16.5075 27.5766 15.8044 27.1322 15.0337 26.8153C15.0262 26.7534 15 26.6963 15 26.6334ZM18.4837 29.6897C18.6422 29.6166 18.7969 29.5322 18.9441 29.4347L20.3738 28.4812L20.9597 34.1934C20.535 34.3687 20.0916 34.4944 19.635 34.5769C19.6669 34.3031 19.6875 34.0275 19.6875 33.75C19.6875 32.2537 19.2422 30.8616 18.4837 29.6897ZM14.6625 23.8078C13.7888 24.3731 13.2403 25.2956 13.1447 26.3184C12.8306 26.2781 12.5128 26.25 12.1875 26.25C8.05219 26.25 4.6875 29.6147 4.6875 33.75C4.6875 34.065 4.71656 34.3772 4.755 34.6875H2.8125V15.9375H13.1644C16.1587 15.9375 18.6863 17.9091 19.4747 20.6944L14.6625 23.8078ZM15.5025 44.8866C16.3875 44.0016 16.875 42.8241 16.875 41.5716V36.5625H18.4556C20.7094 36.5625 22.8281 35.685 24.4219 34.0912L25.0556 33.4575L28.9181 41.1825L27.6966 43.0153C26.4769 44.8453 24.435 45.9375 22.2366 45.9375H14.4516L15.5025 44.8866ZM29.0625 25.3125H25.6575L25.6275 24.9797L29.0625 22.6894V25.3125ZM26.1684 30.9375L25.8272 27.1875H30.9375C31.4541 27.1875 31.875 27.6084 31.875 28.125C31.875 29.6756 30.6131 30.9375 29.0625 30.9375H26.1684ZM2.8125 8.4375H21.5625V10.3125H2.8125V8.4375ZM13.1644 12.1875C18.5334 12.1875 22.9481 16.2197 23.4347 21.5662L24.3394 31.5234L23.0972 32.7666C22.9809 32.8828 22.8572 32.9897 22.7334 33.0966L21.5681 21.7369C21.1688 17.3616 17.5566 14.0625 13.1644 14.0625H2.8125V12.1875H13.1644ZM2.8125 51.5625V47.8125H7.5C8.01656 47.8125 8.4375 48.2325 8.4375 48.75V50.625C8.4375 51.1425 8.01656 51.5625 7.5 51.5625H2.8125ZM20.625 57.1875H15C14.4834 57.1875 14.0625 56.7675 14.0625 56.25V53.4375H21.5625V56.25C21.5625 56.7675 21.1416 57.1875 20.625 57.1875ZM22.5 51.5625H10.14C10.245 51.2681 10.3125 50.955 10.3125 50.625V48.75C10.3125 48.42 10.245 48.1069 10.14 47.8125H22.2366C24.9562 47.8125 27.4772 46.5037 29.0625 44.3109V45C29.0625 48.6178 26.1187 51.5625 22.5 51.5625ZM57.1875 45.9375H30.8822C30.9169 45.6291 30.9375 45.3169 30.9375 45V41.0288L26.8294 32.8125H29.0625C31.6472 32.8125 33.75 30.7097 33.75 28.125C33.75 26.9306 32.9991 25.9153 31.9472 25.5075C36.7247 21.7434 42.6113 19.6875 48.75 19.6875H57.1875V45.9375Z" fill="white"/>
<path d="M49.6875 36.5625H55.3125V38.4375H49.6875V36.5625Z" fill="white"/>
<path d="M32.8125 42.1875H34.6875V44.0625H32.8125V42.1875Z" fill="white"/>
<path d="M36.5625 42.1875H38.4375V44.0625H36.5625V42.1875Z" fill="white"/>
<path d="M40.3125 42.1875H42.1875V44.0625H40.3125V42.1875Z" fill="white"/>
<path d="M4.6875 17.8125H6.5625V19.6875H4.6875V17.8125Z" fill="white"/>
<path d="M8.4375 17.8125H10.3125V19.6875H8.4375V17.8125Z" fill="white"/>
<path d="M12.1875 17.8125H14.0625V19.6875H12.1875V17.8125Z" fill="white"/>
</g>
<defs>
<clipPath id="clip0_637_106">
<rect width="60" height="60" fill="white"/>
</clipPath>
</defs>
</svg>
