<svg width="50" height="50" viewBox="0 0 50 50" fill="none" xmlns="http://www.w3.org/2000/svg">
<path d="M42.9688 29.6875C40.8117 29.6875 39.0625 31.4367 39.0625 33.5938V35.1562H42.1609C44.9516 35.1562 47.4039 33.3063 48.1703 30.6234L48.4375 29.6875H42.9688Z" fill="#F5B754"/>
<path d="M7.03125 29.6875C9.18828 29.6875 10.9375 31.4367 10.9375 33.5938V35.1562H7.83906C5.04844 35.1562 2.59609 33.3063 1.82969 30.6234L1.5625 29.6875H7.03125Z" fill="#F5B754"/>
<path d="M36.7188 25.7812V30.7367C36.7188 31.5656 36.3898 32.3602 35.8031 32.9461L33.5938 35.1562H16.4062L14.1969 32.9469C13.6102 32.3602 13.2812 31.5656 13.2812 30.7367V25.7812H36.7188Z" fill="#F5B754"/>
<path d="M10.3672 13.0562C10.4773 12.2937 11.143 11.7188 11.9133 11.7188H17.1875V10.1562H11.9133C10.3711 10.1562 9.04219 11.307 8.82109 12.8312L8.54297 14.7437L10.0891 14.9695L10.3672 13.0562Z" fill="black"/>
<path d="M49.2188 19.5312C49.2188 18.2391 48.1672 17.1875 46.875 17.1875H44.7406L44.1867 11.9281C43.8937 9.13594 41.5555 7.03125 38.7492 7.03125H37.9836L36.4211 3.90625H13.5797L12.0172 7.03125H11.2516C8.44453 7.03125 6.10703 9.13594 5.81328 11.9281L5.25938 17.1875H3.125C1.83281 17.1875 0.78125 18.2391 0.78125 19.5312C0.78125 21.5273 2.29219 23.1602 4.22813 23.3906L0.78125 30.2844V33.5938C0.78125 36.3477 2.37656 38.7297 4.6875 39.8828V44.5312C4.6875 45.8234 5.73906 46.875 7.03125 46.875H11.7188C13.0109 46.875 14.0625 45.8234 14.0625 44.5312V40.625H35.9375V44.5312C35.9375 45.8234 36.9891 46.875 38.2812 46.875H42.9688C44.2609 46.875 45.3125 45.8234 45.3125 44.5312V39.8828C47.6234 38.7297 49.2188 36.3469 49.2188 33.5938V30.2844L45.7719 23.3914C47.7078 23.1602 49.2188 21.5273 49.2188 19.5312ZM8.03203 34.375C6.19922 34.375 4.49844 33.4648 3.48203 31.9398L2.46406 30.4125L5.68281 23.975L6.21094 24.5031C7.53828 25.8313 9.30391 26.5625 11.182 26.5625H38.8172C40.6953 26.5625 42.4609 25.8313 43.7883 24.5031L44.3164 23.975L47.5352 30.4125L46.5172 31.9398C45.5016 33.4648 43.8 34.375 41.968 34.375H8.03203ZM21.5516 20.3125C21.7297 20.3125 21.875 20.4578 21.875 20.6359C21.875 20.7211 21.8406 20.8047 21.7805 20.8648L17.6453 25H15.9484L20.6359 20.3125H21.5516ZM13.7391 25H11.2609L21.4172 14.8438H21.7805C22.2633 14.8438 22.6562 15.2367 22.6562 15.7195C22.6562 15.95 22.5633 16.1758 22.4 16.3391L13.7391 25ZM38.7391 20.3125C38.9172 20.3125 39.0625 20.4578 39.0625 20.6359C39.0625 20.7211 39.0281 20.8047 38.968 20.8648L34.8328 25H33.1359L37.8234 20.3125H38.7391ZM30.9266 25H28.4484L38.6047 14.8438H38.968C39.4508 14.8438 39.8438 15.2367 39.8438 15.7195C39.8438 15.95 39.7508 16.1758 39.5875 16.3391L30.9266 25ZM46.875 18.75C47.3063 18.75 47.6562 19.1 47.6562 19.5312C47.6562 20.8234 46.6047 21.875 45.3125 21.875H45.2344L44.9055 18.75H46.875ZM14.5453 5.46875H35.4547L36.2359 7.03125H13.7641L14.5453 5.46875ZM7.36641 12.0914C7.57578 10.0977 9.24609 8.59375 11.2508 8.59375H38.7484C40.7531 8.59375 42.4234 10.0977 42.6336 12.0914L43.7148 22.368L42.6836 23.3992C41.6508 24.432 40.2773 25.0008 38.8172 25.0008H37.0422L40.0727 21.9703C40.4234 21.6187 40.625 21.1328 40.625 20.6359C40.625 19.7898 40.0617 19.0812 39.293 18.843L40.6922 17.4437C41.1461 16.9898 41.4062 16.3617 41.4062 15.7195C41.4062 14.375 40.3125 13.2812 38.968 13.2812H37.9578L26.2391 25H19.8547L22.8852 21.9695C23.2359 21.6187 23.4375 21.1328 23.4375 20.6359C23.4375 19.7898 22.8742 19.0812 22.1055 18.843L23.5047 17.4437C23.9586 16.9898 24.2188 16.3617 24.2188 15.7195C24.2188 14.375 23.125 13.2812 21.7805 13.2812H20.7703L9.36563 24.6859C8.60391 24.418 7.90391 23.9867 7.31563 23.3992L6.28437 22.368L7.36641 12.0914ZM2.34375 19.5312C2.34375 19.1 2.69375 18.75 3.125 18.75H5.09453L4.76562 21.875H4.6875C3.39531 21.875 2.34375 20.8234 2.34375 19.5312ZM2.34375 33.5938V33.0195C3.66406 34.8469 5.76562 35.9375 8.03203 35.9375H18.1125C18.025 36.1828 17.9688 36.4437 17.9688 36.7188V38.2812C17.9688 38.5563 18.025 38.8172 18.1125 39.0625H7.8125C4.79766 39.0625 2.34375 36.6086 2.34375 33.5938ZM12.5 44.5312C12.5 44.9625 12.15 45.3125 11.7188 45.3125H7.03125C6.6 45.3125 6.25 44.9625 6.25 44.5312V40.4438C6.75313 40.5586 7.275 40.625 7.8125 40.625H12.5V44.5312ZM20.3125 39.0625C19.8813 39.0625 19.5312 38.7125 19.5312 38.2812V36.7188C19.5312 36.2875 19.8813 35.9375 20.3125 35.9375H29.6875C30.1187 35.9375 30.4688 36.2875 30.4688 36.7188V38.2812C30.4688 38.7125 30.1187 39.0625 29.6875 39.0625H20.3125ZM43.75 44.5312C43.75 44.9625 43.4 45.3125 42.9688 45.3125H38.2812C37.85 45.3125 37.5 44.9625 37.5 44.5312V40.625H42.1875C42.725 40.625 43.2469 40.5586 43.75 40.4438V44.5312ZM42.1875 39.0625H31.8875C31.975 38.8172 32.0312 38.5563 32.0312 38.2812V36.7188C32.0312 36.4437 31.975 36.1828 31.8875 35.9375H41.968C44.2344 35.9375 46.3359 34.8469 47.6562 33.0195V33.5938C47.6562 36.6086 45.2023 39.0625 42.1875 39.0625Z" fill="black"/>
<path d="M18.75 10.1562H20.3125V11.7188H18.75V10.1562Z" fill="black"/>
<path d="M21.875 10.1562H23.4375V11.7188H21.875V10.1562Z" fill="black"/>
</svg>
