<svg width="30" height="30" viewBox="0 0 30 30" fill="none" xmlns="http://www.w3.org/2000/svg">
<path fill-rule="evenodd" clip-rule="evenodd" d="M7.81882 9.1582C7.62714 9.1582 7.46881 9.00403 7.46881 8.81236V5.6206C7.01046 6.02478 6.56045 6.20812 6.53545 6.22062C6.35627 6.29145 6.15627 6.20395 6.08127 6.02895C6.01043 5.84978 6.09793 5.6456 6.27294 5.57477C6.28544 5.5706 7.0813 5.23726 7.51881 4.5039C7.69798 4.2039 8.16466 4.3289 8.16466 4.67891V8.81236C8.16466 9.00403 8.01049 9.1582 7.81882 9.1582Z" fill="black"/>
<path fill-rule="evenodd" clip-rule="evenodd" d="M14.55 9.01614C13.775 9.01614 13.1416 8.38279 13.1416 7.60777C13.1416 7.4161 13.2999 7.26193 13.4916 7.26193C13.6833 7.26193 13.8375 7.4161 13.8375 7.60777C13.8375 7.99945 14.1583 8.32029 14.55 8.32029C14.9417 8.32029 15.2625 7.99945 15.2625 7.60777C15.2625 7.21609 14.9417 6.89525 14.55 6.89525C14.3583 6.89525 14.2041 6.74108 14.2041 6.54941C14.2041 6.35774 14.3583 6.20356 14.55 6.20356C14.8333 6.20356 15.0667 5.97022 15.0667 5.68688C15.0667 5.40354 14.8333 5.1702 14.55 5.1702C14.2666 5.1702 14.0333 5.40354 14.0333 5.68688C14.0333 5.87855 13.8791 6.03273 13.6875 6.03273C13.4958 6.03273 13.3416 5.87855 13.3416 5.68688C13.3416 5.0202 13.8833 4.47852 14.55 4.47852C15.6042 4.47852 16.1542 5.74522 15.4333 6.51191C15.7542 6.77025 15.9583 7.16609 15.9583 7.60777C15.9583 8.38279 15.325 9.01614 14.55 9.01614Z" fill="black"/>
<path fill-rule="evenodd" clip-rule="evenodd" d="M21.3215 9.01601C20.5464 9.01601 19.9131 8.38266 19.9131 7.60764C19.9131 7.41597 20.0673 7.2618 20.2589 7.2618C20.4506 7.2618 20.6089 7.41597 20.6089 7.60764C20.6089 7.99932 20.9256 8.32016 21.3215 8.32016C21.7131 8.32016 22.034 7.99932 22.034 7.60764C22.034 7.21596 21.7131 6.89512 21.3173 6.89512L20.3298 6.89095C20.1381 6.89095 19.9798 6.73678 19.9798 6.54511V5.16174C19.9798 4.80339 20.2756 4.51172 20.6339 4.51172H22.359C22.5507 4.51172 22.709 4.66589 22.709 4.85756C22.709 5.04923 22.5507 5.2034 22.359 5.2034H20.6756V6.19927H21.3215C22.0965 6.20343 22.7257 6.83262 22.7257 7.60764C22.7257 8.38266 22.0965 9.01601 21.3215 9.01601Z" fill="black"/>
<path fill-rule="evenodd" clip-rule="evenodd" d="M9.32211 25.4511H6.47203C6.16369 25.4511 6.00952 25.0761 6.22619 24.8594C6.35536 24.7303 6.58453 24.5177 6.88037 24.2427C7.42622 23.7386 8.17624 23.0469 8.55125 22.626C8.70543 22.4594 8.73876 22.2968 8.65959 22.1135C8.52625 21.8177 8.12624 21.5718 7.78457 21.5718C7.26372 21.5718 6.84287 21.9927 6.84287 22.5094C6.84287 22.701 6.6887 22.8552 6.49703 22.8552C6.30536 22.8552 6.15119 22.701 6.15119 22.5094C6.15119 21.6093 6.88037 20.876 7.7804 20.876C8.88043 20.876 9.95129 22.1135 9.06794 23.0927C8.66792 23.5344 7.90957 24.2386 7.35122 24.7553C7.35122 24.7553 7.35122 24.7553 7.34705 24.7553H9.32211C9.51378 24.7553 9.67212 24.9136 9.67212 25.1053C9.67212 25.2928 9.51378 25.4511 9.32211 25.4511Z" fill="black"/>
<path fill-rule="evenodd" clip-rule="evenodd" d="M15.1966 25.5431C15.0049 25.5431 14.8508 25.3848 14.8508 25.1931V24.2681H13.1966C12.9132 24.2681 12.7507 23.9472 12.9132 23.7181L14.9174 20.9305C15.1133 20.6555 15.5466 20.7972 15.5466 21.1347V23.5722H16.1216C16.3133 23.5722 16.4675 23.7264 16.4675 23.9181C16.4675 24.1097 16.3133 24.2681 16.1216 24.2681H15.5466V25.1931C15.5466 25.3848 15.3883 25.5431 15.1966 25.5431ZM13.8716 23.5722H14.8508V22.2097L13.8716 23.5722Z" fill="#F5B754"/>
<path fill-rule="evenodd" clip-rule="evenodd" d="M20.3793 25.6729C20.1876 25.6729 20.0293 25.5187 20.0293 25.327V21.3019C20.0293 21.1102 20.1876 20.9561 20.3793 20.9561C20.571 20.9561 20.7251 21.1102 20.7251 21.3019V25.327C20.7251 25.5187 20.571 25.6729 20.3793 25.6729Z" fill="black"/>
<path fill-rule="evenodd" clip-rule="evenodd" d="M22.0835 23.8061H20.3793C20.1876 23.8061 20.0293 23.652 20.0293 23.4603V21.3019C20.0293 21.1102 20.1876 20.9561 20.3793 20.9561H22.0835C22.871 20.9561 23.5127 21.5936 23.5127 22.3811C23.5127 23.1686 22.871 23.8061 22.0835 23.8061ZM20.7251 23.1144H22.0835C22.4877 23.1144 22.8169 22.7853 22.8169 22.3811C22.8169 21.9769 22.4877 21.6477 22.0835 21.6477H20.7251V23.1144Z" fill="black"/>
<path fill-rule="evenodd" clip-rule="evenodd" d="M23.2202 25.5921C23.1077 25.5921 22.9952 25.5337 22.9286 25.4296L21.791 23.6462C21.6869 23.4837 21.7369 23.2712 21.8952 23.167C22.0577 23.0628 22.2744 23.1128 22.3744 23.2712L23.5119 25.0587C23.6619 25.2921 23.4911 25.5921 23.2202 25.5921Z" fill="black"/>
<path fill-rule="evenodd" clip-rule="evenodd" d="M7.68471 20.0389C7.49304 20.0389 7.33887 19.8847 7.33887 19.693V10.3136C7.33887 10.1219 7.49304 9.96777 7.68471 9.96777C7.87638 9.96777 8.03055 10.1219 8.03055 10.3136V19.693C8.03055 19.8847 7.87638 20.0389 7.68471 20.0389Z" fill="black"/>
<path fill-rule="evenodd" clip-rule="evenodd" d="M14.631 20.0389C14.4393 20.0389 14.2852 19.8847 14.2852 19.693V10.3136C14.2852 10.1219 14.4393 9.96777 14.631 9.96777C14.8227 9.96777 14.9768 10.1219 14.9768 10.3136V19.693C14.9768 19.8847 14.8227 20.0389 14.631 20.0389Z" fill="black"/>
<path fill-rule="evenodd" clip-rule="evenodd" d="M21.5775 20.0389C21.3859 20.0389 21.2275 19.8847 21.2275 19.693V16.4846C21.2275 16.293 21.3859 16.1388 21.5775 16.1388C21.7692 16.1388 21.9234 16.293 21.9234 16.4846V19.693C21.9234 19.8847 21.7692 20.0389 21.5775 20.0389ZM21.5775 13.8679C21.3859 13.8679 21.2275 13.7137 21.2275 13.522V10.3136C21.2275 10.1219 21.3859 9.96777 21.5775 9.96777C21.7692 9.96777 21.9234 10.1219 21.9234 10.3136V13.522C21.9234 13.7137 21.7692 13.8679 21.5775 13.8679Z" fill="black"/>
<path fill-rule="evenodd" clip-rule="evenodd" d="M21.5768 15.3511H7.68471C7.49304 15.3511 7.33887 15.197 7.33887 15.0053C7.33887 14.8136 7.49304 14.6553 7.68471 14.6553H21.5768C21.7684 14.6553 21.9226 14.8136 21.9226 15.0053C21.9226 15.197 21.7684 15.3511 21.5768 15.3511Z" fill="black"/>
<path fill-rule="evenodd" clip-rule="evenodd" d="M24.2715 29.005H5.36265C2.40423 29.005 0 26.6007 0 23.6465V6.35848C0 3.40423 2.40423 1 5.36265 1H24.2715C27.2258 1 29.63 3.40423 29.63 6.35848V23.6465C29.63 26.6007 27.2258 29.005 24.2715 29.005ZM5.36265 1.69169C2.78758 1.69169 0.695853 3.78758 0.695853 6.35848V23.6465C0.695853 26.2174 2.78758 28.3133 5.36265 28.3133H24.2715C26.8424 28.3133 28.9341 26.2174 28.9341 23.6465V6.35848C28.9341 3.78758 26.8424 1.69169 24.2715 1.69169H5.36265Z" fill="black"/>
<path fill-rule="evenodd" clip-rule="evenodd" d="M24.2712 27.5058H5.36235C3.23312 27.5058 1.50391 25.7766 1.50391 23.6474V6.35942C1.50391 4.23019 3.23312 2.50098 5.36235 2.50098H24.2712C26.3963 2.50098 28.1297 4.23019 28.1297 6.35942V23.6474C28.1297 25.7766 26.3963 27.5058 24.2712 27.5058ZM5.36235 3.19683C3.61647 3.19683 2.19559 4.61354 2.19559 6.35942V23.6474C2.19559 25.3933 3.61647 26.81 5.36235 26.81H24.2712C26.0129 26.81 27.4338 25.3933 27.4338 23.6474V6.35942C27.4338 4.61354 26.0129 3.19683 24.2712 3.19683H5.36235Z" fill="black"/>
</svg>
