<svg width="40" height="40" viewBox="0 0 40 40" fill="none" xmlns="http://www.w3.org/2000/svg">
<path d="M10.2488 28.9331C11.1506 28.0475 12.3863 27.5 13.75 27.5H26.25C27.6138 27.5 28.8488 28.0475 29.7513 28.9331L29.8294 28.6525C29.9425 28.2444 30 27.8263 30 27.4088C30 27.1981 29.9856 26.9844 29.9562 26.7731L28.455 15.8888C28.1394 13.6006 26.1594 11.875 23.8494 11.875H16.1506C13.8406 11.875 11.8606 13.6006 11.545 15.8888L10.0437 26.7731C10.015 26.9844 10 27.1981 10 27.4088C10 27.8256 10.0575 28.2437 10.1706 28.6512L10.2488 28.9331Z" fill="#F5B754"/>
<path d="M24.74 16.4013L25.6787 23.2106L26.9169 23.04L25.9781 16.2306C25.835 15.19 24.8994 14.375 23.8494 14.375H22.5V15.625H23.8494C24.2819 15.625 24.6812 15.9731 24.74 16.4013Z" fill="white"/>
<path d="M25.869 24.4629L27.1072 24.2917L27.28 25.5417L26.0418 25.7129L25.869 24.4629Z" fill="white"/>
<path d="M32.4625 31.875C33.2962 30.5438 33.75 28.9819 33.75 27.4088C33.75 27.0269 33.7238 26.6406 33.6712 26.2613L32.17 15.3762C31.8113 12.7762 30.2625 10.5806 28.125 9.30688V6.875H28.75C29.7838 6.875 30.625 6.03375 30.625 5V3.75C30.625 2.02688 29.2231 0.625 27.5 0.625H12.5C10.7769 0.625 9.375 2.02688 9.375 3.75V5C9.375 6.03375 10.2162 6.875 11.25 6.875H11.875V9.3075C9.7375 10.5806 8.18875 12.7769 7.83 15.3769L6.32875 26.2619C6.27625 26.6406 6.25 27.0263 6.25 27.4088C6.25 28.9819 6.70375 30.5438 7.5375 31.875H5V33.75C5 36.8519 7.52375 39.375 10.625 39.375H29.375C32.4762 39.375 35 36.8519 35 33.75V31.875H32.4625ZM10.625 5V3.75C10.625 2.71625 11.4662 1.875 12.5 1.875H27.5C28.5338 1.875 29.375 2.71625 29.375 3.75V5C29.375 5.34438 29.0944 5.625 28.75 5.625H11.25C10.9056 5.625 10.625 5.34438 10.625 5ZM13.125 6.875H26.875V8.69625C25.9312 8.32812 24.91 8.125 23.8494 8.125H16.1506C15.09 8.125 14.0688 8.32812 13.125 8.69625V6.875ZM7.56688 26.4319L9.06812 15.5469C9.55375 12.0287 12.5987 9.375 16.1506 9.375H23.8494C27.4013 9.375 30.4463 12.0287 30.9319 15.5469L32.4331 26.4319C32.4775 26.755 32.5 27.0837 32.5 27.4088C32.5 28.6019 32.1906 29.785 31.6219 30.8313C30.9094 28.5413 28.7706 26.875 26.25 26.875H13.75C11.2294 26.875 9.09062 28.5419 8.37812 30.8306C7.80937 29.785 7.5 28.6019 7.5 27.4088C7.5 27.0837 7.5225 26.755 7.56688 26.4319ZM30.575 31.875H9.425C9.73 29.7588 11.5506 28.125 13.75 28.125H26.25C28.4494 28.125 30.27 29.7588 30.575 31.875ZM33.75 33.75C33.75 36.1619 31.7875 38.125 29.375 38.125H10.625C8.2125 38.125 6.25 36.1619 6.25 33.75V33.125H33.75V33.75Z" fill="white"/>
</svg>
