<svg width="50" height="50" viewBox="0 0 50 50" fill="none" xmlns="http://www.w3.org/2000/svg">
<g clip-path="url(#clip0_533_377)">
<path d="M28.9062 17.9688H5.46875C4.60703 17.9688 3.90625 17.268 3.90625 16.4062V5.46875C3.90625 4.60703 4.60703 3.90625 5.46875 3.90625H28.9062C29.768 3.90625 30.4688 4.60703 30.4688 5.46875V16.4062C30.4688 17.268 29.768 17.9688 28.9062 17.9688Z" fill="#F5B754"/>
<path d="M24.2188 35.1562H27.3438V36.7188H24.2188V35.1562Z" fill="black"/>
<path d="M48.5844 38.6555L48.0289 37.8227C47.7852 37.4562 47.6562 37.0305 47.6562 36.5922V25C47.6562 22.2508 45.6148 19.975 42.9688 19.5938V19.5312C42.9688 18.35 42.3031 17.3328 41.3344 16.8016L46.6461 11.4898L45.5414 10.3852L39.4836 16.443C37.932 16.6234 36.7188 17.9312 36.7188 19.5312H33.5938V4.6875C33.5938 2.53359 31.8414 0.78125 29.6875 0.78125H4.6875C2.53359 0.78125 0.78125 2.53359 0.78125 4.6875V20.3125C0.78125 22.4664 2.53359 24.2188 4.6875 24.2188H11.8531L8.86094 29.7742L3.92031 30.7625C2.10156 31.1266 0.78125 32.7375 0.78125 34.593V40.625C0.78125 42.7789 2.53359 44.5312 4.6875 44.5312H6.25V42.9688H4.6875C3.39531 42.9688 2.34375 41.9172 2.34375 40.625V39.5453L4.87187 38.2812C6.20391 37.6148 7.03125 36.2766 7.03125 34.7875V31.7344L9.88828 31.1633L13.3195 24.7914C14.5477 22.5102 16.9195 21.0938 19.5102 21.0938H42.1875C43.4586 21.0938 44.5789 21.7133 45.2922 22.6562H37.9727C36.4195 22.6562 35.1562 23.9195 35.1562 25.4727C35.1562 26.4164 35.625 27.2922 36.4102 27.8164L39.8438 30.1055V33.9016C39.8438 35.4555 41.107 36.7188 42.6602 36.7188H46.1023C46.1258 37.4219 46.3359 38.1008 46.7281 38.6883L47.2836 39.5211C47.5273 39.8875 47.6562 40.3133 47.6562 40.7516C47.6562 41.9742 46.6617 42.9688 45.4391 42.9688H42.1875V44.5312H45.4391C47.5234 44.5312 49.2188 42.8359 49.2188 40.7516C49.2188 40.0031 48.9992 39.2781 48.5844 38.6555ZM5.46875 34.7875C5.46875 35.6813 4.97266 36.4836 4.17344 36.8836L2.34375 37.7984V34.593C2.34375 33.4789 3.13594 32.5125 4.22813 32.2945L5.46875 32.0461V34.7875ZM32.0312 19.5312H19.5102C16.918 19.5312 14.5187 20.7055 12.9055 22.6562H4.6875C3.39531 22.6562 2.34375 21.6047 2.34375 20.3125V4.6875C2.34375 3.39531 3.39531 2.34375 4.6875 2.34375H29.6875C30.9797 2.34375 32.0312 3.39531 32.0312 4.6875V19.5312ZM38.2812 19.5312C38.2812 18.6695 38.982 17.9688 39.8438 17.9688C40.7055 17.9688 41.4062 18.6695 41.4062 19.5312H38.2812ZM46.0938 35.1562H42.6602C41.9688 35.1562 41.4062 34.5938 41.4062 33.9023V33.5938H46.0938V35.1562ZM46.0938 32.0312H41.4062V30.4688H46.0938V32.0312ZM46.0938 28.9062H40.8617L37.2781 26.5164C36.9273 26.2836 36.7188 25.8937 36.7188 25.4727C36.7188 24.7812 37.2812 24.2188 37.9727 24.2188H46.0141C46.0664 24.4711 46.0938 24.7328 46.0938 25V28.9062Z" fill="black"/>
<path d="M31.25 22.6562H19.8797C17.9422 22.6562 16.1328 23.6961 15.1562 25.3695L13.8805 27.557C13.0688 27.925 12.5 28.7391 12.5 29.6875V39.6914H14.0625V33.5938H17.9688H32.0312V36.2563C30.0922 37.4148 28.9062 39.4875 28.9062 41.7742V42.9688H15.625V44.5312H32.8125V42.9688H30.4688V41.775C30.4688 39.918 31.5008 38.2477 33.1617 37.418L33.5938 37.2016V25C33.5938 23.7078 32.5422 22.6562 31.25 22.6562ZM17.9688 32.0312H14.0625V29.6875C14.0625 29.2562 14.4133 28.9062 14.8438 28.9062H16.4062C17.6984 28.9062 18.75 29.9578 18.75 31.25C18.75 31.6812 18.3992 32.0312 17.9688 32.0312ZM32.0312 32.0312H20.1687C20.2562 31.7859 20.3125 31.525 20.3125 31.25C20.3125 29.0961 18.5602 27.3438 16.4062 27.3438H15.8133L16.5055 26.1562C17.2031 24.9609 18.4961 24.2188 19.8797 24.2188H31.25C31.6805 24.2188 32.0312 24.5688 32.0312 25V32.0312Z" fill="black"/>
<path d="M10.1562 14.8438H8.59375C7.73203 14.8438 7.03125 14.143 7.03125 13.2812V8.59375C7.03125 7.73203 7.73203 7.03125 8.59375 7.03125H10.1562C11.018 7.03125 11.7188 7.73203 11.7188 8.59375V13.2812C11.7188 14.143 11.018 14.8438 10.1562 14.8438ZM8.59375 8.59375V13.2812H10.157L10.1562 8.59375H8.59375Z" fill="black"/>
<path d="M17.9688 14.8438H13.2812V12.9578L16.1773 10.0617C16.3227 9.91562 16.4062 9.71484 16.4062 9.50937V9.375C16.4062 8.94375 16.0555 8.59375 15.625 8.59375C15.1945 8.59375 14.8438 8.94375 14.8438 9.375V10.1562H13.2812V9.375C13.2812 8.08281 14.3328 7.03125 15.625 7.03125C16.9172 7.03125 17.9688 8.08281 17.9688 9.375V9.50937C17.9688 10.1352 17.725 10.7242 17.282 11.1664L15.1672 13.2812H17.9688V14.8438Z" fill="black"/>
<path d="M19.5312 11.7188H21.0938V13.2812H19.5312V11.7188Z" fill="black"/>
<path d="M19.5312 8.59375H21.0938V10.1562H19.5312V8.59375Z" fill="black"/>
<path d="M22.6562 7.03125H24.2188V14.8438H22.6562V7.03125Z" fill="black"/>
<path d="M25.7812 7.03125H27.3438V14.8438H25.7812V7.03125Z" fill="black"/>
<path d="M3.90625 19.5312H5.46875V21.0938H3.90625V19.5312Z" fill="black"/>
<path d="M7.03125 19.5312H8.59375V21.0938H7.03125V19.5312Z" fill="black"/>
<path d="M10.1562 19.5312H11.7188V21.0938H10.1562V19.5312Z" fill="black"/>
<path d="M17.1875 39.8438H18.75V41.4062H17.1875V39.8438Z" fill="black"/>
<path d="M20.3125 39.8438H21.875V41.4062H20.3125V39.8438Z" fill="black"/>
<path d="M23.4375 39.8438H25V41.4062H23.4375V39.8438Z" fill="black"/>
<path d="M10.9375 49.2188C7.92188 49.2188 5.46875 46.7648 5.46875 43.75C5.46875 40.7352 7.92188 38.2812 10.9375 38.2812C13.9531 38.2812 16.4062 40.7352 16.4062 43.75C16.4062 46.7648 13.9531 49.2188 10.9375 49.2188ZM10.9375 42.1875C10.0758 42.1875 9.375 42.8883 9.375 43.75C9.375 44.6117 10.0758 45.3125 10.9375 45.3125C11.7992 45.3125 12.5 44.6117 12.5 43.75C12.5 42.8883 11.7992 42.1875 10.9375 42.1875Z" fill="#F5B754"/>
<path d="M37.5 49.2188C34.4844 49.2188 32.0312 46.7648 32.0312 43.75C32.0312 40.7352 34.4844 38.2812 37.5 38.2812C40.5156 38.2812 42.9688 40.7352 42.9688 43.75C42.9688 46.7648 40.5156 49.2188 37.5 49.2188ZM37.5 42.1875C36.6383 42.1875 35.9375 42.8883 35.9375 43.75C35.9375 44.6117 36.6383 45.3125 37.5 45.3125C38.3617 45.3125 39.0625 44.6117 39.0625 43.75C39.0625 42.8883 38.3617 42.1875 37.5 42.1875Z" fill="#F5B754"/>
<path d="M10.9375 46.0938C9.64531 46.0938 8.59375 45.0422 8.59375 43.75C8.59375 42.4578 9.64531 41.4062 10.9375 41.4062C12.2297 41.4062 13.2812 42.4578 13.2812 43.75C13.2812 45.0422 12.2297 46.0938 10.9375 46.0938ZM10.9375 42.9688C10.507 42.9688 10.1562 43.3188 10.1562 43.75C10.1562 44.1813 10.507 44.5312 10.9375 44.5312C11.368 44.5312 11.7188 44.1813 11.7188 43.75C11.7188 43.3188 11.368 42.9688 10.9375 42.9688Z" fill="black"/>
<path d="M37.5 46.0938C36.2078 46.0938 35.1562 45.0422 35.1562 43.75C35.1562 42.4578 36.2078 41.4062 37.5 41.4062C38.7922 41.4062 39.8438 42.4578 39.8438 43.75C39.8438 45.0422 38.7922 46.0938 37.5 46.0938ZM37.5 42.9688C37.0695 42.9688 36.7188 43.3188 36.7188 43.75C36.7188 44.1813 37.0695 44.5312 37.5 44.5312C37.9305 44.5312 38.2812 44.1813 38.2812 43.75C38.2812 43.3188 37.9305 42.9688 37.5 42.9688Z" fill="black"/>
</g>
<defs>
<clipPath id="clip0_533_377">
<rect width="50" height="50" fill="white"/>
</clipPath>
</defs>
</svg>
