<svg width="20" height="20" viewBox="0 0 20 20" fill="none" xmlns="http://www.w3.org/2000/svg">
<g clip-path="url(#clip0_533_873)">
<path d="M12.5143 18.5727C13.394 19.1402 14.4424 19.3876 15.483 19.2731C16.5237 19.1586 17.4932 18.6893 18.2286 17.9441L18.8714 17.3155C19.1533 17.0273 19.3111 16.6401 19.3111 16.237C19.3111 15.8338 19.1533 15.4467 18.8714 15.1584L16.1428 12.4584C15.857 12.1775 15.4722 12.02 15.0714 12.02C14.6706 12.02 14.2859 12.1775 14 12.4584V12.4584C13.7117 12.7402 13.3246 12.898 12.9214 12.898C12.5183 12.898 12.1311 12.7402 11.8428 12.4584L7.55713 8.17267C7.41416 8.03178 7.30063 7.86387 7.22314 7.67871C7.14565 7.49355 7.10574 7.29483 7.10574 7.0941C7.10574 6.89338 7.14565 6.69466 7.22314 6.50949C7.30063 6.32433 7.41416 6.15642 7.55713 6.01553V6.01553C7.83807 5.72967 7.99549 5.3449 7.99549 4.9441C7.99549 4.5433 7.83807 4.15854 7.55713 3.87267L4.84285 1.15839C4.55457 0.876553 4.16743 0.71875 3.76427 0.71875C3.36112 0.71875 2.97398 0.876553 2.6857 1.15839L2.05713 1.80125C1.31191 2.53659 0.842609 3.50611 0.728136 4.54677C0.613663 5.58743 0.861 6.63578 1.42856 7.51553C4.38577 11.8737 8.14847 15.6267 12.5143 18.5727V18.5727Z" stroke="#F5B754" stroke-linecap="round" stroke-linejoin="round"/>
</g>
<defs>
<clipPath id="clip0_533_873">
<rect width="20" height="20" fill="white"/>
</clipPath>
</defs>
</svg>
