<svg width="30" height="30" viewBox="0 0 30 30" fill="none" xmlns="http://www.w3.org/2000/svg">
<g clip-path="url(#clip0_607_131)">
<path d="M5.0791 12.998H11.0778V13.9979H5.0791V12.998Z" fill="black"/>
<path d="M5.0791 14.9961H11.0778V15.9959H5.0791V14.9961Z" fill="black"/>
<path d="M5.0791 16.9961H11.0778V17.9959H5.0791V16.9961Z" fill="black"/>
<path d="M3.08105 12.998H4.08084V13.9979H3.08105V12.998Z" fill="black"/>
<path d="M3.08105 14.9961H4.08084V15.9959H3.08105V14.9961Z" fill="black"/>
<path d="M3.08105 16.9961H4.08084V17.9959H3.08105V16.9961Z" fill="black"/>
<path d="M18.0743 19.892V2.99947C18.0743 2.20396 17.7583 1.44104 17.1958 0.878525C16.6334 0.316015 15.8705 0 15.075 0C14.2795 0 13.5166 0.316015 12.9541 0.878525C12.3916 1.44104 12.0756 2.20396 12.0756 2.99947V19.892C11.0821 20.5386 10.3241 21.489 9.91466 22.6014C9.50519 23.7139 9.46615 24.9289 9.80338 26.0653C10.1406 27.2018 10.836 28.1988 11.786 28.9079C12.7359 29.6169 13.8896 30 15.075 30C16.2604 30 17.414 29.6169 18.364 28.9079C19.314 28.1988 20.0094 27.2018 20.3466 26.0653C20.6838 24.9289 20.6448 23.7139 20.2353 22.6014C19.8258 21.489 19.0679 20.5386 18.0743 19.892ZM15.075 28.9949C14.0847 28.9958 13.1217 28.6697 12.3357 28.0672C11.5497 27.4647 10.9847 26.6195 10.7282 25.6629C10.4718 24.7063 10.5384 23.6918 10.9176 22.777C11.2968 21.8621 11.9675 21.098 12.8255 20.6034C12.9014 20.5595 12.9644 20.4965 13.0083 20.4206C13.0522 20.3447 13.0753 20.2586 13.0754 20.171V2.99947C13.0754 2.46913 13.2861 1.96051 13.6611 1.58551C14.0361 1.2105 14.5447 0.999824 15.075 0.999824C15.6053 0.999824 16.1139 1.2105 16.4889 1.58551C16.8639 1.96051 17.0746 2.46913 17.0746 2.99947V20.171C17.0746 20.2586 17.0978 20.3447 17.1417 20.4206C17.1855 20.4965 17.2486 20.5595 17.3245 20.6034C18.1825 21.098 18.8532 21.8621 19.2324 22.777C19.6116 23.6918 19.6782 24.7063 19.4217 25.6629C19.1653 26.6195 18.6002 27.4647 17.8142 28.0672C17.0282 28.6697 16.0653 28.9958 15.075 28.9949Z" fill="black"/>
<path d="M15.5775 22.0462V5.99902H14.5777V22.0462C13.9708 22.1701 13.4315 22.5149 13.0644 23.0138C12.6973 23.5127 12.5285 24.1302 12.5908 24.7465C12.653 25.3628 12.9419 25.934 13.4014 26.3494C13.8608 26.7648 14.4582 26.9948 15.0776 26.9948C15.697 26.9948 16.2943 26.7648 16.7538 26.3494C17.2133 25.934 17.5021 25.3628 17.5644 24.7465C17.6267 24.1302 17.4579 23.5127 17.0908 23.0138C16.7236 22.5149 16.1844 22.1701 15.5775 22.0462ZM15.0776 25.9955C14.781 25.9955 14.491 25.9076 14.2444 25.7428C13.9978 25.578 13.8056 25.3437 13.6921 25.0697C13.5786 24.7957 13.5489 24.4941 13.6067 24.2032C13.6646 23.9123 13.8074 23.645 14.0172 23.4353C14.2269 23.2256 14.4941 23.0827 14.785 23.0249C15.0759 22.967 15.3775 22.9967 15.6515 23.1102C15.9255 23.2237 16.1597 23.4159 16.3245 23.6626C16.4893 23.9092 16.5773 24.1992 16.5773 24.4958C16.5773 24.8935 16.4193 25.275 16.138 25.5562C15.8568 25.8375 15.4753 25.9955 15.0776 25.9955Z" fill="#F5B754"/>
<path d="M5.07912 9.99824H6.0789V8.93243L6.80125 9.41435L7.35613 8.58249L6.0789 7.73114V5.86497L7.69506 6.79831L7.79354 8.32954L8.79132 8.26555L8.73533 7.3992L9.65813 7.93161L10.158 7.06576L9.23572 6.53285L10.0136 6.14792L9.57015 5.25158L8.19495 5.93196L6.5788 4.99912L8.19495 4.06629L9.57015 4.74667L10.0136 3.85032L9.23572 3.46539L10.158 2.93248L9.65813 2.06664L8.73533 2.59904L8.79132 1.7327L7.79354 1.66871L7.69506 3.19994L6.0789 4.13327V2.2671L7.35613 1.41575L6.80125 0.583897L6.0789 1.06581V0H5.07912V1.06581L4.35678 0.583897L3.8019 1.41575L5.07912 2.2671V4.13327L3.46297 3.19994L3.36449 1.66871L2.36671 1.7327L2.42269 2.59904L1.49989 2.06664L1 2.93248L1.9223 3.46539L1.14447 3.85032L1.58787 4.74667L2.96308 4.06629L4.57923 4.99912L2.96308 5.93196L1.58787 5.25158L1.14447 6.14792L1.9223 6.53285L1 7.06576L1.49989 7.93161L2.42269 7.3992L2.36671 8.26555L3.36449 8.32954L3.46297 6.79831L5.07912 5.86497V7.73114L3.8019 8.58249L4.35678 9.41435L5.07912 8.93243V9.99824Z" fill="black"/>
<path d="M24.5769 11.9967C24.5769 11.4664 24.3663 10.9578 23.9913 10.5828C23.6163 10.2077 23.1077 9.99707 22.5774 9.99707C22.0471 9.99707 21.5385 10.2077 21.1635 10.5828C20.7885 10.9578 20.5778 11.4664 20.5778 11.9967H21.5776C21.5776 11.799 21.6362 11.6057 21.7461 11.4412C21.8559 11.2768 22.0121 11.1487 22.1948 11.073C22.3775 10.9973 22.5785 10.9775 22.7724 11.0161C22.9664 11.0547 23.1445 11.1499 23.2843 11.2897C23.4241 11.4296 23.5194 11.6077 23.5579 11.8017C23.5965 11.9956 23.5767 12.1966 23.5011 12.3793C23.4254 12.562 23.2972 12.7182 23.1328 12.828C22.9684 12.9379 22.7751 12.9965 22.5774 12.9965H19.0781V13.9964H22.5774C23.1077 13.9964 23.6163 13.7857 23.9913 13.4107C24.3663 13.0357 24.5769 12.5271 24.5769 11.9967Z" fill="black"/>
<path d="M27.5763 11.998C27.046 11.998 26.5374 12.2087 26.1624 12.5837C25.7874 12.9587 25.5767 13.4674 25.5767 13.9977H26.5765C26.5765 13.7999 26.6351 13.6066 26.745 13.4422C26.8549 13.2778 27.011 13.1497 27.1937 13.074C27.3764 12.9983 27.5774 12.9785 27.7713 13.0171C27.9653 13.0557 28.1434 13.1509 28.2832 13.2907C28.4231 13.4305 28.5183 13.6087 28.5569 13.8026C28.5954 13.9966 28.5756 14.1976 28.5 14.3803C28.4243 14.563 28.2962 14.7192 28.1317 14.829C27.9673 14.9389 27.774 14.9975 27.5763 14.9975H19.0781V15.9973H27.5763C28.1066 15.9973 28.6152 15.7867 28.9902 15.4117C29.3652 15.0367 29.5759 14.528 29.5759 13.9977C29.5759 13.4674 29.3652 12.9587 28.9902 12.5837C28.6152 12.2087 28.1066 11.998 27.5763 11.998Z" fill="black"/>
<path d="M25.5767 16.9961H19.0781V17.9959H25.5767C25.7745 17.9959 25.9678 18.0546 26.1322 18.1644C26.2966 18.2743 26.4247 18.4304 26.5004 18.6131C26.5761 18.7958 26.5959 18.9969 26.5573 19.1908C26.5187 19.3847 26.4235 19.5629 26.2837 19.7027C26.1439 19.8426 25.9657 19.9378 25.7718 19.9764C25.5778 20.0149 25.3768 19.9951 25.1941 19.9195C25.0114 19.8438 24.8553 19.7156 24.7454 19.5512C24.6356 19.3868 24.5769 19.1935 24.5769 18.9957H23.5772C23.5772 19.3912 23.6944 19.7778 23.9141 20.1067C24.1339 20.4355 24.4461 20.6918 24.8115 20.8432C25.1769 20.9945 25.5789 21.0341 25.9668 20.957C26.3547 20.8798 26.711 20.6894 26.9906 20.4097C27.2703 20.1301 27.4607 19.7737 27.5379 19.3859C27.615 18.998 27.5754 18.5959 27.4241 18.2305C27.2727 17.8651 27.0165 17.5528 26.6876 17.3331C26.3588 17.1134 25.9722 16.9961 25.5767 16.9961Z" fill="black"/>
</g>
<defs>
<clipPath id="clip0_607_131">
<rect width="30" height="30" fill="white"/>
</clipPath>
</defs>
</svg>
