<svg width="60" height="60" viewBox="0 0 60 60" fill="none" xmlns="http://www.w3.org/2000/svg">
<g clip-path="url(#clip0_564_97)">
<path d="M34.6875 21.5625H6.5625C5.52844 21.5625 4.6875 20.7216 4.6875 19.6875V6.5625C4.6875 5.52844 5.52844 4.6875 6.5625 4.6875H34.6875C35.7216 4.6875 36.5625 5.52844 36.5625 6.5625V19.6875C36.5625 20.7216 35.7216 21.5625 34.6875 21.5625Z" fill="#F5B754"/>
<path d="M29.0625 42.1875H32.8125V44.0625H29.0625V42.1875Z" fill="white"/>
<path d="M58.3013 46.3866L57.6347 45.3872C57.3422 44.9475 57.1875 44.4366 57.1875 43.9106V30C57.1875 26.7009 54.7378 23.97 51.5625 23.5125V23.4375C51.5625 22.02 50.7638 20.7994 49.6012 20.1619L55.9753 13.7878L54.6497 12.4622L47.3803 19.7316C45.5184 19.9481 44.0625 21.5175 44.0625 23.4375H40.3125V5.625C40.3125 3.04031 38.2097 0.9375 35.625 0.9375H5.625C3.04031 0.9375 0.9375 3.04031 0.9375 5.625V24.375C0.9375 26.9597 3.04031 29.0625 5.625 29.0625H14.2238L10.6331 35.7291L4.70438 36.915C2.52188 37.3519 0.9375 39.285 0.9375 41.5116V48.75C0.9375 51.3347 3.04031 53.4375 5.625 53.4375H7.5V51.5625H5.625C4.07437 51.5625 2.8125 50.3006 2.8125 48.75V47.4544L5.84625 45.9375C7.44469 45.1378 8.4375 43.5319 8.4375 41.745V38.0812L11.8659 37.3959L15.9834 29.7497C17.4572 27.0122 20.3034 25.3125 23.4122 25.3125H50.625C52.1503 25.3125 53.4947 26.0559 54.3506 27.1875H45.5672C43.7034 27.1875 42.1875 28.7034 42.1875 30.5672C42.1875 31.6997 42.75 32.7506 43.6922 33.3797L47.8125 36.1266V40.6819C47.8125 42.5466 49.3284 44.0625 51.1922 44.0625H55.3228C55.3509 44.9062 55.6031 45.7209 56.0737 46.4259L56.7403 47.4253C57.0328 47.865 57.1875 48.3759 57.1875 48.9019C57.1875 50.3691 55.9941 51.5625 54.5269 51.5625H50.625V53.4375H54.5269C57.0281 53.4375 59.0625 51.4031 59.0625 48.9019C59.0625 48.0037 58.7991 47.1338 58.3013 46.3866ZM6.5625 41.745C6.5625 42.8175 5.96719 43.7803 5.00812 44.2603L2.8125 45.3581V41.5116C2.8125 40.1747 3.76313 39.015 5.07375 38.7534L6.5625 38.4553V41.745ZM38.4375 23.4375H23.4122C20.3016 23.4375 17.4225 24.8466 15.4866 27.1875H5.625C4.07437 27.1875 2.8125 25.9256 2.8125 24.375V5.625C2.8125 4.07437 4.07437 2.8125 5.625 2.8125H35.625C37.1756 2.8125 38.4375 4.07437 38.4375 5.625V23.4375ZM45.9375 23.4375C45.9375 22.4034 46.7784 21.5625 47.8125 21.5625C48.8466 21.5625 49.6875 22.4034 49.6875 23.4375H45.9375ZM55.3125 42.1875H51.1922C50.3625 42.1875 49.6875 41.5125 49.6875 40.6828V40.3125H55.3125V42.1875ZM55.3125 38.4375H49.6875V36.5625H55.3125V38.4375ZM55.3125 34.6875H49.0341L44.7337 31.8197C44.3128 31.5403 44.0625 31.0725 44.0625 30.5672C44.0625 29.7375 44.7375 29.0625 45.5672 29.0625H55.2169C55.2797 29.3653 55.3125 29.6794 55.3125 30V34.6875Z" fill="white"/>
<path d="M37.5 27.1875H23.8556C21.5306 27.1875 19.3594 28.4353 18.1875 30.4434L16.6566 33.0684C15.6825 33.51 15 34.4869 15 35.625V47.6297H16.875V40.3125H21.5625H38.4375V43.5075C36.1106 44.8978 34.6875 47.385 34.6875 50.1291V51.5625H18.75V53.4375H39.375V51.5625H36.5625V50.13C36.5625 47.9016 37.8009 45.8972 39.7941 44.9016L40.3125 44.6419V30C40.3125 28.4494 39.0506 27.1875 37.5 27.1875ZM21.5625 38.4375H16.875V35.625C16.875 35.1075 17.2959 34.6875 17.8125 34.6875H19.6875C21.2381 34.6875 22.5 35.9494 22.5 37.5C22.5 38.0175 22.0791 38.4375 21.5625 38.4375ZM38.4375 38.4375H24.2025C24.3075 38.1431 24.375 37.83 24.375 37.5C24.375 34.9153 22.2722 32.8125 19.6875 32.8125H18.9759L19.8066 31.3875C20.6438 29.9531 22.1953 29.0625 23.8556 29.0625H37.5C38.0166 29.0625 38.4375 29.4825 38.4375 30V38.4375Z" fill="white"/>
<path d="M12.1875 17.8125H10.3125C9.27844 17.8125 8.4375 16.9716 8.4375 15.9375V10.3125C8.4375 9.27844 9.27844 8.4375 10.3125 8.4375H12.1875C13.2216 8.4375 14.0625 9.27844 14.0625 10.3125V15.9375C14.0625 16.9716 13.2216 17.8125 12.1875 17.8125ZM10.3125 10.3125V15.9375H12.1884L12.1875 10.3125H10.3125Z" fill="black"/>
<path d="M21.5625 17.8125H15.9375V15.5494L19.4128 12.0741C19.5872 11.8987 19.6875 11.6578 19.6875 11.4112V11.25C19.6875 10.7325 19.2666 10.3125 18.75 10.3125C18.2334 10.3125 17.8125 10.7325 17.8125 11.25V12.1875H15.9375V11.25C15.9375 9.69937 17.1994 8.4375 18.75 8.4375C20.3006 8.4375 21.5625 9.69937 21.5625 11.25V11.4112C21.5625 12.1622 21.27 12.8691 20.7384 13.3997L18.2006 15.9375H21.5625V17.8125Z" fill="black"/>
<path d="M23.4375 14.0625H25.3125V15.9375H23.4375V14.0625Z" fill="black"/>
<path d="M23.4375 10.3125H25.3125V12.1875H23.4375V10.3125Z" fill="black"/>
<path d="M27.1875 8.4375H29.0625V17.8125H27.1875V8.4375Z" fill="black"/>
<path d="M30.9375 8.4375H32.8125V17.8125H30.9375V8.4375Z" fill="black"/>
<path d="M4.6875 23.4375H6.5625V25.3125H4.6875V23.4375Z" fill="white"/>
<path d="M8.4375 23.4375H10.3125V25.3125H8.4375V23.4375Z" fill="white"/>
<path d="M12.1875 23.4375H14.0625V25.3125H12.1875V23.4375Z" fill="white"/>
<path d="M20.625 47.8125H22.5V49.6875H20.625V47.8125Z" fill="white"/>
<path d="M24.375 47.8125H26.25V49.6875H24.375V47.8125Z" fill="white"/>
<path d="M28.125 47.8125H30V49.6875H28.125V47.8125Z" fill="white"/>
<path d="M13.125 59.0625C9.50625 59.0625 6.5625 56.1178 6.5625 52.5C6.5625 48.8822 9.50625 45.9375 13.125 45.9375C16.7437 45.9375 19.6875 48.8822 19.6875 52.5C19.6875 56.1178 16.7437 59.0625 13.125 59.0625ZM13.125 50.625C12.0909 50.625 11.25 51.4659 11.25 52.5C11.25 53.5341 12.0909 54.375 13.125 54.375C14.1591 54.375 15 53.5341 15 52.5C15 51.4659 14.1591 50.625 13.125 50.625Z" fill="#F5B754"/>
<path d="M45 59.0625C41.3813 59.0625 38.4375 56.1178 38.4375 52.5C38.4375 48.8822 41.3813 45.9375 45 45.9375C48.6187 45.9375 51.5625 48.8822 51.5625 52.5C51.5625 56.1178 48.6187 59.0625 45 59.0625ZM45 50.625C43.9659 50.625 43.125 51.4659 43.125 52.5C43.125 53.5341 43.9659 54.375 45 54.375C46.0341 54.375 46.875 53.5341 46.875 52.5C46.875 51.4659 46.0341 50.625 45 50.625Z" fill="#F5B754"/>
<path d="M13.125 55.3125C11.5744 55.3125 10.3125 54.0506 10.3125 52.5C10.3125 50.9494 11.5744 49.6875 13.125 49.6875C14.6756 49.6875 15.9375 50.9494 15.9375 52.5C15.9375 54.0506 14.6756 55.3125 13.125 55.3125ZM13.125 51.5625C12.6084 51.5625 12.1875 51.9825 12.1875 52.5C12.1875 53.0175 12.6084 53.4375 13.125 53.4375C13.6416 53.4375 14.0625 53.0175 14.0625 52.5C14.0625 51.9825 13.6416 51.5625 13.125 51.5625Z" fill="white"/>
<path d="M45 55.3125C43.4494 55.3125 42.1875 54.0506 42.1875 52.5C42.1875 50.9494 43.4494 49.6875 45 49.6875C46.5506 49.6875 47.8125 50.9494 47.8125 52.5C47.8125 54.0506 46.5506 55.3125 45 55.3125ZM45 51.5625C44.4834 51.5625 44.0625 51.9825 44.0625 52.5C44.0625 53.0175 44.4834 53.4375 45 53.4375C45.5166 53.4375 45.9375 53.0175 45.9375 52.5C45.9375 51.9825 45.5166 51.5625 45 51.5625Z" fill="white"/>
</g>
<defs>
<clipPath id="clip0_564_97">
<rect width="60" height="60" fill="white"/>
</clipPath>
</defs>
</svg>
