<svg width="40" height="40" viewBox="0 0 40 40" fill="none" xmlns="http://www.w3.org/2000/svg">
<g clip-path="url(#clip0_637_402)">
<path d="M29.375 33.125H26.875C25.8412 33.125 25 32.2838 25 31.25V28.75C25 27.7162 25.8412 26.875 26.875 26.875H29.375V33.125Z" fill="#F5B754"/>
<path d="M13.125 33.125H10.625V26.875H13.125C14.1588 26.875 15 27.7162 15 28.75V31.25C15 32.2838 14.1588 33.125 13.125 33.125Z" fill="#F5B754"/>
<path d="M21.875 33.125H18.125C17.0912 33.125 16.25 32.2838 16.25 31.25V28.75C16.25 27.7162 17.0912 26.875 18.125 26.875H21.875C22.9088 26.875 23.75 27.7162 23.75 28.75V31.25C23.75 32.2838 22.9088 33.125 21.875 33.125Z" fill="#F5B754"/>
<path d="M39.375 6.875C39.375 3.42875 36.5713 0.625 33.125 0.625H32.8662L30.625 2.86625L29.375 1.61625L26.6162 4.375L27.8662 5.625L22.7675 10.7238L23.6512 11.6075L25 10.2587L25.9912 11.25L24.2919 12.9494L25.1756 13.8331L26.9287 12.08C27.0594 11.95 27.24 11.875 27.4244 11.875C27.8106 11.875 28.125 12.1894 28.125 12.5756C28.125 12.7631 28.0525 12.9387 27.92 13.0712L23.9331 17.0581L24.3319 17.4569L23.9738 17.855L28.4406 21.875H11.5594L16.0262 17.855L15.6681 17.4569L16.0669 17.0581L12.08 13.0712C11.9475 12.9387 11.875 12.7631 11.875 12.5756C11.875 12.1894 12.1894 11.875 12.5756 11.875C12.76 11.875 12.9406 11.95 13.0712 12.08L14.8244 13.8331L15.7081 12.9494L14.0087 11.25L15 10.2587L16.3488 11.6075L17.2325 10.7238L12.1337 5.625L13.3837 4.375L10.625 1.61625L9.375 2.86625L7.13375 0.625H6.875C3.42875 0.625 0.625 3.42875 0.625 6.875V7.13375L2.86625 9.375L1.61625 10.625L4.375 13.3837L5.625 12.1337L11.25 17.7587L13.125 15.8837L14.6519 17.4106L10 21.5969V34.4906C9.27437 34.7494 8.75 35.4369 8.75 36.2506V37.5006C8.75 38.5344 9.59125 39.3756 10.625 39.3756H29.375C30.4088 39.3756 31.25 38.5344 31.25 37.5006V36.2506C31.25 35.4369 30.7256 34.7494 30 34.4906V21.5969L25.3481 17.4106L26.875 15.8837L28.75 17.7587L34.375 12.1337L35.625 13.3837L38.3838 10.625L37.1338 9.375L39.375 7.13375V6.875ZM1.88125 6.6225C2.00937 4.06625 4.06562 2.00937 6.6225 1.88187L8.49125 3.75L3.75 8.49125L1.88125 6.6225ZM4.375 11.6163L3.38375 10.625L10.625 3.38375L11.6163 4.375L4.375 11.6163ZM6.50875 11.25L11.25 6.50875L12.2413 7.5L7.5 12.2413L6.50875 11.25ZM8.38375 13.125L13.125 8.38375L14.1163 9.375L12.8394 10.6512C12.7519 10.6394 12.6644 10.625 12.5756 10.625C11.5 10.625 10.625 11.5 10.625 12.5756C10.625 12.6656 10.6388 12.7525 10.6506 12.84L9.375 14.1163L8.38375 13.125ZM11.25 15.9913L10.2587 15L11.25 14.0087L12.2413 15L11.25 15.9913ZM28.75 34.375H11.25V25.625H28.75V34.375ZM30 37.5C30 37.8444 29.72 38.125 29.375 38.125H10.625C10.28 38.125 10 37.8444 10 37.5V36.25C10 35.9056 10.28 35.625 10.625 35.625H29.375C29.72 35.625 30 35.9056 30 36.25V37.5ZM28.75 24.375H11.25V23.125H28.75V24.375ZM28.75 15.9913L27.7588 15L28.75 14.0087L29.7412 15L28.75 15.9913ZM30.625 14.1163L29.3494 12.84C29.3612 12.7525 29.375 12.6656 29.375 12.5756C29.375 11.5 28.5 10.625 27.4244 10.625C27.3356 10.625 27.2481 10.6394 27.16 10.6512L25.8838 9.375L26.875 8.38375L31.6162 13.125L30.625 14.1163ZM32.5 12.2413L27.7588 7.5L28.75 6.50875L33.4912 11.25L32.5 12.2413ZM35.625 11.6163L28.3838 4.375L29.375 3.38375L36.6162 10.625L35.625 11.6163ZM36.25 8.49125L31.5088 3.75L33.3775 1.88125C35.9344 2.00875 37.9906 4.06563 38.1188 6.62188L36.25 8.49125Z" fill="white"/>
<path d="M20 20.625C16.8981 20.625 14.375 18.1012 14.375 15C14.375 11.8988 16.8981 9.375 20 9.375C23.1019 9.375 25.625 11.8988 25.625 15C25.625 18.1012 23.1019 20.625 20 20.625ZM20 12.5C18.6219 12.5 17.5 13.6213 17.5 15C17.5 16.3787 18.6219 17.5 20 17.5C21.3781 17.5 22.5 16.3787 22.5 15C22.5 13.6213 21.3781 12.5 20 12.5Z" fill="#F5B754"/>
<path d="M20 18.125C18.2769 18.125 16.875 16.7231 16.875 15C16.875 13.2769 18.2769 11.875 20 11.875C21.7231 11.875 23.125 13.2769 23.125 15C23.125 16.7231 21.7231 18.125 20 18.125ZM20 13.125C18.9662 13.125 18.125 13.9662 18.125 15C18.125 16.0338 18.9662 16.875 20 16.875C21.0338 16.875 21.875 16.0338 21.875 15C21.875 13.9662 21.0338 13.125 20 13.125Z" fill="white"/>
</g>
<defs>
<clipPath id="clip0_637_402">
<rect width="40" height="40" fill="white"/>
</clipPath>
</defs>
</svg>
