<svg width="50" height="50" viewBox="0 0 50 50" fill="none" xmlns="http://www.w3.org/2000/svg">
<g clip-path="url(#clip0_296_832)">
<path d="M4.6875 40.625H20.3125V44.5312H4.6875V40.625Z" fill="#F5B754"/>
<path d="M25 1.5625H31.25V23.4375H25V1.5625Z" fill="#F5B754"/>
<path d="M40.1695 30.2C41.4164 29.6289 42.9688 28.9188 42.9688 27.3438H41.4062C41.4062 27.8742 40.6242 28.2734 39.5187 28.7797C38.2711 29.3508 36.7188 30.0617 36.7188 31.6367C36.7188 33.2125 38.2711 33.9234 39.518 34.4953C40.6234 35.0016 41.4062 35.4016 41.4062 35.9328C41.4062 36.4656 40.6234 36.8656 39.518 37.3727C38.2703 37.9445 36.7188 38.6563 36.7188 40.232C36.7188 41.8078 38.2703 42.5195 39.518 43.0922C40.6234 43.5992 41.4062 43.9984 41.4062 44.5312H42.9688C42.9688 42.9555 41.4172 42.2438 40.1695 41.6711C39.0641 41.1641 38.2812 40.7648 38.2812 40.232C38.2812 39.6992 39.0641 39.3 40.1695 38.793C41.4164 38.2203 42.9688 37.5086 42.9688 35.9328C42.9688 34.357 41.4164 33.6461 40.1695 33.0742C39.0641 32.568 38.2812 32.168 38.2812 31.6367C38.2812 31.1055 39.0641 30.7062 40.1695 30.2Z" fill="white"/>
<path d="M33.9195 41.6711C32.8141 41.1641 32.0312 40.7648 32.0312 40.232C32.0312 39.6992 32.8141 39.3 33.9195 38.793C35.1664 38.2203 36.7188 37.5086 36.7188 35.9328C36.7188 34.357 35.1664 33.6461 33.9195 33.0742C32.8141 32.568 32.0312 32.168 32.0312 31.6367C32.0312 31.1062 32.8141 30.707 33.9195 30.2008C35.1664 29.6289 36.7188 28.9188 36.7188 27.3438H35.1562C35.1562 27.8742 34.3742 28.2734 33.2687 28.7797C32.0211 29.3508 30.4688 30.0617 30.4688 31.6367C30.4688 33.2125 32.0211 33.9234 33.268 34.4953C34.3734 35.0016 35.1562 35.4016 35.1562 35.9328C35.1562 36.4656 34.3734 36.8656 33.268 37.3727C32.0203 37.9445 30.4688 38.6563 30.4688 40.232C30.4688 41.8078 32.0203 42.5195 33.268 43.0922C34.3734 43.5992 35.1562 43.9984 35.1562 44.5312H36.7188C36.7188 42.9555 35.1672 42.2438 33.9195 41.6711Z" fill="white"/>
<path d="M27.6695 41.6711C26.5641 41.1641 25.7812 40.7648 25.7812 40.232C25.7812 39.6992 26.5641 39.3 27.6695 38.793C28.9164 38.2203 30.4688 37.5086 30.4688 35.9328C30.4688 34.357 28.9164 33.6461 27.6695 33.0742C26.5641 32.568 25.7812 32.168 25.7812 31.6367C25.7812 31.1062 26.5641 30.707 27.6695 30.2008C28.9164 29.6289 30.4688 28.9188 30.4688 27.3438H28.9062C28.9062 27.8742 28.1242 28.2734 27.0187 28.7797C25.7711 29.3508 24.2188 30.0617 24.2188 31.6367C24.2188 33.2125 25.7711 33.9234 27.018 34.4953C28.1234 35.0016 28.9062 35.4016 28.9062 35.9328C28.9062 36.4656 28.1234 36.8656 27.018 37.3727C25.7703 37.9445 24.2188 38.6563 24.2188 40.232C24.2188 41.8078 25.7703 42.5195 27.018 43.0922C28.1234 43.5992 28.9062 43.9984 28.9062 44.5312H30.4688C30.4688 42.9555 28.9172 42.2438 27.6695 41.6711Z" fill="white"/>
<path d="M27.3438 19.5312H28.9062V21.0938H27.3438V19.5312Z" fill="white"/>
<path d="M27.3438 16.4062H28.9062V17.9688H27.3438V16.4062Z" fill="white"/>
<path d="M27.3438 13.2812H28.9062V14.8438H27.3438V13.2812Z" fill="white"/>
<path d="M27.3438 10.1562H28.9062V11.7188H27.3438V10.1562Z" fill="white"/>
<path d="M27.3438 7.03125H28.9062V8.59375H27.3438V7.03125Z" fill="white"/>
<path d="M27.3438 3.90625H28.9062V5.46875H27.3438V3.90625Z" fill="white"/>
<path d="M31.25 7.03125H42.9688V8.59375H31.25V7.03125Z" fill="white"/>
<path d="M21.0938 3.90625H25V5.46875H21.0938V3.90625Z" fill="white"/>
<path d="M31.25 13.2812H35.1562V14.8438H31.25V13.2812Z" fill="white"/>
<path d="M13.2812 10.1562H25V11.7188H13.2812V10.1562Z" fill="white"/>
<path d="M31.25 19.5312H39.8438V21.0938H31.25V19.5312Z" fill="white"/>
<path d="M19.5312 16.4062H25V17.9688H19.5312V16.4062Z" fill="white"/>
<path d="M45.4375 0.78125H10.8125C8.72734 0.78125 7.03125 2.47734 7.03125 4.5625C7.03125 4.66719 7.03594 4.77188 7.04531 4.87656L8.28984 19.8102C7.54531 20.2039 7.03125 20.9766 7.03125 21.875V26.0773C5.96719 24.9352 4.45 24.2188 2.76875 24.2188C1.67344 24.2188 0.78125 25.107 0.78125 26.1992C0.78125 26.5914 0.896094 26.9711 1.11406 27.2977L1.91797 28.5031C2.21562 28.95 2.40781 29.4672 2.47422 30L2.97734 34.018C3.09453 34.9609 3.45781 35.8609 4.02891 36.6219L5.46875 38.5414V39.8438H3.90625V49.2188H21.0938V39.8438H19.5312V38.4656L20.5164 36.4961C20.8937 35.7406 21.0938 34.8945 21.0938 34.0492V24.2188H44.1148C46.0664 24.2188 47.7211 22.6953 47.882 20.7516L49.2047 4.87656C49.2141 4.77188 49.2188 4.66797 49.2188 4.5625C49.2188 2.47734 47.5227 0.78125 45.4375 0.78125ZM19.5312 47.6562H5.46875V41.4062H19.5312V47.6562ZM19.5312 34.0492C19.5312 34.6523 19.3883 35.2562 19.1187 35.7961L17.9688 38.0969V39.8438H7.03125V38.0211L5.27812 35.6836C4.87109 35.1406 4.61094 34.4977 4.52734 33.8242L4.02422 29.8062C3.92812 29.0352 3.65 28.2844 3.21797 27.6367L2.41406 26.4313C2.36797 26.3625 2.34375 26.282 2.34375 26.1992C2.34375 25.9648 2.53047 25.7812 2.76875 25.7812C5.11953 25.7812 7.03125 27.6938 7.03125 30.0445V31.25H8.59375V21.875C8.59375 21.4445 8.94375 21.0938 9.375 21.0938C9.80625 21.0938 10.1562 21.4445 10.1562 21.875V26.5625H11.7188V21.875V18.75C11.7188 18.3195 12.0688 17.9688 12.5 17.9688C12.9312 17.9688 13.2812 18.3195 13.2812 18.75V21.0938V26.5625H14.8438V21.0938C14.8438 20.6633 15.1938 20.3125 15.625 20.3125C16.0562 20.3125 16.4062 20.6633 16.4062 21.0938V23.4375V26.5625H17.9688V23.4375C17.9688 23.007 18.3188 22.6562 18.75 22.6562C19.1812 22.6562 19.5312 23.007 19.5312 23.4375V34.0492ZM44.1148 22.6562H20.95C20.6266 21.7492 19.7672 21.0938 18.75 21.0938C18.475 21.0938 18.2141 21.15 17.9688 21.2375V21.0938H18.75H25V19.5312H17.3594C16.9305 19.0555 16.3148 18.75 15.625 18.75C15.35 18.75 15.0891 18.8062 14.8438 18.8937V18.75C14.8438 18.475 14.7875 18.2141 14.7 17.9688H17.9688V16.4062H12.5C11.2078 16.4062 10.1562 17.4578 10.1562 18.75V19.675C10.0516 19.6375 9.94766 19.6 9.83672 19.5773L9.44219 14.8438H25V13.2812H9.3125L9.18203 11.7188H11.7188V10.1562H9.05234L8.92188 8.59375H25V7.03125H8.79141L8.66094 5.46875H19.5312V3.90625H8.70391C8.98594 3.00469 9.81875 2.34375 10.8117 2.34375H45.4367C46.4297 2.34375 47.2625 3.00469 47.5445 3.90625H31.25V5.46875H47.5883L47.4578 7.03125H44.5312V8.59375H47.3281L47.1977 10.1562H31.25V11.7188H47.068L46.9375 13.2812H36.7188V14.8438H46.807L46.6766 16.4062H31.25V17.9688H46.5469L46.4164 19.5312H41.4062V21.0938H46.2281C45.9445 21.9984 45.0953 22.6562 44.1148 22.6562Z" fill="white"/>
</g>
<defs>
<clipPath id="clip0_296_832">
<rect width="50" height="50" fill="white"/>
</clipPath>
</defs>
</svg>
