<svg width="50" height="50" viewBox="0 0 50 50" fill="none" xmlns="http://www.w3.org/2000/svg">
<g clip-path="url(#clip0_525_174)">
<path d="M42.1875 20.3125H7.8125L7.03125 23.4375C9.03203 25.4383 11.7461 26.5625 14.5758 26.5625H35.4242C38.2539 26.5625 40.968 25.4383 42.9688 23.4375L42.1875 20.3125Z" fill="#F5B754"/>
<path d="M42.9688 41.4062H38.2812C37.418 41.4062 36.7188 40.707 36.7188 39.8438C36.7188 38.9805 37.418 38.2812 38.2812 38.2812H42.9688C43.832 38.2812 44.5312 38.9805 44.5312 39.8438C44.5312 40.707 43.832 41.4062 42.9688 41.4062Z" fill="#F5B754"/>
<path d="M11.7188 41.4062H7.03125C6.16797 41.4062 5.46875 40.707 5.46875 39.8438C5.46875 38.9805 6.16797 38.2812 7.03125 38.2812H11.7188C12.582 38.2812 13.2812 38.9805 13.2812 39.8438C13.2812 40.707 12.582 41.4062 11.7188 41.4062Z" fill="#F5B754"/>
<path d="M10.4485 4.6875H39.5516C38.8993 2.84219 37.1493 1.5625 35.1383 1.5625H14.8618C12.8508 1.5625 11.1008 2.84219 10.4485 4.6875Z" fill="#F5B754"/>
<path d="M10.969 14.7109L12.3609 6.92888L13.8984 7.20388L12.5065 14.9859L10.969 14.7109Z" fill="black"/>
<path d="M10.4061 17.8516L10.6927 16.2496L12.2307 16.5247L11.9442 18.1267L10.4061 17.8516Z" fill="black"/>
<path d="M18.75 38.2812H20.3125V39.8438H18.75V38.2812Z" fill="black"/>
<path d="M21.875 38.2812H31.25V39.8438H21.875V38.2812Z" fill="black"/>
<path d="M43.7 23.0867L43.6227 22.6562H45.3125C47.4664 22.6562 49.2188 20.9039 49.2188 18.75C49.2188 17.4578 48.1672 16.4062 46.875 16.4062H44.3969C43.7711 16.4062 43.182 16.65 42.7398 17.093L42.6461 17.1867L40.5211 5.28906C40.0555 2.67656 37.7914 0.78125 35.1383 0.78125H14.8617C12.2086 0.78125 9.94453 2.67656 9.47812 5.28906L7.35312 17.1867L7.25937 17.093C6.81797 16.65 6.22891 16.4062 5.60313 16.4062H3.125C1.83281 16.4062 0.78125 17.4578 0.78125 18.75C0.78125 20.9039 2.53359 22.6562 4.6875 22.6562H6.37734L6.30078 23.0867L2.52109 27.4055C1.39922 28.6875 0.78125 30.332 0.78125 32.0359V37.5C0.78125 41.1125 3.52109 44.0953 7.03125 44.4852V46.875C7.03125 48.1672 8.08281 49.2188 9.375 49.2188H14.0625C15.3547 49.2188 16.4062 48.1672 16.4062 46.875V44.1656L18.182 42.9688H19.5312H30.4688H31.7945L33.5938 44.168V46.875C33.5938 48.1672 34.6453 49.2188 35.9375 49.2188H40.625C41.9172 49.2188 42.9688 48.1672 42.9688 46.875V44.4852C46.4789 44.0945 49.2188 41.1125 49.2188 37.5V32.0359C49.2188 30.332 48.6008 28.6875 47.4789 27.4055L43.7 23.0867ZM41.4062 29.6875C41.4062 28.3953 42.4578 27.3438 43.75 27.3438C45.0422 27.3438 46.0938 28.3953 46.0938 29.6875C46.0938 30.9797 45.0422 32.0312 43.75 32.0312C43.1352 32.0312 42.5555 31.7797 42.1187 31.3539C42.0117 30.7453 41.7617 30.1906 41.407 29.7133C41.407 29.7047 41.4062 29.6961 41.4062 29.6875ZM40.625 32.0312C40.625 33.3234 39.5734 34.375 38.2812 34.375C37.1281 34.375 36.1695 33.5445 35.9789 32.425C36.2125 31.8031 36.3977 31.1633 36.5195 30.5047C36.9656 29.9898 37.5938 29.6875 38.2812 29.6875C39.5734 29.6875 40.625 30.7391 40.625 32.0312ZM34.4617 32.0312H15.5383C15.3383 31.5258 15.1805 31.0039 15.0664 30.4688H34.9336C34.8195 31.0039 34.6617 31.5258 34.4617 32.0312ZM14.0203 32.4234C13.832 33.5438 12.8734 34.375 11.7188 34.375C10.4266 34.375 9.375 33.3234 9.375 32.0312C9.375 30.7391 10.4266 29.6875 11.7188 29.6875C12.4062 29.6875 13.0344 29.9898 13.4805 30.5047C13.6023 31.1625 13.7867 31.8023 14.0203 32.4234ZM8.59297 29.7133C8.23828 30.1898 7.98906 30.7445 7.88125 31.3531C7.44453 31.7797 6.86484 32.0312 6.25 32.0312C4.95781 32.0312 3.90625 30.9797 3.90625 29.6875C3.90625 28.3953 4.95781 27.3438 6.25 27.3438C7.54219 27.3438 8.59375 28.3953 8.59375 29.6875C8.59375 29.6961 8.59297 29.7047 8.59297 29.7133ZM6.25 33.5938C6.86641 33.5938 7.46406 33.4437 8.00234 33.1727C8.25 33.975 8.73984 34.6656 9.39922 35.1562H7.76875C5.68359 35.1562 3.80938 33.9984 2.87734 32.1328L2.41172 31.2023C2.43594 31.0453 2.46719 30.8906 2.50469 30.7367C2.96719 32.3797 4.4625 33.5938 6.25 33.5938ZM14.9125 34.2664C15.0953 34.5711 15.293 34.868 15.5055 35.1562H14.043C14.3781 34.907 14.6719 34.6102 14.9125 34.2664ZM17.532 35.1562C17.0758 34.6711 16.6742 34.1484 16.3297 33.5938H33.6703C33.3258 34.1484 32.9242 34.6711 32.468 35.1562H30.4688H19.5312H17.532ZM35.0875 34.2656C35.3281 34.6094 35.6219 34.907 35.957 35.1562H34.4938C34.707 34.8672 34.9047 34.5711 35.0875 34.2656ZM41.9977 33.1727C42.5359 33.4437 43.1336 33.5938 43.75 33.5938C45.5375 33.5938 47.0328 32.3797 47.4945 30.7375C47.532 30.8914 47.5633 31.0461 47.5875 31.2031L47.1219 32.1344C46.1906 33.9984 44.3164 35.1562 42.2313 35.1562H40.6008C41.2594 34.6656 41.75 33.975 41.9977 33.1727ZM43.8445 18.1977C43.9906 18.0523 44.1914 17.9688 44.3969 17.9688H46.875C47.3063 17.9688 47.6562 18.3195 47.6562 18.75C47.6562 20.0422 46.6047 21.0938 45.3125 21.0938H43.3438L42.9805 19.0617L43.8445 18.1977ZM11.0172 5.56328C11.3492 3.69766 12.9672 2.34375 14.8617 2.34375H35.1375C37.0328 2.34375 38.65 3.69766 38.9828 5.56328L41.4773 19.5312H39.7977C39.4852 16.7195 37.5102 14.4031 34.8797 13.5922C35.5305 12.8945 35.9375 11.9648 35.9375 10.9375C35.9375 8.78359 34.1852 7.03125 32.0312 7.03125C29.8773 7.03125 28.125 8.78359 28.125 10.9375C28.125 11.9648 28.532 12.8945 29.1828 13.5922C26.5516 14.4031 24.5773 16.7195 24.2648 19.5312H8.52266L11.0172 5.56328ZM35.8586 19.5312C35.4953 17.7508 33.918 16.4062 32.0312 16.4062C30.1445 16.4062 28.5672 17.7508 28.2039 19.5312H25.8438C26.225 16.8852 28.5008 14.8438 31.25 14.8438H32.8125C35.5617 14.8438 37.8375 16.8852 38.2188 19.5312H35.8586ZM34.2313 19.5312H29.832C30.1555 18.6242 31.0148 17.9688 32.032 17.9688C33.0492 17.9688 33.9078 18.6242 34.2313 19.5312ZM32.0312 13.2812C30.7391 13.2812 29.6875 12.2297 29.6875 10.9375C29.6875 9.64531 30.7391 8.59375 32.0312 8.59375C33.3234 8.59375 34.375 9.64531 34.375 10.9375C34.375 12.2297 33.3234 13.2812 32.0312 13.2812ZM4.6875 21.0938C3.39531 21.0938 2.34375 20.0422 2.34375 18.75C2.34375 18.3195 2.69375 17.9688 3.125 17.9688H5.60313C5.80859 17.9688 6.01016 18.0523 6.15547 18.1977L7.01953 19.0617L6.65625 21.0938H4.6875ZM7.7625 23.7883L8.24375 21.0938H41.757L42.2383 23.7883L44.0039 25.807C43.918 25.8016 43.8367 25.7812 43.75 25.7812C41.9914 25.7812 40.5187 26.957 40.0305 28.5578C39.5016 28.2898 38.9133 28.125 38.2812 28.125C37.7305 28.125 37.2016 28.243 36.7156 28.4555C36.7156 28.4344 36.7188 28.4141 36.7188 28.393V26.5625H35.1562V28.393C35.1562 28.5656 35.1398 28.7352 35.1312 28.9062H14.8687C14.8602 28.7352 14.8438 28.5656 14.8438 28.393V26.5625H13.2812V28.393C13.2812 28.4141 13.2844 28.4344 13.2844 28.4555C12.7984 28.243 12.2695 28.125 11.7188 28.125C11.0867 28.125 10.4984 28.2898 9.96953 28.5578C9.48125 26.957 8.00859 25.7812 6.25 25.7812C6.16328 25.7812 6.08203 25.8016 5.99609 25.807L7.7625 23.7883ZM14.0625 47.6562H9.375C8.94375 47.6562 8.59375 47.3055 8.59375 46.875V44.5312H14.8438V46.875C14.8438 47.3055 14.4937 47.6562 14.0625 47.6562ZM15.3859 42.9688H7.8125C4.79766 42.9688 2.34375 40.5156 2.34375 37.5V34.1398C3.66016 35.7516 5.62188 36.7188 7.76875 36.7188H16.4258C15.9305 37.3734 15.625 38.1797 15.625 39.0625C15.625 40.2055 16.1273 41.225 16.9125 41.9406L15.3859 42.9688ZM19.5312 41.4062C18.2391 41.4062 17.1875 40.3547 17.1875 39.0625C17.1875 37.7703 18.2391 36.7188 19.5312 36.7188H30.4688C31.7609 36.7188 32.8125 37.7703 32.8125 39.0625C32.8125 40.3547 31.7609 41.4062 30.4688 41.4062H19.5312ZM40.625 47.6562H35.9375C35.5062 47.6562 35.1562 47.3055 35.1562 46.875V44.5312H41.4062V46.875C41.4062 47.3055 41.0563 47.6562 40.625 47.6562ZM42.1875 42.9688H34.6117L33.0797 41.9477C33.8687 41.232 34.375 40.2094 34.375 39.0625C34.375 38.1797 34.0695 37.3734 33.5734 36.7188H42.2305C44.3781 36.7188 46.3398 35.7516 47.6555 34.1398V37.5C47.6562 40.5156 45.2023 42.9688 42.1875 42.9688Z" fill="black"/>
</g>
<defs>
<clipPath id="clip0_525_174">
<rect width="50" height="50" fill="white"/>
</clipPath>
</defs>
</svg>
