<svg width="50" height="50" viewBox="0 0 50 50" fill="none" xmlns="http://www.w3.org/2000/svg">
<g clip-path="url(#clip0_296_867)">
<path d="M11.8602 28.9062L11.3617 25.9211C11.0469 24.0289 9.42578 22.6562 7.50859 22.6562H4.06172C3.46641 23.7617 3.125 25.0195 3.125 26.3508V28.9062H11.8602Z" fill="#F5B754"/>
<path d="M39.1805 0.78125C36.4086 0.78125 33.7258 1.93359 31.818 3.94219L19.9352 16.4508L9.77656 17.8359C5.53906 18.4133 2.34375 22.0734 2.34375 26.3508V32.1758C1.43672 32.4984 0.78125 33.3578 0.78125 34.375V35.9375C0.78125 37.2297 1.83281 38.2812 3.125 38.2812H15.625V36.7188H13.3211C13.7289 29.7594 19.5031 24.2188 26.5625 24.2188C33.6219 24.2188 39.3961 29.7594 39.8039 36.7188H37.5V38.2812H49.2188V0.78125H39.1805ZM3.125 36.7188C2.69375 36.7188 2.34375 36.3688 2.34375 35.9375V34.375C2.34375 33.9437 2.69375 33.5938 3.125 33.5938H12.2578C11.9828 34.5977 11.8148 35.6422 11.7586 36.7188H3.125ZM47.6562 19.5312H44.5312V21.0938H47.6562V32.0312H43.5781L43.443 31.4922C41.7477 24.7039 35.832 19.8891 28.9062 19.55V17.9688H31.25H47.6562V19.5312ZM28.9062 16.4062V14.0625C28.9062 13.632 29.2563 13.2812 29.6875 13.2812H32.8125C33.2438 13.2812 33.5938 13.632 33.5938 14.0625C33.5938 15.3547 32.5422 16.4062 31.25 16.4062H28.9062ZM47.6562 16.4062H34.3547C34.8508 15.7516 35.1562 14.9453 35.1562 14.0625C35.1562 12.7703 34.1047 11.7188 32.8125 11.7188H31.3336L35.9023 6.73516C36.6391 5.93047 37.6883 5.46875 38.7812 5.46875H47.6562V16.4062ZM47.6562 3.90625H38.7812C37.2516 3.90625 35.782 4.55312 34.75 5.67969L29.1516 11.7867C28.1172 12.0305 27.3438 12.9555 27.3438 14.0625V21.0938H28.125C34.6656 21.0938 40.3422 25.525 41.9281 31.8711L42.3594 33.5938H47.6562V36.7188H41.3664C40.9562 28.8977 34.4836 22.6562 26.5625 22.6562C20.3102 22.6562 14.9594 26.5477 12.7758 32.0312H3.90625V26.3508C3.90625 22.8516 6.52031 19.857 9.98672 19.3844L20.6898 17.925L32.9508 5.01875C34.5648 3.31875 36.8352 2.34375 39.1805 2.34375H47.6562V3.90625Z" fill="black"/>
<path d="M26.5625 49.2188C20.1008 49.2188 14.8438 43.9617 14.8438 37.5C14.8438 31.0383 20.1008 25.7812 26.5625 25.7812C33.0242 25.7812 38.2812 31.0383 38.2812 37.5C38.2812 43.9617 33.0242 49.2188 26.5625 49.2188ZM26.5625 29.6875C22.2547 29.6875 18.75 33.1922 18.75 37.5C18.75 41.8078 22.2547 45.3125 26.5625 45.3125C30.8703 45.3125 34.375 41.8078 34.375 37.5C34.375 33.1922 30.8703 29.6875 26.5625 29.6875Z" fill="#F5B754"/>
<path d="M26.5625 28.9062C21.8242 28.9062 17.9688 32.7617 17.9688 37.5C17.9688 42.2383 21.8242 46.0938 26.5625 46.0938C31.3008 46.0938 35.1562 42.2383 35.1562 37.5C35.1562 32.7617 31.3008 28.9062 26.5625 28.9062ZM33.5477 36.7188H28.7625C28.5266 36.057 28.0055 35.5359 27.3438 35.3V30.5148C30.5977 30.8766 33.1859 33.4648 33.5477 36.7188ZM26.5625 38.2812C26.1313 38.2812 25.7812 37.9312 25.7812 37.5C25.7812 37.0688 26.1313 36.7188 26.5625 36.7188C26.9937 36.7188 27.3438 37.0688 27.3438 37.5C27.3438 37.9312 26.9937 38.2812 26.5625 38.2812ZM25.7812 30.5148V35.3C25.1195 35.5359 24.5984 36.057 24.3625 36.7188H19.5773C19.9391 33.4648 22.5273 30.8766 25.7812 30.5148ZM19.5773 38.2812H24.3625C24.5984 38.943 25.1195 39.4641 25.7812 39.7V44.4852C22.5273 44.1234 19.9391 41.5352 19.5773 38.2812ZM27.3438 44.4852V39.7C28.0055 39.4641 28.5266 38.943 28.7625 38.2812H33.5477C33.1859 41.5352 30.5977 44.1234 27.3438 44.4852Z" fill="black"/>
</g>
<defs>
<clipPath id="clip0_296_867">
<rect width="50" height="50" fill="white"/>
</clipPath>
</defs>
</svg>
