<svg width="20" height="20" viewBox="0 0 20 20" fill="none" xmlns="http://www.w3.org/2000/svg">
<path d="M11.9277 16.5856C12.603 17.0219 13.4078 17.2121 14.2066 17.1241C15.0054 17.0361 15.7497 16.6753 16.3141 16.1023L16.8076 15.6191C17.024 15.3975 17.1451 15.0998 17.1451 14.7899C17.1451 14.4799 17.024 14.1823 16.8076 13.9607L14.7131 11.8849C14.4937 11.6689 14.1983 11.5479 13.8906 11.5479C13.583 11.5479 13.2876 11.6689 13.0682 11.8849V11.8849C12.8469 12.1016 12.5497 12.2229 12.2402 12.2229C11.9308 12.2229 11.6336 12.1016 11.4123 11.8849L8.12247 8.59C8.01272 8.48168 7.92557 8.35259 7.86609 8.21024C7.8066 8.06788 7.77597 7.91511 7.77597 7.76079C7.77597 7.60647 7.8066 7.45369 7.86609 7.31134C7.92557 7.16898 8.01272 7.03989 8.12247 6.93157V6.93157C8.33812 6.7118 8.45896 6.41599 8.45896 6.10785C8.45896 5.79972 8.33812 5.5039 8.12247 5.28413L6.03891 3.19737C5.81763 2.9807 5.52045 2.85938 5.21097 2.85938C4.9015 2.85938 4.60432 2.9807 4.38303 3.19737L3.90053 3.6916C3.32848 4.25694 2.96823 5.00231 2.88035 5.80238C2.79248 6.60245 2.98234 7.40843 3.41802 8.08478C5.68805 11.4354 8.5764 14.3207 11.9277 16.5856V16.5856Z" stroke="white" stroke-linecap="round" stroke-linejoin="round"/>
</svg>
