<svg width="60" height="60" viewBox="0 0 60 60" fill="none" xmlns="http://www.w3.org/2000/svg">
<g clip-path="url(#clip0_624_257)">
<path d="M14.2322 34.6875L13.6341 31.1053C13.2563 28.8347 11.3109 27.1875 9.01031 27.1875H4.87406C4.15969 28.5141 3.75 30.0234 3.75 31.6209V34.6875H14.2322Z" fill="#F5B754"/>
<path d="M47.0166 0.9375C43.6903 0.9375 40.4709 2.32031 38.1816 4.73062L23.9222 19.7409L11.7319 21.4031C6.64688 22.0959 2.8125 26.4881 2.8125 31.6209V38.6109C1.72406 38.9981 0.9375 40.0294 0.9375 41.25V43.125C0.9375 44.6756 2.19937 45.9375 3.75 45.9375H18.75V44.0625H15.9853C16.4747 35.7113 23.4037 29.0625 31.875 29.0625C40.3462 29.0625 47.2753 35.7113 47.7647 44.0625H45V45.9375H59.0625V0.9375H47.0166ZM3.75 44.0625C3.2325 44.0625 2.8125 43.6425 2.8125 43.125V41.25C2.8125 40.7325 3.2325 40.3125 3.75 40.3125H14.7094C14.3794 41.5172 14.1778 42.7706 14.1103 44.0625H3.75ZM57.1875 23.4375H53.4375V25.3125H57.1875V38.4375H52.2937L52.1316 37.7906C50.0972 29.6447 42.9984 23.8669 34.6875 23.46V21.5625H37.5H57.1875V23.4375ZM34.6875 19.6875V16.875C34.6875 16.3584 35.1075 15.9375 35.625 15.9375H39.375C39.8925 15.9375 40.3125 16.3584 40.3125 16.875C40.3125 18.4256 39.0506 19.6875 37.5 19.6875H34.6875ZM57.1875 19.6875H41.2256C41.8209 18.9019 42.1875 17.9344 42.1875 16.875C42.1875 15.3244 40.9256 14.0625 39.375 14.0625H37.6003L43.0828 8.08219C43.9669 7.11656 45.2259 6.5625 46.5375 6.5625H57.1875V19.6875ZM57.1875 4.6875H46.5375C44.7019 4.6875 42.9384 5.46375 41.7 6.81563L34.9819 14.1441C33.7406 14.4366 32.8125 15.5466 32.8125 16.875V25.3125H33.75C41.5988 25.3125 48.4106 30.63 50.3138 38.2453L50.8313 40.3125H57.1875V44.0625H49.6397C49.1475 34.6772 41.3803 27.1875 31.875 27.1875C24.3722 27.1875 17.9513 31.8572 15.3309 38.4375H4.6875V31.6209C4.6875 27.4219 7.82438 23.8284 11.9841 23.2612L24.8278 21.51L39.5409 6.0225C41.4778 3.9825 44.2022 2.8125 47.0166 2.8125H57.1875V4.6875Z" fill="black"/>
<path d="M31.875 59.0625C24.1209 59.0625 17.8125 52.7541 17.8125 45C17.8125 37.2459 24.1209 30.9375 31.875 30.9375C39.6291 30.9375 45.9375 37.2459 45.9375 45C45.9375 52.7541 39.6291 59.0625 31.875 59.0625ZM31.875 35.625C26.7056 35.625 22.5 39.8306 22.5 45C22.5 50.1694 26.7056 54.375 31.875 54.375C37.0444 54.375 41.25 50.1694 41.25 45C41.25 39.8306 37.0444 35.625 31.875 35.625Z" fill="#F5B754"/>
<path d="M31.875 34.6875C26.1891 34.6875 21.5625 39.3141 21.5625 45C21.5625 50.6859 26.1891 55.3125 31.875 55.3125C37.5609 55.3125 42.1875 50.6859 42.1875 45C42.1875 39.3141 37.5609 34.6875 31.875 34.6875ZM40.2572 44.0625H34.515C34.2319 43.2684 33.6066 42.6431 32.8125 42.36V36.6178C36.7172 37.0519 39.8231 40.1578 40.2572 44.0625ZM31.875 45.9375C31.3575 45.9375 30.9375 45.5175 30.9375 45C30.9375 44.4825 31.3575 44.0625 31.875 44.0625C32.3925 44.0625 32.8125 44.4825 32.8125 45C32.8125 45.5175 32.3925 45.9375 31.875 45.9375ZM30.9375 36.6178V42.36C30.1434 42.6431 29.5181 43.2684 29.235 44.0625H23.4928C23.9269 40.1578 27.0328 37.0519 30.9375 36.6178ZM23.4928 45.9375H29.235C29.5181 46.7316 30.1434 47.3569 30.9375 47.64V53.3822C27.0328 52.9481 23.9269 49.8422 23.4928 45.9375ZM32.8125 53.3822V47.64C33.6066 47.3569 34.2319 46.7316 34.515 45.9375H40.2572C39.8231 49.8422 36.7172 52.9481 32.8125 53.3822Z" fill="black"/>
</g>
<defs>
<clipPath id="clip0_624_257">
<rect width="60" height="60" fill="white"/>
</clipPath>
</defs>
</svg>
