<svg width="50" height="50" viewBox="0 0 50 50" fill="none" xmlns="http://www.w3.org/2000/svg">
<g clip-path="url(#clip0_296_895)">
<path d="M31.25 8.59375C29.9578 8.59375 28.9062 7.54219 28.9062 6.25C28.9062 4.95781 29.9578 3.90625 31.25 3.90625C32.5422 3.90625 33.5938 4.95781 33.5938 6.25C33.5938 7.54219 32.5422 8.59375 31.25 8.59375Z" fill="#F5B754"/>
<path d="M25 8.59375C23.7078 8.59375 22.6562 7.54219 22.6562 6.25C22.6562 4.95781 23.7078 3.90625 25 3.90625C26.2922 3.90625 27.3438 4.95781 27.3438 6.25C27.3438 7.54219 26.2922 8.59375 25 8.59375Z" fill="#F5B754"/>
<path d="M18.75 8.59375C17.4578 8.59375 16.4062 7.54219 16.4062 6.25C16.4062 4.95781 17.4578 3.90625 18.75 3.90625C20.0422 3.90625 21.0938 4.95781 21.0938 6.25C21.0938 7.54219 20.0422 8.59375 18.75 8.59375Z" fill="#F5B754"/>
<path d="M49.2188 9.375V6.25C49.2188 4.95781 48.1672 3.90625 46.875 3.90625H36.4203L35.5055 2.07656C35.1063 1.27734 34.3023 0.78125 33.4094 0.78125H16.5906C15.6969 0.78125 14.8938 1.27734 14.4937 2.07656L13.5797 3.90625H3.125C1.83281 3.90625 0.78125 4.95781 0.78125 6.25V9.375C0.78125 10.3922 1.43672 11.2516 2.34375 11.575V39.9883C1.43672 40.3109 0.78125 41.1703 0.78125 42.1875V43.75C0.78125 45.0422 1.83281 46.0938 3.125 46.0938H3.90625V46.875C3.90625 48.1672 4.95781 49.2188 6.25 49.2188H10.9375C12.2297 49.2188 13.2812 48.1672 13.2812 46.875V46.0938H36.7188V46.875C36.7188 48.1672 37.7703 49.2188 39.0625 49.2188H43.75C45.0422 49.2188 46.0938 48.1672 46.0938 46.875V46.0938H46.875C48.1672 46.0938 49.2188 45.0422 49.2188 43.75V42.1875C49.2188 41.1703 48.5633 40.3109 47.6562 39.9875V11.575C48.5633 11.2516 49.2188 10.3922 49.2188 9.375ZM11.7188 46.875C11.7188 47.3055 11.3687 47.6562 10.9375 47.6562H6.25C5.81875 47.6562 5.46875 47.3055 5.46875 46.875V46.0938H11.7188V46.875ZM44.5312 46.875C44.5312 47.3055 44.1813 47.6562 43.75 47.6562H39.0625C38.6312 47.6562 38.2812 47.3055 38.2812 46.875V46.0938H44.5312V46.875ZM47.6562 43.75C47.6562 44.1805 47.3063 44.5312 46.875 44.5312H3.125C2.69375 44.5312 2.34375 44.1805 2.34375 43.75V42.1875C2.34375 41.757 2.69375 41.4062 3.125 41.4062H46.875C47.3063 41.4062 47.6562 41.757 47.6562 42.1875V43.75ZM3.90625 39.8438V11.7188H5.46875V39.8438H3.90625ZM7.03125 39.8438V11.7188H8.59375V39.8438H7.03125ZM10.1562 39.8438V11.7188H11.7188V39.8438H10.1562ZM16.4062 19.5312V11.7188H17.9688V19.5312H19.5312V11.7188H21.0938V19.5312H22.6562V11.7188H24.2188V19.5312H25.7812V11.7188H27.3438V19.5312H28.9062V11.7188H30.4688V19.5312H32.0312V11.7188H33.5938V19.5312H35.1562V11.7188H36.7188V39.8438H35.1562V32.0312H33.5938V39.8438H32.0312V32.0312H30.4688V39.8438H28.9062V32.0312H27.3438V39.8438H25.7812V32.0312H24.2188V39.8438H22.6562V32.0312H21.0938V39.8438H19.5312V32.0312H17.9688V39.8438H16.4062V32.0312H14.8438V39.8438H13.2812V11.7188H14.8438V19.5312H16.4062ZM38.2812 39.8438V11.7188H39.8438V39.8438H38.2812ZM41.4062 39.8438V11.7188H42.9688V39.8438H41.4062ZM44.5312 39.8438V11.7188H46.0938V39.8438H44.5312ZM46.875 10.1562H3.125C2.69375 10.1562 2.34375 9.80547 2.34375 9.375V6.25C2.34375 5.81953 2.69375 5.46875 3.125 5.46875H14.5453L15.8922 2.77578C16.0258 2.50937 16.293 2.34375 16.5906 2.34375H33.4086C33.7062 2.34375 33.9742 2.50937 34.1078 2.77578L35.4547 5.46875H46.875C47.3063 5.46875 47.6562 5.81953 47.6562 6.25V9.375C47.6562 9.80547 47.3063 10.1562 46.875 10.1562Z" fill="black"/>
<path d="M34.375 32.8125H15.625C13.4711 32.8125 11.7188 31.0602 11.7188 28.9062V22.6562C11.7188 20.5023 13.4711 18.75 15.625 18.75H34.375C36.5289 18.75 38.2812 20.5023 38.2812 22.6562V28.9062C38.2812 31.0602 36.5289 32.8125 34.375 32.8125Z" fill="#F5B754"/>
<path d="M14.8438 21.875H16.4062V23.4375H14.8438V21.875Z" fill="black"/>
<path d="M17.9688 21.875H35.1562V23.4375H17.9688V21.875Z" fill="black"/>
<path d="M14.8438 25H35.1562V26.5625H14.8438V25Z" fill="black"/>
<path d="M14.8438 28.125H32.0312V29.6875H14.8438V28.125Z" fill="black"/>
<path d="M33.5938 28.125H35.1562V29.6875H33.5938V28.125Z" fill="black"/>
</g>
<defs>
<clipPath id="clip0_296_895">
<rect width="50" height="50" fill="white"/>
</clipPath>
</defs>
</svg>
