<svg width="60" height="60" viewBox="0 0 60 60" fill="none" xmlns="http://www.w3.org/2000/svg">
<path d="M51.5625 35.625C48.9741 35.625 46.875 37.7241 46.875 40.3125V42.1875H50.5931C53.9419 42.1875 56.8847 39.9675 57.8044 36.7481L58.125 35.625H51.5625Z" fill="#F5B754"/>
<path d="M8.4375 35.625C11.0259 35.625 13.125 37.7241 13.125 40.3125V42.1875H9.40688C6.05813 42.1875 3.11531 39.9675 2.19563 36.7481L1.875 35.625H8.4375Z" fill="#F5B754"/>
<path d="M44.0625 30.9375V36.8841C44.0625 37.8787 43.6678 38.8322 42.9637 39.5353L40.3125 42.1875H19.6875L17.0363 39.5363C16.3322 38.8322 15.9375 37.8787 15.9375 36.8841V30.9375H44.0625Z" fill="#F5B754"/>
<path d="M12.4406 15.6675C12.5728 14.7525 13.3716 14.0625 14.2959 14.0625H20.625V12.1875H14.2959C12.4453 12.1875 10.8506 13.5684 10.5853 15.3975L10.2516 17.6925L12.1069 17.9634L12.4406 15.6675Z" fill="black"/>
<path d="M59.0625 23.4375C59.0625 21.8869 57.8006 20.625 56.25 20.625H53.6888L53.0241 14.3137C52.6725 10.9631 49.8666 8.4375 46.4991 8.4375H45.5803L43.7053 4.6875H16.2956L14.4206 8.4375H13.5019C10.1334 8.4375 7.32844 10.9631 6.97594 14.3137L6.31125 20.625H3.75C2.19937 20.625 0.9375 21.8869 0.9375 23.4375C0.9375 25.8328 2.75063 27.7922 5.07375 28.0688L0.9375 36.3412V40.3125C0.9375 43.6172 2.85188 46.4756 5.625 47.8594V53.4375C5.625 54.9881 6.88688 56.25 8.4375 56.25H14.0625C15.6131 56.25 16.875 54.9881 16.875 53.4375V48.75H43.125V53.4375C43.125 54.9881 44.3869 56.25 45.9375 56.25H51.5625C53.1131 56.25 54.375 54.9881 54.375 53.4375V47.8594C57.1481 46.4756 59.0625 43.6162 59.0625 40.3125V36.3412L54.9263 28.0697C57.2494 27.7922 59.0625 25.8328 59.0625 23.4375ZM9.63844 41.25C7.43906 41.25 5.39812 40.1578 4.17844 38.3278L2.95688 36.495L6.81938 28.77L7.45312 29.4037C9.04594 30.9975 11.1647 31.875 13.4184 31.875H46.5806C48.8344 31.875 50.9531 30.9975 52.5459 29.4037L53.1797 28.77L57.0422 36.495L55.8206 38.3278C54.6019 40.1578 52.56 41.25 50.3616 41.25H9.63844ZM25.8619 24.375C26.0756 24.375 26.25 24.5494 26.25 24.7631C26.25 24.8653 26.2087 24.9656 26.1366 25.0378L21.1744 30H19.1381L24.7631 24.375H25.8619ZM16.4869 30H13.5131L25.7006 17.8125H26.1366C26.7159 17.8125 27.1875 18.2841 27.1875 18.8634C27.1875 19.14 27.0759 19.4109 26.88 19.6069L16.4869 30ZM46.4869 24.375C46.7006 24.375 46.875 24.5494 46.875 24.7631C46.875 24.8653 46.8338 24.9656 46.7616 25.0378L41.7994 30H39.7631L45.3881 24.375H46.4869ZM37.1119 30H34.1381L46.3256 17.8125H46.7616C47.3409 17.8125 47.8125 18.2841 47.8125 18.8634C47.8125 19.14 47.7009 19.4109 47.505 19.6069L37.1119 30ZM56.25 22.5C56.7675 22.5 57.1875 22.92 57.1875 23.4375C57.1875 24.9881 55.9256 26.25 54.375 26.25H54.2812L53.8866 22.5H56.25ZM17.4544 6.5625H42.5456L43.4831 8.4375H16.5169L17.4544 6.5625ZM8.83969 14.5097C9.09094 12.1172 11.0953 10.3125 13.5009 10.3125H46.4981C48.9038 10.3125 50.9081 12.1172 51.1603 14.5097L52.4578 26.8416L51.2203 28.0791C49.9809 29.3184 48.3328 30.0009 46.5806 30.0009H44.4506L48.0872 26.3644C48.5081 25.9425 48.75 25.3594 48.75 24.7631C48.75 23.7478 48.0741 22.8975 47.1516 22.6116L48.8306 20.9325C49.3753 20.3878 49.6875 19.6341 49.6875 18.8634C49.6875 17.25 48.375 15.9375 46.7616 15.9375H45.5494L31.4869 30H23.8256L27.4622 26.3634C27.8831 25.9425 28.125 25.3594 28.125 24.7631C28.125 23.7478 27.4491 22.8975 26.5266 22.6116L28.2056 20.9325C28.7503 20.3878 29.0625 19.6341 29.0625 18.8634C29.0625 17.25 27.75 15.9375 26.1366 15.9375H24.9244L11.2387 29.6231C10.3247 29.3016 9.48469 28.7841 8.77875 28.0791L7.54125 26.8416L8.83969 14.5097ZM2.8125 23.4375C2.8125 22.92 3.2325 22.5 3.75 22.5H6.11344L5.71875 26.25H5.625C4.07437 26.25 2.8125 24.9881 2.8125 23.4375ZM2.8125 40.3125V39.6234C4.39688 41.8162 6.91875 43.125 9.63844 43.125H21.735C21.63 43.4194 21.5625 43.7325 21.5625 44.0625V45.9375C21.5625 46.2675 21.63 46.5806 21.735 46.875H9.375C5.75719 46.875 2.8125 43.9303 2.8125 40.3125ZM15 53.4375C15 53.955 14.58 54.375 14.0625 54.375H8.4375C7.92 54.375 7.5 53.955 7.5 53.4375V48.5325C8.10375 48.6703 8.73 48.75 9.375 48.75H15V53.4375ZM24.375 46.875C23.8575 46.875 23.4375 46.455 23.4375 45.9375V44.0625C23.4375 43.545 23.8575 43.125 24.375 43.125H35.625C36.1425 43.125 36.5625 43.545 36.5625 44.0625V45.9375C36.5625 46.455 36.1425 46.875 35.625 46.875H24.375ZM52.5 53.4375C52.5 53.955 52.08 54.375 51.5625 54.375H45.9375C45.42 54.375 45 53.955 45 53.4375V48.75H50.625C51.27 48.75 51.8963 48.6703 52.5 48.5325V53.4375ZM50.625 46.875H38.265C38.37 46.5806 38.4375 46.2675 38.4375 45.9375V44.0625C38.4375 43.7325 38.37 43.4194 38.265 43.125H50.3616C53.0813 43.125 55.6031 41.8162 57.1875 39.6234V40.3125C57.1875 43.9303 54.2428 46.875 50.625 46.875Z" fill="black"/>
<path d="M22.5 12.1875H24.375V14.0625H22.5V12.1875Z" fill="black"/>
<path d="M26.25 12.1875H28.125V14.0625H26.25V12.1875Z" fill="black"/>
</svg>
