<svg width="60" height="60" viewBox="0 0 60 60" fill="none" xmlns="http://www.w3.org/2000/svg">
<g clip-path="url(#clip0_564_122)">
<path d="M39.0282 5.625C36.8841 3.32344 33.8354 1.875 30.4407 1.875H29.5594C26.1657 1.875 23.1169 3.32344 20.9719 5.625H21.5625C23.6757 5.625 25.4288 7.25812 25.5797 9.36562L25.9829 15.0094C26.1338 17.1169 27.8869 18.75 30 18.75C32.1132 18.75 33.8663 17.1169 34.0172 15.0094L34.4204 9.36562C34.5713 7.25812 36.3244 5.625 38.4375 5.625H39.0282Z" fill="#F5B754"/>
<path d="M54.375 27.1875H37.5V26.5097L41.3175 20.1478C42.4997 18.1762 43.125 15.9197 43.125 13.6209C43.125 6.62719 37.4353 0.9375 30.4416 0.9375H29.5594C22.5647 0.9375 16.875 6.62719 16.875 13.6209C16.875 15.9197 17.5003 18.1763 18.6825 20.1469L22.5 26.5097V27.1875H5.625C3.04031 27.1875 0.9375 29.2903 0.9375 31.875V54.375C0.9375 56.9597 3.04031 59.0625 5.625 59.0625H54.375C56.9597 59.0625 59.0625 56.9597 59.0625 54.375V31.875C59.0625 29.2903 56.9597 27.1875 54.375 27.1875ZM33.75 40.3125H37.5C39.0506 40.3125 40.3125 41.5744 40.3125 43.125C40.3125 44.6756 39.0506 45.9375 37.5 45.9375H33.75V40.3125ZM31.875 45.9375H28.125V30.9375H31.875V45.9375ZM26.25 45.9375H22.5C20.9494 45.9375 19.6875 44.6756 19.6875 43.125C19.6875 41.5744 20.9494 40.3125 22.5 40.3125H26.25V45.9375ZM24.375 29.0625V27.1875H35.625V29.0625H24.375ZM20.2903 19.1822C19.2825 17.5031 18.75 15.5803 18.75 13.6209C18.75 7.66125 23.5987 2.8125 29.5584 2.8125H30.4406C36.4013 2.8125 41.25 7.66125 41.25 13.6209C41.25 15.5794 40.7175 17.5031 39.7097 19.1822L36.0319 25.3125H23.9681L20.2903 19.1822ZM57.1875 54.375C57.1875 55.9256 55.9256 57.1875 54.375 57.1875H5.625C4.07437 57.1875 2.8125 55.9256 2.8125 54.375V31.875C2.8125 30.3244 4.07437 29.0625 5.625 29.0625H22.5V30.9375H26.25V38.4375H22.5C19.9153 38.4375 17.8125 40.5403 17.8125 43.125C17.8125 45.7097 19.9153 47.8125 22.5 47.8125H37.5C40.0847 47.8125 42.1875 45.7097 42.1875 43.125C42.1875 40.5403 40.0847 38.4375 37.5 38.4375H33.75V30.9375H37.5V29.0625H54.375C55.9256 29.0625 57.1875 30.3244 57.1875 31.875V54.375Z" fill="white"/>
<path d="M52.5 30.9375H46.875C45.3244 30.9375 44.0625 32.1994 44.0625 33.75V52.5C44.0625 54.0506 45.3244 55.3125 46.875 55.3125H52.5C54.0506 55.3125 55.3125 54.0506 55.3125 52.5V33.75C55.3125 32.1994 54.0506 30.9375 52.5 30.9375ZM46.875 32.8125H52.5C53.0166 32.8125 53.4375 33.2334 53.4375 33.75V34.6875H45.9375V33.75C45.9375 33.2334 46.3584 32.8125 46.875 32.8125ZM45.9375 45.9375V44.0625H53.4375V45.9375H45.9375ZM53.4375 47.8125V49.6875H45.9375V47.8125H53.4375ZM45.9375 42.1875V40.3125H53.4375V42.1875H45.9375ZM45.9375 38.4375V36.5625H53.4375V38.4375H45.9375ZM52.5 53.4375H46.875C46.3584 53.4375 45.9375 53.0166 45.9375 52.5V51.5625H53.4375V52.5C53.4375 53.0166 53.0166 53.4375 52.5 53.4375Z" fill="white"/>
<path d="M6.5625 51.5625H12.1875V49.6875H6.5625V47.8125H15.9375V45.9375H6.5625V44.0625H12.1875V42.1875H6.5625V40.3125H15.9375V38.4375H6.5625V36.5625H12.1875V34.6875H6.5625V32.8125H15.9375V30.9375H4.6875V55.3125H16.875V53.4375H6.5625V51.5625Z" fill="white"/>
<path d="M37.5 55.3125C35.9494 55.3125 34.6875 54.0506 34.6875 52.5C34.6875 50.9494 35.9494 49.6875 37.5 49.6875C39.0506 49.6875 40.3125 50.9494 40.3125 52.5C40.3125 54.0506 39.0506 55.3125 37.5 55.3125Z" fill="#F5B754"/>
<path d="M30 55.3125C28.4494 55.3125 27.1875 54.0506 27.1875 52.5C27.1875 50.9494 28.4494 49.6875 30 49.6875C31.5506 49.6875 32.8125 50.9494 32.8125 52.5C32.8125 54.0506 31.5506 55.3125 30 55.3125Z" fill="#F5B754"/>
<path d="M22.5 55.3125C20.9494 55.3125 19.6875 54.0506 19.6875 52.5C19.6875 50.9494 20.9494 49.6875 22.5 49.6875C24.0506 49.6875 25.3125 50.9494 25.3125 52.5C25.3125 54.0506 24.0506 55.3125 22.5 55.3125Z" fill="#F5B754"/>
</g>
<defs>
<clipPath id="clip0_564_122">
<rect width="60" height="60" fill="white"/>
</clipPath>
</defs>
</svg>
