<svg width="50" height="50" viewBox="0 0 50 50" fill="none" xmlns="http://www.w3.org/2000/svg">
<circle cx="25" cy="25" r="25" fill="#F5B754"/>
<path d="M40.6032 18.9827H38.6887C38.0794 18.9827 37.5565 19.4081 37.2677 19.7033C36.1845 17.0423 34.8747 15.2321 34.2337 14.436C33.9702 14.1086 33.6197 13.8641 33.2219 13.7292C31.1887 13.0398 28.4931 13 25.3507 13C22.2077 13 19.5127 13.0398 17.4794 13.7292C17.0817 13.8641 16.7312 14.1086 16.4677 14.436C15.8272 15.2327 14.5175 17.0423 13.4343 19.7039C13.1455 19.4087 12.6226 18.9833 12.0133 18.9833H10.0988C9.4923 18.9833 9 19.475 9 20.0815C9 20.5628 9.3136 20.9883 9.7742 21.1307L12.2179 21.8864C11.3059 22.6491 9.65429 24.3313 9.65429 26.5202C9.65429 28.1453 9.65429 30.3278 9.65429 31.999C9.65429 33.4374 9.65429 34.4969 9.65429 34.4969V35.2521C9.65429 36.2177 10.4372 37 11.4022 37H14.8859C15.8515 37 16.6337 36.2171 16.6337 35.2521V34.4969H25.3507H34.0676V35.2521C34.0676 36.2177 34.8505 37 35.8155 37H39.2992C40.2648 37 41.0471 36.2171 41.0471 35.2521V31.999C41.0471 30.3278 41.0471 28.1453 41.0471 26.5202C41.0471 24.3313 39.3955 22.6491 38.4835 21.8864L40.9272 21.1307C41.3872 20.9883 41.7008 20.5628 41.7008 20.0815C41.7014 19.4744 41.2096 18.9827 40.6032 18.9827Z" fill="#111111"/>
<path d="M33.4969 15.8844C33.2969 15.5063 32.9464 15.2272 32.5302 15.1275C29.9954 14.5199 25.3513 14.5551 25.3513 14.5551C25.3513 14.5551 20.7066 14.5199 18.1718 15.1275C17.7556 15.2272 17.4051 15.5063 17.205 15.8844C16.6026 17.0236 15.2513 19.6327 14.7256 21.0952C14.7256 21.0952 18.0709 20.4893 25.3507 20.4893C32.6305 20.4893 35.9758 21.0952 35.9758 21.0952C35.45 19.6327 34.0993 17.023 33.4969 15.8844Z" fill="#F5B754"/>
<path d="M16.6343 26.3916C16.6343 27.7596 15.5257 28.8682 14.1577 28.8682C12.7897 28.8682 11.6812 27.759 11.6812 26.3916C11.6812 25.0236 12.7897 23.915 14.1577 23.915C15.5257 23.9145 16.6343 25.0236 16.6343 26.3916Z" fill="#F5B754"/>
<path d="M34.0676 26.3916C34.0676 27.7596 35.1768 28.8682 36.5442 28.8682C37.9122 28.8682 39.0207 27.759 39.0207 26.3916C39.0207 25.0236 37.9122 23.915 36.5442 23.915C35.1768 23.9145 34.0676 25.0236 34.0676 26.3916Z" fill="#F5B754"/>
<path d="M31.0441 32.3102H19.658C18.8233 32.3102 18.1465 31.6334 18.1465 30.7986C18.1465 29.9639 18.8233 29.2871 19.658 29.2871H31.0446C31.8794 29.2871 32.5562 29.9639 32.5562 30.7986C32.5562 31.6334 31.8794 32.3102 31.0441 32.3102Z" fill="#F5B754"/>
</svg>
