<svg width="175" height="50" viewBox="0 0 175 50" fill="none" xmlns="http://www.w3.org/2000/svg">
<path d="M64.07 36V14.13H75.2C76.1 14.13 76.92 14.21 77.66 14.37C78.4 14.53 79.06 14.77 79.64 15.09C80.24 15.41 80.74 15.81 81.14 16.29C81.56 16.77 81.88 17.33 82.1 17.97C82.32 18.61 82.43 19.33 82.43 20.13C82.43 21.49 82.07 22.64 81.35 23.58C80.63 24.5 79.65 25.13 78.41 25.47V25.65C79.25 25.79 79.93 26.05 80.45 26.43C80.99 26.79 81.38 27.26 81.62 27.84C81.86 28.4 81.98 29.09 81.98 29.91V33.51C81.98 33.91 81.99 34.32 82.01 34.74C82.05 35.16 82.16 35.58 82.34 36H77.63C77.51 35.74 77.42 35.39 77.36 34.95C77.32 34.51 77.3 34.03 77.3 33.51V30.72C77.3 30.1 77.2 29.58 77 29.16C76.82 28.74 76.49 28.42 76.01 28.2C75.53 27.96 74.84 27.84 73.94 27.84H68.33V24.15H74.12C75.38 24.15 76.28 23.85 76.82 23.25C77.36 22.65 77.63 21.9 77.63 21C77.63 20.44 77.54 19.98 77.36 19.62C77.2 19.24 76.96 18.93 76.64 18.69C76.32 18.45 75.95 18.28 75.53 18.18C75.11 18.06 74.64 18 74.12 18H68.75V36H64.07ZM92.5876 36.3C90.9076 36.3 89.4776 35.96 88.2976 35.28C87.1376 34.6 86.2476 33.64 85.6276 32.4C85.0076 31.16 84.6976 29.72 84.6976 28.08C84.6976 26.34 85.0076 24.84 85.6276 23.58C86.2676 22.32 87.1576 21.35 88.2976 20.67C89.4576 19.97 90.8276 19.62 92.4076 19.62C94.2476 19.62 95.7476 20.02 96.9076 20.82C98.0876 21.62 98.9376 22.72 99.4576 24.12C99.9776 25.52 100.148 27.12 99.9676 28.92H89.0176C89.0176 29.8 89.1576 30.55 89.4376 31.17C89.7376 31.77 90.1576 32.22 90.6976 32.52C91.2376 32.82 91.8676 32.97 92.5876 32.97C93.4276 32.97 94.1076 32.8 94.6276 32.46C95.1476 32.12 95.4976 31.67 95.6776 31.11H99.8476C99.6876 32.17 99.2776 33.09 98.6176 33.87C97.9576 34.63 97.1076 35.23 96.0676 35.67C95.0476 36.09 93.8876 36.3 92.5876 36.3ZM89.0176 26.61L88.6276 26.19H96.0676L95.6476 26.61C95.6876 25.77 95.5676 25.09 95.2876 24.57C95.0276 24.03 94.6476 23.62 94.1476 23.34C93.6676 23.06 93.0876 22.92 92.4076 22.92C91.7276 22.92 91.1276 23.07 90.6076 23.37C90.1076 23.65 89.7176 24.07 89.4376 24.63C89.1776 25.17 89.0376 25.83 89.0176 26.61ZM102.796 36V19.92H107.026L107.206 22.83H107.386C107.826 21.75 108.506 20.95 109.426 20.43C110.346 19.89 111.376 19.62 112.516 19.62C113.316 19.62 114.056 19.75 114.736 20.01C115.436 20.25 116.036 20.63 116.536 21.15C117.056 21.67 117.456 22.36 117.736 23.22C118.036 24.06 118.186 25.08 118.186 26.28V36H113.776V27.24C113.776 26.34 113.666 25.59 113.446 24.99C113.246 24.39 112.926 23.95 112.486 23.67C112.046 23.37 111.466 23.22 110.746 23.22C109.986 23.22 109.346 23.4 108.826 23.76C108.306 24.12 107.906 24.59 107.626 25.17C107.346 25.75 107.206 26.38 107.206 27.06V36H102.796ZM127.156 36C125.776 36 124.756 35.68 124.096 35.04C123.436 34.38 123.106 33.34 123.106 31.92V23.46H120.226V19.92H123.106V15.54L127.516 15.12V19.92H130.756V23.46H127.516V31.11C127.516 31.61 127.636 31.95 127.876 32.13C128.116 32.31 128.456 32.4 128.896 32.4H130.756V36H127.156ZM140.276 41.31C138.856 41.31 137.636 41.1 136.616 40.68C135.596 40.28 134.796 39.71 134.216 38.97C133.636 38.25 133.306 37.4 133.226 36.42H137.456C137.536 36.76 137.696 37.06 137.936 37.32C138.196 37.6 138.526 37.81 138.926 37.95C139.346 38.11 139.826 38.19 140.366 38.19C141.266 38.19 141.976 38.06 142.496 37.8C143.016 37.56 143.396 37.19 143.636 36.69C143.876 36.21 143.996 35.62 143.996 34.92V32.52H143.786C143.466 33.32 142.876 33.98 142.016 34.5C141.176 35.02 140.186 35.28 139.046 35.28C138.106 35.28 137.256 35.1 136.496 34.74C135.736 34.38 135.076 33.87 134.516 33.21C133.976 32.53 133.556 31.71 133.256 30.75C132.956 29.79 132.806 28.69 132.806 27.45C132.806 25.81 133.066 24.41 133.586 23.25C134.106 22.07 134.836 21.17 135.776 20.55C136.716 19.93 137.806 19.62 139.046 19.62C140.146 19.62 141.126 19.86 141.986 20.34C142.846 20.82 143.446 21.49 143.786 22.35H144.026L144.146 19.92H148.406V34.08C148.406 35.84 148.066 37.25 147.386 38.31C146.726 39.37 145.786 40.13 144.566 40.59C143.346 41.07 141.916 41.31 140.276 41.31ZM140.696 31.71C141.416 31.71 142.016 31.55 142.496 31.23C142.976 30.91 143.336 30.49 143.576 29.97C143.836 29.43 143.966 28.83 143.966 28.17V26.73C143.966 26.01 143.836 25.39 143.576 24.87C143.316 24.33 142.946 23.91 142.466 23.61C142.006 23.31 141.446 23.16 140.786 23.16C140.006 23.16 139.356 23.34 138.836 23.7C138.336 24.06 137.956 24.56 137.696 25.2C137.436 25.84 137.306 26.59 137.306 27.45C137.306 28.31 137.426 29.06 137.666 29.7C137.906 30.32 138.276 30.81 138.776 31.17C139.276 31.53 139.916 31.71 140.696 31.71ZM159.331 36.27C158.111 36.27 157.011 36.09 156.031 35.73C155.051 35.35 154.201 34.8 153.481 34.08C152.761 33.36 152.211 32.49 151.831 31.47C151.451 30.43 151.261 29.26 151.261 27.96C151.261 26.3 151.581 24.85 152.221 23.61C152.861 22.35 153.781 21.37 154.981 20.67C156.181 19.97 157.631 19.62 159.331 19.62C160.531 19.62 161.621 19.81 162.601 20.19C163.581 20.57 164.421 21.12 165.121 21.84C165.841 22.56 166.391 23.43 166.771 24.45C167.171 25.47 167.371 26.64 167.371 27.96C167.371 29.6 167.051 31.05 166.411 32.31C165.771 33.55 164.851 34.52 163.651 35.22C162.471 35.92 161.031 36.27 159.331 36.27ZM159.301 32.7C160.021 32.7 160.651 32.53 161.191 32.19C161.751 31.83 162.171 31.3 162.451 30.6C162.751 29.9 162.901 29.02 162.901 27.96C162.901 27.16 162.821 26.47 162.661 25.89C162.501 25.29 162.261 24.79 161.941 24.39C161.621 23.99 161.241 23.7 160.801 23.52C160.361 23.32 159.871 23.22 159.331 23.22C158.611 23.22 157.971 23.39 157.411 23.73C156.871 24.07 156.451 24.59 156.151 25.29C155.851 25.99 155.701 26.88 155.701 27.96C155.701 28.76 155.781 29.46 155.941 30.06C156.121 30.64 156.371 31.13 156.691 31.53C157.011 31.91 157.391 32.2 157.831 32.4C158.271 32.6 158.761 32.7 159.301 32.7Z" fill="white"/>
<path d="M171.118 36.24C170.438 36.24 169.888 36.05 169.468 35.67C169.048 35.27 168.838 34.75 168.838 34.11C168.838 33.45 169.048 32.93 169.468 32.55C169.888 32.15 170.438 31.95 171.118 31.95C171.798 31.95 172.348 32.15 172.768 32.55C173.188 32.93 173.398 33.45 173.398 34.11C173.398 34.75 173.188 35.27 172.768 35.67C172.348 36.05 171.798 36.24 171.118 36.24Z" fill="#F5B754"/>
<circle cx="25" cy="25" r="25" fill="#F5B754"/>
<path d="M40.6032 18.9827H38.6887C38.0794 18.9827 37.5565 19.4081 37.2677 19.7033C36.1845 17.0423 34.8747 15.2321 34.2337 14.436C33.9702 14.1086 33.6197 13.8641 33.2219 13.7292C31.1887 13.0398 28.4931 13 25.3507 13C22.2077 13 19.5127 13.0398 17.4794 13.7292C17.0817 13.8641 16.7312 14.1086 16.4677 14.436C15.8272 15.2327 14.5175 17.0423 13.4343 19.7039C13.1455 19.4087 12.6226 18.9833 12.0133 18.9833H10.0988C9.4923 18.9833 9 19.475 9 20.0815C9 20.5628 9.3136 20.9883 9.7742 21.1307L12.2179 21.8864C11.3059 22.6491 9.65429 24.3313 9.65429 26.5202C9.65429 28.1453 9.65429 30.3278 9.65429 31.999C9.65429 33.4374 9.65429 34.4969 9.65429 34.4969V35.2521C9.65429 36.2177 10.4372 37 11.4022 37H14.8859C15.8515 37 16.6337 36.2171 16.6337 35.2521V34.4969H25.3507H34.0676V35.2521C34.0676 36.2177 34.8505 37 35.8155 37H39.2992C40.2648 37 41.0471 36.2171 41.0471 35.2521V31.999C41.0471 30.3278 41.0471 28.1453 41.0471 26.5202C41.0471 24.3313 39.3955 22.6491 38.4835 21.8864L40.9272 21.1307C41.3872 20.9883 41.7008 20.5628 41.7008 20.0815C41.7014 19.4744 41.2096 18.9827 40.6032 18.9827Z" fill="#111111"/>
<path d="M33.4969 15.8844C33.2969 15.5063 32.9464 15.2272 32.5302 15.1275C29.9954 14.5199 25.3513 14.5551 25.3513 14.5551C25.3513 14.5551 20.7066 14.5199 18.1718 15.1275C17.7556 15.2272 17.4051 15.5063 17.205 15.8844C16.6026 17.0236 15.2513 19.6327 14.7256 21.0952C14.7256 21.0952 18.0709 20.4893 25.3507 20.4893C32.6305 20.4893 35.9758 21.0952 35.9758 21.0952C35.45 19.6327 34.0993 17.023 33.4969 15.8844Z" fill="#F5B754"/>
<path d="M16.6343 26.3916C16.6343 27.7596 15.5257 28.8682 14.1577 28.8682C12.7897 28.8682 11.6812 27.759 11.6812 26.3916C11.6812 25.0236 12.7897 23.915 14.1577 23.915C15.5257 23.9145 16.6343 25.0236 16.6343 26.3916Z" fill="#F5B754"/>
<path d="M34.0676 26.3916C34.0676 27.7596 35.1768 28.8682 36.5442 28.8682C37.9122 28.8682 39.0207 27.759 39.0207 26.3916C39.0207 25.0236 37.9122 23.915 36.5442 23.915C35.1768 23.9145 34.0676 25.0236 34.0676 26.3916Z" fill="#F5B754"/>
<path d="M31.0441 32.3102H19.658C18.8233 32.3102 18.1465 31.6334 18.1465 30.7986C18.1465 29.9639 18.8233 29.2871 19.658 29.2871H31.0446C31.8794 29.2871 32.5562 29.9639 32.5562 30.7986C32.5562 31.6334 31.8794 32.3102 31.0441 32.3102Z" fill="#F5B754"/>
</svg>
