<svg width="16" height="16" viewBox="0 0 16 16" fill="none" xmlns="http://www.w3.org/2000/svg">
<g clip-path="url(#clip0_511_6886)">
<path d="M1.33596 8.66694L13.06 8.66694L9.53129 12.1956C9.46762 12.2571 9.41683 12.3307 9.38189 12.412C9.34695 12.4933 9.32856 12.5808 9.32779 12.6693C9.32702 12.7579 9.34389 12.8456 9.37741 12.9276C9.41093 13.0095 9.46043 13.0839 9.52303 13.1465C9.58562 13.2091 9.66006 13.2586 9.74199 13.2922C9.82392 13.3257 9.91171 13.3425 10.0002 13.3418C10.0887 13.341 10.1762 13.3226 10.2576 13.2877C10.3389 13.2527 10.4125 13.2019 10.474 13.1383L15.1406 8.47161C15.2656 8.34659 15.3358 8.17705 15.3358 8.00027C15.3358 7.8235 15.2656 7.65396 15.1406 7.52894L10.474 2.86227C10.3482 2.74083 10.1798 2.67364 10.005 2.67515C9.83023 2.67667 9.66302 2.74679 9.53941 2.87039C9.41581 2.994 9.3457 3.16121 9.34418 3.336C9.34266 3.5108 9.40985 3.6792 9.53129 3.80494L13.06 7.33361L1.33596 7.3336C1.15915 7.3336 0.989577 7.40384 0.864553 7.52887C0.739529 7.65389 0.669291 7.82346 0.669291 8.00027C0.669291 8.17708 0.739529 8.34665 0.864553 8.47168C0.989577 8.5967 1.15915 8.66694 1.33596 8.66694Z" fill="black"/>
</g>
<defs>
<clipPath id="clip0_511_6886">
<rect width="16" height="16" fill="white" transform="translate(16 16) rotate(180)"/>
</clipPath>
</defs>
</svg>
