<svg width="98" height="50" viewBox="0 0 98 50" fill="none" xmlns="http://www.w3.org/2000/svg">
<g clip-path="url(#clip0_511_6554)">
<path d="M62.0807 43.7923C61.4924 46.2318 59.6523 47.2593 56.5718 47.2593C54.4812 47.2593 52.6421 46.8395 51.6961 45.8909C50.6703 44.8848 50.5157 43.4968 50.5157 42.0135V34.7394H52.8565V41.8891C52.8565 43.5043 52.9893 44.4676 53.6205 45.1771C54.337 46.0089 55.5749 46.2523 56.6189 46.2523C58.827 46.2523 60.298 45.537 60.6974 43.5941C60.7896 43.1465 60.8614 42.5981 60.8614 41.7515V34.7393H62.3022V41.2615C62.3023 42.4794 62.2319 43.1672 62.0807 43.7923Z" fill="white"/>
<path d="M62.0807 43.7923C61.4924 46.2318 59.6523 47.2593 56.5718 47.2593C54.4812 47.2593 52.6421 46.8395 51.6961 45.8909C50.6703 44.8848 50.5157 43.4968 50.5157 42.0135V34.7394H52.8565V41.8891C52.8565 43.5043 52.9893 44.4676 53.6205 45.1771C54.337 46.0089 55.5749 46.2523 56.6189 46.2523C58.827 46.2523 60.2981 45.537 60.6974 43.5941C60.7896 43.1465 60.8614 42.5981 60.8614 41.7515V34.7393H62.3022V41.2615C62.3023 42.4794 62.2319 43.1672 62.0807 43.7923Z" stroke="white" stroke-width="0.575339"/>
<path d="M73.941 37.0618L71.2298 42.7152H76.5184L73.941 37.0618ZM78.4485 46.9882L76.905 43.548H70.8296L69.1762 46.9882H67.6906L73.8007 34.7393H75.2566L81.2352 46.9882H78.4485Z" fill="white"/>
<path d="M73.941 37.0618L71.2298 42.7152H76.5184L73.941 37.0618ZM78.4485 46.9882L76.905 43.548H70.8296L69.1762 46.9882H67.6906L73.8007 34.7393H75.2566L81.2352 46.9882H78.4485Z" stroke="white" stroke-width="0.575339"/>
<path d="M18.1782 37.0618L15.4692 42.7152H20.759L18.1782 37.0618ZM22.688 46.9882L21.1468 43.548H15.07L13.4145 46.9882H11.9296L18.0398 34.7393H19.4946L25.4756 46.9882H22.688Z" fill="white"/>
<path d="M18.1782 37.0618L15.4692 42.7152H20.759L18.1782 37.0618ZM22.688 46.9882L21.1468 43.548H15.07L13.4145 46.9882H11.9296L18.0398 34.7393H19.4946L25.4756 46.9882H22.688Z" stroke="white" stroke-width="0.575339"/>
<path d="M38.2264 47.2577C34.1814 47.2577 30.3372 45.8662 30.3372 41.1624C30.3372 39.6337 31.0156 38.0669 32.0402 36.9454C33.6462 35.2021 36.0849 34.5068 38.3879 34.5068C39.7804 34.5068 41.3935 34.8227 42.6486 35.4608V36.9156C41.5111 36.0673 40.0136 35.4823 38.5532 35.4823C35.2257 35.4823 32.9309 37.5639 32.9309 41.0077C32.9309 44.1249 34.9559 46.2584 38.0708 46.2584C38.8635 46.2584 39.9607 46.1175 40.7152 45.8282V41.3563H43.056V46.3496C41.6828 46.9679 39.7341 47.2577 38.2264 47.2577Z" fill="white"/>
<path d="M38.2264 47.2577C34.1814 47.2577 30.3372 45.8662 30.3372 41.1624C30.3372 39.6337 31.0156 38.0669 32.0402 36.9454C33.6462 35.2021 36.0849 34.5068 38.3879 34.5068C39.7804 34.5068 41.3935 34.8227 42.6486 35.4608V36.9156C41.5111 36.0673 40.0136 35.4823 38.5532 35.4823C35.2257 35.4823 32.9309 37.5639 32.9309 41.0077C32.9309 44.1249 34.9559 46.2584 38.0708 46.2584C38.8635 46.2584 39.9607 46.1175 40.7152 45.8282V41.3563H43.056V46.3496C41.6828 46.9679 39.7341 47.2577 38.2264 47.2577Z" stroke="white" stroke-width="0.575339"/>
<path d="M91.2572 35.5895H89.5359V41.4493H91.0414C92.3036 41.4493 93.0584 41.2137 93.6467 40.7397C94.2676 40.2411 94.639 39.4764 94.639 38.4428C94.6388 36.3728 93.1344 35.5895 91.2572 35.5895ZM95.2354 46.988L91.9897 42.2844H89.5359V46.988H87.1938V34.7393H91.624C93.4215 34.7393 95.2203 34.9999 96.2218 36.1064C96.7455 36.6846 97.0304 37.4887 97.0304 38.5235C97.0304 40.4166 95.6032 41.5633 94.3319 42.0145L97.9315 46.9881L95.2354 46.988Z" fill="white"/>
<path d="M91.2572 35.5895H89.5359V41.4493H91.0414C92.3036 41.4493 93.0584 41.2137 93.6467 40.7397C94.2676 40.2411 94.639 39.4764 94.639 38.4428C94.6388 36.3728 93.1344 35.5895 91.2572 35.5895ZM95.2354 46.988L91.9897 42.2844H89.5359V46.988H87.1938V34.7393H91.624C93.4215 34.7393 95.2203 34.9999 96.2218 36.1064C96.7455 36.6846 97.0304 37.4887 97.0304 38.5235C97.0304 40.4166 95.6032 41.5633 94.3319 42.0145L97.9315 46.9881L95.2354 46.988Z" stroke="white" stroke-width="0.575339"/>
<path d="M2.03622 49.5058C1.41801 49.7964 0.740696 49.9889 0.0437622 49.9889C1.64858 48.8286 2.32699 47.6482 2.55889 45.6938C2.69501 44.6093 2.69501 43.5247 2.69501 42.4414V34.7393H5.0371V44.0094C5.03734 46.2729 4.16614 48.4615 2.03622 49.5058Z" fill="white"/>
<path d="M2.03622 49.5058C1.41801 49.7964 0.740696 49.9889 0.0437622 49.9889C1.64858 48.8286 2.32699 47.6482 2.55889 45.6938C2.69501 44.6093 2.69501 43.5247 2.69501 42.4414V34.7393H5.0371V44.0094C5.03734 46.2729 4.16614 48.4615 2.03622 49.5058Z" stroke="white" stroke-width="0.575339"/>
<path d="M16.7602 2.04046C17.6012 2.06581 18.3234 1.75201 18.3259 1.70705C18.3282 1.66208 17.3947 1.57324 17.3947 1.57324C16.5398 1.60895 16.1913 1.92616 16.1867 1.9632C16.181 1.99879 16.4095 2.02877 16.7602 2.04046Z" fill="white"/>
<path d="M11.0435 3.48815C11.0435 3.48815 11.0943 3.30925 11.1162 3.27013C11.1382 3.22968 11.2605 2.81668 11.8511 2.77171C11.8511 2.77171 12.1486 2.74515 12.4914 2.85129C12.4914 2.85129 12.2941 3.36007 11.4867 3.44428C11.4866 3.44428 11.1691 3.49168 11.0435 3.48815ZM90.1117 26.4254C89.9111 26.9212 89.0515 27.5527 88.042 27.8903C86.976 28.2467 84.7502 28.2559 83.6118 27.8777C83.6118 27.8777 83.3718 27.6168 82.5709 27.3816C80.7089 26.8338 80.1067 26.4519 79.1617 25.5715C78.4939 24.9498 77.7586 24.1699 77.0459 23.4348C76.7286 23.1072 75.9567 22.3341 74.6 22.0988C73.1846 21.8542 69.7105 21.5888 68.4312 21.1366C67.5705 20.8309 66.5503 20.2506 65.2701 18.3354C64.6562 17.416 64.1912 17.1482 63.3051 16.5829C63.3051 16.5829 63.9814 17.1171 64.3368 17.7655C64.8501 18.707 65.0959 19.3843 65.3762 19.8848C65.6586 20.3891 65.9854 20.838 66.4953 21.2475C67.1275 21.7552 67.536 21.867 68.2501 22.0112C68.933 22.1497 71.2647 22.2525 73.2654 22.3308C75.2324 22.407 76.0735 23.0162 76.6884 23.532C77.2537 24.0095 78.1547 25.3735 78.7871 25.9316C79.6326 26.6748 79.6546 26.6851 80.6365 27.3011C81.1325 27.6125 81.5698 27.8165 81.9726 27.9611C82.8736 28.4905 82.501 29.4147 82.501 29.4147C82.2426 30.151 81.3128 30.4149 80.2271 30.2613C78.5864 30.1163 77.1742 28.7478 75.9813 27.7659C75.3248 27.2247 75.0928 26.9547 73.8271 26.0754C71.9016 24.7397 67.3768 24.8504 67.3768 24.8504L64.0609 24.8295C57.6023 24.9242 55.2393 19.7278 54.5945 18.6374C54.3718 18.2579 54.1654 17.9522 53.9691 17.7017C53.668 17.2956 52.0472 15.1798 50.3106 14.4241C50.3106 14.4241 51.9777 15.8663 51.8105 16.6554C51.4529 16.6508 51.0467 16.6738 50.562 16.6877C44.0552 16.8782 42.703 16.5181 41.6751 16.3128C40.6458 16.1062 38.9211 15.594 37.2449 14.8221C37.2449 14.8221 37.4318 13.2185 36.7661 11.886C36.7661 11.886 42.1368 13.7826 46.4099 13.2451C46.4099 13.2451 39.5131 12.9082 35.211 9.47954C35.211 9.47954 36.2725 13.1034 35.4336 14.6251C35.4336 14.6251 34.3031 17.3882 28.5055 15.5445C28.5055 15.5445 25.8391 14.5074 23.7658 14.5074C23.7658 14.5074 22.2049 14.5719 22.0182 15.3854C22.0182 15.3854 21.9164 15.7741 22.3238 15.9587C22.3238 15.9587 22.7761 16.088 22.5626 16.4237C22.2107 16.9786 21.7224 17.4078 21.238 17.65C19.6205 17.5704 19.7405 16.2424 19.7405 16.2424C19.7693 15.7717 19.9217 15.4429 20.0658 15.1187C21.0822 12.8448 24.6541 12.5148 24.6541 12.5148C28.4545 12.1353 32.4383 13.0478 32.4383 13.0478C29.5886 12.3682 28.6195 11.8698 27.8049 11.1902C26.7076 10.2742 25.6821 7.19619 25.6821 7.19619C25.2449 8.70522 25.7861 10.2305 26.1518 11.0138C25.6117 10.152 24.8423 9.42409 24.1558 8.87364C22.401 7.46709 19.8534 7.01267 19.8534 7.01267C19.1173 6.88678 18.8254 6.12429 18.8254 6.12429C17.8816 4.38676 16.8133 4.30487 16.8133 4.30487C17.3393 5.02594 17.2839 6.01241 17.2839 6.01241C17.2839 7.83073 14.9455 8.4342 14.9455 8.4342C13.1963 10.1728 12.893 10.1358 12.5514 10.1612C12.2098 10.1855 11.9573 9.83123 11.9573 9.83123C11.8464 9.66501 12.031 9.51622 12.031 9.51622C12.3263 9.3316 12.6056 9.09055 12.6056 9.09055C14.3109 7.72106 14.5508 7.02083 14.4124 6.06543C14.1343 4.15705 12.5953 4.29793 12.5953 4.29793C11.8718 4.29793 11.5142 4.84936 11.5142 4.84936C11.235 5.18168 10.6246 6.22105 10.6246 6.22105C10.087 7.10955 9.60597 6.97903 9.60597 6.97903C9.01298 7.01717 8.58378 6.49097 8.58378 6.49097C8.56063 6.47038 8.54333 6.446 8.52383 6.42529C8.08439 5.95331 8.46265 5.38348 8.46265 5.38348C9.18627 4.10514 10.4344 3.9795 10.604 3.96902C10.7746 3.95866 11.3504 3.91589 11.3504 3.91589C12.76 3.81328 13.6808 2.46572 13.6808 2.46572C13.0867 2.17849 12.0254 2.33081 12.0254 2.33081C10.9917 2.40003 10.7193 3.49716 10.7171 3.49716C9.82179 3.62878 9.86676 2.9411 10.0583 2.76002C10.2094 2.58234 10.7423 1.71931 14.1701 1.2048C14.1701 1.2048 15.9884 0.844818 19.2177 1.19907C19.3365 1.21175 19.4518 1.3157 19.2996 1.49557C18.8934 1.97217 17.6232 3.02885 15.5857 2.51775C15.5857 2.51775 15.5489 3.33228 17.7709 3.73955C17.7709 3.73955 19.7749 4.16631 23.0468 6.79453C23.0468 6.79453 21.4606 3.86068 18.7182 2.96645C18.7182 2.96645 18.515 2.83728 18.6996 2.65156C18.6996 2.65156 19.9975 1.4885 22.2876 1.61085C22.2876 1.61085 29.8607 1.99971 34.118 6.44259C34.118 6.44259 33.9704 5.70191 33.322 4.62781C33.322 4.62781 33.1916 4.49973 33.2665 4.40638C33.2665 4.40638 33.322 4.22054 34.0627 4.36934C34.0627 4.36934 36.7658 4.81365 43.0408 7.10943C43.0408 7.10943 47.7446 8.75811 50.3094 9.82185C54.1652 11.4197 63.825 15.3379 69.9262 18.7148C71.0154 19.317 75.553 21.5587 75.553 21.5587C78.9449 23.6641 82.0658 25.1883 82.0658 25.1883C85.1393 26.6086 87.374 25.9578 87.374 25.9578C88.088 25.6889 89.4521 24.9485 89.9837 25.4743C90.2546 25.7435 90.2707 26.094 90.1117 26.4254ZM90.8765 25.2335C90.4747 24.2979 89.1815 24.5274 89.1815 24.5274C88.59 24.5632 87.8436 25.1826 86.8062 25.3959C84.5749 25.8563 82.8685 25.0974 82.8685 25.0974C79.5807 23.6253 77.355 22.0215 75.907 21.1931C74.4593 20.3648 69.1002 17.5497 63.7399 14.8558C63.7399 14.8558 57.5998 11.7084 48.5152 7.95296C48.5152 7.95296 30.9878 0.000307919 18.3812 0.000307919C18.3812 0.000307919 11.8512 -0.0817058 9.6396 2.43123C9.6396 2.43123 9.24964 2.75429 9.43987 3.15229C9.43987 3.15229 9.46644 3.26197 9.38455 3.33228C9.38455 3.33228 8.41196 3.97146 7.62034 4.8886C7.62034 4.8886 7.19601 5.32243 7.53722 5.96964C7.53722 5.96964 7.95948 6.70569 8.22612 7.02193C8.49495 7.33682 9.03248 7.88837 9.85384 7.80648C10.2172 7.76956 10.2276 7.67853 10.2276 7.67853C10.6049 8.05923 11.2637 8.08226 11.2637 8.08226C11.1979 7.84816 10.9463 7.38423 10.9244 7.1143C10.9002 6.81208 11.0178 6.53167 11.0178 6.53167C11.1551 6.19935 11.4125 5.78746 11.6745 5.58212C11.9075 5.39981 12.4853 5.21068 12.9169 5.5129C13.2632 5.75528 13.631 6.53167 13.2158 7.55386C13.2158 7.55386 12.7486 8.36144 12.3171 8.45138L12.1973 8.45711C11.9502 8.45248 11.4 8.14916 11.4 8.14916C11.4 8.14916 11.377 8.21497 11.4381 8.49306C11.4738 8.65099 11.5246 8.82647 11.5674 8.96138L11.453 9.05363C11.453 9.05363 11.1057 9.33294 11.2593 9.73557C11.2593 9.73557 11.5973 11.007 12.541 11.007C13.3753 11.0348 14.0697 10.2433 14.0697 10.2433C15.8592 8.31307 18.3812 8.0535 18.3812 8.0535C21.1765 7.86303 25.171 10.7255 26.2589 11.5516C22.1193 11.5066 20.4487 13.0952 20.4487 13.0952C18.1171 14.9101 19.0249 17.0999 19.0249 17.0999C19.1946 17.5762 19.6722 17.9235 19.9769 18.0573C20.4162 18.2488 20.7775 18.2568 21.1179 18.2188C21.3637 18.1922 21.6334 18.1011 21.7707 18.0065C22.088 17.8195 22.6544 17.4493 22.9279 17.0558C23.1103 16.8585 23.2936 16.3752 23.1725 15.9148C23.1725 15.9148 23.0989 15.5444 23.4322 15.4693C23.4322 15.4693 24.5292 15.1914 26.7445 16.1698C26.7445 16.1698 29.1512 17.5727 32.2731 17.8508C32.2731 17.8508 35.8232 18.2108 36.6805 16.2886C36.6805 16.2886 38.7201 17.1228 41.7049 17.4644C41.7049 17.4644 44.6133 17.7654 49.3311 17.4101C50.2596 17.3397 51.3499 17.4171 51.3499 17.4171C52.8601 17.5982 53.82 18.3839 54.1984 18.9989C55.7446 21.5092 57.5893 26.4346 65.1428 26.2397L68.5613 26.1459C70.6393 26.1459 72.3315 26.1633 73.993 27.0516C74.7186 27.4404 76.6352 29.3427 77.8152 29.9853C81.3099 32.3403 83.3288 31.2455 83.3288 31.2455C84.5183 30.5522 84.4248 29.3186 84.1352 28.6279C83.7775 28.5144 88.4651 29.3152 90.4636 26.6907C90.9365 26.1057 91.0193 25.5693 90.8765 25.2335Z" fill="white"/>
</g>
<defs>
<clipPath id="clip0_511_6554">
<rect width="97.9624" height="50" fill="white"/>
</clipPath>
</defs>
</svg>
