<svg width="130" height="130" viewBox="0 0 130 130" fill="none" xmlns="http://www.w3.org/2000/svg">
<circle cx="65" cy="65" r="65" fill="#F5B754"/>
<path d="M70.6549 19.8737C69.8377 19.7657 69.1116 19.5432 68.4768 19.2062C67.8419 18.8691 67.312 18.4294 66.8869 17.8871C66.4718 17.3462 66.1801 16.7152 66.012 15.9942C65.8451 15.2632 65.8204 14.4548 65.9378 13.5689C66.0551 12.6831 66.2889 11.9139 66.639 11.2613C66.9891 10.6088 67.435 10.0752 67.9767 9.66067C68.5284 9.24743 69.1546 8.96051 69.8554 8.7999C70.5561 8.6393 71.3152 8.61298 72.1325 8.72096C73.0694 8.84474 73.8798 9.11893 74.5639 9.54352C75.2493 9.95815 75.778 10.4837 76.1501 11.1203C76.5321 11.7582 76.7158 12.4762 76.7014 13.2744L74.3392 12.9623C74.2996 12.5722 74.1737 12.2213 73.9614 11.9097C73.7605 11.5895 73.4811 11.3247 73.1235 11.1154C72.7758 10.9074 72.3578 10.7712 71.8694 10.7067C71.2514 10.625 70.6954 10.6883 70.2013 10.8964C69.7086 11.0947 69.297 11.4454 68.9667 11.9486C68.6476 12.4432 68.4353 13.0887 68.3298 13.885C68.2507 14.4822 68.2506 15.0189 68.3295 15.4952C68.4197 15.9628 68.5795 16.3638 68.8091 16.6979C69.0386 17.0321 69.3279 17.2982 69.6769 17.4962C70.0359 17.6955 70.4496 17.8261 70.918 17.888C71.3865 17.9499 71.8206 17.9262 72.2204 17.817C72.6203 17.7078 72.9639 17.5253 73.2513 17.2696C73.5487 17.0152 73.7623 16.7042 73.8922 16.3365L76.2544 16.6486C76.0718 17.4144 75.7123 18.0606 75.176 18.5873C74.6398 19.114 73.9811 19.4928 73.2 19.7238C72.4302 19.9462 71.5819 19.9962 70.6549 19.8737Z" fill="black"/>
<path d="M80.9609 22.5108C80.3883 22.2914 79.9044 22.0092 79.5093 21.6643C79.1178 21.3099 78.8179 20.8993 78.6096 20.4324C78.4013 19.9655 78.2998 19.4588 78.3052 18.9124C78.3141 18.3566 78.4356 17.7741 78.6697 17.1648C78.9686 16.3867 79.3798 15.7647 79.9035 15.2986C80.4308 14.8231 81.039 14.5292 81.7283 14.4169C82.4175 14.3046 83.1611 14.4013 83.9589 14.707C84.5221 14.9228 84.9995 15.2078 85.391 15.5621C85.7825 15.9165 86.0778 16.3253 86.2766 16.7886C86.4849 17.2556 86.5864 17.7622 86.5811 18.3086C86.5852 18.8586 86.4684 19.443 86.2307 20.0616C85.9354 20.8303 85.5241 21.4524 84.9968 21.9278C84.4732 22.3939 83.8667 22.6831 83.1775 22.7954C82.4976 22.9113 81.7587 22.8164 80.9609 22.5108ZM81.5896 20.8321C81.9275 20.9616 82.2538 20.9952 82.5685 20.9329C82.8962 20.8649 83.1887 20.692 83.4462 20.4143C83.713 20.1401 83.9419 19.7547 84.1327 19.2579C84.2768 18.8829 84.3635 18.5451 84.3928 18.2445C84.4258 17.9345 84.4032 17.657 84.325 17.412C84.2468 17.167 84.1207 16.9627 83.9466 16.7992C83.7761 16.6264 83.5641 16.4914 83.3107 16.3943C82.9728 16.2648 82.6418 16.2294 82.3177 16.2881C82.0031 16.3503 81.7123 16.5185 81.4455 16.7927C81.1786 17.0668 80.948 17.457 80.7535 17.9632C80.6095 18.3381 80.521 18.6806 80.488 18.9906C80.4681 19.2948 80.4972 19.5694 80.5753 19.8144C80.6571 20.0501 80.7832 20.2543 80.9537 20.4272C81.1242 20.6 81.3362 20.735 81.5896 20.8321Z" fill="black"/>
<path d="M86.4155 24.7108L90.7799 17.9163L92.5697 19.0628L91.8561 20.3412L91.9322 20.39C92.4115 20.0529 92.9164 19.8992 93.4468 19.9288C93.9826 19.95 94.4917 20.1151 94.9741 20.4241C95.3126 20.6409 95.5904 20.8965 95.8076 21.1906C96.0386 21.4818 96.1893 21.805 96.2598 22.1602C96.3386 22.5209 96.3206 22.9208 96.2057 23.3601C96.1046 23.7964 95.8912 24.268 95.5655 24.7751L92.9274 28.8822L91.0614 27.6869L93.439 23.9854C93.6833 23.6051 93.8403 23.2584 93.9101 22.9452C93.9883 22.6375 93.9723 22.3649 93.8621 22.1273C93.7574 21.8813 93.5527 21.6607 93.2481 21.4655C92.9265 21.2595 92.6068 21.1621 92.2891 21.1733C91.9714 21.1845 91.6745 21.2746 91.3986 21.4438C91.1228 21.613 90.8925 21.8413 90.708 22.1286L88.2815 25.9061L86.4155 24.7108Z" fill="black"/>
<path d="M96.1929 31.8948C95.6766 31.4322 95.4024 30.9706 95.3704 30.5102C95.345 30.0423 95.5707 29.5431 96.0475 29.0126L98.8878 25.8517L97.8103 24.8861L98.9988 23.5634L100.076 24.529L101.547 22.8925L103.338 24.2142L101.726 26.0076L102.938 27.0939L101.75 28.4166L100.538 27.3303L97.9694 30.1885C97.8015 30.3753 97.7323 30.5426 97.7616 30.6903C97.791 30.838 97.888 30.9856 98.0526 31.1332L98.7485 31.7568L97.5398 33.1018L96.1929 31.8948Z" fill="black"/>
<path d="M100.022 36.1631C99.7135 35.7793 99.5043 35.3741 99.3939 34.9478C99.2914 34.5151 99.2863 34.0753 99.3785 33.6283C99.4785 33.175 99.6822 32.7225 99.9895 32.2706C100.303 31.8265 100.715 31.4004 101.225 30.9922C101.915 30.4396 102.588 30.0744 103.244 29.8965C103.915 29.7202 104.529 29.7236 105.089 29.9065C105.656 30.0831 106.143 30.426 106.552 30.9352C106.81 31.2564 106.992 31.587 107.097 31.9272C107.211 32.261 107.253 32.5942 107.223 32.9267C107.201 33.2528 107.107 33.5532 106.941 33.8277L107.017 33.9218L108.132 33.1445L109.443 34.7778L103.137 39.8268L101.825 38.1935L102.84 37.2658L102.764 37.1717C102.311 37.329 101.832 37.3193 101.33 37.1426C100.841 36.9675 100.405 36.641 100.022 36.1631ZM101.922 35.665C102.173 35.9783 102.448 36.1834 102.744 36.2804C103.048 36.3851 103.358 36.3942 103.675 36.3077C103.992 36.2211 104.299 36.0585 104.597 35.8199L105.221 35.3206C105.527 35.0757 105.75 34.8074 105.889 34.5156C106.043 34.2253 106.101 33.9211 106.065 33.6028C106.035 33.2924 105.91 33.0001 105.69 32.7259C105.425 32.3969 105.131 32.1824 104.806 32.0823C104.487 31.9901 104.142 32.0022 103.772 32.1186C103.409 32.2288 103.032 32.4408 102.64 32.7548C102.263 33.0562 101.974 33.3709 101.774 33.6988C101.573 34.0267 101.483 34.3561 101.504 34.6869C101.525 35.0178 101.664 35.3438 101.922 35.665Z" fill="black"/>
<path d="M105.7 44.7895C105.424 44.2539 105.258 43.7237 105.203 43.199C105.156 42.6696 105.215 42.1593 105.38 41.6679C105.55 41.1855 105.819 40.7423 106.188 40.3384C106.561 39.9434 107.025 39.6035 107.579 39.3186C108.142 39.0292 108.695 38.8521 109.239 38.7874C109.791 38.7182 110.308 38.757 110.791 38.9041C111.288 39.0555 111.736 39.3107 112.136 39.6698C112.544 40.0243 112.892 40.4783 113.177 41.0318C113.49 41.6388 113.652 42.2387 113.663 42.8313C113.688 43.4282 113.568 43.9752 113.304 44.4722C113.049 44.9646 112.661 45.362 112.138 45.6644L111.151 43.7495C111.37 43.5809 111.525 43.3882 111.617 43.1716C111.713 42.9639 111.751 42.7412 111.73 42.5035C111.723 42.2701 111.66 42.0373 111.54 41.8052C111.407 41.5463 111.236 41.3462 111.027 41.2049C110.828 41.0591 110.599 40.9674 110.343 40.93C110.095 40.888 109.823 40.8979 109.527 40.9597C109.236 41.0304 108.929 41.1485 108.607 41.3139C108.133 41.5574 107.772 41.822 107.524 42.1078C107.289 42.3979 107.151 42.7004 107.109 43.0152C107.082 43.3343 107.148 43.6501 107.309 43.9626C107.452 44.2393 107.618 44.4529 107.809 44.6034C108.013 44.7582 108.23 44.8499 108.46 44.8787C108.703 44.9118 108.939 44.8866 109.167 44.8031L110.154 46.718C109.581 46.9672 109.013 47.0501 108.45 46.9668C107.887 46.8836 107.37 46.6583 106.898 46.2911C106.426 45.9239 106.027 45.4233 105.7 44.7895Z" fill="black"/>
<path d="M108.857 52.234C108.641 51.5756 108.635 51.039 108.838 50.6242C109.05 50.2063 109.495 49.8865 110.174 49.6649L114.216 48.3446L113.766 46.9705L115.457 46.418L115.907 47.7922L118 47.1086L118.889 49.1472L116.596 49.8963L117.102 51.4422L115.411 51.9947L114.905 50.4488L111.25 51.6427C111.011 51.7207 110.867 51.831 110.819 51.9736C110.77 52.1162 110.78 52.2925 110.849 52.5024L111.14 53.3899L109.42 53.9517L108.857 52.234Z" fill="black"/>
<path d="M110.655 63.4521C110.608 62.4694 110.742 61.6185 111.06 60.8995C111.378 60.1905 111.849 59.6349 112.474 59.2327C113.109 58.8401 113.863 58.6226 114.737 58.5803L121.545 58.2505L121.659 60.5821L114.865 60.9111C114.373 60.935 113.961 61.0504 113.629 61.2575C113.307 61.4641 113.069 61.742 112.914 62.0913C112.771 62.45 112.711 62.8751 112.735 63.3665C112.76 63.888 112.866 64.315 113.054 64.6477C113.252 64.99 113.52 65.2383 113.86 65.3927C114.21 65.5567 114.621 65.6273 115.093 65.6044L121.887 65.2753L122 67.6069L115.191 67.9367C114.288 67.9805 113.505 67.8274 112.844 67.4775C112.183 67.1275 111.664 66.6098 111.289 65.9244C110.913 65.2389 110.702 64.4149 110.655 63.4521Z" fill="black"/>
<path d="M110.064 73.4115C110.152 72.8765 110.291 72.4058 110.48 71.9994C110.679 71.5946 110.918 71.2574 111.197 70.9877C111.474 70.728 111.785 70.5401 112.131 70.4238C112.486 70.3092 112.857 70.2787 113.246 70.3324L112.891 72.4871C112.638 72.4761 112.422 72.517 112.244 72.6098C112.076 72.7042 111.935 72.844 111.823 73.0291C111.72 73.2257 111.646 73.4578 111.602 73.7252C111.535 74.1314 111.559 74.4458 111.676 74.6684C111.79 74.9009 111.976 75.0383 112.234 75.0807C112.443 75.115 112.609 75.0915 112.735 75.0104C112.87 74.9309 112.987 74.7821 113.084 74.564C113.189 74.3575 113.297 74.0701 113.409 73.7017C113.631 73.0361 113.869 72.4901 114.122 72.0637C114.376 71.6374 114.679 71.3413 115.033 71.1755C115.386 71.0097 115.821 70.9692 116.337 71.054C116.853 71.1388 117.276 71.3509 117.607 71.6902C117.937 72.0395 118.164 72.4838 118.289 73.0233C118.424 73.5644 118.436 74.1718 118.325 74.8455C118.219 75.4894 118.023 76.032 117.736 76.4733C117.458 76.9262 117.108 77.2553 116.687 77.4609C116.274 77.6779 115.817 77.7606 115.316 77.7088L115.671 75.554C115.89 75.5899 116.072 75.564 116.219 75.4762C116.374 75.3999 116.501 75.2784 116.6 75.1114C116.698 74.9544 116.765 74.762 116.802 74.5342C116.86 74.1874 116.831 73.8978 116.716 73.6653C116.61 73.4443 116.428 73.3127 116.17 73.2703C115.982 73.2393 115.819 73.2685 115.682 73.3579C115.553 73.4589 115.433 73.6324 115.321 73.8786C115.209 74.1248 115.089 74.451 114.961 74.8573C114.764 75.4965 114.541 76.0144 114.292 76.411C114.044 76.8077 113.738 77.0831 113.377 77.2374C113.025 77.3932 112.586 77.428 112.06 77.3416C111.515 77.2519 111.073 77.0267 110.735 76.6659C110.396 76.315 110.17 75.8607 110.058 75.303C109.946 74.7454 109.948 74.1148 110.064 73.4115Z" fill="black"/>
<path d="M113.892 85.2536L114.548 85.5201L115.349 86.0727L115.026 85.1452L114.944 84.4288L115.84 84.3051L115.929 85.0076L115.884 85.9973L116.53 85.2514L117.084 84.8098L117.64 85.5232L117.08 85.9788L116.215 86.4242L117.175 86.5862L117.831 86.8527L117.485 87.7038L116.828 87.4372L116.022 86.8986L116.331 87.8204L116.413 88.5368L115.522 88.6465L115.428 87.958L115.487 86.9739L114.827 87.7142L114.273 88.1558L113.717 87.4424L114.277 86.9868L115.156 86.547L114.202 86.3711L113.545 86.1046L113.892 85.2536Z" fill="black"/>
<path d="M101.104 93.9721C101.605 93.3179 102.16 92.7998 102.768 92.4177C103.377 92.0356 104.023 91.7954 104.705 91.6971C105.382 91.6068 106.075 91.6683 106.785 91.8815C107.503 92.1008 108.217 92.4817 108.928 93.0243C109.639 93.5668 110.191 94.1521 110.583 94.7802C110.976 95.4082 111.217 96.06 111.308 96.7356C111.392 97.4191 111.33 98.1043 111.12 98.7912C110.911 99.4781 110.556 100.149 110.056 100.803C109.482 101.553 108.84 102.118 108.131 102.499C107.43 102.887 106.71 103.083 105.972 103.088C105.228 103.102 104.513 102.904 103.827 102.494L105.274 100.603C105.632 100.763 105.999 100.829 106.376 100.8C106.754 100.785 107.123 100.675 107.483 100.469C107.836 100.272 108.163 99.9775 108.462 99.5866C108.84 99.092 109.062 98.5789 109.127 98.0473C109.2 97.5219 109.101 96.9908 108.828 96.4542C108.557 95.9317 108.102 95.4266 107.463 94.9389C106.984 94.5731 106.518 94.3059 106.065 94.1371C105.614 93.9825 105.186 93.9214 104.781 93.9539C104.377 93.9864 104.002 94.1046 103.656 94.3083C103.304 94.52 102.985 94.8133 102.698 95.1883C102.411 95.5632 102.216 95.951 102.112 96.3517C102.007 96.7524 101.995 97.1408 102.074 97.5171C102.147 97.9013 102.311 98.2411 102.565 98.5366L101.119 100.427C100.544 99.8879 100.162 99.255 99.9715 98.5283C99.781 97.8017 99.7798 97.0426 99.9679 96.2511C100.158 95.4737 100.537 94.714 101.104 93.9721Z" fill="black"/>
<path d="M93.6842 101.603C94.1588 101.215 94.644 100.936 95.1398 100.764C95.6421 100.6 96.1478 100.543 96.6572 100.594C97.1665 100.645 97.6574 100.808 98.13 101.084C98.6089 101.367 99.0554 101.761 99.4692 102.266C99.9978 102.911 100.335 103.576 100.481 104.261C100.633 104.954 100.587 105.627 100.343 106.281C100.099 106.934 99.6465 107.531 98.9851 108.072C98.5183 108.453 98.0338 108.726 97.5316 108.89C97.0293 109.054 96.5275 109.107 96.0259 109.05C95.5166 108.999 95.0256 108.836 94.5531 108.561C94.0727 108.292 93.6224 107.901 93.2022 107.388C92.68 106.751 92.3429 106.086 92.1907 105.393C92.0449 104.708 92.0939 104.038 92.3379 103.385C92.5741 102.738 93.0228 102.144 93.6842 101.603ZM94.8324 102.981C94.5523 103.21 94.3614 103.476 94.2596 103.78C94.1563 104.098 94.1617 104.437 94.2756 104.798C94.3818 105.165 94.6036 105.555 94.9411 105.967C95.1958 106.278 95.4466 106.52 95.6935 106.695C95.9467 106.877 96.1993 106.995 96.4511 107.048C96.703 107.102 96.9431 107.094 97.1716 107.024C97.4064 106.962 97.6289 106.845 97.839 106.673C98.1191 106.444 98.3139 106.175 98.4235 105.865C98.5253 105.561 98.5232 105.225 98.417 104.858C98.3109 104.491 98.0859 104.097 97.742 103.678C97.4873 103.367 97.2333 103.12 96.98 102.938C96.7254 102.77 96.4721 102.659 96.2203 102.605C95.9748 102.56 95.7346 102.568 95.4998 102.63C95.265 102.692 95.0425 102.809 94.8324 102.981Z" fill="black"/>
<path d="M89.0714 105.246L92.8245 112.395L90.9412 113.381L90.1819 112.129L90.1017 112.171C90.1579 112.754 90.0419 113.268 89.7536 113.714C89.4701 114.168 89.0745 114.528 88.567 114.794C88.2108 114.98 87.851 115.095 87.4875 115.138C87.1199 115.194 86.764 115.165 86.4201 115.051C86.0672 114.941 85.728 114.727 85.4027 114.41C85.073 114.106 84.7682 113.688 84.4881 113.154L82.2195 108.833L84.1829 107.805L86.2275 111.7C86.4375 112.1 86.6616 112.408 86.8995 112.623C87.1286 112.843 87.3738 112.964 87.635 112.986C87.901 113.017 88.1942 112.949 88.5148 112.781C88.8531 112.604 89.0961 112.374 89.2436 112.093C89.3911 111.812 89.4594 111.51 89.4487 111.186C89.438 110.863 89.3533 110.551 89.1946 110.248L87.108 106.273L89.0714 105.246Z" fill="black"/>
<path d="M77.9853 110.168C78.6437 109.95 79.181 109.941 79.5973 110.142C80.0167 110.352 80.3388 110.795 80.5636 111.472L81.9032 115.502L83.2773 115.047L83.8378 116.734L82.4638 117.189L83.1573 119.276L81.1198 120.173L80.3598 117.886L78.814 118.399L78.2534 116.712L79.7992 116.2L78.5879 112.555C78.5087 112.317 78.3976 112.174 78.2546 112.126C78.1116 112.078 77.9351 112.089 77.7252 112.158L76.8378 112.453L76.2678 110.737L77.9853 110.168Z" fill="black"/>
<path d="M72.3682 111.366C72.855 111.29 73.3109 111.311 73.7362 111.427C74.163 111.554 74.5475 111.768 74.8898 112.071C75.2337 112.383 75.5253 112.785 75.7648 113.276C75.9944 113.768 76.1595 114.337 76.2602 114.982C76.3966 115.855 76.3786 116.62 76.2065 117.277C76.0259 117.945 75.7171 118.476 75.2799 118.869C74.8443 119.272 74.3036 119.524 73.6579 119.625C73.2506 119.688 72.873 119.681 72.5251 119.603C72.1786 119.535 71.8684 119.405 71.5944 119.214C71.3219 119.033 71.1078 118.802 70.952 118.522L70.8328 118.54L70.9526 119.893L68.8814 120.216L67.6358 112.24L69.707 111.918L70.0079 113.258L70.1271 113.239C70.2163 112.768 70.4627 112.359 70.8664 112.011C71.2616 111.676 71.7622 111.46 72.3682 111.366ZM71.855 113.26C71.4576 113.322 71.143 113.457 70.9111 113.666C70.6692 113.876 70.5069 114.14 70.4243 114.458C70.3416 114.776 70.3297 115.123 70.3886 115.5L70.5117 116.289C70.5721 116.676 70.6944 117.002 70.8784 117.268C71.054 117.546 71.289 117.748 71.5836 117.875C71.8682 118.003 72.1844 118.04 72.532 117.986C72.9493 117.921 73.2822 117.773 73.5309 117.541C73.7697 117.311 73.9307 117.006 74.0141 116.627C74.0989 116.258 74.1026 115.826 74.0251 115.33C73.9508 114.854 73.8211 114.447 73.6362 114.11C73.4513 113.773 73.21 113.531 72.9124 113.385C72.6147 113.238 72.2623 113.196 71.855 113.26Z" fill="black"/>
<path d="M61.9797 111.99C62.5823 112.017 63.1253 112.137 63.6087 112.35C64.0917 112.573 64.5055 112.879 64.8501 113.266C65.1847 113.653 65.4357 114.107 65.6032 114.627C65.7607 115.147 65.8252 115.718 65.7968 116.34C65.768 116.971 65.6465 117.539 65.4323 118.042C65.2177 118.555 64.9264 118.983 64.5584 119.329C64.1799 119.683 63.7352 119.944 63.2243 120.112C62.713 120.29 62.146 120.365 61.5233 120.336C60.8404 120.305 60.2387 120.147 59.7183 119.862C59.1874 119.587 58.7718 119.211 58.4714 118.735C58.1706 118.269 58.0189 117.734 58.0162 117.131L60.1705 117.229C60.2084 117.502 60.2985 117.733 60.4409 117.92C60.5733 118.107 60.7479 118.251 60.9648 118.351C61.1711 118.461 61.4048 118.522 61.666 118.534C61.9572 118.547 62.2161 118.498 62.4425 118.388C62.6685 118.288 62.8616 118.136 63.0219 117.932C63.1817 117.738 63.3084 117.498 63.402 117.211C63.4856 116.923 63.5356 116.599 63.5521 116.237C63.5764 115.706 63.5262 115.261 63.4016 114.904C63.2665 114.556 63.0725 114.286 62.8196 114.093C62.5563 113.911 62.2488 113.811 61.8973 113.795C61.5859 113.781 61.3175 113.819 61.092 113.909C60.8559 114.009 60.6683 114.151 60.529 114.336C60.3793 114.53 60.2838 114.747 60.2427 114.986L58.0884 114.888C58.1569 114.268 58.3675 113.735 58.7199 113.289C59.0724 112.843 59.5256 112.506 60.0794 112.28C60.6331 112.054 61.2666 111.957 61.9797 111.99Z" fill="black"/>
<path d="M53.9619 111.032C54.6414 111.172 55.1111 111.432 55.3712 111.814C55.6293 112.205 55.6863 112.75 55.5424 113.448L54.6848 117.608L56.1028 117.899L55.7439 119.64L54.3259 119.348L53.8819 121.502L51.668 121.262L52.1546 118.902L50.5593 118.574L50.9182 116.833L52.5134 117.161L53.2889 113.4C53.3396 113.154 53.315 112.975 53.2151 112.862C53.1152 112.749 52.9569 112.67 52.7402 112.626L51.8244 112.438L52.1894 110.667L53.9619 111.032Z" fill="black"/>
<path d="M43.2981 107.012C44.1755 107.46 44.8475 108 45.3142 108.633C45.7718 109.261 46.0199 109.945 46.0584 110.687C46.0834 111.432 45.8969 112.194 45.499 112.972L42.3977 119.034L40.3161 117.972L43.4105 111.923C43.6347 111.485 43.7394 111.071 43.7249 110.68C43.7057 110.298 43.5828 109.953 43.3562 109.646C43.116 109.343 42.7766 109.08 42.3379 108.856C41.8723 108.619 41.4484 108.498 41.0663 108.495C40.6706 108.496 40.3212 108.605 40.018 108.822C39.7013 109.044 39.4355 109.365 39.2205 109.785L36.1261 115.834L34.0445 114.772L37.1458 108.71C37.5575 107.905 38.0798 107.304 38.7128 106.905C39.3457 106.506 40.0533 106.315 40.8355 106.331C41.6178 106.346 42.4386 106.574 43.2981 107.012Z" fill="black"/>
<path d="M35.0019 101.576C35.4226 101.918 35.7623 102.273 36.0211 102.639C36.2735 103.013 36.4474 103.388 36.5428 103.764C36.6304 104.133 36.6387 104.496 36.5678 104.853C36.4906 105.217 36.332 105.555 36.0919 105.864L34.3974 104.484C34.5328 104.271 34.6047 104.064 34.6129 103.863C34.6147 103.67 34.5631 103.479 34.4581 103.29C34.339 103.102 34.1742 102.923 33.9639 102.751C33.6444 102.491 33.3591 102.356 33.108 102.346C32.8491 102.329 32.637 102.422 32.4718 102.624C32.3383 102.788 32.2756 102.944 32.2836 103.093C32.2853 103.25 32.3567 103.425 32.4977 103.617C32.6247 103.811 32.8203 104.048 33.0846 104.328C33.5523 104.852 33.9081 105.33 34.1521 105.762C34.3961 106.193 34.5022 106.604 34.4703 106.992C34.4383 107.381 34.2571 107.777 33.9267 108.182C33.5963 108.587 33.2013 108.848 32.7417 108.966C32.2742 109.078 31.7751 109.053 31.2444 108.893C30.7072 108.741 30.1737 108.449 29.6439 108.017C29.1375 107.605 28.764 107.164 28.5235 106.696C28.2688 106.23 28.157 105.763 28.1881 105.296C28.2051 104.831 28.3607 104.394 28.6551 103.986L30.3497 105.366C30.2099 105.537 30.1415 105.708 30.1446 105.879C30.1336 106.051 30.1759 106.222 30.2717 106.391C30.3596 106.553 30.4932 106.707 30.6724 106.853C30.9451 107.075 31.2109 107.194 31.4699 107.211C31.7146 107.229 31.9196 107.137 32.0849 106.935C32.2056 106.787 32.2612 106.631 32.2518 106.468C32.2282 106.306 32.1373 106.116 31.9792 105.896C31.8212 105.677 31.5976 105.411 31.3085 105.097C30.8514 104.608 30.5126 104.158 30.2919 103.745C30.0713 103.332 29.984 102.93 30.0301 102.54C30.0698 102.158 30.2581 101.761 30.5949 101.348C30.9443 100.92 31.3599 100.65 31.8414 100.537C32.3152 100.417 32.8221 100.448 33.3621 100.629C33.9021 100.81 34.4487 101.125 35.0019 101.576Z" fill="black"/>
<path d="M22.8097 99.0132L22.2525 99.4507L21.3751 99.8713L22.3416 100.051L23.0057 100.334L22.6688 101.174L22.014 100.902L21.1753 100.373L21.5042 101.302L21.6136 102.002L20.7175 102.131L20.5988 101.419L20.64 100.448L20.0236 101.2L19.4664 101.638L18.8978 100.916L19.4551 100.478L20.3231 100.046L19.3685 99.8566L18.7044 99.5734L19.0506 98.746L19.6961 99.0056L20.5229 99.5442L20.2059 98.6053L20.0964 97.9058L20.9926 97.777L21.1113 98.4884L21.0582 99.4687L21.684 98.7285L22.2412 98.291L22.8097 99.0132Z" fill="black"/>
<path d="M21.5561 83.5988C21.8769 84.3572 22.0527 85.095 22.0834 85.8124C22.114 86.5297 22.003 87.2087 21.7502 87.8495C21.4935 88.481 21.0965 89.0518 20.5592 89.5619C20.0127 90.0759 19.3273 90.5068 18.5031 90.8546C17.6788 91.2024 16.8964 91.3909 16.1556 91.4201C15.4148 91.4492 14.7283 91.3357 14.0959 91.0793C13.4597 90.8137 12.8947 90.4199 12.4009 89.898C11.9072 89.3761 11.4999 88.7359 11.1791 87.9775C10.8112 87.1082 10.6373 86.2715 10.6572 85.4674C10.6679 84.6672 10.8538 83.9457 11.2148 83.3028C11.572 82.6508 12.0987 82.1288 12.7951 81.7368L13.7226 83.9287C13.4059 84.1604 13.1668 84.4466 13.0053 84.7872C12.8306 85.1225 12.7436 85.4971 12.7441 85.9111C12.7407 86.3158 12.8349 86.7447 13.0266 87.1979C13.2693 87.7713 13.6056 88.218 14.0356 88.5379C14.4564 88.8617 14.9678 89.0383 15.5696 89.0678C16.1583 89.0919 16.823 88.9476 17.5639 88.635C18.1196 88.4005 18.583 88.1286 18.9542 87.8194C19.3123 87.5048 19.5774 87.1641 19.7496 86.7971C19.9218 86.4302 20.0049 86.0463 19.999 85.6455C19.9892 85.2354 19.8924 84.8131 19.7085 84.3784C19.5246 83.9437 19.2842 83.5819 18.9873 83.293C18.6904 83.0041 18.3588 82.8007 17.9924 82.6828C17.6221 82.5557 17.2453 82.5294 16.8621 82.6039L15.9346 80.412C16.6883 80.1812 17.4283 80.1632 18.1547 80.3581C18.8812 80.553 19.5419 80.9281 20.1371 81.4835C20.7192 82.0336 21.1921 82.7387 21.5561 83.5988Z" fill="black"/>
<path d="M18.6131 73.3883C18.7137 73.9925 18.7152 74.552 18.6175 75.067C18.5099 75.5836 18.3072 76.0498 18.0096 76.4656C17.7119 76.8815 17.3259 77.2255 16.8514 77.4977C16.367 77.7715 15.8025 77.9619 15.1579 78.069C14.3347 78.2057 13.5893 78.1667 12.9216 77.9519C12.244 77.7387 11.6822 77.3638 11.2361 76.8272C10.79 76.2906 10.4969 75.6014 10.3567 74.7596C10.2577 74.1653 10.262 73.6099 10.3697 73.0933C10.4773 72.5767 10.6807 72.1154 10.98 71.7095C11.2777 71.2937 11.6638 70.9496 12.1382 70.6775C12.611 70.3954 13.1747 70.2 13.8293 70.0913C14.6425 69.9562 15.3879 69.9953 16.0655 70.2084C16.7332 70.4232 17.2901 70.7989 17.7362 71.3355C18.1806 71.8622 18.4729 72.5465 18.6131 73.3883ZM16.8453 73.6972C16.7859 73.3406 16.6497 73.0427 16.4365 72.8033C16.2118 72.5556 15.9144 72.3913 15.5442 72.3103C15.1723 72.2193 14.7236 72.2175 14.1979 72.3048C13.8012 72.3707 13.4657 72.4672 13.1912 72.5942C12.9069 72.7228 12.6788 72.8828 12.5068 73.0742C12.3348 73.2656 12.2224 73.4777 12.1694 73.7104C12.1065 73.9448 12.0973 74.1957 12.1419 74.4631C12.2012 74.8196 12.3383 75.1226 12.5531 75.3719C12.7662 75.6113 13.0587 75.7764 13.4306 75.8673C13.8024 75.9583 14.2561 75.9592 14.7917 75.8703C15.1884 75.8044 15.5289 75.7071 15.8133 75.5785C16.086 75.4416 16.3084 75.2774 16.4804 75.086C16.6424 74.8963 16.7549 74.6842 16.8178 74.4498C16.8806 74.2155 16.8898 73.9646 16.8453 73.6972Z" fill="black"/>
<path d="M17.7474 67.5176L9.66999 67.2108L9.75081 65.0889L11.216 65.0541L11.2195 64.9638C10.6854 64.7225 10.2965 64.3661 10.0529 63.8946C9.79917 63.4228 9.68322 62.901 9.70501 62.3291C9.72029 61.9278 9.79973 61.5591 9.94333 61.2229C10.0773 60.8763 10.2796 60.5826 10.5504 60.3417C10.8215 60.0908 11.1758 59.9033 11.6131 59.7792C12.0408 59.6448 12.5561 59.589 13.1589 59.6119L18.0415 59.7973L17.9572 62.0096L13.5568 61.8424C13.1047 61.8253 12.7259 61.8661 12.4203 61.965C12.1151 62.0539 11.8879 62.2061 11.7389 62.4214C11.5798 62.6364 11.4933 62.9245 11.4796 63.2857C11.465 63.667 11.5432 63.9914 11.7141 64.2592C11.885 64.5269 12.1135 64.7365 12.3995 64.888C12.6855 65.0396 12.9993 65.1218 13.3409 65.1348L17.8317 65.3054L17.7474 67.5176Z" fill="black"/>
<path d="M18.9774 55.4805C18.8404 56.1596 18.5815 56.6299 18.2006 56.8913C17.8099 57.1506 17.2646 57.21 16.5648 57.0692L12.3958 56.2306L12.1099 57.648L10.3654 57.2971L10.6513 55.8798L8.49283 55.4456L8.72358 53.2337L11.089 53.7095L11.4106 52.115L13.1551 52.4659L12.8335 54.0604L16.6034 54.8187C16.8498 54.8682 17.0292 54.8429 17.1418 54.7426C17.2543 54.6423 17.3324 54.4839 17.3761 54.2674L17.5607 53.352L19.3347 53.7089L18.9774 55.4805Z" fill="black"/>
<path d="M20.729 49.9987C20.5532 50.4583 20.3089 50.8434 19.9963 51.154C19.6743 51.461 19.2969 51.6878 18.8641 51.8343C18.4219 51.9773 17.928 52.0306 17.3822 51.9943C16.84 51.9485 16.2637 51.8092 15.6532 51.5762C14.8268 51.2608 14.1709 50.8654 13.6856 50.3899C13.1944 49.9015 12.8865 49.3702 12.7619 48.7959C12.6278 48.2181 12.6774 47.6244 12.9107 47.0148C13.0579 46.6303 13.2517 46.3065 13.4923 46.0437C13.7234 45.7772 13.9901 45.5726 14.2922 45.43C14.585 45.2837 14.8919 45.2128 15.2132 45.2172L15.2562 45.1046L14.0207 44.5363L14.7691 42.5809L22.3197 45.4627L21.5713 47.4182L20.2571 47.0133L20.214 47.1258C20.5792 47.4372 20.8125 47.8541 20.914 48.3765C21.0096 48.8859 20.948 49.4267 20.729 49.9987ZM19.338 48.6133C19.4816 48.2382 19.5202 47.8982 19.4539 47.5935C19.3911 47.2793 19.2422 47.0075 19.0071 46.7781C18.7721 46.5486 18.4761 46.3658 18.1192 46.2296L17.3726 45.9446C17.0063 45.8048 16.6619 45.7486 16.3393 45.776C16.0109 45.7904 15.7184 45.8937 15.4619 46.086C15.2089 46.2689 15.0196 46.5245 14.894 46.8527C14.7432 47.2466 14.7068 47.6089 14.7848 47.9396C14.8663 48.2609 15.051 48.5518 15.3388 48.8121C15.6173 49.0689 15.9913 49.2868 16.4608 49.4661C16.9116 49.6381 17.3294 49.7277 17.7141 49.7348C18.0989 49.7419 18.4289 49.6529 18.7043 49.4678C18.9796 49.2827 19.1909 48.9979 19.338 48.6133Z" fill="black"/>
<path d="M25.3183 40.7472C24.9946 41.2555 24.62 41.666 24.1944 41.9788C23.7604 42.2862 23.2893 42.4927 22.7812 42.5983C22.2784 42.6955 21.7595 42.6871 21.2243 42.5733C20.6945 42.451 20.1667 42.2229 19.6407 41.8888C19.1062 41.5494 18.6739 41.1618 18.3438 40.7261C18.0051 40.2849 17.7775 39.8191 17.6609 39.3286C17.5413 38.8243 17.5357 38.3091 17.6443 37.7832C17.7444 37.2518 17.9617 36.7235 18.2962 36.1982C18.6631 35.6221 19.0998 35.1796 19.6063 34.8707C20.1097 34.5479 20.6429 34.3749 21.2058 34.3516C21.7602 34.323 22.3 34.4576 22.8252 34.7554L21.6679 36.5727C21.4119 36.4695 21.167 36.433 20.9334 36.4631C20.7052 36.4848 20.4935 36.5645 20.2985 36.7024C20.1003 36.8265 19.9311 36.9986 19.7909 37.2189C19.6344 37.4646 19.5477 37.7129 19.5308 37.964C19.5055 38.2096 19.5414 38.4526 19.6386 38.6928C19.7274 38.9276 19.8732 39.157 20.076 39.3811C20.2843 39.5966 20.5411 39.8014 20.8465 39.9953C21.2961 40.2809 21.7072 40.4587 22.0796 40.5286C22.449 40.5847 22.7802 40.5511 23.0732 40.4279C23.3631 40.2907 23.6024 40.0739 23.7913 39.7774C23.9585 39.5147 24.0591 39.2633 24.0929 39.023C24.1237 38.7689 24.0936 38.5356 24.0025 38.3231C23.9084 38.0967 23.7676 37.9062 23.5802 37.7514L24.7375 35.9342C25.2419 36.3021 25.6002 36.7498 25.8124 37.2772C26.0246 37.8046 26.091 38.3644 26.0118 38.9566C25.9325 39.5488 25.7014 40.1457 25.3183 40.7472Z" fill="black"/>
<path d="M30.1603 34.2593C29.7006 34.7782 29.2404 35.0552 28.7796 35.0905C28.3113 35.1192 27.8098 34.8973 27.2752 34.425L24.0898 31.6111L23.1306 32.6939L21.7977 31.5165L22.757 30.4336L21.1079 28.9767L22.4186 27.1789L24.2258 28.7754L25.305 27.5572L26.6378 28.7347L25.5587 29.9529L28.439 32.4974C28.6273 32.6637 28.7953 32.7317 28.943 32.7013C29.0907 32.671 29.2378 32.5731 29.3844 32.4076L30.0039 31.7083L31.3593 32.9057L30.1603 34.2593Z" fill="black"/>
<path d="M38.9275 27.0226C38.1038 27.5625 37.3012 27.8783 36.5197 27.9701C35.7467 28.0564 35.0281 27.9329 34.3641 27.5995C33.703 27.2522 33.1324 26.7134 32.6525 25.9831L28.9126 20.292L30.8669 19.0112L34.5985 24.6898C34.8688 25.1011 35.1776 25.3971 35.5249 25.5778C35.8666 25.7502 36.2272 25.814 36.6068 25.7695C36.9892 25.711 37.3864 25.5467 37.7983 25.2768C38.2354 24.9904 38.5499 24.6822 38.7419 24.3522C38.9368 24.0083 39.0147 23.651 38.9756 23.2804C38.9393 22.8958 38.7916 22.5063 38.5323 22.1118L34.8006 16.4332L36.7549 15.1525L40.4948 20.8436C40.9913 21.5991 41.2563 22.3501 41.29 23.0966C41.3236 23.8431 41.14 24.5519 40.7391 25.2229C40.3383 25.8939 39.7344 26.4938 38.9275 27.0226Z" fill="black"/>
<path d="M47.7643 22.5154C47.2577 22.7105 46.7811 22.8294 46.3343 22.8724C45.8839 22.9059 45.4717 22.8709 45.0977 22.7675C44.7331 22.6604 44.4132 22.4877 44.138 22.2493C43.8591 22.0016 43.6445 21.6968 43.494 21.3351L45.5343 20.5494C45.6529 20.7728 45.7974 20.9377 45.9678 21.0443C46.1347 21.1414 46.3263 21.1914 46.5429 21.1941C46.7652 21.1838 47.003 21.1299 47.2563 21.0323C47.6409 20.8842 47.8999 20.7038 48.0332 20.491C48.1759 20.2747 48.2003 20.0447 48.1062 19.8011C48.0303 19.6044 47.9255 19.4726 47.7919 19.4057C47.6547 19.3294 47.4673 19.3047 47.2299 19.3315C46.9982 19.3454 46.6951 19.3976 46.3205 19.488C45.6335 19.6342 45.0416 19.7061 44.545 19.7037C44.0484 19.7012 43.639 19.5898 43.3169 19.3695C42.9948 19.1492 42.7397 18.7955 42.5516 18.3084C42.3635 17.8213 42.332 17.3492 42.4572 16.892C42.5918 16.4313 42.8603 16.0105 43.2628 15.6295C43.6616 15.2392 44.18 14.9212 44.8178 14.6756C45.4276 14.4408 45.9956 14.3351 46.5218 14.3584C47.0538 14.3687 47.5151 14.5031 47.9059 14.7616C48.3024 15.007 48.6051 15.3585 48.8141 15.8161L46.7738 16.6018C46.6943 16.3957 46.5794 16.2516 46.4292 16.1696C46.2847 16.0745 46.1154 16.0268 45.9212 16.0262C45.7364 16.022 45.5362 16.0615 45.3204 16.1446C44.9921 16.271 44.7566 16.4424 44.6138 16.6588C44.4769 16.8622 44.4554 17.0857 44.5495 17.3292C44.6182 17.5072 44.7258 17.6325 44.8724 17.7052C45.0248 17.7649 45.2356 17.7806 45.5048 17.7522C45.774 17.7239 46.1165 17.662 46.5322 17.5665C47.1838 17.4124 47.7439 17.3419 48.2124 17.3552C48.6809 17.3685 49.0733 17.4918 49.3896 17.7251C49.7024 17.949 49.9546 18.3092 50.1463 18.8057C50.3453 19.3209 50.3746 19.8154 50.2342 20.2891C50.1033 20.7592 49.8254 21.1837 49.4006 21.5625C48.9757 21.9413 48.4303 22.2589 47.7643 22.5154Z" fill="black"/>
<path d="M56.0475 13.2225L55.9449 12.5221L56.0164 11.5528L55.379 12.3004L54.8025 12.7346L54.2414 12.0251L54.803 11.593L55.6801 11.1301L54.7091 10.9523L54.0471 10.6989L54.3813 9.85861L55.0582 10.1098L55.8811 10.6289L55.5347 9.72061L55.4321 9.02023L56.3424 8.88729L56.4449 9.58767L56.3884 10.5548L57.0279 9.82215L57.6045 9.38788L58.1507 10.0996L57.604 10.5295L56.7247 10.9775L57.6978 11.1702L58.3598 11.4236L58.0257 12.2639L57.3487 12.0127L56.5237 11.4787L56.8552 12.3892L56.9578 13.0896L56.0475 13.2225Z" fill="black"/>
<circle cx="65" cy="65" r="35" fill="black"/>
<path d="M83.6574 57.4784H81.3156C80.5702 57.4784 79.9306 58.0102 79.5773 58.3791C78.2524 55.0528 76.6502 52.7902 75.8661 51.795C75.5438 51.3857 75.1151 51.0802 74.6286 50.9116C72.1415 50.0497 68.8442 50 65.0003 50C61.1558 50 57.8592 50.0497 55.3721 50.9116C54.8856 51.0802 54.4568 51.3857 54.1346 51.795C53.3512 52.7909 51.749 55.0528 50.4241 58.3799C50.0708 58.0109 49.4312 57.4791 48.6858 57.4791H46.344C45.6022 57.4791 45 58.0938 45 58.8518C45 59.4535 45.3836 59.9853 45.947 60.1633L48.9362 61.108C47.8206 62.0614 45.8003 64.1641 45.8003 66.9002C45.8003 68.9316 45.8003 71.6598 45.8003 73.7488C45.8003 75.5467 45.8003 76.8712 45.8003 76.8712V77.8151C45.8003 79.0221 46.758 80 47.9384 80H52.1996C53.3808 80 54.3377 79.0214 54.3377 77.8151V76.8712H65.0003H75.663V77.8151C75.663 79.0221 76.6206 80 77.8011 80H82.0623C83.2435 80 84.2003 79.0214 84.2003 77.8151V73.7488C84.2003 71.6598 84.2003 68.9316 84.2003 66.9002C84.2003 64.1641 82.1801 62.0614 81.0645 61.108L84.0537 60.1633C84.6164 59.9853 85 59.4535 85 58.8518C85.0007 58.0931 84.3992 57.4784 83.6574 57.4784Z" fill="#F5B754"/>
<path d="M74.9647 53.6055C74.7201 53.1328 74.2913 52.7841 73.7822 52.6594C70.6816 51.8999 65.0009 51.9438 65.0009 51.9438C65.0009 51.9438 59.3194 51.8999 56.2188 52.6594C55.7097 52.7841 55.281 53.1328 55.0363 53.6055C54.2994 55.0294 52.6465 58.2909 52.0034 60.119C52.0034 60.119 56.0954 59.3617 65.0002 59.3617C73.9049 59.3617 77.9969 60.119 77.9969 60.119C77.3538 58.2909 75.7016 55.0287 74.9647 53.6055Z" fill="#111111"/>
<path d="M54.3382 66.7392C54.3382 68.4492 52.9822 69.8349 51.3089 69.8349C49.6356 69.8349 48.2795 68.4485 48.2795 66.7392C48.2795 65.0293 49.6356 63.6436 51.3089 63.6436C52.9822 63.6428 54.3382 65.0293 54.3382 66.7392Z" fill="#111111"/>
<path d="M75.6628 66.7392C75.6628 68.4492 77.0196 69.8349 78.6922 69.8349C80.3655 69.8349 81.7216 68.4485 81.7216 66.7392C81.7216 65.0293 80.3655 63.6436 78.6922 63.6436C77.0196 63.6428 75.6628 65.0293 75.6628 66.7392Z" fill="#111111"/>
<path d="M71.9645 74.1377H58.0369C57.0158 74.1377 56.188 73.2917 56.188 72.2483C56.188 71.2049 57.0158 70.3589 58.0369 70.3589H71.9652C72.9862 70.3589 73.8141 71.2049 73.8141 72.2483C73.8141 73.2917 72.9862 74.1377 71.9645 74.1377Z" fill="#111111"/>
</svg>
