<svg width="50" height="50" viewBox="0 0 50 50" fill="none" xmlns="http://www.w3.org/2000/svg">
<g clip-path="url(#clip0_640_100)">
<path d="M32.5234 4.6875C30.7367 2.76953 28.1961 1.5625 25.3672 1.5625H24.6328C21.8047 1.5625 19.2641 2.76953 17.4766 4.6875H17.9687C19.7297 4.6875 21.1906 6.04844 21.3164 7.80469L21.6523 12.5078C21.7781 14.2641 23.2391 15.625 25 15.625C26.7609 15.625 28.2219 14.2641 28.3477 12.5078L28.6836 7.80469C28.8094 6.04844 30.2703 4.6875 32.0312 4.6875H32.5234Z" fill="#F5B754"/>
<path d="M45.3125 22.6562H31.25V22.0914L34.4312 16.7898C35.4164 15.1469 35.9375 13.2664 35.9375 11.3508C35.9375 5.52266 31.1961 0.78125 25.368 0.78125H24.6328C18.8039 0.78125 14.0625 5.52266 14.0625 11.3508C14.0625 13.2664 14.5836 15.1469 15.5687 16.7891L18.75 22.0914V22.6562H4.6875C2.53359 22.6562 0.78125 24.4086 0.78125 26.5625V45.3125C0.78125 47.4664 2.53359 49.2188 4.6875 49.2188H45.3125C47.4664 49.2188 49.2188 47.4664 49.2188 45.3125V26.5625C49.2188 24.4086 47.4664 22.6562 45.3125 22.6562ZM28.125 33.5938H31.25C32.5422 33.5938 33.5938 34.6453 33.5938 35.9375C33.5938 37.2297 32.5422 38.2812 31.25 38.2812H28.125V33.5938ZM26.5625 38.2812H23.4375V25.7812H26.5625V38.2812ZM21.875 38.2812H18.75C17.4578 38.2812 16.4062 37.2297 16.4062 35.9375C16.4062 34.6453 17.4578 33.5938 18.75 33.5938H21.875V38.2812ZM20.3125 24.2188V22.6562H29.6875V24.2188H20.3125ZM16.9086 15.9852C16.0687 14.5859 15.625 12.9836 15.625 11.3508C15.625 6.38438 19.6656 2.34375 24.632 2.34375H25.3672C30.3344 2.34375 34.375 6.38438 34.375 11.3508C34.375 12.9828 33.9312 14.5859 33.0914 15.9852L30.0266 21.0938H19.9734L16.9086 15.9852ZM47.6562 45.3125C47.6562 46.6047 46.6047 47.6562 45.3125 47.6562H4.6875C3.39531 47.6562 2.34375 46.6047 2.34375 45.3125V26.5625C2.34375 25.2703 3.39531 24.2188 4.6875 24.2188H18.75V25.7812H21.875V32.0312H18.75C16.5961 32.0312 14.8438 33.7836 14.8438 35.9375C14.8438 38.0914 16.5961 39.8438 18.75 39.8438H31.25C33.4039 39.8438 35.1562 38.0914 35.1562 35.9375C35.1562 33.7836 33.4039 32.0312 31.25 32.0312H28.125V25.7812H31.25V24.2188H45.3125C46.6047 24.2188 47.6562 25.2703 47.6562 26.5625V45.3125Z" fill="black"/>
<path d="M43.75 25.7812H39.0625C37.7703 25.7812 36.7188 26.8328 36.7188 28.125V43.75C36.7188 45.0422 37.7703 46.0938 39.0625 46.0938H43.75C45.0422 46.0938 46.0938 45.0422 46.0938 43.75V28.125C46.0938 26.8328 45.0422 25.7812 43.75 25.7812ZM39.0625 27.3438H43.75C44.1805 27.3438 44.5312 27.6945 44.5312 28.125V28.9062H38.2812V28.125C38.2812 27.6945 38.632 27.3438 39.0625 27.3438ZM38.2812 38.2812V36.7188H44.5312V38.2812H38.2812ZM44.5312 39.8438V41.4062H38.2812V39.8438H44.5312ZM38.2812 35.1562V33.5938H44.5312V35.1562H38.2812ZM38.2812 32.0312V30.4688H44.5312V32.0312H38.2812ZM43.75 44.5312H39.0625C38.632 44.5312 38.2812 44.1805 38.2812 43.75V42.9688H44.5312V43.75C44.5312 44.1805 44.1805 44.5312 43.75 44.5312Z" fill="black"/>
<path d="M5.46875 42.9688H10.1562V41.4062H5.46875V39.8438H13.2812V38.2812H5.46875V36.7188H10.1562V35.1562H5.46875V33.5938H13.2812V32.0312H5.46875V30.4688H10.1562V28.9062H5.46875V27.3438H13.2812V25.7812H3.90625V46.0938H14.0625V44.5312H5.46875V42.9688Z" fill="black"/>
<path d="M31.25 46.0938C29.9578 46.0938 28.9062 45.0422 28.9062 43.75C28.9062 42.4578 29.9578 41.4062 31.25 41.4062C32.5422 41.4062 33.5938 42.4578 33.5938 43.75C33.5938 45.0422 32.5422 46.0938 31.25 46.0938Z" fill="#F5B754"/>
<path d="M25 46.0938C23.7078 46.0938 22.6562 45.0422 22.6562 43.75C22.6562 42.4578 23.7078 41.4062 25 41.4062C26.2922 41.4062 27.3438 42.4578 27.3438 43.75C27.3438 45.0422 26.2922 46.0938 25 46.0938Z" fill="#F5B754"/>
<path d="M18.75 46.0938C17.4578 46.0938 16.4062 45.0422 16.4062 43.75C16.4062 42.4578 17.4578 41.4062 18.75 41.4062C20.0422 41.4062 21.0938 42.4578 21.0938 43.75C21.0938 45.0422 20.0422 46.0938 18.75 46.0938Z" fill="#F5B754"/>
</g>
<defs>
<clipPath id="clip0_640_100">
<rect width="50" height="50" fill="white"/>
</clipPath>
</defs>
</svg>
