<svg width="40" height="40" viewBox="0 0 40 40" fill="none" xmlns="http://www.w3.org/2000/svg">
<g clip-path="url(#clip0_637_361)">
<path d="M3.75 32.5H16.25V35.625H3.75V32.5Z" fill="#F5B754"/>
<path d="M20 1.25H25V18.75H20V1.25Z" fill="#F5B754"/>
<path d="M32.1356 24.16C33.1331 23.7031 34.375 23.135 34.375 21.875H33.125C33.125 22.2994 32.4994 22.6188 31.615 23.0238C30.6169 23.4806 29.375 24.0494 29.375 25.3094C29.375 26.57 30.6169 27.1387 31.6144 27.5962C32.4988 28.0012 33.125 28.3212 33.125 28.7462C33.125 29.1725 32.4988 29.4925 31.6144 29.8981C30.6163 30.3556 29.375 30.925 29.375 32.1856C29.375 33.4463 30.6163 34.0156 31.6144 34.4738C32.4988 34.8794 33.125 35.1987 33.125 35.625H34.375C34.375 34.3644 33.1337 33.795 32.1356 33.3369C31.2512 32.9313 30.625 32.6119 30.625 32.1856C30.625 31.7594 31.2512 31.44 32.1356 31.0344C33.1331 30.5762 34.375 30.0069 34.375 28.7462C34.375 27.4856 33.1331 26.9169 32.1356 26.4594C31.2512 26.0544 30.625 25.7344 30.625 25.3094C30.625 24.8844 31.2512 24.565 32.1356 24.16Z" fill="white"/>
<path d="M27.1356 33.3369C26.2512 32.9313 25.625 32.6119 25.625 32.1856C25.625 31.7594 26.2512 31.44 27.1356 31.0344C28.1331 30.5762 29.375 30.0069 29.375 28.7462C29.375 27.4856 28.1331 26.9169 27.1356 26.4594C26.2512 26.0544 25.625 25.7344 25.625 25.3094C25.625 24.885 26.2512 24.5656 27.1356 24.1606C28.1331 23.7031 29.375 23.135 29.375 21.875H28.125C28.125 22.2994 27.4994 22.6188 26.615 23.0238C25.6169 23.4806 24.375 24.0494 24.375 25.3094C24.375 26.57 25.6169 27.1387 26.6144 27.5962C27.4988 28.0012 28.125 28.3212 28.125 28.7462C28.125 29.1725 27.4988 29.4925 26.6144 29.8981C25.6163 30.3556 24.375 30.925 24.375 32.1856C24.375 33.4463 25.6163 34.0156 26.6144 34.4738C27.4988 34.8794 28.125 35.1987 28.125 35.625H29.375C29.375 34.3644 28.1337 33.795 27.1356 33.3369Z" fill="white"/>
<path d="M22.1356 33.3369C21.2512 32.9313 20.625 32.6119 20.625 32.1856C20.625 31.7594 21.2512 31.44 22.1356 31.0344C23.1331 30.5762 24.375 30.0069 24.375 28.7462C24.375 27.4856 23.1331 26.9169 22.1356 26.4594C21.2512 26.0544 20.625 25.7344 20.625 25.3094C20.625 24.885 21.2512 24.5656 22.1356 24.1606C23.1331 23.7031 24.375 23.135 24.375 21.875H23.125C23.125 22.2994 22.4994 22.6188 21.615 23.0238C20.6169 23.4806 19.375 24.0494 19.375 25.3094C19.375 26.57 20.6169 27.1387 21.6144 27.5962C22.4988 28.0012 23.125 28.3212 23.125 28.7462C23.125 29.1725 22.4988 29.4925 21.6144 29.8981C20.6163 30.3556 19.375 30.925 19.375 32.1856C19.375 33.4463 20.6163 34.0156 21.6144 34.4738C22.4988 34.8794 23.125 35.1987 23.125 35.625H24.375C24.375 34.3644 23.1337 33.795 22.1356 33.3369Z" fill="white"/>
<path d="M21.875 15.625H23.125V16.875H21.875V15.625Z" fill="white"/>
<path d="M21.875 13.125H23.125V14.375H21.875V13.125Z" fill="white"/>
<path d="M21.875 10.625H23.125V11.875H21.875V10.625Z" fill="white"/>
<path d="M21.875 8.125H23.125V9.375H21.875V8.125Z" fill="white"/>
<path d="M21.875 5.625H23.125V6.875H21.875V5.625Z" fill="white"/>
<path d="M21.875 3.125H23.125V4.375H21.875V3.125Z" fill="white"/>
<path d="M25 5.625H34.375V6.875H25V5.625Z" fill="white"/>
<path d="M16.875 3.125H20V4.375H16.875V3.125Z" fill="white"/>
<path d="M25 10.625H28.125V11.875H25V10.625Z" fill="white"/>
<path d="M10.625 8.125H20V9.375H10.625V8.125Z" fill="white"/>
<path d="M25 15.625H31.875V16.875H25V15.625Z" fill="white"/>
<path d="M15.625 13.125H20V14.375H15.625V13.125Z" fill="white"/>
<path d="M36.35 0.625H8.65C6.98187 0.625 5.625 1.98188 5.625 3.65C5.625 3.73375 5.62875 3.8175 5.63625 3.90125L6.63188 15.8481C6.03625 16.1631 5.625 16.7812 5.625 17.5V20.8619C4.77375 19.9481 3.56 19.375 2.215 19.375C1.33875 19.375 0.625 20.0856 0.625 20.9594C0.625 21.2731 0.716875 21.5769 0.89125 21.8381L1.53437 22.8025C1.7725 23.16 1.92625 23.5738 1.97938 24L2.38188 27.2144C2.47563 27.9688 2.76625 28.6887 3.22312 29.2975L4.375 30.8331V31.875H3.125V39.375H16.875V31.875H15.625V30.7725L16.4131 29.1969C16.715 28.5925 16.875 27.9156 16.875 27.2394V19.375H35.2919C36.8531 19.375 38.1769 18.1562 38.3056 16.6012L39.3638 3.90125C39.3713 3.8175 39.375 3.73438 39.375 3.65C39.375 1.98188 38.0181 0.625 36.35 0.625ZM15.625 38.125H4.375V33.125H15.625V38.125ZM15.625 27.2394C15.625 27.7219 15.5106 28.205 15.295 28.6369L14.375 30.4775V31.875H5.625V30.4169L4.2225 28.5469C3.89687 28.1125 3.68875 27.5981 3.62188 27.0594L3.21938 23.845C3.1425 23.2281 2.92 22.6275 2.57437 22.1094L1.93125 21.145C1.89437 21.09 1.875 21.0256 1.875 20.9594C1.875 20.7719 2.02437 20.625 2.215 20.625C4.09562 20.625 5.625 22.155 5.625 24.0356V25H6.875V17.5C6.875 17.1556 7.155 16.875 7.5 16.875C7.845 16.875 8.125 17.1556 8.125 17.5V21.25H9.375V17.5V15C9.375 14.6556 9.655 14.375 10 14.375C10.345 14.375 10.625 14.6556 10.625 15V16.875V21.25H11.875V16.875C11.875 16.5306 12.155 16.25 12.5 16.25C12.845 16.25 13.125 16.5306 13.125 16.875V18.75V21.25H14.375V18.75C14.375 18.4056 14.655 18.125 15 18.125C15.345 18.125 15.625 18.4056 15.625 18.75V27.2394ZM35.2919 18.125H16.76C16.5013 17.3994 15.8138 16.875 15 16.875C14.78 16.875 14.5712 16.92 14.375 16.99V16.875H15H20V15.625H13.8875C13.5444 15.2444 13.0519 15 12.5 15C12.28 15 12.0712 15.045 11.875 15.115V15C11.875 14.78 11.83 14.5712 11.76 14.375H14.375V13.125H10C8.96625 13.125 8.125 13.9663 8.125 15V15.74C8.04125 15.71 7.95812 15.68 7.86937 15.6619L7.55375 11.875H20V10.625H7.45L7.34562 9.375H9.375V8.125H7.24187L7.1375 6.875H20V5.625H7.03312L6.92875 4.375H15.625V3.125H6.96312C7.18875 2.40375 7.855 1.875 8.64937 1.875H36.3494C37.1437 1.875 37.81 2.40375 38.0356 3.125H25V4.375H38.0706L37.9662 5.625H35.625V6.875H37.8625L37.7581 8.125H25V9.375H37.6544L37.55 10.625H29.375V11.875H37.4456L37.3412 13.125H25V14.375H37.2375L37.1331 15.625H33.125V16.875H36.9825C36.7556 17.5987 36.0762 18.125 35.2919 18.125Z" fill="white"/>
</g>
<defs>
<clipPath id="clip0_637_361">
<rect width="40" height="40" fill="white"/>
</clipPath>
</defs>
</svg>
