<svg width="50" height="50" viewBox="0 0 50 50" fill="none" xmlns="http://www.w3.org/2000/svg">
<g clip-path="url(#clip0_511_6771)">
<path d="M44.5312 3.90625H13.2812C12.4195 3.90625 11.7188 4.60703 11.7188 5.46875V25.7812C11.7188 26.643 12.4195 27.3438 13.2812 27.3438H16.7969L18.7555 25.6648C19.2562 25.2359 19.8938 25 20.5531 25H20.6758C22.0578 25 23.193 26.018 23.3961 27.3438H44.5312C45.393 27.3438 46.0938 26.643 46.0938 25.7812V5.46875C46.0938 4.60703 45.393 3.90625 44.5312 3.90625Z" fill="#F5B754"/>
<path d="M45.3125 0.78125H12.5C10.3461 0.78125 8.59375 2.53359 8.59375 4.6875V15.3016L5.31953 18.5766C3.40078 20.4945 2.34375 23.0461 2.34453 25.7586L2.34609 39.8438H3.90859L3.90703 25.7586C3.90625 23.4633 4.80078 21.3047 6.42422 19.6812L8.59375 17.5109V26.5625C8.59375 28.7164 10.3461 30.4688 12.5 30.4688C13.6937 30.4688 14.8516 30.0406 15.757 29.2641L19.2641 26.2586C19.6219 25.9508 20.0797 25.782 20.5523 25.782H20.675C21.7672 25.7812 22.6562 26.6703 22.6562 27.7625C22.6562 28.2922 22.45 28.7891 22.0766 29.1633L15.9883 35.2516C15.2508 35.9891 14.8437 36.9703 14.8437 38.0133V39.8438H16.4062V38.0133C16.4062 37.3961 16.6562 36.793 17.093 36.3563L22.9805 30.4688H45.3125C47.4664 30.4688 49.2187 28.7164 49.2187 26.5625V4.6875C49.2187 2.53359 47.4664 0.78125 45.3125 0.78125ZM20.5531 24.2188C19.7078 24.2188 18.8883 24.5219 18.2477 25.0719L17.9687 25.3102V17.9688H21.0937V24.2609C20.9547 24.2445 20.8187 24.2188 20.6758 24.2188H20.5531ZM47.6562 26.5625C47.6562 27.8547 46.6047 28.9062 45.3125 28.9062H24.0312C24.1547 28.543 24.2187 28.1578 24.2187 27.7625C24.2187 26.5414 23.5984 25.4633 22.6562 24.8258V17.9688H25.7812V27.3438H27.3437V17.9688H30.4687V27.3438H32.0312V17.9688H35.1562V27.3438H36.7187V17.9688H39.8437V27.3438H41.4062V17.9688H46.0937V16.4062H11.7187V17.9688H16.4062V26.5625H16.5078L14.7398 28.0773C14.1164 28.6117 13.3219 28.9062 12.5 28.9062C11.2078 28.9062 10.1562 27.8547 10.1562 26.5625V4.6875C10.1562 3.39531 11.2078 2.34375 12.5 2.34375H45.3125C46.6047 2.34375 47.6562 3.39531 47.6562 4.6875V26.5625Z" fill="black"/>
<path d="M41.4062 3.90625H39.8438V13.2812H36.7188V3.90625H35.1562V13.2812H32.0312V3.90625H30.4688V13.2812H27.3438V3.90625H25.7812V13.2812H22.6562V3.90625H21.0938V13.2812H17.9688V3.90625H16.4062V13.2812H11.7188V14.8438H46.0938V13.2812H41.4062V3.90625Z" fill="black"/>
<path d="M41.4062 46.0938H42.9688V47.6562H41.4062V46.0938Z" fill="black"/>
<path d="M38.4336 40.6246H41.4062V44.5309H42.9688V39.0621H41.2539L43.75 35.0676L46.2461 39.0621H44.5312V49.2184H46.0937V40.6246H49.0664L43.75 32.1191L38.4336 40.6246Z" fill="black"/>
<path d="M33.5938 33.5938H35.1562V35.1562H33.5938V33.5938Z" fill="black"/>
<path d="M35.1562 36.7188H33.5938V42.1875H35.3086L32.8125 46.182L30.3164 42.1875H32.0312V32.0312H30.4688V40.625H27.4961L32.8125 49.1305L38.1289 40.625H35.1562V36.7188Z" fill="black"/>
<path d="M17.9688 49.2188H0.78125V39.8438H17.9688V49.2188Z" fill="#F5B754"/>
</g>
<defs>
<clipPath id="clip0_511_6771">
<rect width="50" height="50" fill="white"/>
</clipPath>
</defs>
</svg>
