<svg width="24" height="24" viewBox="0 0 24 24" fill="none" xmlns="http://www.w3.org/2000/svg">
<path d="M8.57199 10.2866C10.7022 10.2866 12.4291 8.55965 12.4291 6.42941C12.4291 4.29917 10.7022 2.57227 8.57199 2.57227C6.44175 2.57227 4.71484 4.29917 4.71484 6.42941C4.71484 8.55965 6.44175 10.2866 8.57199 10.2866Z" stroke="white" stroke-width="1.5" stroke-linecap="round" stroke-linejoin="round"/>
<path d="M16.286 23.1434H0.857422V21.4291C0.857422 19.3832 1.67017 17.421 3.11688 15.9743C4.56359 14.5276 6.52575 13.7148 8.57171 13.7148C10.6177 13.7148 12.5798 14.5276 14.0265 15.9743C15.4732 17.421 16.286 19.3832 16.286 21.4291V23.1434Z" stroke="white" stroke-width="1.5" stroke-linecap="round" stroke-linejoin="round"/>
<path d="M15.4287 2.57227C16.4517 2.57227 17.4328 2.97864 18.1561 3.702C18.8795 4.42535 19.2859 5.40643 19.2859 6.42941C19.2859 7.45239 18.8795 8.43347 18.1561 9.15682C17.4328 9.88017 16.4517 10.2866 15.4287 10.2866" stroke="#F5B754" stroke-width="1.5" stroke-linecap="round" stroke-linejoin="round"/>
<path d="M18.1719 14.041C19.6322 14.5965 20.8894 15.5824 21.7771 16.868C22.6648 18.1537 23.1412 19.6786 23.1433 21.241V23.1439H20.5719" stroke="#F5B754" stroke-width="1.5" stroke-linecap="round" stroke-linejoin="round"/>
</svg>
