<svg width="60" height="60" viewBox="0 0 60 60" fill="none" xmlns="http://www.w3.org/2000/svg">
<g clip-path="url(#clip0_511_6465)">
<path d="M30 59.0625C13.9744 59.0625 0.9375 46.0256 0.9375 30C0.9375 13.9744 13.9744 0.9375 30 0.9375C46.0256 0.9375 59.0625 13.9744 59.0625 30C59.0625 46.0256 46.0256 59.0625 30 59.0625ZM30 5.625C16.56 5.625 5.625 16.56 5.625 30C5.625 43.44 16.56 54.375 30 54.375C43.44 54.375 54.375 43.44 54.375 30C54.375 16.56 43.44 5.625 30 5.625Z" fill="#F5B754"/>
<path d="M25.3125 30C25.3125 32.5847 27.4153 34.6875 30 34.6875C32.5847 34.6875 34.6875 32.5847 34.6875 30C34.6875 27.4153 32.5847 25.3125 30 25.3125C29.7656 25.3125 29.5397 25.3481 29.3147 25.3819L20.9878 17.8125H17.8125V20.9878L25.3819 29.3147C25.3481 29.5397 25.3125 29.7656 25.3125 30ZM32.8125 30C32.8125 31.5506 31.5506 32.8125 30 32.8125C28.4494 32.8125 27.1875 31.5506 27.1875 30C27.1875 28.4494 28.4494 27.1875 30 27.1875C31.5506 27.1875 32.8125 28.4494 32.8125 30ZM19.6875 20.2622V19.6875H20.2622L27.3553 26.1356C26.8772 26.4637 26.4637 26.8772 26.1356 27.3553L19.6875 20.2622Z" fill="black"/>
<path d="M30 4.6875C16.0425 4.6875 4.6875 16.0425 4.6875 30C4.6875 43.9575 16.0425 55.3125 30 55.3125C43.9575 55.3125 55.3125 43.9575 55.3125 30C55.3125 16.0425 43.9575 4.6875 30 4.6875ZM30 53.4375C17.3906 53.4375 7.08094 43.4278 6.58594 30.9375H10.3125V29.0625H6.58594C6.68531 26.5566 7.17563 24.1491 8.00437 21.9037L11.4516 23.3325L12.1697 21.6L8.72906 20.1741C9.76406 17.9428 11.1375 15.8991 12.7875 14.1131L15.4153 16.7409L16.7409 15.4153L14.1131 12.7875C15.8991 11.1375 17.9419 9.76406 20.1741 8.72906L21.6 12.1697L23.3325 11.4516L21.9037 8.00437C24.1491 7.17563 26.5566 6.68531 29.0625 6.58594V10.3125H30.9375V6.58594C33.4434 6.68531 35.8509 7.17563 38.0963 8.00437L36.6675 11.4516L38.4 12.1697L39.8259 8.72906C42.0572 9.76406 44.1009 11.1375 45.8869 12.7875L43.2591 15.4153L44.5847 16.7409L47.2125 14.1131C48.8625 15.8991 50.2359 17.9419 51.2709 20.1741L47.8303 21.6L48.5484 23.3325L51.9956 21.9037C52.8244 24.1491 53.3156 26.5566 53.4141 29.0625H49.6875V30.9375H53.4141C52.9191 43.4278 42.6094 53.4375 30 53.4375Z" fill="black"/>
<path d="M31.2216 42.1875H30V40.3125H31.875V38.4375H22.5V40.3125H24.375V42.36C24.0666 42.4697 23.7863 42.6319 23.5369 42.8363L19.4128 38.7122L18.0872 40.0378L22.5506 44.5012C22.5216 44.6634 22.5 44.8294 22.5 45V46.875C22.5 49.4597 24.6028 51.5625 27.1875 51.5625H34.125C35.9766 51.5625 37.6575 50.4703 38.4084 48.7791L41.25 42.3863V39.6338L33.7875 43.8984L31.2216 42.1875ZM28.125 40.3125V42.1875H26.25V40.3125H28.125ZM36.6956 48.0178C36.2447 49.0322 35.2359 49.6875 34.125 49.6875H27.1875C25.6369 49.6875 24.375 48.4256 24.375 46.875V45C24.375 44.4825 24.795 44.0625 25.3125 44.0625H30.6534L33.7125 46.1016L38.8519 43.1644L36.6956 48.0178Z" fill="black"/>
<path d="M46.875 40.3125C45.3244 40.3125 44.0625 39.0506 44.0625 37.5C44.0625 35.9494 45.3244 34.6875 46.875 34.6875C48.4256 34.6875 49.6875 35.9494 49.6875 37.5C49.6875 39.0506 48.4256 40.3125 46.875 40.3125Z" fill="#F5B754"/>
<path d="M13.125 40.3125C11.5744 40.3125 10.3125 39.0506 10.3125 37.5C10.3125 35.9494 11.5744 34.6875 13.125 34.6875C14.6756 34.6875 15.9375 35.9494 15.9375 37.5C15.9375 39.0506 14.6756 40.3125 13.125 40.3125Z" fill="#F5B754"/>
</g>
<defs>
<clipPath id="clip0_511_6465">
<rect width="60" height="60" fill="white"/>
</clipPath>
</defs>
</svg>
