<svg width="40" height="40" viewBox="0 0 40 40" fill="none" xmlns="http://www.w3.org/2000/svg">
<g clip-path="url(#clip0_637_417)">
<path d="M33.75 16.25H6.25L5.625 18.75C7.22563 20.3506 9.39687 21.25 11.6606 21.25H28.3394C30.6031 21.25 32.7744 20.3506 34.375 18.75L33.75 16.25Z" fill="#F5B754"/>
<path d="M34.375 33.125H30.625C29.9344 33.125 29.375 32.5656 29.375 31.875C29.375 31.1844 29.9344 30.625 30.625 30.625H34.375C35.0656 30.625 35.625 31.1844 35.625 31.875C35.625 32.5656 35.0656 33.125 34.375 33.125Z" fill="#F5B754"/>
<path d="M9.375 33.125H5.625C4.93437 33.125 4.375 32.5656 4.375 31.875C4.375 31.1844 4.93437 30.625 5.625 30.625H9.375C10.0656 30.625 10.625 31.1844 10.625 31.875C10.625 32.5656 10.0656 33.125 9.375 33.125Z" fill="#F5B754"/>
<path d="M8.35876 3.75H31.6413C31.1194 2.27375 29.7194 1.25 28.1106 1.25H11.8894C10.2806 1.25 8.88064 2.27375 8.35876 3.75Z" fill="#F5B754"/>
<path d="M8.77524 11.7695L9.88877 5.54388L11.1188 5.76388L10.0052 11.9895L8.77524 11.7695Z" fill="white"/>
<path d="M8.32486 14.2812L8.55408 12.9997L9.78455 13.2198L9.55533 14.5013L8.32486 14.2812Z" fill="white"/>
<path d="M15 30.625H16.25V31.875H15V30.625Z" fill="white"/>
<path d="M17.5 30.625H25V31.875H17.5V30.625Z" fill="white"/>
<path d="M34.96 18.4694L34.8981 18.125H36.25C37.9731 18.125 39.375 16.7231 39.375 15C39.375 13.9663 38.5337 13.125 37.5 13.125H35.5175C35.0169 13.125 34.5456 13.32 34.1919 13.6744L34.1169 13.7494L32.4169 4.23125C32.0444 2.14125 30.2331 0.625 28.1106 0.625H11.8894C9.76688 0.625 7.95563 2.14125 7.5825 4.23125L5.8825 13.7494L5.8075 13.6744C5.45437 13.32 4.98312 13.125 4.4825 13.125H2.5C1.46625 13.125 0.625 13.9663 0.625 15C0.625 16.7231 2.02688 18.125 3.75 18.125H5.10188L5.04062 18.4694L2.01688 21.9244C1.11937 22.95 0.625 24.2656 0.625 25.6287V30C0.625 32.89 2.81687 35.2763 5.625 35.5881V37.5C5.625 38.5337 6.46625 39.375 7.5 39.375H11.25C12.2837 39.375 13.125 38.5337 13.125 37.5V35.3325L14.5456 34.375H15.625H24.375H25.4356L26.875 35.3344V37.5C26.875 38.5337 27.7162 39.375 28.75 39.375H32.5C33.5337 39.375 34.375 38.5337 34.375 37.5V35.5881C37.1831 35.2756 39.375 32.89 39.375 30V25.6287C39.375 24.2656 38.8806 22.95 37.9831 21.9244L34.96 18.4694ZM33.125 23.75C33.125 22.7162 33.9663 21.875 35 21.875C36.0337 21.875 36.875 22.7162 36.875 23.75C36.875 24.7838 36.0337 25.625 35 25.625C34.5081 25.625 34.0444 25.4237 33.695 25.0831C33.6094 24.5963 33.4094 24.1525 33.1256 23.7706C33.1256 23.7638 33.125 23.7569 33.125 23.75ZM32.5 25.625C32.5 26.6588 31.6588 27.5 30.625 27.5C29.7025 27.5 28.9356 26.8356 28.7831 25.94C28.97 25.4425 29.1181 24.9306 29.2156 24.4038C29.5725 23.9919 30.075 23.75 30.625 23.75C31.6588 23.75 32.5 24.5912 32.5 25.625ZM27.5694 25.625H12.4306C12.2706 25.2206 12.1444 24.8031 12.0531 24.375H27.9469C27.8556 24.8031 27.7294 25.2206 27.5694 25.625ZM11.2162 25.9387C11.0656 26.835 10.2987 27.5 9.375 27.5C8.34125 27.5 7.5 26.6588 7.5 25.625C7.5 24.5912 8.34125 23.75 9.375 23.75C9.925 23.75 10.4275 23.9919 10.7844 24.4038C10.8819 24.93 11.0294 25.4419 11.2162 25.9387ZM6.87437 23.7706C6.59062 24.1519 6.39125 24.5956 6.305 25.0825C5.95563 25.4237 5.49188 25.625 5 25.625C3.96625 25.625 3.125 24.7838 3.125 23.75C3.125 22.7162 3.96625 21.875 5 21.875C6.03375 21.875 6.875 22.7162 6.875 23.75C6.875 23.7569 6.87437 23.7638 6.87437 23.7706ZM5 26.875C5.49312 26.875 5.97125 26.755 6.40188 26.5381C6.6 27.18 6.99188 27.7325 7.51937 28.125H6.215C4.54688 28.125 3.0475 27.1988 2.30188 25.7063L1.92937 24.9619C1.94875 24.8363 1.97375 24.7125 2.00375 24.5894C2.37375 25.9037 3.57 26.875 5 26.875ZM11.93 27.4131C12.0762 27.6569 12.2344 27.8944 12.4044 28.125H11.2344C11.5025 27.9256 11.7375 27.6881 11.93 27.4131ZM14.0256 28.125C13.6606 27.7369 13.3394 27.3188 13.0638 26.875H26.9362C26.6606 27.3188 26.3394 27.7369 25.9744 28.125H24.375H15.625H14.0256ZM28.07 27.4125C28.2625 27.6875 28.4975 27.9256 28.7656 28.125H27.595C27.7656 27.8937 27.9237 27.6569 28.07 27.4125ZM33.5981 26.5381C34.0288 26.755 34.5069 26.875 35 26.875C36.43 26.875 37.6263 25.9038 37.9956 24.59C38.0256 24.7131 38.0506 24.8369 38.07 24.9625L37.6975 25.7075C36.9525 27.1987 35.4531 28.125 33.785 28.125H32.4806C33.0075 27.7325 33.4 27.18 33.5981 26.5381ZM35.0756 14.5581C35.1925 14.4419 35.3531 14.375 35.5175 14.375H37.5C37.845 14.375 38.125 14.6556 38.125 15C38.125 16.0337 37.2837 16.875 36.25 16.875H34.675L34.3844 15.2494L35.0756 14.5581ZM8.81375 4.45062C9.07938 2.95812 10.3738 1.875 11.8894 1.875H28.11C29.6263 1.875 30.92 2.95812 31.1862 4.45062L33.1819 15.625H31.8381C31.5881 13.3756 30.0081 11.5225 27.9037 10.8738C28.4244 10.3156 28.75 9.57187 28.75 8.75C28.75 7.02688 27.3481 5.625 25.625 5.625C23.9019 5.625 22.5 7.02688 22.5 8.75C22.5 9.57187 22.8256 10.3156 23.3463 10.8738C21.2412 11.5225 19.6619 13.3756 19.4119 15.625H6.81813L8.81375 4.45062ZM28.6869 15.625C28.3962 14.2006 27.1344 13.125 25.625 13.125C24.1156 13.125 22.8538 14.2006 22.5631 15.625H20.675C20.98 13.5081 22.8006 11.875 25 11.875H26.25C28.4494 11.875 30.27 13.5081 30.575 15.625H28.6869ZM27.385 15.625H23.8656C24.1244 14.8994 24.8119 14.375 25.6256 14.375C26.4394 14.375 27.1263 14.8994 27.385 15.625ZM25.625 10.625C24.5912 10.625 23.75 9.78375 23.75 8.75C23.75 7.71625 24.5912 6.875 25.625 6.875C26.6588 6.875 27.5 7.71625 27.5 8.75C27.5 9.78375 26.6588 10.625 25.625 10.625ZM3.75 16.875C2.71625 16.875 1.875 16.0337 1.875 15C1.875 14.6556 2.155 14.375 2.5 14.375H4.4825C4.64687 14.375 4.80813 14.4419 4.92438 14.5581L5.61562 15.2494L5.325 16.875H3.75ZM6.21 19.0306L6.595 16.875H33.4056L33.7906 19.0306L35.2031 20.6456C35.1344 20.6413 35.0694 20.625 35 20.625C33.5931 20.625 32.415 21.5656 32.0244 22.8463C31.6012 22.6319 31.1306 22.5 30.625 22.5C30.1844 22.5 29.7612 22.5944 29.3725 22.7644C29.3725 22.7475 29.375 22.7312 29.375 22.7144V21.25H28.125V22.7144C28.125 22.8525 28.1119 22.9881 28.105 23.125H11.895C11.8881 22.9881 11.875 22.8525 11.875 22.7144V21.25H10.625V22.7144C10.625 22.7312 10.6275 22.7475 10.6275 22.7644C10.2387 22.5944 9.81563 22.5 9.375 22.5C8.86938 22.5 8.39875 22.6319 7.97563 22.8463C7.585 21.5656 6.40688 20.625 5 20.625C4.93062 20.625 4.86562 20.6413 4.79688 20.6456L6.21 19.0306ZM11.25 38.125H7.5C7.155 38.125 6.875 37.8444 6.875 37.5V35.625H11.875V37.5C11.875 37.8444 11.595 38.125 11.25 38.125ZM12.3088 34.375H6.25C3.83812 34.375 1.875 32.4125 1.875 30V27.3119C2.92812 28.6013 4.4975 29.375 6.215 29.375H13.1406C12.7444 29.8988 12.5 30.5438 12.5 31.25C12.5 32.1644 12.9019 32.98 13.53 33.5525L12.3088 34.375ZM15.625 33.125C14.5913 33.125 13.75 32.2838 13.75 31.25C13.75 30.2162 14.5913 29.375 15.625 29.375H24.375C25.4088 29.375 26.25 30.2162 26.25 31.25C26.25 32.2838 25.4088 33.125 24.375 33.125H15.625ZM32.5 38.125H28.75C28.405 38.125 28.125 37.8444 28.125 37.5V35.625H33.125V37.5C33.125 37.8444 32.845 38.125 32.5 38.125ZM33.75 34.375H27.6894L26.4637 33.5581C27.095 32.9856 27.5 32.1675 27.5 31.25C27.5 30.5438 27.2556 29.8988 26.8587 29.375H33.7844C35.5025 29.375 37.0719 28.6013 38.1244 27.3119V30C38.125 32.4125 36.1619 34.375 33.75 34.375Z" fill="white"/>
</g>
<defs>
<clipPath id="clip0_637_417">
<rect width="40" height="40" fill="white"/>
</clipPath>
</defs>
</svg>
