<svg width="50" height="50" viewBox="0 0 50 50" fill="none" xmlns="http://www.w3.org/2000/svg">
<g clip-path="url(#clip0_296_788)">
<path d="M19.5312 33.5938C17.3742 33.5938 15.625 35.343 15.625 37.5V39.0625H18.7984C21.9086 39.0625 24.5461 36.7758 24.9859 33.6961L25 33.5938H19.5312Z" fill="#F5B754"/>
<path d="M40.0055 17.9688C35.2438 17.9688 30.732 19.7289 27.2391 22.8875C27.3039 23.0594 27.3438 23.243 27.3438 23.4375C27.3438 25.1633 25.9445 26.5625 24.2188 26.5625H23.0313L22.1367 27.3438H46.0938V17.9688H40.0055Z" fill="#F5B754"/>
<path d="M49.2188 14.8438H40.625C39.907 14.8438 39.1938 14.8781 38.4859 14.9406C39.868 12.8758 40.625 10.45 40.625 7.93047V3.51562C40.625 2.00859 39.3984 0.78125 37.8906 0.78125C37.1609 0.78125 36.4742 1.06562 35.957 1.58125C35.4406 2.09844 35.1562 2.78437 35.1562 3.51484V7.47656C35.1562 9.22422 34.0164 10.7102 32.4062 11.2055C33.1477 10.2719 33.5938 9.09453 33.5938 7.8125C33.5938 4.79688 31.1406 2.34375 28.125 2.34375C25.1094 2.34375 22.6562 4.79688 22.6562 7.8125C22.6562 9.43594 23.3711 10.8914 24.4977 11.8945L20.2547 14.6398C19.4391 12.7789 18.1 11.2211 16.4125 10.1562H17.9688C18.8305 10.1562 19.5312 9.45547 19.5312 8.59375V7.03125C19.5312 6.16953 18.8305 5.46875 17.9688 5.46875H2.34375C1.48203 5.46875 0.78125 6.16953 0.78125 7.03125V44.5312H10.1562V46.875C10.1562 48.1672 11.2078 49.2188 12.5 49.2188H17.1875C18.4797 49.2188 19.5312 48.1672 19.5312 46.875V44.4852C22.2422 44.1836 24.4867 42.3344 25.3711 39.8438H49.2188V14.8438ZM26.5625 13.2797L28.0531 13.2781C28.0773 13.2781 28.1008 13.2812 28.125 13.2812C28.1508 13.2812 28.175 13.2781 28.2 13.2773H28.2031H28.2055C28.5203 13.2727 28.8273 13.2406 29.1273 13.1852L29.6875 13.1289V13.2812C29.6875 14.143 28.9867 14.8438 28.125 14.8438C27.2633 14.8438 26.5625 14.143 26.5625 13.2812V13.2797ZM24.2188 7.8125C24.2188 5.65859 25.9711 3.90625 28.125 3.90625C30.2789 3.90625 32.0312 5.65859 32.0312 7.8125C32.0312 9.96641 30.2789 11.7188 28.125 11.7188C25.9711 11.7188 24.2188 9.96641 24.2188 7.8125ZM25.0141 13.4211C25.0891 15.0781 26.45 16.4062 28.125 16.4062C29.8484 16.4062 31.25 15.0047 31.25 13.2812V12.9727L31.7945 12.918C34.6016 12.6375 36.7188 10.2977 36.7188 7.47656V3.51484C36.7188 3.20234 36.8406 2.90781 37.0617 2.68672C37.2828 2.46562 37.5773 2.34375 37.8906 2.34375C38.5367 2.34375 39.0625 2.86953 39.0625 3.51562V7.93047C39.0625 10.6313 38.0773 13.2117 36.2961 15.2344C32.4711 15.9258 28.8711 17.5273 25.7812 19.9273V17.1875H23.982L21.1945 19.0461L21.0844 17.8312C21.032 17.2563 20.918 16.7039 20.7773 16.1633L25.0141 13.4211ZM4.01172 38.2812L7.03125 34.6578V32.0312H2.34375V30.4688H12.5V34.643C12.5 35.2695 12.2562 35.8586 11.8141 36.3008L9.83281 38.2812H4.01172ZM2.34375 37.8422V33.5938H5.46875V34.0922L2.34375 37.8422ZM5.53984 28.9062C5.49688 28.6484 5.46875 28.3883 5.46875 28.125C5.46875 25.5398 7.57109 23.4375 10.1562 23.4375C12.7414 23.4375 14.8438 25.5398 14.8438 28.125C14.8438 28.3883 14.8141 28.6484 14.7711 28.9062H5.53984ZM12.5 22.1945C12.5 21.7711 12.7117 21.3813 13.068 21.1516L16.4867 18.9391L16.7984 21.9766L14.9203 23.2289C14.7266 23.3578 14.5016 23.4242 14.2703 23.432C13.7563 22.9805 13.1703 22.6102 12.5281 22.3461C12.5219 22.2945 12.5 22.2469 12.5 22.1945ZM15.4031 24.7414C15.5352 24.6805 15.6641 24.6102 15.7867 24.5289L16.9781 23.7344L17.4664 28.4945C17.1125 28.6406 16.743 28.7453 16.3625 28.8141C16.3891 28.5859 16.4062 28.3563 16.4062 28.125C16.4062 26.8781 16.0352 25.718 15.4031 24.7414ZM12.2188 19.8398C11.4906 20.3109 11.0336 21.0797 10.9539 21.932C10.6922 21.8984 10.4273 21.875 10.1562 21.875C6.71016 21.875 3.90625 24.6789 3.90625 28.125C3.90625 28.3875 3.93047 28.6477 3.9625 28.9062H2.34375V13.2812H10.9703C13.4656 13.2812 15.5719 14.9242 16.2289 17.2453L12.2188 19.8398ZM12.9187 37.4055C13.6562 36.668 14.0625 35.6867 14.0625 34.643V30.4688H15.3797C17.2578 30.4688 19.0234 29.7375 20.3516 28.4094L20.8797 27.8813L24.0984 34.3188L23.0805 35.8461C22.0641 37.3711 20.3625 38.2812 18.5305 38.2812H12.043L12.9187 37.4055ZM24.2188 21.0938H21.3813L21.3563 20.8164L24.2188 18.9078V21.0938ZM21.807 25.7812L21.5227 22.6562H25.7812C26.2117 22.6562 26.5625 23.007 26.5625 23.4375C26.5625 24.7297 25.5109 25.7812 24.2188 25.7812H21.807ZM2.34375 7.03125H17.9688V8.59375H2.34375V7.03125ZM10.9703 10.1562C15.4445 10.1562 19.1234 13.5164 19.5289 17.9719L20.2828 26.2695L19.2477 27.3055C19.1508 27.4023 19.0477 27.4914 18.9445 27.5805L17.9734 18.1141C17.6406 14.468 14.6305 11.7188 10.9703 11.7188H2.34375V10.1562H10.9703ZM2.34375 42.9688V39.8438H6.25C6.68047 39.8438 7.03125 40.1937 7.03125 40.625V42.1875C7.03125 42.6188 6.68047 42.9688 6.25 42.9688H2.34375ZM17.1875 47.6562H12.5C12.0695 47.6562 11.7188 47.3063 11.7188 46.875V44.5312H17.9688V46.875C17.9688 47.3063 17.618 47.6562 17.1875 47.6562ZM18.75 42.9688H8.45C8.5375 42.7234 8.59375 42.4625 8.59375 42.1875V40.625C8.59375 40.35 8.5375 40.0891 8.45 39.8438H18.5305C20.7969 39.8438 22.8977 38.7531 24.2188 36.9258V37.5C24.2188 40.5148 21.7656 42.9688 18.75 42.9688ZM47.6562 38.2812H25.7352C25.7641 38.0242 25.7812 37.7641 25.7812 37.5V34.1906L22.3578 27.3438H24.2188C26.3727 27.3438 28.125 25.5914 28.125 23.4375C28.125 22.4422 27.4992 21.5961 26.6227 21.2563C30.6039 18.1195 35.5094 16.4062 40.625 16.4062H47.6562V38.2812Z" fill="white"/>
<path d="M41.4062 30.4688H46.0938V32.0312H41.4062V30.4688Z" fill="white"/>
<path d="M27.3438 35.1562H28.9062V36.7188H27.3438V35.1562Z" fill="white"/>
<path d="M30.4688 35.1562H32.0312V36.7188H30.4688V35.1562Z" fill="white"/>
<path d="M33.5938 35.1562H35.1562V36.7188H33.5938V35.1562Z" fill="white"/>
<path d="M3.90625 14.8438H5.46875V16.4062H3.90625V14.8438Z" fill="white"/>
<path d="M7.03125 14.8438H8.59375V16.4062H7.03125V14.8438Z" fill="white"/>
<path d="M10.1562 14.8438H11.7188V16.4062H10.1562V14.8438Z" fill="white"/>
</g>
<defs>
<clipPath id="clip0_296_788">
<rect width="50" height="50" fill="white"/>
</clipPath>
</defs>
</svg>
