<svg width="30" height="30" viewBox="0 0 30 30" fill="none" xmlns="http://www.w3.org/2000/svg">
<path d="M21.2425 7.93348C21.2425 8.0948 21.2368 8.25612 21.2252 8.41744C21.2195 8.49809 21.2108 8.57587 21.2022 8.65653C21.1964 8.7055 21.2137 8.8092 21.2022 8.65941C21.2051 8.70838 21.1878 8.76888 21.1792 8.81497C21.1273 9.13472 21.0495 9.45159 20.9487 9.75982C20.8997 9.90674 20.845 10.0508 20.7903 10.1919C20.7413 10.3158 20.845 10.0738 20.7874 10.1948C20.773 10.2294 20.7557 10.2639 20.7413 10.2985C20.7039 10.3792 20.6664 10.4598 20.6232 10.5376C20.4849 10.8084 20.3265 11.0676 20.1508 11.3154C20.1133 11.3701 20.0701 11.4565 20.0154 11.4969C20.1162 11.4191 20.0471 11.4565 20.0125 11.4997C19.9895 11.5285 19.9664 11.5574 19.9405 11.5862C19.8368 11.7129 19.7273 11.8339 19.6121 11.9491C19.5084 12.0586 19.399 12.1623 19.2866 12.2631C19.229 12.3121 19.1743 12.3639 19.1167 12.41C19.0879 12.4331 19.0591 12.459 19.0302 12.482C19.0101 12.4964 18.9899 12.5137 18.9698 12.5281C19.036 12.4763 19.0447 12.4705 18.9957 12.508C18.7508 12.6895 18.5002 12.8565 18.2352 13.0006C18.1027 13.0755 17.9673 13.1417 17.829 13.208C17.7945 13.2253 17.7599 13.2397 17.7253 13.2541C17.6015 13.3088 17.8463 13.2051 17.7225 13.2569C17.6389 13.2915 17.5554 13.3232 17.4719 13.3549C17.1665 13.4644 16.8554 13.5508 16.5385 13.6141C16.4608 13.6285 16.383 13.643 16.3052 13.6545C16.2707 13.6602 16.2246 13.6746 16.1871 13.6718C16.3023 13.6804 16.2678 13.6602 16.2217 13.666C16.0489 13.6833 15.876 13.7006 15.7032 13.7063C15.3662 13.7178 15.0349 13.7006 14.7007 13.666C14.5625 13.6516 14.8332 13.6862 14.6979 13.666C14.6575 13.6602 14.6201 13.6545 14.5798 13.6487C14.502 13.6372 14.4242 13.6228 14.3493 13.6055C14.1851 13.5709 14.0209 13.5306 13.8567 13.4845C13.7098 13.4413 13.5629 13.3952 13.416 13.3405C13.3555 13.3174 13.295 13.2944 13.2374 13.2713C13.2259 13.2656 13.2144 13.2627 13.2028 13.2569C13.1452 13.2339 13.1568 13.2368 13.2345 13.2713C13.1971 13.2713 13.1279 13.2253 13.0963 13.208C12.8082 13.0755 12.5317 12.9228 12.2667 12.7471C12.2033 12.7067 12.1399 12.6635 12.0794 12.6203C12.0247 12.5829 11.9383 12.5397 11.8979 12.4849C11.9757 12.5857 11.9383 12.5166 11.8951 12.482C11.8663 12.459 11.8374 12.436 11.8086 12.41C11.7424 12.3524 11.6733 12.2948 11.6099 12.2372C11.3852 12.0355 11.1778 11.8166 10.9848 11.5862C10.9617 11.5574 10.9358 11.5285 10.9128 11.4997C10.8782 11.4565 10.8062 11.4191 10.9099 11.4969C10.858 11.4565 10.8148 11.3672 10.7745 11.3154C10.6795 11.1829 10.5902 11.0446 10.5066 10.9034C10.4288 10.7738 10.3539 10.6413 10.2877 10.503C10.2531 10.4339 10.2214 10.3676 10.1869 10.2985C10.1696 10.2639 10.1552 10.2294 10.1408 10.1948C10.1149 10.1372 10.1206 10.1487 10.1523 10.2265C10.1437 10.2034 10.1321 10.1804 10.1235 10.1545C10.0083 9.86929 9.91322 9.57258 9.8412 9.27299C9.80376 9.12032 9.77207 8.96764 9.74903 8.81208C9.74327 8.77176 9.7375 8.73431 9.73174 8.69398C9.71158 8.55571 9.74615 8.82937 9.73174 8.6911C9.7231 8.59892 9.71158 8.50674 9.70582 8.41455C9.67989 8.0804 9.68277 7.74336 9.7087 7.4092C9.71446 7.32855 9.7231 7.25077 9.73174 7.17011C9.74615 7.03184 9.71158 7.30262 9.73174 7.16723C9.7375 7.1269 9.74327 7.08945 9.74903 7.04912C9.77783 6.88204 9.80952 6.71496 9.85273 6.55077C9.92762 6.25118 10.0256 5.95735 10.1408 5.67217C10.1898 5.5483 10.0861 5.79027 10.1437 5.66929C10.1581 5.63472 10.1754 5.60015 10.1898 5.56558C10.2214 5.49645 10.256 5.42731 10.2906 5.36105C10.3655 5.21414 10.4461 5.07011 10.5297 4.92896C10.6074 4.79933 10.691 4.67258 10.7803 4.54871C10.8177 4.49398 10.8609 4.40756 10.9157 4.36723C10.8148 4.445 10.884 4.40756 10.9185 4.36435C10.9502 4.32402 10.9819 4.28657 11.0136 4.24912C11.2066 4.01867 11.4198 3.80262 11.6444 3.60097C11.7021 3.552 11.7568 3.50015 11.8144 3.45406C11.8432 3.43101 11.872 3.40509 11.9008 3.38204C11.944 3.34747 11.9815 3.27546 11.9037 3.37916C11.944 3.32731 12.0333 3.2841 12.0852 3.24377C12.1572 3.19192 12.2292 3.14295 12.3041 3.09398C12.5691 2.92114 12.8485 2.76846 13.1366 2.63883C13.1596 2.62731 13.2144 2.59274 13.2403 2.59274C13.2172 2.60138 13.1942 2.61291 13.174 2.62155C13.1971 2.61291 13.2201 2.60138 13.246 2.59274C13.3065 2.5697 13.3642 2.54665 13.4246 2.5236C13.5802 2.46599 13.7415 2.41414 13.9028 2.36805C14.0526 2.32484 14.2053 2.29027 14.358 2.25858C14.4357 2.24418 14.5135 2.22978 14.5884 2.21537C14.6287 2.20961 14.6662 2.20385 14.7065 2.19809C14.7699 2.18945 14.7584 2.18945 14.6719 2.20385L14.7497 2.19521C15.0839 2.15776 15.418 2.14624 15.755 2.16064C15.9077 2.1664 16.0604 2.18081 16.213 2.19809C16.2649 2.20385 16.3311 2.18657 16.1986 2.19521C16.2332 2.19233 16.2793 2.20673 16.3167 2.21249C16.406 2.2269 16.4982 2.24418 16.5875 2.26146C16.9044 2.32484 17.2155 2.41414 17.5179 2.52649C17.59 2.55241 17.662 2.58122 17.7311 2.61002C17.855 2.659 17.613 2.55529 17.734 2.6129C17.7686 2.62731 17.8031 2.64459 17.8377 2.659C17.9875 2.72813 18.1344 2.80303 18.2784 2.88369C18.4109 2.95858 18.5406 3.03636 18.6673 3.1199C18.7191 3.15447 18.771 3.18904 18.8228 3.22649C18.8862 3.2697 18.9899 3.32155 19.036 3.38204C18.9582 3.28122 18.9957 3.35035 19.0389 3.38492C19.0677 3.40797 19.0965 3.43101 19.1253 3.45694C19.1829 3.50591 19.2405 3.55488 19.2953 3.60385C19.4162 3.71332 19.5343 3.82566 19.6467 3.94377C19.7504 4.05324 19.8512 4.16558 19.9492 4.28081C19.9722 4.30961 19.9981 4.33842 20.0212 4.36723C20.0557 4.41044 20.1277 4.44789 20.024 4.37011C20.0845 4.4162 20.1364 4.5199 20.1796 4.58328C20.3524 4.83101 20.5109 5.09315 20.6463 5.36394C20.6808 5.43307 20.7125 5.49933 20.7471 5.56846C20.7644 5.60303 20.7788 5.6376 20.7932 5.67217C20.8479 5.79603 20.7442 5.55118 20.796 5.67505C20.8565 5.8306 20.917 5.98616 20.966 6.14459C21.0639 6.45282 21.1417 6.7697 21.1907 7.09233C21.1964 7.1269 21.2108 7.17299 21.208 7.21044C21.2195 7.06352 21.2022 7.16723 21.208 7.21332C21.2166 7.29398 21.2252 7.37176 21.231 7.45241C21.2339 7.61085 21.2397 7.77217 21.2425 7.93348C21.2425 8.23595 21.5075 8.52402 21.8186 8.50962C22.1298 8.49521 22.3948 8.25612 22.3948 7.93348C22.389 6.52196 21.9598 5.10468 21.136 3.95241C20.3035 2.78863 19.157 1.90714 17.8146 1.41167C16.4694 0.916196 14.9485 0.870106 13.5716 1.26188C12.2436 1.63924 11.0222 2.42566 10.1437 3.49151C9.219 4.61784 8.66593 5.97752 8.55071 7.42937C8.43836 8.84665 8.79267 10.3043 9.5301 11.5199C10.2416 12.6923 11.3132 13.666 12.5691 14.2306C13.9172 14.8384 15.4065 15.0113 16.8612 14.7232C18.2208 14.4524 19.4969 13.7409 20.4561 12.7413C21.4182 11.7388 22.0865 10.4397 22.2997 9.0627C22.3573 8.68822 22.3948 8.31085 22.3948 7.93348C22.3948 7.63101 22.1298 7.34295 21.8186 7.35735C21.5047 7.37175 21.2425 7.61085 21.2425 7.93348Z" fill="black"/>
<path d="M24.953 27.2368C24.7053 27.2368 24.4605 27.2368 24.2127 27.2368C23.5588 27.2368 22.9021 27.2368 22.2482 27.2368C21.312 27.2368 20.3758 27.2368 19.4396 27.2368C18.3479 27.2368 17.259 27.2368 16.1673 27.2368C15.0496 27.2368 13.9348 27.2368 12.8172 27.2368C11.8003 27.2368 10.7835 27.2368 9.76952 27.2368C8.98024 27.2368 8.19384 27.2368 7.40456 27.2368C6.97248 27.2368 6.54039 27.2368 6.10542 27.2368C6.06797 27.2368 6.03053 27.2368 5.99308 27.2368C5.98732 27.2368 5.97868 27.2368 5.97292 27.2368C5.94699 27.2368 5.91818 27.2368 5.89226 27.2339C5.89802 27.2339 5.81448 27.231 5.81448 27.2281C5.8116 27.2224 5.96427 27.2569 5.85193 27.231C5.80296 27.2195 5.75111 27.208 5.70214 27.1936C5.68486 27.1878 5.66469 27.1763 5.64741 27.1763C5.5754 27.1648 5.74247 27.231 5.6791 27.1907C5.64165 27.1676 5.60132 27.1503 5.56387 27.1302C5.52643 27.1071 5.49186 27.0812 5.45441 27.0582C5.39968 27.0265 5.5005 27.087 5.49762 27.0927C5.49474 27.0956 5.43425 27.038 5.42849 27.0322C5.3968 27.0034 5.36799 26.9689 5.33919 26.9372C5.27005 26.868 5.39392 27.0294 5.32767 26.9199C5.30462 26.8824 5.28158 26.8479 5.25853 26.8076C5.24701 26.7845 5.23549 26.7615 5.22396 26.7413C5.18076 26.6578 5.23837 26.7759 5.23837 26.7759C5.21244 26.7787 5.18076 26.5425 5.16635 26.5166C5.20668 26.5915 5.175 26.6145 5.17211 26.5541C5.17211 26.5281 5.16923 26.5022 5.16635 26.4734C5.16635 26.459 5.16635 26.4446 5.16635 26.4302C5.16635 26.3985 5.16635 26.3697 5.16635 26.338C5.16635 25.4047 5.16635 24.4713 5.16635 23.5351C5.16635 23.4055 5.16635 23.2787 5.16635 23.1491C5.16635 22.8582 5.21244 22.573 5.2182 22.2849C5.2182 22.2849 5.20092 22.4059 5.20956 22.3396C5.21244 22.3137 5.2182 22.2878 5.22108 22.2619C5.22685 22.2158 5.23549 22.1697 5.24413 22.1265C5.26141 22.0285 5.2787 21.9335 5.30174 21.8384C5.34207 21.654 5.39104 21.4726 5.44577 21.294C5.50338 21.1096 5.56963 20.931 5.64165 20.7524C5.6791 20.6573 5.59268 20.8647 5.65029 20.7322C5.66757 20.6919 5.68774 20.6516 5.70502 20.6113C5.74535 20.5248 5.78856 20.4384 5.83177 20.3549C6.0046 20.0236 6.20624 19.7125 6.42805 19.41C6.48854 19.3294 6.35891 19.4936 6.44245 19.3927C6.47126 19.3582 6.49718 19.3236 6.52599 19.289C6.58648 19.217 6.64697 19.145 6.71034 19.0759C6.83709 18.9347 6.9696 18.8022 7.10786 18.6726C7.24037 18.5487 7.38152 18.4306 7.52267 18.3154C7.60044 18.252 7.43625 18.3787 7.53995 18.301C7.57452 18.275 7.61196 18.2491 7.64653 18.2232C7.72719 18.1656 7.81072 18.108 7.89714 18.0532C8.20536 17.8516 8.53087 17.6816 8.86502 17.5289C8.95719 17.4857 8.7642 17.5693 8.88518 17.5203C8.92551 17.503 8.96872 17.4857 9.00904 17.4713C9.1041 17.4339 9.20204 17.3993 9.29998 17.3676C9.47858 17.31 9.65717 17.2582 9.84153 17.215C10.0259 17.1717 10.2131 17.1343 10.4004 17.1055C10.4205 17.1026 10.458 17.0911 10.4781 17.094C10.481 17.094 10.3572 17.1084 10.4234 17.1026C10.4695 17.0968 10.5156 17.0911 10.5617 17.0882C10.6683 17.0767 10.7748 17.068 10.8814 17.0623C11.1003 17.0508 11.3221 17.0536 11.5411 17.0536H13.9694H17.2677H19.5059H19.6758C19.961 17.0536 20.2433 17.0997 20.5256 17.1055C20.5256 17.1055 20.4046 17.0882 20.4709 17.0968C20.4968 17.0997 20.5227 17.1055 20.5486 17.1084C20.5947 17.1141 20.6408 17.1228 20.684 17.1314C20.782 17.1487 20.877 17.166 20.9721 17.189C21.1564 17.2294 21.3379 17.2783 21.5165 17.3331C21.7009 17.3907 21.8795 17.4569 22.0581 17.5289C22.1531 17.5664 21.9457 17.48 22.0782 17.5376C22.1186 17.5549 22.1589 17.575 22.1992 17.5923C22.2856 17.6326 22.372 17.6759 22.4556 17.7191C22.7868 17.8919 23.098 18.0936 23.4004 18.3154C23.4811 18.3759 23.3169 18.2462 23.4177 18.3298C23.4523 18.3586 23.4868 18.3845 23.5214 18.4133C23.5934 18.4738 23.6654 18.5343 23.7346 18.5977C23.8757 18.7244 24.0082 18.8569 24.1378 18.9952C24.2617 19.1277 24.3798 19.2689 24.495 19.41C24.5584 19.4878 24.4317 19.3236 24.5094 19.4273C24.5354 19.4619 24.5613 19.4993 24.5872 19.5339C24.6448 19.6145 24.7024 19.6981 24.7572 19.7845C24.9588 20.0927 25.1288 20.4182 25.2814 20.7524C25.3246 20.8446 25.2411 20.6516 25.2901 20.7726C25.3074 20.8129 25.3246 20.8561 25.339 20.8964C25.3765 20.9915 25.4111 21.0894 25.4427 21.1874C25.5004 21.366 25.5522 21.5446 25.5954 21.7289C25.6386 21.9133 25.6761 22.1006 25.7049 22.2878C25.7078 22.308 25.7193 22.3454 25.7164 22.3656C25.7164 22.3685 25.702 22.2446 25.7078 22.3108C25.7135 22.3569 25.7193 22.403 25.7222 22.4491C25.7337 22.5557 25.7423 22.6623 25.7481 22.7689C25.7654 23.1088 25.7567 23.4487 25.7567 23.7886C25.7567 24.6672 25.7654 25.5458 25.7567 26.4244V26.4763C25.7567 26.4964 25.7452 26.652 25.7538 26.5569C25.7625 26.4619 25.7394 26.6088 25.7337 26.6318C25.7308 26.6434 25.6962 26.7787 25.6876 26.7759C25.679 26.7759 25.7452 26.6693 25.7078 26.724C25.6991 26.7384 25.6905 26.7586 25.6818 26.7759C25.6588 26.8191 25.6329 26.8623 25.6069 26.9055C25.5983 26.9199 25.5839 26.9343 25.5752 26.9516C25.5407 27.015 25.6501 26.8738 25.5954 26.9228C25.5637 26.9516 25.5378 26.989 25.5061 27.0178C25.4917 27.0322 25.4773 27.0438 25.4658 27.0553C25.46 27.0582 25.4571 27.0639 25.4514 27.0668C25.4139 27.0985 25.4139 27.0985 25.4514 27.0697C25.4888 27.0438 25.4658 27.0351 25.4514 27.0697C25.4312 27.0841 25.4111 27.0985 25.388 27.11C25.3506 27.1331 25.3131 27.1532 25.2728 27.1734C25.1604 27.2339 25.3506 27.1532 25.2526 27.182C25.2094 27.1936 25.1691 27.208 25.123 27.2195C25.1028 27.2252 25.0856 27.2281 25.0654 27.231C24.953 27.2569 25.1057 27.2224 25.1028 27.2281C25.1057 27.2396 24.9703 27.2368 24.953 27.2368C24.6506 27.2396 24.3625 27.4989 24.3769 27.8129C24.3913 28.1211 24.6304 28.3948 24.953 28.389C25.9929 28.3746 26.8197 27.5767 26.9061 26.5483C26.932 26.2314 26.9118 25.9059 26.9118 25.589C26.9118 24.7133 26.932 23.8376 26.909 22.9619C26.8686 21.294 26.2493 19.6981 25.1748 18.4277C24.1494 17.2121 22.6831 16.345 21.1219 16.0396C20.3585 15.8898 19.6009 15.8956 18.8289 15.8956C17.8409 15.8956 16.85 15.8956 15.8619 15.8956C14.7904 15.8956 13.7188 15.8956 12.6443 15.8956C12.0941 15.8956 11.544 15.8812 10.9938 15.9014C9.33167 15.9619 7.74159 16.5956 6.48278 17.6816C5.2787 18.7215 4.42604 20.1964 4.13799 21.7635C3.95075 22.7746 4.00836 23.8145 4.00836 24.8372V26.2516C4.00836 26.3783 4.00836 26.5022 4.02276 26.6289C4.08326 27.1158 4.29642 27.5853 4.67954 27.9051C5.06553 28.2277 5.52355 28.3919 6.02765 28.3919H6.43093H8.21112H10.9506H14.2258H17.6594H20.8194H23.3284H24.7629H24.9502C25.2526 28.3919 25.5407 28.1269 25.5263 27.8158C25.5148 27.4989 25.2757 27.2368 24.953 27.2368Z" fill="black"/>
</svg>
