<svg width="60" height="60" viewBox="0 0 60 60" fill="none" xmlns="http://www.w3.org/2000/svg">
<g clip-path="url(#clip0_511_7126)">
<path d="M53.4375 4.6875H15.9375C14.9034 4.6875 14.0625 5.52844 14.0625 6.5625V30.9375C14.0625 31.9716 14.9034 32.8125 15.9375 32.8125H20.1562L22.5066 30.7978C23.1075 30.2831 23.8725 30 24.6638 30H24.8109C26.4694 30 27.8316 31.2216 28.0753 32.8125H53.4375C54.4716 32.8125 55.3125 31.9716 55.3125 30.9375V6.5625C55.3125 5.52844 54.4716 4.6875 53.4375 4.6875Z" fill="#F5B754"/>
<path d="M54.375 0.9375H15C12.4153 0.9375 10.3125 3.04031 10.3125 5.625V18.3619L6.38342 22.2919C4.08092 24.5934 2.81248 27.6553 2.81342 30.9103L2.81529 47.8125H4.69029L4.68842 30.9103C4.68748 28.1559 5.76092 25.5656 7.70904 23.6175L10.3125 21.0131V31.875C10.3125 34.4597 12.4153 36.5625 15 36.5625C16.4325 36.5625 17.8219 36.0488 18.9084 35.1169L23.1169 31.5103C23.5462 31.1409 24.0956 30.9384 24.6628 30.9384H24.81C26.1206 30.9375 27.1875 32.0044 27.1875 33.315C27.1875 33.9506 26.94 34.5469 26.4919 34.9959L19.1859 42.3019C18.3009 43.1869 17.8125 44.3644 17.8125 45.6159V47.8125H19.6875V45.6159C19.6875 44.8753 19.9875 44.1516 20.5115 43.6275L27.5765 36.5625H54.375C56.9597 36.5625 59.0625 34.4597 59.0625 31.875V5.625C59.0625 3.04031 56.9597 0.9375 54.375 0.9375ZM24.6637 29.0625C23.6494 29.0625 22.6659 29.4262 21.8972 30.0862L21.5625 30.3722V21.5625H25.3125V29.1131C25.1456 29.0934 24.9825 29.0625 24.8109 29.0625H24.6637ZM57.1875 31.875C57.1875 33.4256 55.9256 34.6875 54.375 34.6875H28.8375C28.9856 34.2516 29.0625 33.7894 29.0625 33.315C29.0625 31.8497 28.3181 30.5559 27.1875 29.7909V21.5625H30.9375V32.8125H32.8125V21.5625H36.5625V32.8125H38.4375V21.5625H42.1875V32.8125H44.0625V21.5625H47.8125V32.8125H49.6875V21.5625H55.3125V19.6875H14.0625V21.5625H19.6875V31.875H19.8094L17.6878 33.6928C16.9397 34.3341 15.9862 34.6875 15 34.6875C13.4494 34.6875 12.1875 33.4256 12.1875 31.875V5.625C12.1875 4.07437 13.4494 2.8125 15 2.8125H54.375C55.9256 2.8125 57.1875 4.07437 57.1875 5.625V31.875Z" fill="black"/>
<path d="M49.6875 4.6875H47.8125V15.9375H44.0625V4.6875H42.1875V15.9375H38.4375V4.6875H36.5625V15.9375H32.8125V4.6875H30.9375V15.9375H27.1875V4.6875H25.3125V15.9375H21.5625V4.6875H19.6875V15.9375H14.0625V17.8125H55.3125V15.9375H49.6875V4.6875Z" fill="black"/>
<path d="M49.6875 55.3125H51.5625V57.1875H49.6875V55.3125Z" fill="black"/>
<path d="M46.1204 48.7495H49.6875V53.437H51.5625V46.8745H49.5047L52.5 42.0811L55.4954 46.8745H53.4375V59.062H55.3125V48.7495H58.8797L52.5 38.543L46.1204 48.7495Z" fill="black"/>
<path d="M40.3125 40.3125H42.1875V42.1875H40.3125V40.3125Z" fill="black"/>
<path d="M42.1875 44.0625H40.3125V50.625H42.3703L39.375 55.4184L36.3797 50.625H38.4375V38.4375H36.5625V48.75H32.9953L39.375 58.9566L45.7547 48.75H42.1875V44.0625Z" fill="black"/>
<path d="M21.5625 59.0625H0.9375V47.8125H21.5625V59.0625Z" fill="#F5B754"/>
</g>
<defs>
<clipPath id="clip0_511_7126">
<rect width="60" height="60" fill="white"/>
</clipPath>
</defs>
</svg>
