<svg width="24" height="24" viewBox="0 0 24 24" fill="none" xmlns="http://www.w3.org/2000/svg">
<g clip-path="url(#clip0_139_115)">
<path d="M2.57143 10.2891H4.28572C4.51305 10.2891 4.73106 10.3794 4.89181 10.5401C5.05256 10.7009 5.14286 10.9189 5.14286 11.1462V15.4319C5.14286 15.6592 5.05256 15.8773 4.89181 16.038C4.73106 16.1988 4.51305 16.2891 4.28572 16.2891H2.57143C2.11678 16.2891 1.68074 16.1085 1.35925 15.787C1.03776 15.4655 0.857147 15.0294 0.857147 14.5748V12.0033C0.857147 11.5487 1.03776 11.1127 1.35925 10.7912C1.68074 10.4697 2.11678 10.2891 2.57143 10.2891V10.2891Z" stroke="black" stroke-width="1.5" stroke-linecap="round" stroke-linejoin="round"/>
<path d="M21.4286 16.2891H19.7143C19.487 16.2891 19.269 16.1988 19.1082 16.038C18.9475 15.8773 18.8572 15.6592 18.8572 15.4319V11.1462C18.8572 10.9189 18.9475 10.7009 19.1082 10.5401C19.269 10.3794 19.487 10.2891 19.7143 10.2891H21.4286C21.8832 10.2891 22.3193 10.4697 22.6408 10.7912C22.9623 11.1127 23.1429 11.5487 23.1429 12.0033V14.5748C23.1429 15.0294 22.9623 15.4655 22.6408 15.787C22.3193 16.1085 21.8832 16.2891 21.4286 16.2891V16.2891Z" stroke="black" stroke-width="1.5" stroke-linecap="round" stroke-linejoin="round"/>
<path d="M16.2857 21.0033C17.195 21.0033 18.0671 20.6421 18.7101 19.9991C19.3531 19.3562 19.7143 18.4841 19.7143 17.5748V16.2891" stroke="black" stroke-width="1.5" stroke-linecap="round" stroke-linejoin="round"/>
<path d="M14.1429 18.8594C14.7112 18.8594 15.2562 19.0851 15.6581 19.487C16.06 19.8889 16.2857 20.4339 16.2857 21.0022C16.2857 21.5706 16.06 22.1156 15.6581 22.5175C15.2562 22.9193 14.7112 23.1451 14.1429 23.1451H11.5714C11.0031 23.1451 10.4581 22.9193 10.0562 22.5175C9.65434 22.1156 9.42857 21.5706 9.42857 21.0022C9.42857 20.4339 9.65434 19.8889 10.0562 19.487C10.4581 19.0851 11.0031 18.8594 11.5714 18.8594H14.1429Z" stroke="black" stroke-width="1.5" stroke-linecap="round" stroke-linejoin="round"/>
<path d="M4.28572 10.2879V8.57366C4.28572 6.52771 5.09847 4.56555 6.54518 3.11884C7.99189 1.67213 9.95405 0.859375 12 0.859375C14.046 0.859375 16.0081 1.67213 17.4548 3.11884C18.9015 4.56555 19.7143 6.52771 19.7143 8.57366V10.2879" stroke="black" stroke-width="1.5" stroke-linecap="round" stroke-linejoin="round"/>
<path d="M9.42857 6.85938V9.4308" stroke="black" stroke-width="1.5" stroke-linecap="round" stroke-linejoin="round"/>
<path d="M14.5714 6.85938V9.4308" stroke="black" stroke-width="1.5" stroke-linecap="round" stroke-linejoin="round"/>
<path d="M9.42857 12.8594C9.42857 15.1394 14.5714 15.1394 14.5714 12.8594" stroke="black" stroke-width="1.5" stroke-linecap="round" stroke-linejoin="round"/>
</g>
<defs>
<clipPath id="clip0_139_115">
<rect width="24" height="24" fill="white"/>
</clipPath>
</defs>
</svg>
