<svg width="50" height="50" viewBox="0 0 50 50" fill="none" xmlns="http://www.w3.org/2000/svg">
<g clip-path="url(#clip0_296_917)">
<path d="M23.4375 14.8438C16.9758 14.8438 11.7188 20.1008 11.7188 26.5625C11.7188 33.0242 16.9758 38.2812 23.4375 38.2812C29.8992 38.2812 35.1562 33.0242 35.1562 26.5625C35.1562 20.1008 29.8992 14.8438 23.4375 14.8438ZM17.0102 26.1172C16.1898 25.8508 15.7406 24.9688 16.007 24.1484C16.2734 23.3281 17.1555 22.8789 17.9758 23.1453C18.7961 23.4117 19.2453 24.2937 18.9789 25.1141C18.7125 25.9344 17.8313 26.3836 17.0102 26.1172ZM21.0281 32.5375C20.5211 33.2359 19.5437 33.3906 18.8453 32.8828C18.1469 32.375 17.9922 31.3984 18.5 30.7C19.0078 30.0016 19.9844 29.8469 20.6828 30.3539C21.3805 30.8617 21.5352 31.8391 21.0281 32.5375ZM23.4375 28.125C22.5742 28.125 21.875 27.4258 21.875 26.5625C21.875 25.6992 22.5742 25 23.4375 25C24.3008 25 25 25.6992 25 26.5625C25 27.4258 24.3008 28.125 23.4375 28.125ZM23.4375 21.875C22.5742 21.875 21.875 21.1758 21.875 20.3125C21.875 19.4492 22.5742 18.75 23.4375 18.75C24.3008 18.75 25 19.4492 25 20.3125C25 21.1758 24.3008 21.875 23.4375 21.875ZM28.0297 32.8828C27.3312 33.3898 26.3547 33.2352 25.8469 32.5375C25.3398 31.8391 25.4945 30.8625 26.193 30.3547C26.8914 29.8477 27.868 30.0023 28.3758 30.7008C28.8836 31.3992 28.7273 32.3758 28.0297 32.8828ZM29.8648 26.1172C29.0438 26.3836 28.1625 25.9344 27.8961 25.1141C27.6297 24.2937 28.0789 23.4117 28.8992 23.1453C29.7195 22.8789 30.6016 23.3281 30.868 24.1484C31.1344 24.9688 30.6852 25.8508 29.8648 26.1172Z" fill="#F5B754"/>
<path d="M25.7812 26.5625C25.7812 25.2703 24.7297 24.2188 23.4375 24.2188C22.1453 24.2188 21.0938 25.2703 21.0938 26.5625C21.0938 27.8547 22.1453 28.9062 23.4375 28.9062C24.7297 28.9062 25.7812 27.8547 25.7812 26.5625ZM23.4375 27.3438C23.007 27.3438 22.6562 26.993 22.6562 26.5625C22.6562 26.132 23.007 25.7812 23.4375 25.7812C23.868 25.7812 24.2188 26.132 24.2188 26.5625C24.2188 26.993 23.868 27.3438 23.4375 27.3438Z" fill="black"/>
<path d="M23.4375 22.6562C24.7297 22.6562 25.7812 21.6047 25.7812 20.3125C25.7812 19.0203 24.7297 17.9688 23.4375 17.9688C22.1453 17.9688 21.0938 19.0203 21.0938 20.3125C21.0938 21.6047 22.1453 22.6562 23.4375 22.6562ZM23.4375 19.5312C23.868 19.5312 24.2188 19.882 24.2188 20.3125C24.2188 20.743 23.868 21.0938 23.4375 21.0938C23.007 21.0938 22.6562 20.743 22.6562 20.3125C22.6562 19.882 23.007 19.5312 23.4375 19.5312Z" fill="black"/>
<path d="M19.7227 25.3563C20.1219 24.1274 19.4469 22.8024 18.218 22.4032C17.6227 22.2095 16.9875 22.2595 16.4289 22.5438C15.8711 22.8274 15.457 23.3118 15.2641 23.9079C14.8648 25.1376 15.5398 26.4626 16.7687 26.8618C17.0086 26.9399 17.2516 26.9766 17.4914 26.9766C18.4797 26.9759 19.4008 26.3454 19.7227 25.3563ZM16.75 24.3907C16.8148 24.1923 16.9523 24.0313 17.1383 23.936C17.25 23.879 17.3703 23.8509 17.4922 23.8509C17.5734 23.8509 17.6547 23.8641 17.7352 23.8899C18.1445 24.0227 18.3695 24.4641 18.2367 24.8743C18.1039 25.2845 17.6617 25.5095 17.2523 25.3759C16.8422 25.2423 16.6172 24.8001 16.75 24.3907Z" fill="black"/>
<path d="M21.1414 29.7235C20.0961 28.9649 18.6281 29.197 17.868 30.2423C17.5 30.7485 17.3508 31.3681 17.4492 31.9868C17.5477 32.6056 17.8797 33.1485 18.3867 33.5165C18.8016 33.8181 19.2836 33.9634 19.7609 33.9634C20.4859 33.9634 21.2023 33.6282 21.6602 32.9985C22.4195 31.9517 22.1867 30.4837 21.1414 29.7235ZM20.3953 32.0798C20.2727 32.2485 20.0914 32.3587 19.8859 32.3915C19.6813 32.4243 19.4727 32.3751 19.3047 32.2517C18.9563 31.9985 18.8789 31.5087 19.132 31.1603C19.2844 30.9501 19.5234 30.8384 19.7648 30.8384C19.9242 30.8384 20.0852 30.8868 20.2227 30.9868C20.5719 31.2407 20.6492 31.7306 20.3953 32.0798Z" fill="black"/>
<path d="M25.7336 29.7221C24.6883 30.4823 24.4555 31.951 25.2148 32.9964C25.6726 33.6268 26.3883 33.962 27.1141 33.962C27.5914 33.962 28.0734 33.8167 28.4891 33.5151C28.9953 33.1471 29.3281 32.6034 29.4266 31.9854C29.525 31.3675 29.3758 30.7479 29.0078 30.2409C28.2476 29.1948 26.7789 28.9628 25.7336 29.7221ZM27.5711 32.2503C27.4023 32.3729 27.1953 32.4229 26.9891 32.3901C26.7828 32.3573 26.6016 32.2464 26.4797 32.0784C26.2266 31.73 26.3039 31.2401 26.6523 30.987C26.7906 30.887 26.9516 30.8385 27.1109 30.8385C27.3531 30.8385 27.5914 30.9503 27.7437 31.1604C27.9961 31.5081 27.9187 31.9971 27.5711 32.2503Z" fill="black"/>
<path d="M30.4461 22.5438C29.8883 22.2595 29.2531 22.2095 28.657 22.4032C27.4281 22.8024 26.7531 24.1274 27.1524 25.3563C27.4742 26.3462 28.3953 26.9759 29.3828 26.9759C29.6219 26.9759 29.8656 26.9391 30.1055 26.861C31.3344 26.4618 32.0094 25.1368 31.6102 23.9071C31.4172 23.3118 31.0039 22.8274 30.4461 22.5438ZM29.6227 25.3751C29.2141 25.5087 28.7719 25.2829 28.6383 24.8735C28.5055 24.4641 28.7297 24.0227 29.1398 23.8891C29.2195 23.8634 29.3016 23.8501 29.3828 23.8501C29.5047 23.8501 29.625 23.879 29.7367 23.9352C29.9227 24.0306 30.0609 24.1915 30.125 24.3899C30.2578 24.8001 30.0328 25.2423 29.6227 25.3751Z" fill="black"/>
<path d="M49.2188 25C49.2188 11.6461 38.3539 0.78125 25 0.78125H24.2188V3.93359C23.9578 3.925 23.6961 3.90625 23.4375 3.90625C10.9445 3.90625 0.78125 14.0695 0.78125 26.5625C0.78125 39.0555 10.9445 49.2188 23.4375 49.2188C35.9305 49.2188 46.0938 39.0555 46.0938 26.5625C46.0938 26.3016 46.075 26.0422 46.0664 25.7812H49.2188V25ZM46.9828 19.5312H41.2102C40.7992 18.2195 40.225 16.9797 39.5148 15.8313C40.6594 15.1344 41.4062 13.8813 41.4062 12.5C41.4062 10.3461 39.6539 8.59375 37.5 8.59375C36.1188 8.59375 34.8656 9.34062 34.1688 10.4852C33.0211 9.775 31.7812 9.20078 30.4695 8.78984L30.4719 3.01797C38.5758 5.03594 44.9656 11.4266 46.9828 19.5312ZM38.6289 14.5461C37.7203 13.3484 36.6516 12.2797 35.4539 11.3711C35.8602 10.6391 36.6391 10.1562 37.5 10.1562C38.7922 10.1562 39.8438 11.2078 39.8438 12.5C39.8438 13.3609 39.3609 14.1398 38.6289 14.5461ZM38.2953 25.7812C38.2938 25.8695 38.293 25.9563 38.2906 26.0445C38.2859 26.2258 38.2812 26.4016 38.2812 26.5625C38.2812 34.7477 31.6227 41.4062 23.4375 41.4062C15.2523 41.4062 8.59375 34.7477 8.59375 26.5625C8.59375 18.3773 15.2523 11.7188 23.4375 11.7188C23.5992 11.7188 23.7758 11.7141 23.957 11.7094C24.0445 11.707 24.1313 11.7063 24.2188 11.7039V13.2906L24.9141 13.368C31.0273 14.0445 35.9555 18.9727 36.632 25.0859L36.7086 25.7812H38.2953ZM24.2188 10.1422C24.1172 10.1438 24.0164 10.1445 23.9156 10.1477C23.7484 10.1523 23.5859 10.1562 23.4375 10.1562C21.5625 10.1562 19.7672 10.4883 18.0883 11.0695C18.4469 9.12266 19.6766 7.44141 21.4953 6.53203L23.6102 5.47422C23.8125 5.47656 24.0156 5.48906 24.2188 5.49609V10.1422ZM19.7016 5.80703C17.7789 7.18984 16.5875 9.34922 16.4406 11.7453C10.8891 14.3781 7.03125 20.0211 7.03125 26.5625C7.03125 26.6633 7.04453 26.7602 7.04609 26.8609C5.30703 25.918 4.08984 24.2297 3.78672 22.2203L3.43437 19.8805C5.85234 12.6633 12.0695 7.17734 19.7016 5.80703ZM2.34375 26.5625C2.34375 25.5914 2.41563 24.6375 2.54297 23.7016C3.2625 25.9555 4.94609 27.7547 7.17734 28.6359C7.99688 35.093 12.5719 40.3922 18.6477 42.2516C17.2141 43.6086 15.2359 44.2422 13.2359 43.9094L10.9133 43.5234C5.71875 39.6773 2.34375 33.507 2.34375 26.5625ZM14.2734 45.5586C14.2828 45.5586 14.293 45.5602 14.3031 45.5602C16.6531 45.5602 18.8687 44.5109 20.3875 42.6734C21.3766 42.8602 22.3937 42.9688 23.4375 42.9688C28.9922 42.9688 33.9016 40.1875 36.8719 35.9516C37.7266 37.7375 37.7203 39.8203 36.7828 41.625L35.7016 43.7086C32.2422 46.1898 28.0094 47.6562 23.4375 47.6562C20.1555 47.6562 17.0461 46.9023 14.2734 45.5586ZM44.5312 26.5625C44.5312 32.2109 42.2953 37.3445 38.6664 41.1352C39.3984 38.8977 39.0945 36.4656 37.8156 34.4508C39.1063 32.1078 39.8438 29.4203 39.8438 26.5625C39.8438 26.4148 39.8477 26.2523 39.8523 26.0852C39.8547 25.9844 39.8555 25.8828 39.8578 25.7812H44.5039C44.5133 26.0422 44.5312 26.3016 44.5312 26.5625ZM38.0906 24.2188C37.0875 17.9391 32.0609 12.9125 25.7812 11.9094V2.35703C26.8438 2.39297 27.8875 2.50625 28.9086 2.68438L28.9062 9.97188L29.482 10.1289C34.5172 11.5023 38.4984 15.4836 39.8711 20.518L40.0281 21.0938H47.3156C47.4937 22.1141 47.6062 23.157 47.6422 24.2188H38.0906Z" fill="black"/>
<path d="M42.9688 17.9688C43.4002 17.9688 43.75 17.619 43.75 17.1875C43.75 16.756 43.4002 16.4062 42.9688 16.4062C42.5373 16.4062 42.1875 16.756 42.1875 17.1875C42.1875 17.619 42.5373 17.9688 42.9688 17.9688Z" fill="black"/>
<path d="M32.8125 7.8125C33.244 7.8125 33.5938 7.46272 33.5938 7.03125C33.5938 6.59978 33.244 6.25 32.8125 6.25C32.381 6.25 32.0312 6.59978 32.0312 7.03125C32.0312 7.46272 32.381 7.8125 32.8125 7.8125Z" fill="black"/>
<path d="M15.2023 10.5875L14.4852 9.19922C14.0039 9.44766 13.5281 9.71953 13.0719 10.0062L13.9023 11.3289C14.3226 11.0656 14.7601 10.8164 15.2023 10.5875Z" fill="black"/>
<path d="M12.668 12.1758L11.7305 10.9258C11.2969 11.2516 10.8727 11.5977 10.4703 11.9555L11.5086 13.1227C11.8789 12.7945 12.2687 12.4758 12.668 12.1758Z" fill="black"/>
<path d="M7.08751 19.0984L5.66641 18.4492C5.44063 18.943 5.23438 19.45 5.05313 19.9555L6.52344 20.4836C6.68985 20.0188 6.87969 19.5531 7.08751 19.0984Z" fill="black"/>
<path d="M10.4312 14.1641L9.30078 13.0859C8.92812 13.4766 8.56796 13.8875 8.22812 14.3078L9.44453 15.2891C9.75624 14.9023 10.0883 14.5234 10.4312 14.1641Z" fill="black"/>
<path d="M8.55312 16.4926L7.26015 15.6152C6.95624 16.0637 6.66796 16.5293 6.4039 16.9988L7.76562 17.7637C8.00859 17.3332 8.27343 16.9051 8.55312 16.4926Z" fill="black"/>
<path d="M6.42812 32.3594L4.94922 32.8641C5.12422 33.375 5.32266 33.8859 5.53906 34.3805L6.97031 33.7547C6.77109 33.3 6.58906 32.8297 6.42812 32.3594Z" fill="black"/>
<path d="M7.62735 35.1016L6.25235 35.843C6.5086 36.318 6.78829 36.7883 7.0836 37.2414L8.39219 36.3875C8.12032 35.9711 7.86251 35.5383 7.62735 35.1016Z" fill="black"/>
<path d="M8.02734 38.566C8.36016 38.9941 8.71328 39.4121 9.07891 39.8082L10.2281 38.7496C9.89297 38.3855 9.56719 38.0012 9.26172 37.6074L8.02734 38.566Z" fill="black"/>
<path d="M12.4305 40.7715C12.0383 40.4676 11.6539 40.1426 11.2875 39.8066L10.2305 40.9582C10.6289 41.3238 11.0469 41.677 11.4734 42.0074L12.4305 40.7715Z" fill="black"/>
<path d="M5.69922 29.459L4.15703 29.7121C4.24453 30.2434 4.35547 30.7793 4.48672 31.3051L6.00234 30.9254C5.88203 30.441 5.77968 29.9473 5.69922 29.459Z" fill="black"/>
<path d="M32.2789 42.2117L33.0469 43.5719C33.5187 43.3055 33.9836 43.0172 34.4297 42.7133L33.5508 41.4219C33.1414 41.7008 32.7133 41.9664 32.2789 42.2117Z" fill="black"/>
<path d="M26.6727 44.2387L26.9539 45.7754C27.4867 45.6777 28.0203 45.5574 28.5398 45.4168L28.1328 43.9082C27.6539 44.0371 27.1633 44.148 26.6727 44.2387Z" fill="black"/>
<path d="M23.6953 44.5297L23.7188 46.0922C24.2594 46.0836 24.8062 46.0531 25.343 46L25.1906 44.4453C24.6961 44.4937 24.193 44.5219 23.6953 44.5297Z" fill="black"/>
<path d="M29.5609 43.4578L30.0922 44.9273C30.6008 44.7437 31.1078 44.5367 31.5984 44.3109L30.9453 42.8906C30.4945 43.0984 30.0289 43.2891 29.5609 43.4578Z" fill="black"/>
<path d="M20.4742 45.8719C21.0109 45.9539 21.5547 46.0141 22.0922 46.0508L22.1976 44.4922C21.7047 44.4586 21.2039 44.4031 20.7109 44.3281L20.4742 45.8719Z" fill="black"/>
<path d="M42.9445 27.5359L41.3844 27.457C41.3594 27.9539 41.3133 28.4555 41.2469 28.9477L42.7953 29.1555C42.8672 28.6211 42.918 28.0766 42.9445 27.5359Z" fill="black"/>
<path d="M39.4898 34.6453L40.8859 35.3461C41.1297 34.8602 41.3555 34.3609 41.5547 33.8625L40.1047 33.2812C39.9211 33.7398 39.7141 34.1984 39.4898 34.6453Z" fill="black"/>
<path d="M42.5133 30.7562L40.9867 30.4219C40.8805 30.907 40.7523 31.3937 40.6055 31.8695L42.0984 32.3305C42.2578 31.8133 42.3977 31.2836 42.5133 30.7562Z" fill="black"/>
</g>
<defs>
<clipPath id="clip0_296_917">
<rect width="50" height="50" fill="white"/>
</clipPath>
</defs>
</svg>
