<svg width="45" height="45" viewBox="0 0 45 45" fill="none" xmlns="http://www.w3.org/2000/svg">
<g clip-path="url(#clip0_907_261)">
<path d="M15.5768 20.7717H9.51903C8.79783 20.7717 8.1847 20.5194 7.67984 20.0145C7.17527 19.5096 6.92265 18.8967 6.92265 18.1753V17.3103C6.92265 15.3991 7.59886 13.7677 8.95118 12.4154C10.3034 11.0635 11.9352 10.3873 13.8461 10.3873H15.5768C16.0455 10.3873 16.451 10.2159 16.7937 9.87352C17.1362 9.53092 17.3074 9.12542 17.3074 8.65664V5.19479C17.3074 4.72612 17.1361 4.32024 16.7937 3.97763C16.4511 3.6355 16.0456 3.46387 15.5768 3.46387H13.8461C11.971 3.46387 10.182 3.8293 8.47805 4.55912C6.77431 5.28942 5.30065 6.2766 4.0565 7.52075C2.81244 8.76434 1.82555 10.2381 1.09535 11.942C0.365147 13.6458 0 15.4352 0 17.3102V36.3482C0 37.7913 0.504576 39.0166 1.5142 40.0266C2.52392 41.0361 3.75017 41.5407 5.19239 41.5407H15.5774C17.0196 41.5407 18.2454 41.0361 19.2553 40.0266C20.2647 39.0166 20.7696 37.7913 20.7696 36.3482V25.9641C20.7696 24.5213 20.2647 23.296 19.2546 22.2859C18.2452 21.2766 17.0189 20.7717 15.5768 20.7717Z" fill="#F5B754"/>
<path d="M43.4875 22.2859C42.4781 21.2766 41.2522 20.7717 39.8097 20.7717H33.752C33.0312 20.7717 32.4175 20.5194 31.9135 20.0145C31.4084 19.5096 31.1563 18.8967 31.1563 18.1753V17.3103C31.1563 15.3991 31.8325 13.7677 33.1842 12.4154C34.5359 11.0635 36.1676 10.3873 38.0795 10.3873H39.8098C40.2785 10.3873 40.6843 10.2159 41.0267 9.87352C41.369 9.53092 41.5409 9.12542 41.5409 8.65664V5.19479C41.5409 4.72612 41.3691 4.32024 41.0267 3.97763C40.6844 3.6355 40.2786 3.46387 39.8098 3.46387H38.0795C36.2033 3.46387 34.4147 3.8293 32.7103 4.55912C31.0068 5.28942 29.5336 6.2766 28.2895 7.52075C27.0453 8.76434 26.058 10.2381 25.3281 11.942C24.598 13.6458 24.2324 15.4352 24.2324 17.3102V36.3482C24.2324 37.7913 24.7375 39.0166 25.7468 40.0266C26.7562 41.0361 27.9822 41.5407 29.4246 41.5407H39.8091C41.2516 41.5407 42.4775 41.0361 43.4868 40.0266C44.4969 39.0166 45.0009 37.7913 45.0009 36.3482V25.9641C45.001 24.5212 44.4969 23.296 43.4875 22.2859Z" fill="#F5B754"/>
</g>
<defs>
<clipPath id="clip0_907_261">
<rect width="45" height="45" fill="white"/>
</clipPath>
</defs>
</svg>
