<svg width="60" height="60" viewBox="0 0 60 60" fill="none" xmlns="http://www.w3.org/2000/svg">
<g clip-path="url(#clip0_564_135)">
<path d="M5.625 48.75H24.375V53.4375H5.625V48.75Z" fill="#F5B754"/>
<path d="M30 1.875H37.5V28.125H30V1.875Z" fill="#F5B754"/>
<path d="M48.2034 36.24C49.6997 35.5547 51.5625 34.7025 51.5625 32.8125H49.6875C49.6875 33.4491 48.7491 33.9281 47.4225 34.5356C45.9253 35.2209 44.0625 36.0741 44.0625 37.9641C44.0625 39.855 45.9253 40.7081 47.4216 41.3944C48.7481 42.0019 49.6875 42.4819 49.6875 43.1194C49.6875 43.7587 48.7481 44.2388 47.4216 44.8472C45.9244 45.5334 44.0625 46.3875 44.0625 48.2784C44.0625 50.1694 45.9244 51.0234 47.4216 51.7106C48.7481 52.3191 49.6875 52.7981 49.6875 53.4375H51.5625C51.5625 51.5466 49.7006 50.6925 48.2034 50.0053C46.8769 49.3969 45.9375 48.9178 45.9375 48.2784C45.9375 47.6391 46.8769 47.16 48.2034 46.5516C49.6997 45.8644 51.5625 45.0103 51.5625 43.1194C51.5625 41.2284 49.6997 40.3753 48.2034 39.6891C46.8769 39.0816 45.9375 38.6016 45.9375 37.9641C45.9375 37.3266 46.8769 36.8475 48.2034 36.24Z" fill="white"/>
<path d="M40.7034 50.0053C39.3769 49.3969 38.4375 48.9178 38.4375 48.2784C38.4375 47.6391 39.3769 47.16 40.7034 46.5516C42.1997 45.8644 44.0625 45.0103 44.0625 43.1194C44.0625 41.2284 42.1997 40.3753 40.7034 39.6891C39.3769 39.0816 38.4375 38.6016 38.4375 37.9641C38.4375 37.3275 39.3769 36.8484 40.7034 36.2409C42.1997 35.5547 44.0625 34.7025 44.0625 32.8125H42.1875C42.1875 33.4491 41.2491 33.9281 39.9225 34.5356C38.4253 35.2209 36.5625 36.0741 36.5625 37.9641C36.5625 39.855 38.4253 40.7081 39.9216 41.3944C41.2481 42.0019 42.1875 42.4819 42.1875 43.1194C42.1875 43.7587 41.2481 44.2388 39.9216 44.8472C38.4244 45.5334 36.5625 46.3875 36.5625 48.2784C36.5625 50.1694 38.4244 51.0234 39.9216 51.7106C41.2481 52.3191 42.1875 52.7981 42.1875 53.4375H44.0625C44.0625 51.5466 42.2006 50.6925 40.7034 50.0053Z" fill="white"/>
<path d="M33.2034 50.0053C31.8769 49.3969 30.9375 48.9178 30.9375 48.2784C30.9375 47.6391 31.8769 47.16 33.2034 46.5516C34.6997 45.8644 36.5625 45.0103 36.5625 43.1194C36.5625 41.2284 34.6997 40.3753 33.2034 39.6891C31.8769 39.0816 30.9375 38.6016 30.9375 37.9641C30.9375 37.3275 31.8769 36.8484 33.2034 36.2409C34.6997 35.5547 36.5625 34.7025 36.5625 32.8125H34.6875C34.6875 33.4491 33.7491 33.9281 32.4225 34.5356C30.9253 35.2209 29.0625 36.0741 29.0625 37.9641C29.0625 39.855 30.9253 40.7081 32.4216 41.3944C33.7481 42.0019 34.6875 42.4819 34.6875 43.1194C34.6875 43.7587 33.7481 44.2388 32.4216 44.8472C30.9244 45.5334 29.0625 46.3875 29.0625 48.2784C29.0625 50.1694 30.9244 51.0234 32.4216 51.7106C33.7481 52.3191 34.6875 52.7981 34.6875 53.4375H36.5625C36.5625 51.5466 34.7006 50.6925 33.2034 50.0053Z" fill="white"/>
<path d="M32.8125 23.4375H34.6875V25.3125H32.8125V23.4375Z" fill="white"/>
<path d="M32.8125 19.6875H34.6875V21.5625H32.8125V19.6875Z" fill="white"/>
<path d="M32.8125 15.9375H34.6875V17.8125H32.8125V15.9375Z" fill="white"/>
<path d="M32.8125 12.1875H34.6875V14.0625H32.8125V12.1875Z" fill="white"/>
<path d="M32.8125 8.4375H34.6875V10.3125H32.8125V8.4375Z" fill="white"/>
<path d="M32.8125 4.6875H34.6875V6.5625H32.8125V4.6875Z" fill="white"/>
<path d="M37.5 8.4375H51.5625V10.3125H37.5V8.4375Z" fill="white"/>
<path d="M25.3125 4.6875H30V6.5625H25.3125V4.6875Z" fill="white"/>
<path d="M37.5 15.9375H42.1875V17.8125H37.5V15.9375Z" fill="white"/>
<path d="M15.9375 12.1875H30V14.0625H15.9375V12.1875Z" fill="white"/>
<path d="M37.5 23.4375H47.8125V25.3125H37.5V23.4375Z" fill="white"/>
<path d="M23.4375 19.6875H30V21.5625H23.4375V19.6875Z" fill="white"/>
<path d="M54.525 0.9375H12.975C10.4728 0.9375 8.4375 2.97281 8.4375 5.475C8.4375 5.60063 8.44312 5.72625 8.45437 5.85188L9.94781 23.7722C9.05437 24.2447 8.4375 25.1719 8.4375 26.25V31.2928C7.16062 29.9222 5.34 29.0625 3.3225 29.0625C2.00812 29.0625 0.9375 30.1284 0.9375 31.4391C0.9375 31.9097 1.07531 32.3653 1.33687 32.7572L2.30156 34.2038C2.65875 34.74 2.88938 35.3606 2.96906 36L3.57281 40.8216C3.71344 41.9531 4.14937 43.0331 4.83469 43.9463L6.5625 46.2497V47.8125H4.6875V59.0625H25.3125V47.8125H23.4375V46.1587L24.6197 43.7953C25.0725 42.8888 25.3125 41.8734 25.3125 40.8591V29.0625H52.9378C55.2797 29.0625 57.2653 27.2344 57.4584 24.9019L59.0456 5.85188C59.0569 5.72625 59.0625 5.60156 59.0625 5.475C59.0625 2.97281 57.0272 0.9375 54.525 0.9375ZM23.4375 57.1875H6.5625V49.6875H23.4375V57.1875ZM23.4375 40.8591C23.4375 41.5828 23.2659 42.3075 22.9425 42.9553L21.5625 45.7163V47.8125H8.4375V45.6253L6.33375 42.8203C5.84531 42.1688 5.53312 41.3972 5.43281 40.5891L4.82906 35.7675C4.71375 34.8422 4.38 33.9412 3.86156 33.1641L2.89687 31.7175C2.84156 31.635 2.8125 31.5384 2.8125 31.4391C2.8125 31.1578 3.03656 30.9375 3.3225 30.9375C6.14344 30.9375 8.4375 33.2325 8.4375 36.0534V37.5H10.3125V26.25C10.3125 25.7334 10.7325 25.3125 11.25 25.3125C11.7675 25.3125 12.1875 25.7334 12.1875 26.25V31.875H14.0625V26.25V22.5C14.0625 21.9834 14.4825 21.5625 15 21.5625C15.5175 21.5625 15.9375 21.9834 15.9375 22.5V25.3125V31.875H17.8125V25.3125C17.8125 24.7959 18.2325 24.375 18.75 24.375C19.2675 24.375 19.6875 24.7959 19.6875 25.3125V28.125V31.875H21.5625V28.125C21.5625 27.6084 21.9825 27.1875 22.5 27.1875C23.0175 27.1875 23.4375 27.6084 23.4375 28.125V40.8591ZM52.9378 27.1875H25.14C24.7519 26.0991 23.7206 25.3125 22.5 25.3125C22.17 25.3125 21.8569 25.38 21.5625 25.485V25.3125H22.5H30V23.4375H20.8312C20.3166 22.8666 19.5778 22.5 18.75 22.5C18.42 22.5 18.1069 22.5675 17.8125 22.6725V22.5C17.8125 22.17 17.745 21.8569 17.64 21.5625H21.5625V19.6875H15C13.4494 19.6875 12.1875 20.9494 12.1875 22.5V23.61C12.0619 23.565 11.9372 23.52 11.8041 23.4928L11.3306 17.8125H30V15.9375H11.175L11.0184 14.0625H14.0625V12.1875H10.8628L10.7063 10.3125H30V8.4375H10.5497L10.3931 6.5625H23.4375V4.6875H10.4447C10.7831 3.60562 11.7825 2.8125 12.9741 2.8125H54.5241C55.7156 2.8125 56.715 3.60562 57.0534 4.6875H37.5V6.5625H57.1059L56.9494 8.4375H53.4375V10.3125H56.7938L56.6372 12.1875H37.5V14.0625H56.4816L56.325 15.9375H44.0625V17.8125H56.1684L56.0119 19.6875H37.5V21.5625H55.8563L55.6997 23.4375H49.6875V25.3125H55.4738C55.1334 26.3981 54.1144 27.1875 52.9378 27.1875Z" fill="white"/>
</g>
<defs>
<clipPath id="clip0_564_135">
<rect width="60" height="60" fill="white"/>
</clipPath>
</defs>
</svg>
