<svg width="50" height="50" viewBox="0 0 50 50" fill="none" xmlns="http://www.w3.org/2000/svg">
<g clip-path="url(#clip0_525_74)">
<path d="M25 49.2188C11.6453 49.2188 0.78125 38.3547 0.78125 25C0.78125 11.6453 11.6453 0.78125 25 0.78125C38.3547 0.78125 49.2188 11.6453 49.2188 25C49.2188 38.3547 38.3547 49.2188 25 49.2188ZM25 4.6875C13.8 4.6875 4.6875 13.8 4.6875 25C4.6875 36.2 13.8 45.3125 25 45.3125C36.2 45.3125 45.3125 36.2 45.3125 25C45.3125 13.8 36.2 4.6875 25 4.6875Z" fill="#F5B754"/>
<path d="M21.0938 25C21.0938 27.1539 22.8461 28.9062 25 28.9062C27.1539 28.9062 28.9062 27.1539 28.9062 25C28.9062 22.8461 27.1539 21.0938 25 21.0938C24.8047 21.0938 24.6164 21.1234 24.4289 21.1516L17.4898 14.8438H14.8438V17.4898L21.1516 24.4289C21.1234 24.6164 21.0938 24.8047 21.0938 25ZM27.3438 25C27.3438 26.2922 26.2922 27.3438 25 27.3438C23.7078 27.3438 22.6562 26.2922 22.6562 25C22.6562 23.7078 23.7078 22.6562 25 22.6562C26.2922 22.6562 27.3438 23.7078 27.3438 25ZM16.4062 16.8852V16.4062H16.8852L22.7961 21.7797C22.3977 22.0531 22.0531 22.3977 21.7797 22.7961L16.4062 16.8852Z" fill="black"/>
<path d="M25 3.90625C13.3688 3.90625 3.90625 13.3688 3.90625 25C3.90625 36.6312 13.3688 46.0938 25 46.0938C36.6312 46.0938 46.0938 36.6312 46.0938 25C46.0938 13.3688 36.6312 3.90625 25 3.90625ZM25 44.5312C14.4922 44.5312 5.90078 36.1898 5.48828 25.7812H8.59375V24.2188H5.48828C5.57109 22.1305 5.97969 20.1242 6.67031 18.2531L9.54297 19.4438L10.1414 18L7.27422 16.8117C8.13672 14.9523 9.28125 13.2492 10.6563 11.7609L12.8461 13.9508L13.9508 12.8461L11.7609 10.6563C13.2492 9.28125 14.9516 8.13672 16.8117 7.27422L18 10.1414L19.4438 9.54297L18.2531 6.67031C20.1242 5.97969 22.1305 5.57109 24.2188 5.48828V8.59375H25.7812V5.48828C27.8695 5.57109 29.8758 5.97969 31.7469 6.67031L30.5562 9.54297L32 10.1414L33.1883 7.27422C35.0477 8.13672 36.7508 9.28125 38.2391 10.6563L36.0492 12.8461L37.1539 13.9508L39.3438 11.7609C40.7188 13.2492 41.8633 14.9516 42.7258 16.8117L39.8586 18L40.457 19.4438L43.3297 18.2531C44.0203 20.1242 44.4297 22.1305 44.5117 24.2188H41.4062V25.7812H44.5117C44.0992 36.1898 35.5078 44.5312 25 44.5312Z" fill="black"/>
<path d="M26.0179 35.1562H25V33.5938H26.5625V32.0312H18.75V33.5938H20.3125V35.3C20.0554 35.3914 19.8219 35.5266 19.614 35.6969L16.1773 32.2602L15.0726 33.3648L18.7922 37.0844C18.7679 37.2195 18.75 37.3578 18.75 37.5V39.0625C18.75 41.2164 20.5023 42.9688 22.6562 42.9688H28.4375C29.9804 42.9688 31.3812 42.0586 32.007 40.6492L34.375 35.3219V33.0281L28.1562 36.582L26.0179 35.1562ZM23.4375 33.5938V35.1562H21.875V33.5938H23.4375ZM30.5797 40.0148C30.2039 40.8602 29.3633 41.4062 28.4375 41.4062H22.6562C21.364 41.4062 20.3125 40.3547 20.3125 39.0625V37.5C20.3125 37.0687 20.6625 36.7188 21.0937 36.7188H25.5445L28.0937 38.418L32.3765 35.9703L30.5797 40.0148Z" fill="black"/>
<path d="M39.0625 33.5938C37.7703 33.5938 36.7188 32.5422 36.7188 31.25C36.7188 29.9578 37.7703 28.9062 39.0625 28.9062C40.3547 28.9062 41.4062 29.9578 41.4062 31.25C41.4062 32.5422 40.3547 33.5938 39.0625 33.5938Z" fill="#F5B754"/>
<path d="M10.9375 33.5938C9.64531 33.5938 8.59375 32.5422 8.59375 31.25C8.59375 29.9578 9.64531 28.9062 10.9375 28.9062C12.2297 28.9062 13.2812 29.9578 13.2812 31.25C13.2812 32.5422 12.2297 33.5938 10.9375 33.5938Z" fill="#F5B754"/>
</g>
<defs>
<clipPath id="clip0_525_74">
<rect width="50" height="50" fill="white"/>
</clipPath>
</defs>
</svg>
