<svg width="24" height="24" viewBox="0 0 24 24" fill="none" xmlns="http://www.w3.org/2000/svg">
<g clip-path="url(#clip0_591_560)">
<path d="M21.8535 3.14648L19.8535 1.14647C19.6582 0.951141 19.3418 0.951141 19.1465 1.14647C18.9512 1.3418 18.9512 1.6582 19.1465 1.85348L20.793 3.49997L19.1465 5.14645C19.0528 5.2402 19 5.36714 19 5.49998V6.99998C19 8.10305 19.897 9 21 9V17.5C21 17.7758 20.7759 18 20.5 18C20.2242 18 20 17.7759 20 17.5V16.5C20 15.6728 19.3272 15 18.5 15H18V2.00002C18 0.896953 17.1031 0 16 0H6.00003C4.89702 0 4.00002 0.896953 4.00002 2.00002V20C2.897 20 2 20.897 2 22V23.5C2 23.7764 2.22364 24 2.50002 24H19.5C19.7764 24 20 23.7764 20 23.5V22C20 20.897 19.1031 20 18 20V16H18.5C18.7759 16 19.0001 16.2241 19.0001 16.5V17.5C19.0001 18.3272 19.6729 19 20.5001 19C21.3272 19 22.0001 18.3272 22.0001 17.5V3.50002C22 3.36717 21.9473 3.24023 21.8535 3.14648ZM5.00005 2.00002C5.00005 1.44877 5.44878 1.00003 6.00003 1.00003H16C16.5513 1.00003 17 1.44877 17 2.00002V20H5L5.00005 2.00002ZM19 22V23H3.00003V22C3.00003 21.4487 3.44877 21 4.00002 21H18C18.5513 21 19 21.4487 19 22ZM21 8.00002C20.4488 8.00002 20 7.55128 20 7.00003V5.70703L21 4.70705V8.00002Z" fill="white"/>
<path d="M15.5 2H6.50002C6.22364 2 6 2.22364 6 2.50002V8.5093C6 8.78567 6.22364 9.00931 6.50002 9.00931H15.5C15.7764 9.00931 16 8.78567 16 8.5093V2.49997C16 2.22364 15.7764 2 15.5 2ZM15 8.00928H6.99998V2.99998H15V8.00928Z" fill="#F5B754"/>
</g>
<defs>
<clipPath id="clip0_591_560">
<rect width="24" height="24" fill="white"/>
</clipPath>
</defs>
</svg>
