<svg width="50" height="50" viewBox="0 0 50 50" fill="none" xmlns="http://www.w3.org/2000/svg">
<g clip-path="url(#clip0_296_858)">
<path d="M36.7188 41.4062H33.5938C32.3016 41.4062 31.25 40.3547 31.25 39.0625V35.9375C31.25 34.6453 32.3016 33.5938 33.5938 33.5938H36.7188V41.4062Z" fill="#F5B754"/>
<path d="M16.4062 41.4062H13.2812V33.5938H16.4062C17.6984 33.5938 18.75 34.6453 18.75 35.9375V39.0625C18.75 40.3547 17.6984 41.4062 16.4062 41.4062Z" fill="#F5B754"/>
<path d="M27.3438 41.4062H22.6562C21.3641 41.4062 20.3125 40.3547 20.3125 39.0625V35.9375C20.3125 34.6453 21.3641 33.5938 22.6562 33.5938H27.3438C28.6359 33.5938 29.6875 34.6453 29.6875 35.9375V39.0625C29.6875 40.3547 28.6359 41.4062 27.3438 41.4062Z" fill="#F5B754"/>
<path d="M49.2188 8.59375C49.2188 4.28594 45.7141 0.78125 41.4062 0.78125H41.0828L38.2812 3.58281L36.7188 2.02031L33.2703 5.46875L34.8328 7.03125L28.4594 13.4047L29.5641 14.5094L31.25 12.8234L32.4891 14.0625L30.3648 16.1867L31.4695 17.2914L33.6609 15.1C33.8242 14.9375 34.05 14.8438 34.2805 14.8438C34.7633 14.8438 35.1562 15.2367 35.1562 15.7195C35.1562 15.9539 35.0656 16.1734 34.9 16.3391L29.9164 21.3227L30.4148 21.8211L29.9672 22.3188L35.5508 27.3438H14.4492L20.0328 22.3188L19.5852 21.8211L20.0836 21.3227L15.1 16.3391C14.9344 16.1734 14.8438 15.9539 14.8438 15.7195C14.8438 15.2367 15.2367 14.8438 15.7195 14.8438C15.95 14.8438 16.1758 14.9375 16.3391 15.1L18.5305 17.2914L19.6352 16.1867L17.5109 14.0625L18.75 12.8234L20.4359 14.5094L21.5406 13.4047L15.1672 7.03125L16.7297 5.46875L13.2812 2.02031L11.7188 3.58281L8.91719 0.78125H8.59375C4.28594 0.78125 0.78125 4.28594 0.78125 8.59375V8.91719L3.58281 11.7188L2.02031 13.2812L5.46875 16.7297L7.03125 15.1672L14.0625 22.1984L16.4062 19.8547L18.3148 21.7633L12.5 26.9961V43.1133C11.593 43.4367 10.9375 44.2961 10.9375 45.3133V46.8758C10.9375 48.168 11.9891 49.2195 13.2812 49.2195H36.7188C38.0109 49.2195 39.0625 48.168 39.0625 46.8758V45.3133C39.0625 44.2961 38.407 43.4367 37.5 43.1133V26.9961L31.6852 21.7633L33.5938 19.8547L35.9375 22.1984L42.9688 15.1672L44.5312 16.7297L47.9797 13.2812L46.4172 11.7188L49.2188 8.91719V8.59375ZM2.35156 8.27812C2.51172 5.08281 5.08203 2.51172 8.27812 2.35234L10.6141 4.6875L4.6875 10.6141L2.35156 8.27812ZM5.46875 14.5203L4.22969 13.2812L13.2812 4.22969L14.5203 5.46875L5.46875 14.5203ZM8.13594 14.0625L14.0625 8.13594L15.3016 9.375L9.375 15.3016L8.13594 14.0625ZM10.4797 16.4062L16.4062 10.4797L17.6453 11.7188L16.0492 13.3141C15.9398 13.2992 15.8305 13.2812 15.7195 13.2812C14.375 13.2812 13.2812 14.375 13.2812 15.7195C13.2812 15.832 13.2984 15.9406 13.3133 16.05L11.7188 17.6453L10.4797 16.4062ZM14.0625 19.9891L12.8234 18.75L14.0625 17.5109L15.3016 18.75L14.0625 19.9891ZM35.9375 42.9688H14.0625V32.0312H35.9375V42.9688ZM37.5 46.875C37.5 47.3055 37.15 47.6562 36.7188 47.6562H13.2812C12.85 47.6562 12.5 47.3055 12.5 46.875V45.3125C12.5 44.882 12.85 44.5312 13.2812 44.5312H36.7188C37.15 44.5312 37.5 44.882 37.5 45.3125V46.875ZM35.9375 30.4688H14.0625V28.9062H35.9375V30.4688ZM35.9375 19.9891L34.6984 18.75L35.9375 17.5109L37.1766 18.75L35.9375 19.9891ZM38.2812 17.6453L36.6867 16.05C36.7016 15.9406 36.7188 15.832 36.7188 15.7195C36.7188 14.375 35.625 13.2812 34.2805 13.2812C34.1695 13.2812 34.0602 13.2992 33.95 13.3141L32.3547 11.7188L33.5938 10.4797L39.5203 16.4062L38.2812 17.6453ZM40.625 15.3016L34.6984 9.375L35.9375 8.13594L41.8641 14.0625L40.625 15.3016ZM44.5312 14.5203L35.4797 5.46875L36.7188 4.22969L45.7703 13.2812L44.5312 14.5203ZM45.3125 10.6141L39.3859 4.6875L41.7219 2.35156C44.918 2.51094 47.4883 5.08203 47.6484 8.27734L45.3125 10.6141Z" fill="white"/>
<path d="M25 25.7812C21.1227 25.7812 17.9688 22.6266 17.9688 18.75C17.9688 14.8734 21.1227 11.7188 25 11.7188C28.8773 11.7188 32.0312 14.8734 32.0312 18.75C32.0312 22.6266 28.8773 25.7812 25 25.7812ZM25 15.625C23.2773 15.625 21.875 17.0266 21.875 18.75C21.875 20.4734 23.2773 21.875 25 21.875C26.7227 21.875 28.125 20.4734 28.125 18.75C28.125 17.0266 26.7227 15.625 25 15.625Z" fill="#F5B754"/>
<path d="M25 22.6562C22.8461 22.6562 21.0938 20.9039 21.0938 18.75C21.0938 16.5961 22.8461 14.8438 25 14.8438C27.1539 14.8438 28.9062 16.5961 28.9062 18.75C28.9062 20.9039 27.1539 22.6562 25 22.6562ZM25 16.4062C23.7078 16.4062 22.6562 17.4578 22.6562 18.75C22.6562 20.0422 23.7078 21.0938 25 21.0938C26.2922 21.0938 27.3438 20.0422 27.3438 18.75C27.3438 17.4578 26.2922 16.4062 25 16.4062Z" fill="white"/>
</g>
<defs>
<clipPath id="clip0_296_858">
<rect width="50" height="50" fill="white"/>
</clipPath>
</defs>
</svg>
