<svg width="60" height="60" viewBox="0 0 60 60" fill="none" xmlns="http://www.w3.org/2000/svg">
<path d="M50.625 24.375H9.375L8.4375 28.125C10.8384 30.5259 14.0953 31.875 17.4909 31.875H42.5091C45.9047 31.875 49.1616 30.5259 51.5625 28.125L50.625 24.375Z" fill="#F5B754"/>
<path d="M51.5625 49.6875H45.9375C44.9016 49.6875 44.0625 48.8484 44.0625 47.8125C44.0625 46.7766 44.9016 45.9375 45.9375 45.9375H51.5625C52.5984 45.9375 53.4375 46.7766 53.4375 47.8125C53.4375 48.8484 52.5984 49.6875 51.5625 49.6875Z" fill="#F5B754"/>
<path d="M14.0625 49.6875H8.4375C7.40156 49.6875 6.5625 48.8484 6.5625 47.8125C6.5625 46.7766 7.40156 45.9375 8.4375 45.9375H14.0625C15.0984 45.9375 15.9375 46.7766 15.9375 47.8125C15.9375 48.8484 15.0984 49.6875 14.0625 49.6875Z" fill="#F5B754"/>
<path d="M12.5381 5.625H47.4619C46.6791 3.41062 44.5791 1.875 42.1659 1.875H17.8341C15.4209 1.875 13.3209 3.41062 12.5381 5.625Z" fill="#F5B754"/>
<path d="M13.1628 17.6543L14.8331 8.31583L16.6781 8.64583L15.0078 17.9843L13.1628 17.6543Z" fill="black"/>
<path d="M12.4873 21.4219L12.8311 19.4996L14.6768 19.8297L14.333 21.752L12.4873 21.4219Z" fill="black"/>
<path d="M22.5 45.9375H24.375V47.8125H22.5V45.9375Z" fill="black"/>
<path d="M26.25 45.9375H37.5V47.8125H26.25V45.9375Z" fill="black"/>
<path d="M52.44 27.7041L52.3472 27.1875H54.375C56.9597 27.1875 59.0625 25.0847 59.0625 22.5C59.0625 20.9494 57.8006 19.6875 56.25 19.6875H53.2762C52.5253 19.6875 51.8184 19.98 51.2878 20.5116L51.1753 20.6241L48.6253 6.34688C48.0666 3.21187 45.3497 0.9375 42.1659 0.9375H17.8341C14.6503 0.9375 11.9334 3.21187 11.3737 6.34688L8.82375 20.6241L8.71125 20.5116C8.18156 19.98 7.47469 19.6875 6.72375 19.6875H3.75C2.19937 19.6875 0.9375 20.9494 0.9375 22.5C0.9375 25.0847 3.04031 27.1875 5.625 27.1875H7.65281L7.56094 27.7041L3.02531 32.8866C1.67906 34.425 0.9375 36.3984 0.9375 38.4431V45C0.9375 49.335 4.22531 52.9144 8.4375 53.3822V56.25C8.4375 57.8006 9.69938 59.0625 11.25 59.0625H16.875C18.4256 59.0625 19.6875 57.8006 19.6875 56.25V52.9988L21.8184 51.5625H23.4375H36.5625H38.1534L40.3125 53.0016V56.25C40.3125 57.8006 41.5744 59.0625 43.125 59.0625H48.75C50.3006 59.0625 51.5625 57.8006 51.5625 56.25V53.3822C55.7747 52.9134 59.0625 49.335 59.0625 45V38.4431C59.0625 36.3984 58.3209 34.425 56.9747 32.8866L52.44 27.7041ZM49.6875 35.625C49.6875 34.0744 50.9494 32.8125 52.5 32.8125C54.0506 32.8125 55.3125 34.0744 55.3125 35.625C55.3125 37.1756 54.0506 38.4375 52.5 38.4375C51.7622 38.4375 51.0666 38.1356 50.5425 37.6247C50.4141 36.8944 50.1141 36.2288 49.6884 35.6559C49.6884 35.6456 49.6875 35.6353 49.6875 35.625ZM48.75 38.4375C48.75 39.9881 47.4881 41.25 45.9375 41.25C44.5537 41.25 43.4034 40.2534 43.1747 38.91C43.455 38.1637 43.6772 37.3959 43.8234 36.6056C44.3587 35.9878 45.1125 35.625 45.9375 35.625C47.4881 35.625 48.75 36.8869 48.75 38.4375ZM41.3541 38.4375H18.6459C18.4059 37.8309 18.2166 37.2047 18.0797 36.5625H41.9203C41.7834 37.2047 41.5941 37.8309 41.3541 38.4375ZM16.8244 38.9081C16.5984 40.2525 15.4481 41.25 14.0625 41.25C12.5119 41.25 11.25 39.9881 11.25 38.4375C11.25 36.8869 12.5119 35.625 14.0625 35.625C14.8875 35.625 15.6412 35.9878 16.1766 36.6056C16.3228 37.395 16.5441 38.1628 16.8244 38.9081ZM10.3116 35.6559C9.88594 36.2278 9.58687 36.8934 9.4575 37.6237C8.93344 38.1356 8.23781 38.4375 7.5 38.4375C5.94938 38.4375 4.6875 37.1756 4.6875 35.625C4.6875 34.0744 5.94938 32.8125 7.5 32.8125C9.05062 32.8125 10.3125 34.0744 10.3125 35.625C10.3125 35.6353 10.3116 35.6456 10.3116 35.6559ZM7.5 40.3125C8.23969 40.3125 8.95687 40.1325 9.60281 39.8072C9.9 40.77 10.4878 41.5988 11.2791 42.1875H9.3225C6.82031 42.1875 4.57125 40.7981 3.45281 38.5594L2.89406 37.4428C2.92312 37.2544 2.96063 37.0687 3.00563 36.8841C3.56063 38.8556 5.355 40.3125 7.5 40.3125ZM17.895 41.1197C18.1144 41.4853 18.3516 41.8416 18.6066 42.1875H16.8516C17.2537 41.8884 17.6062 41.5322 17.895 41.1197ZM21.0384 42.1875C20.4909 41.6053 20.0091 40.9781 19.5956 40.3125H40.4044C39.9909 40.9781 39.5091 41.6053 38.9616 42.1875H36.5625H23.4375H21.0384ZM42.105 41.1188C42.3937 41.5312 42.7463 41.8884 43.1484 42.1875H41.3925C41.6484 41.8406 41.8856 41.4853 42.105 41.1188ZM50.3972 39.8072C51.0431 40.1325 51.7603 40.3125 52.5 40.3125C54.645 40.3125 56.4394 38.8556 56.9934 36.885C57.0384 37.0697 57.0759 37.2553 57.105 37.4437L56.5463 38.5612C55.4288 40.7981 53.1797 42.1875 50.6775 42.1875H48.7209C49.5113 41.5988 50.1 40.77 50.3972 39.8072ZM52.6134 21.8372C52.7887 21.6628 53.0297 21.5625 53.2762 21.5625H56.25C56.7675 21.5625 57.1875 21.9834 57.1875 22.5C57.1875 24.0506 55.9256 25.3125 54.375 25.3125H52.0125L51.5766 22.8741L52.6134 21.8372ZM13.2206 6.67594C13.6191 4.43719 15.5606 2.8125 17.8341 2.8125H42.165C44.4394 2.8125 46.38 4.43719 46.7794 6.67594L49.7728 23.4375H47.7572C47.3822 20.0634 45.0122 17.2838 41.8556 16.3106C42.6366 15.4734 43.125 14.3578 43.125 13.125C43.125 10.5403 41.0222 8.4375 38.4375 8.4375C35.8528 8.4375 33.75 10.5403 33.75 13.125C33.75 14.3578 34.2384 15.4734 35.0194 16.3106C31.8619 17.2838 29.4928 20.0634 29.1178 23.4375H10.2272L13.2206 6.67594ZM43.0303 23.4375C42.5944 21.3009 40.7016 19.6875 38.4375 19.6875C36.1734 19.6875 34.2806 21.3009 33.8447 23.4375H31.0125C31.47 20.2622 34.2009 17.8125 37.5 17.8125H39.375C42.6741 17.8125 45.405 20.2622 45.8625 23.4375H43.0303ZM41.0775 23.4375H35.7984C36.1866 22.3491 37.2178 21.5625 38.4384 21.5625C39.6591 21.5625 40.6894 22.3491 41.0775 23.4375ZM38.4375 15.9375C36.8869 15.9375 35.625 14.6756 35.625 13.125C35.625 11.5744 36.8869 10.3125 38.4375 10.3125C39.9881 10.3125 41.25 11.5744 41.25 13.125C41.25 14.6756 39.9881 15.9375 38.4375 15.9375ZM5.625 25.3125C4.07437 25.3125 2.8125 24.0506 2.8125 22.5C2.8125 21.9834 3.2325 21.5625 3.75 21.5625H6.72375C6.97031 21.5625 7.21219 21.6628 7.38656 21.8372L8.42344 22.8741L7.9875 25.3125H5.625ZM9.315 28.5459L9.8925 25.3125H50.1084L50.6859 28.5459L52.8047 30.9684C52.7016 30.9619 52.6041 30.9375 52.5 30.9375C50.3897 30.9375 48.6225 32.3484 48.0366 34.2694C47.4019 33.9478 46.6959 33.75 45.9375 33.75C45.2766 33.75 44.6419 33.8916 44.0588 34.1466C44.0588 34.1213 44.0625 34.0969 44.0625 34.0716V31.875H42.1875V34.0716C42.1875 34.2787 42.1678 34.4822 42.1575 34.6875H17.8425C17.8322 34.4822 17.8125 34.2787 17.8125 34.0716V31.875H15.9375V34.0716C15.9375 34.0969 15.9412 34.1213 15.9412 34.1466C15.3581 33.8916 14.7234 33.75 14.0625 33.75C13.3041 33.75 12.5981 33.9478 11.9634 34.2694C11.3775 32.3484 9.61031 30.9375 7.5 30.9375C7.39594 30.9375 7.29844 30.9619 7.19531 30.9684L9.315 28.5459ZM16.875 57.1875H11.25C10.7325 57.1875 10.3125 56.7666 10.3125 56.25V53.4375H17.8125V56.25C17.8125 56.7666 17.3925 57.1875 16.875 57.1875ZM18.4631 51.5625H9.375C5.75719 51.5625 2.8125 48.6188 2.8125 45V40.9678C4.39219 42.9019 6.74625 44.0625 9.3225 44.0625H19.7109C19.1166 44.8481 18.75 45.8156 18.75 46.875C18.75 48.2466 19.3528 49.47 20.295 50.3287L18.4631 51.5625ZM23.4375 49.6875C21.8869 49.6875 20.625 48.4256 20.625 46.875C20.625 45.3244 21.8869 44.0625 23.4375 44.0625H36.5625C38.1131 44.0625 39.375 45.3244 39.375 46.875C39.375 48.4256 38.1131 49.6875 36.5625 49.6875H23.4375ZM48.75 57.1875H43.125C42.6075 57.1875 42.1875 56.7666 42.1875 56.25V53.4375H49.6875V56.25C49.6875 56.7666 49.2675 57.1875 48.75 57.1875ZM50.625 51.5625H41.5341L39.6956 50.3372C40.6425 49.4784 41.25 48.2513 41.25 46.875C41.25 45.8156 40.8834 44.8481 40.2881 44.0625H50.6766C53.2537 44.0625 55.6078 42.9019 57.1866 40.9678V45C57.1875 48.6188 54.2428 51.5625 50.625 51.5625Z" fill="black"/>
</svg>
