<svg width="30" height="30" viewBox="0 0 30 30" fill="none" xmlns="http://www.w3.org/2000/svg">
<path d="M19.6155 16.1528H23.654C24.1348 16.1528 24.5435 16.3211 24.8801 16.6576C25.2165 16.9942 25.3849 17.4028 25.3849 17.8838V18.4604C25.3849 19.7346 24.9341 20.8222 24.0325 21.7238C23.1311 22.625 22.0432 23.0758 20.7692 23.0758H19.6155C19.303 23.0758 19.0327 23.19 18.8042 23.4183C18.5759 23.6467 18.4617 23.917 18.4617 24.2296V26.5375C18.4617 26.8499 18.5759 27.1205 18.8042 27.3489C19.0326 27.577 19.303 27.6914 19.6155 27.6914H20.7692C22.0194 27.6914 23.212 27.4478 24.348 26.9612C25.4838 26.4744 26.4662 25.8163 27.2957 24.9868C28.125 24.1578 28.783 23.1752 29.2698 22.0393C29.7566 20.9035 30 19.7105 30 18.4605V5.76849C30 4.80645 29.6636 3.98957 28.9905 3.31624C28.3174 2.64328 27.4999 2.30683 26.5384 2.30683H19.615C18.6536 2.30683 17.8364 2.64328 17.1632 3.31624C16.4902 3.98957 16.1536 4.80645 16.1536 5.76849V12.6912C16.1536 13.6531 16.4902 14.47 17.1636 15.1434C17.8365 15.8163 18.6541 16.1528 19.6155 16.1528Z" fill="black"/>
<path d="M1.00905 15.1434C1.68195 15.8163 2.49926 16.1528 3.46093 16.1528H7.49937C7.97991 16.1528 8.38904 16.3211 8.72505 16.6576C9.06175 16.9942 9.22985 17.4028 9.22985 17.8838V18.4604C9.22985 19.7346 8.77904 20.8222 7.87793 21.7238C6.97676 22.625 5.88899 23.0758 4.61437 23.0758H3.46086C3.14835 23.0758 2.87783 23.19 2.64955 23.4183C2.4214 23.6467 2.30679 23.917 2.30679 24.2296V26.5375C2.30679 26.8499 2.42134 27.1205 2.64955 27.3489C2.87776 27.577 3.14828 27.6914 3.46086 27.6914H4.61437C5.86518 27.6914 7.05759 27.4478 8.19386 26.9612C9.32949 26.4744 10.3116 25.8163 11.1411 24.9868C11.9705 24.1578 12.6287 23.1752 13.1153 22.0393C13.602 20.9035 13.8458 19.7105 13.8458 18.4605V5.76849C13.8458 4.80645 13.5091 3.98957 12.8362 3.31624C12.1632 2.64328 11.3459 2.30683 10.3843 2.30683H3.4613C2.49964 2.30683 1.68239 2.64328 1.0095 3.31624C0.336097 3.98957 9.25064e-05 4.80645 9.25064e-05 5.76849V12.6912C2.86102e-05 13.6532 0.336097 14.47 1.00905 15.1434Z" fill="black"/>
</svg>
