<svg width="60" height="60" viewBox="0 0 60 60" fill="none" xmlns="http://www.w3.org/2000/svg">
<g clip-path="url(#clip0_511_93)">
<path d="M30 59.0625C13.9753 59.0625 0.9375 46.0256 0.9375 30C0.9375 13.9744 13.9753 0.9375 30 0.9375C46.0247 0.9375 59.0625 13.9744 59.0625 30C59.0625 46.0256 46.0247 59.0625 30 59.0625ZM30 7.5C17.5931 7.5 7.5 17.5941 7.5 30C7.5 42.4059 17.5931 52.5 30 52.5C42.4069 52.5 52.5 42.4059 52.5 30C52.5 17.5941 42.4069 7.5 30 7.5Z" fill="#F5B754"/>
<path d="M45.7509 18.1865C45.2325 17.4975 44.6634 16.8356 44.0597 16.2178L42.72 17.5303C43.2666 18.0881 43.7822 18.6871 44.2519 19.3115L45.7509 18.1865Z" fill="black"/>
<path d="M41.8144 14.25C38.3859 11.6738 34.3003 10.3125 30 10.3125V12.1875C33.8906 12.1875 37.5872 13.4184 40.6884 15.75L41.8144 14.25Z" fill="black"/>
<path d="M30 6.5625C17.0766 6.5625 6.5625 17.0766 6.5625 30C6.5625 42.9234 17.0766 53.4375 30 53.4375C42.9234 53.4375 53.4375 42.9234 53.4375 30C53.4375 17.0766 42.9234 6.5625 30 6.5625ZM51.0431 34.6875H43.6266C43.0416 34.6875 42.465 34.7447 41.9025 34.8544C42.0853 33.8794 42.1875 32.8838 42.1875 31.875C42.1875 28.1859 40.9322 24.7181 38.7637 22.125C44.9184 22.8966 49.4822 24.2409 50.8997 24.6919C51.3309 26.3906 51.5625 28.1691 51.5625 30C51.5625 31.6097 51.3797 33.1772 51.0431 34.6875ZM30 8.4375C39.2625 8.4375 47.1778 14.3081 50.2247 22.5244C46.9181 21.5634 39.2812 19.6875 30 19.6875C20.7188 19.6875 13.0819 21.5634 9.77531 22.5244C12.8222 14.3081 20.7375 8.4375 30 8.4375ZM8.4375 30C8.4375 28.1691 8.66906 26.3906 9.10031 24.6919C10.5169 24.2409 15.0778 22.8956 21.2372 22.1241C19.0678 24.7172 17.8125 28.185 17.8125 31.875C17.8125 32.8838 17.9147 33.8794 18.0966 34.8544C17.535 34.7447 16.9584 34.6875 16.3725 34.6875H8.95687C8.62031 33.1772 8.4375 31.6097 8.4375 30ZM9.46219 36.5625H16.3734C18.2606 36.5625 20.0344 37.2975 21.3694 38.6316C22.7025 39.9666 23.4375 41.7394 23.4375 43.6266V50.5378C16.8178 48.4181 11.5819 43.1822 9.46219 36.5625ZM25.3125 51.0431V43.6266C25.3125 41.2388 24.3825 38.9944 22.6941 37.3059C21.9516 36.5634 21.0956 35.9766 20.1722 35.5416C19.8562 34.3594 19.6875 33.1294 19.6875 31.875C19.6875 27.825 21.3778 24.0919 24.2072 21.8128C26.0447 21.6572 27.9853 21.5625 30 21.5625C32.0147 21.5625 33.9562 21.6581 35.7956 21.8128C38.6231 24.0938 40.3125 27.8269 40.3125 31.875C40.3125 33.1294 40.1437 34.3594 39.8269 35.5416C38.9034 35.9766 38.0484 36.5625 37.305 37.3059C35.6175 38.9944 34.6875 41.2388 34.6875 43.6266V51.0431C33.1772 51.3797 31.6097 51.5625 30 51.5625C28.3903 51.5625 26.8228 51.3797 25.3125 51.0431ZM36.5625 50.5378V43.6266C36.5625 41.7394 37.2975 39.9666 38.6316 38.6316C39.9656 37.2975 41.7403 36.5625 43.6275 36.5625H50.5387C48.4181 43.1822 43.1822 48.4181 36.5625 50.5378Z" fill="black"/>
<path d="M36.5625 30C36.5625 26.3822 33.6187 23.4375 30 23.4375C26.3813 23.4375 23.4375 26.3822 23.4375 30C23.4375 33.6178 26.3813 36.5625 30 36.5625C33.6187 36.5625 36.5625 33.6178 36.5625 30ZM25.3125 30C25.3125 27.4153 27.4153 25.3125 30 25.3125C32.5847 25.3125 34.6875 27.4153 34.6875 30C34.6875 32.5847 32.5847 34.6875 30 34.6875C27.4153 34.6875 25.3125 32.5847 25.3125 30Z" fill="black"/>
<path d="M47.8125 25.3125H45.9375C44.9034 25.3125 44.0625 26.1534 44.0625 27.1875V30.9375C44.0625 31.9716 44.9034 32.8125 45.9375 32.8125H47.8125C48.8466 32.8125 49.6875 31.9716 49.6875 30.9375V27.1875C49.6875 26.1534 48.8466 25.3125 47.8125 25.3125ZM45.9375 30.9375V27.1875H47.8125L47.8134 30.9375H45.9375Z" fill="black"/>
<path d="M14.0625 25.3125H12.1875C11.1534 25.3125 10.3125 26.1534 10.3125 27.1875V30.9375C10.3125 31.9716 11.1534 32.8125 12.1875 32.8125H14.0625C15.0966 32.8125 15.9375 31.9716 15.9375 30.9375V27.1875C15.9375 26.1534 15.0966 25.3125 14.0625 25.3125ZM12.1875 30.9375V27.1875H14.0625L14.0634 30.9375H12.1875Z" fill="black"/>
<path d="M27.1875 47.8125H32.8125V49.6875H27.1875V47.8125Z" fill="black"/>
<path d="M27.1875 44.0625H32.8125V45.9375H27.1875V44.0625Z" fill="black"/>
<path d="M27.1875 40.3125H32.8125V42.1875H27.1875V40.3125Z" fill="black"/>
</g>
<defs>
<clipPath id="clip0_511_93">
<rect width="60" height="60" fill="white"/>
</clipPath>
</defs>
</svg>
