<svg width="60" height="60" viewBox="0 0 60 60" fill="none" xmlns="http://www.w3.org/2000/svg">
<path d="M41.25 55.3125H18.75C17.1994 55.3125 15.9375 54.0506 15.9375 52.5V35.625C15.9375 34.0744 17.1994 32.8125 18.75 32.8125H41.25C42.8006 32.8125 44.0625 34.0744 44.0625 35.625V52.5C44.0625 54.0506 42.8006 55.3125 41.25 55.3125Z" fill="#F5B754"/>
<path d="M30.3159 51.562H29.6841C26.7563 51.562 24.375 49.1808 24.375 46.253C24.375 45.2564 24.6544 44.2833 25.1822 43.4395L30 35.7305L34.8178 43.4395C35.3456 44.2833 35.625 45.2564 35.625 46.253C35.625 49.1808 33.2438 51.562 30.3159 51.562ZM30 39.2686L26.7722 44.4342C26.43 44.9798 26.25 45.608 26.25 46.253C26.25 48.1458 27.7912 49.687 29.6841 49.687H30.3159C32.2088 49.687 33.75 48.1458 33.75 46.253C33.75 45.608 33.57 44.9798 33.2278 44.4342L30 39.2686Z" fill="black"/>
<path d="M32.5116 15.9375C31.8441 15.9375 31.1944 16.0688 30.5803 16.3275L17.6588 21.7678C16.6134 22.2075 15.9375 23.2247 15.9375 24.36V24.6966C15.9375 28.1381 18.7369 30.9375 22.1784 30.9375C23.8444 30.9375 25.4109 30.2887 26.5913 29.1094L35.625 20.0756V19.0509C35.625 17.3344 34.2281 15.9375 32.5116 15.9375ZM33.75 19.2994L25.2656 27.7837C24.4406 28.6087 23.3437 29.0625 22.1784 29.0625C19.7709 29.0625 17.8125 27.1041 17.8125 24.6966V24.36C17.8125 23.9822 18.0375 23.6428 18.3853 23.4966L31.3078 18.0563C31.6913 17.8941 32.0953 17.8125 32.5116 17.8125C33.1941 17.8125 33.75 18.3684 33.75 19.0509V19.2994Z" fill="black"/>
<path d="M44.0625 12.8297V10.3125C45.6131 10.3125 46.875 9.05062 46.875 7.5V3.75C46.875 2.19937 45.6131 0.9375 44.0625 0.9375H32.8125C31.2619 0.9375 30 2.19937 30 3.75V7.5C30 9.05062 31.2619 10.3125 32.8125 10.3125V12.1875H32.0738C31.1934 12.1875 30.3356 12.3609 29.5266 12.7022L16.2038 18.3112C13.7644 19.3378 12.1875 21.7125 12.1875 24.36V52.5C12.1875 56.1178 15.1322 59.0625 18.75 59.0625H41.25C44.8678 59.0625 47.8125 56.1178 47.8125 52.5V18.75C47.8125 16.1391 46.2759 13.8853 44.0625 12.8297ZM31.875 7.5V3.75C31.875 3.23344 32.295 2.8125 32.8125 2.8125H44.0625C44.58 2.8125 45 3.23344 45 3.75V7.5C45 8.01656 44.58 8.4375 44.0625 8.4375H32.8125C32.295 8.4375 31.875 8.01656 31.875 7.5ZM34.6875 10.3125H42.1875V12.2625C41.88 12.2184 41.5688 12.1875 41.25 12.1875H34.6875V10.3125ZM45.9375 52.5C45.9375 55.0847 43.8347 57.1875 41.25 57.1875H18.75C16.1653 57.1875 14.0625 55.0847 14.0625 52.5V24.36C14.0625 22.4691 15.1884 20.7731 16.9312 20.04L30.255 14.43C30.8325 14.1862 31.4447 14.0625 32.0738 14.0625H41.25C43.8347 14.0625 45.9375 16.1653 45.9375 18.75V52.5Z" fill="black"/>
<path d="M42.1875 17.8125H44.0625V19.6875H42.1875V17.8125Z" fill="black"/>
<path d="M42.1875 21.5625H44.0625V23.4375H42.1875V21.5625Z" fill="black"/>
<path d="M42.1875 25.3125H44.0625V27.1875H42.1875V25.3125Z" fill="black"/>
</svg>
