<svg width="60" height="60" viewBox="0 0 60 60" fill="none" xmlns="http://www.w3.org/2000/svg">
<g clip-path="url(#clip0_624_197)">
<path d="M30 0.9375C13.9744 0.9375 0.9375 13.9744 0.9375 30C0.9375 42.7453 9.1875 53.5922 20.625 57.5025V52.5H22.5L22.5009 51.2156C13.77 48.12 7.5 39.7781 7.5 30C7.5 17.5941 17.5941 7.5 30 7.5C42.4059 7.5 52.5 17.5941 52.5 30C52.5 39.7781 46.23 48.12 37.4991 51.2156L37.5 52.5H39.375V57.5025C50.8125 53.5922 59.0625 42.7453 59.0625 30C59.0625 13.9744 46.0256 0.9375 30 0.9375Z" fill="#F5B754"/>
<path d="M15.9375 27.1875H12.1875C11.1534 27.1875 10.3125 28.0284 10.3125 29.0625V30.9375C10.3125 31.9716 11.1534 32.8125 12.1875 32.8125H15.9375C16.9716 32.8125 17.8125 31.9716 17.8125 30.9375V29.0625C17.8125 28.0284 16.9716 27.1875 15.9375 27.1875ZM12.1875 30.9375V29.0625H15.9375L15.9394 30.9375H12.1875Z" fill="black"/>
<path d="M53.4375 30C53.4375 17.0766 42.9234 6.5625 30 6.5625C17.0766 6.5625 6.5625 17.0766 6.5625 30C6.5625 39.4284 12.2438 47.91 20.8322 51.5625H19.6875V59.0625H40.3125V51.5625H39.1678C47.7562 47.91 53.4375 39.4284 53.4375 30ZM50.5359 34.6875C48.4416 34.6875 46.2684 34.8675 44.0597 35.2059C44.0597 35.2003 44.0625 35.1947 44.0625 35.1891C44.0625 33.8794 42.9919 32.8125 41.6775 32.8125C39.66 32.8125 37.8394 33.6713 36.5625 35.0428V30C36.5625 28.4494 35.3006 27.1875 33.75 27.1875C33.42 27.1875 33.1069 27.255 32.8125 27.36V26.25C32.8125 24.6994 31.5506 23.4375 30 23.4375C28.4494 23.4375 27.1875 24.6994 27.1875 26.25V26.4225C26.8931 26.3175 26.58 26.25 26.25 26.25C24.6994 26.25 23.4375 27.5119 23.4375 29.0625V29.235C23.1431 29.13 22.83 29.0625 22.5 29.0625C20.9494 29.0625 19.6875 30.3244 19.6875 31.875V35.9456C16.1297 35.1159 12.7659 34.6875 9.46406 34.6875H8.96438C8.625 33.1688 8.4375 31.6003 8.4375 30C8.4375 28.3903 8.62031 26.8228 8.95687 25.3125H21.4313L21.7106 25.0031C23.6869 22.8169 26.7075 21.5625 30 21.5625C33.2925 21.5625 36.3131 22.8169 38.2894 25.0031L38.5687 25.3125H51.0441C51.3797 26.8228 51.5625 28.3903 51.5625 30C51.5625 31.6003 51.375 33.1688 51.0356 34.6875H50.5359ZM36.5625 49.3753V51.5625H23.4375V49.4663L22.0575 46.7062C21.7341 46.0584 21.5625 45.3337 21.5625 44.61V31.875C21.5625 31.3575 21.9825 30.9375 22.5 30.9375C23.0175 30.9375 23.4375 31.3575 23.4375 31.875V35.625H25.3125V31.875V29.0625C25.3125 28.545 25.7325 28.125 26.25 28.125C26.7675 28.125 27.1875 28.545 27.1875 29.0625V35.625H29.0625V29.0625V26.25C29.0625 25.7325 29.4825 25.3125 30 25.3125C30.5175 25.3125 30.9375 25.7325 30.9375 26.25V30V35.625H32.8125V30C32.8125 29.4825 33.2325 29.0625 33.75 29.0625C34.2675 29.0625 34.6875 29.4825 34.6875 30V41.25H36.5625V39.8025C36.5625 36.9816 38.8566 34.6875 41.6775 34.6875C41.9634 34.6875 42.1875 34.9078 42.1875 35.1891C42.1875 35.2884 42.1584 35.385 42.1031 35.4675L41.1384 36.915C40.62 37.6912 40.2862 38.5913 40.1709 39.5166L39.5672 44.34C39.4669 45.1472 39.1556 45.9188 38.6662 46.5703L36.5625 49.3753ZM30 8.4375C39.6019 8.4375 47.7553 14.7478 50.5378 23.4375H39.3909C37.0641 21.0487 33.6675 19.6875 30 19.6875C26.3325 19.6875 22.9369 21.0487 20.6091 23.4375H9.46219C12.2447 14.7478 20.3981 8.4375 30 8.4375ZM9.46406 36.5625C12.7528 36.5625 16.11 37.0022 19.6875 37.8684V44.61C19.6875 45.6234 19.9275 46.6388 20.3803 47.5444L21.5175 49.8197C15.7059 47.3316 11.3466 42.4397 9.46406 36.5625ZM38.4375 57.1875H21.5625V53.4375H38.4375V57.1875ZM38.6109 49.7691L40.1663 47.6953C40.8506 46.7831 41.2866 45.7031 41.4281 44.5716L42.0319 39.7491C42.1116 39.1106 42.3422 38.49 42.6994 37.9547L43.1662 37.2553C45.6862 36.8006 48.1659 36.5625 50.5359 36.5625C48.6666 42.3966 44.3597 47.2641 38.6109 49.7691Z" fill="black"/>
<path d="M40.3125 27.1875H42.1875V29.0625H40.3125V27.1875Z" fill="black"/>
<path d="M44.0625 27.1875H45.9375V29.0625H44.0625V27.1875Z" fill="black"/>
<path d="M47.8125 27.1875H49.6875V29.0625H47.8125V27.1875Z" fill="black"/>
<path d="M47.8125 30.9375H49.6875V32.8125H47.8125V30.9375Z" fill="black"/>
<path d="M44.0625 30.9375H45.9375V32.8125H44.0625V30.9375Z" fill="black"/>
<path d="M14.0875 21.9853C14.395 21.3759 14.7428 20.7759 15.1206 20.2031L13.555 19.1719C13.1388 19.8038 12.7544 20.4666 12.4141 21.1397L14.0875 21.9853Z" fill="black"/>
<path d="M29.9996 12.1875V10.3125C24.2396 10.3125 18.7862 12.8241 15.0381 17.2031L16.4631 18.4228C19.854 14.46 24.7881 12.1875 29.9996 12.1875Z" fill="black"/>
</g>
<defs>
<clipPath id="clip0_624_197">
<rect width="60" height="60" fill="white"/>
</clipPath>
</defs>
</svg>
