<svg width="30" height="30" viewBox="0 0 30 30" fill="none" xmlns="http://www.w3.org/2000/svg">
<g clip-path="url(#clip0_607_88)">
<path d="M20.645 8.08H17.615V2.525H18.625C18.9039 2.525 19.13 2.29888 19.13 2.02V0.505C19.13 0.226116 18.9039 0 18.625 0H10.545C10.2661 0 10.04 0.226116 10.04 0.505V2.02C10.04 2.29888 10.2661 2.525 10.545 2.525H11.555V8.08H8.525C7.13107 8.08173 6.00173 9.21107 6 10.605V26.26C6.00173 27.6539 7.13107 28.7833 8.525 28.785V29.795C8.525 30.0739 8.75112 30.3 9.03 30.3H11.05C11.3289 30.3 11.555 30.0739 11.555 29.795V28.785H17.615V29.795C17.615 30.0739 17.8411 30.3 18.12 30.3H20.14C20.4189 30.3 20.645 30.0739 20.645 29.795V28.785C22.0389 28.7833 23.1683 27.6539 23.17 26.26V10.605C23.1683 9.21107 22.0389 8.08173 20.645 8.08ZM11.05 1.01H18.12V1.515H11.05V1.01ZM12.565 2.525H16.605V8.08H12.565V2.525ZM10.545 29.29H9.535V28.785H10.545V29.29ZM19.635 29.29H18.625V28.785H19.635V29.29ZM22.16 26.26C22.16 27.0967 21.4817 27.775 20.645 27.775H8.525C7.68835 27.775 7.01 27.0967 7.01 26.26V10.605C7.01 9.76835 7.68835 9.09 8.525 9.09H20.645C21.4817 9.09 22.16 9.76835 22.16 10.605V26.26Z" fill="black"/>
<path d="M14.5861 10.0986C14.3072 10.0986 14.0811 10.3247 14.0811 10.6036V26.2586C14.0811 26.5375 14.3072 26.7636 14.5861 26.7636C14.8649 26.7636 15.0911 26.5375 15.0911 26.2586V10.6036C15.0911 10.3247 14.8649 10.0986 14.5861 10.0986Z" fill="#F5B754"/>
<path d="M18.6251 11.1113C18.3462 11.1113 18.1201 11.3374 18.1201 11.6163V25.2513C18.1201 25.5302 18.3462 25.7563 18.6251 25.7563C18.904 25.7563 19.1301 25.5302 19.1301 25.2513V11.6163C19.1301 11.3374 18.904 11.1113 18.6251 11.1113Z" fill="black"/>
<path d="M10.545 11.1113C10.2662 11.1113 10.04 11.3374 10.04 11.6163V25.2513C10.04 25.5302 10.2662 25.7563 10.545 25.7563C10.8239 25.7563 11.05 25.5302 11.05 25.2513V11.6163C11.05 11.3374 10.8239 11.1113 10.545 11.1113Z" fill="black"/>
</g>
<defs>
<clipPath id="clip0_607_88">
<rect width="30" height="30" fill="white"/>
</clipPath>
</defs>
</svg>
