<svg width="50" height="50" viewBox="0 0 50 50" fill="none" xmlns="http://www.w3.org/2000/svg">
<g clip-path="url(#clip0_547_206)">
<path d="M25 0.78125C11.6453 0.78125 0.78125 11.6453 0.78125 25C0.78125 35.6211 7.65625 44.6602 17.1875 47.9187V43.75H18.75L18.7508 42.6797C11.475 40.1 6.25 33.1484 6.25 25C6.25 14.6617 14.6617 6.25 25 6.25C35.3383 6.25 43.75 14.6617 43.75 25C43.75 33.1484 38.525 40.1 31.2492 42.6797L31.25 43.75H32.8125V47.9187C42.3438 44.6602 49.2188 35.6211 49.2188 25C49.2188 11.6453 38.3547 0.78125 25 0.78125Z" fill="#F5B754"/>
<path d="M13.2812 22.6562H10.1562C9.29453 22.6562 8.59375 23.357 8.59375 24.2188V25.7812C8.59375 26.643 9.29453 27.3438 10.1562 27.3438H13.2812C14.143 27.3438 14.8438 26.643 14.8438 25.7812V24.2188C14.8438 23.357 14.143 22.6562 13.2812 22.6562ZM10.1562 25.7812V24.2188H13.2812L13.2828 25.7812H10.1562Z" fill="black"/>
<path d="M44.5312 25C44.5312 14.2305 35.7695 5.46875 25 5.46875C14.2305 5.46875 5.46875 14.2305 5.46875 25C5.46875 32.857 10.2031 39.925 17.3602 42.9688H16.4062V49.2188H33.5938V42.9688H32.6398C39.7969 39.925 44.5312 32.857 44.5312 25ZM42.1133 28.9062C40.368 28.9062 38.557 29.0563 36.7164 29.3383C36.7164 29.3336 36.7188 29.3289 36.7188 29.3242C36.7188 28.2328 35.8266 27.3438 34.7313 27.3438C33.05 27.3438 31.5328 28.0594 30.4688 29.2023V25C30.4688 23.7078 29.4172 22.6562 28.125 22.6562C27.85 22.6562 27.5891 22.7125 27.3438 22.8V21.875C27.3438 20.5828 26.2922 19.5312 25 19.5312C23.7078 19.5312 22.6562 20.5828 22.6562 21.875V22.0187C22.4109 21.9312 22.15 21.875 21.875 21.875C20.5828 21.875 19.5312 22.9266 19.5312 24.2188V24.3625C19.2859 24.275 19.025 24.2188 18.75 24.2188C17.4578 24.2188 16.4062 25.2703 16.4062 26.5625V29.9547C13.4414 29.2633 10.6383 28.9062 7.88672 28.9062H7.47031C7.1875 27.6406 7.03125 26.3336 7.03125 25C7.03125 23.6586 7.18359 22.3523 7.46406 21.0938H17.8594L18.0922 20.8359C19.7391 19.0141 22.2563 17.9688 25 17.9688C27.7437 17.9688 30.2609 19.0141 31.9078 20.8359L32.1406 21.0938H42.5367C42.8164 22.3523 42.9688 23.6586 42.9688 25C42.9688 26.3336 42.8125 27.6406 42.5297 28.9062H42.1133ZM30.4688 41.1461V42.9688H19.5312V41.2219L18.3813 38.9219C18.1117 38.382 17.9688 37.7781 17.9688 37.175V26.5625C17.9688 26.1313 18.3188 25.7812 18.75 25.7812C19.1812 25.7812 19.5312 26.1313 19.5312 26.5625V29.6875H21.0938V26.5625V24.2188C21.0938 23.7875 21.4438 23.4375 21.875 23.4375C22.3062 23.4375 22.6562 23.7875 22.6562 24.2188V29.6875H24.2188V24.2188V21.875C24.2188 21.4438 24.5688 21.0938 25 21.0938C25.4312 21.0938 25.7812 21.4438 25.7812 21.875V25V29.6875H27.3438V25C27.3438 24.5688 27.6938 24.2188 28.125 24.2188C28.5562 24.2188 28.9062 24.5688 28.9062 25V34.375H30.4688V33.1688C30.4688 30.818 32.3805 28.9062 34.7313 28.9062C34.9695 28.9062 35.1562 29.0898 35.1562 29.3242C35.1562 29.407 35.132 29.4875 35.0859 29.5563L34.282 30.7625C33.85 31.4094 33.5719 32.1594 33.4758 32.9305L32.9727 36.95C32.8891 37.6227 32.6297 38.2656 32.2219 38.8086L30.4688 41.1461ZM25 7.03125C33.0016 7.03125 39.7961 12.2898 42.1148 19.5312H32.8258C30.8867 17.5406 28.0562 16.4062 25 16.4062C21.9438 16.4062 19.1141 17.5406 17.1742 19.5312H7.88516C10.2039 12.2898 16.9984 7.03125 25 7.03125ZM7.88672 30.4688C10.6273 30.4688 13.425 30.8352 16.4062 31.557V37.175C16.4062 38.0195 16.6062 38.8656 16.9836 39.6203L17.9312 41.5164C13.0883 39.443 9.45547 35.3664 7.88672 30.4688ZM32.0312 47.6562H17.9688V44.5312H32.0312V47.6562ZM32.1758 41.4742L33.4719 39.7461C34.0422 38.9859 34.4055 38.0859 34.5234 37.143L35.0266 33.1242C35.093 32.5922 35.2852 32.075 35.5828 31.6289L35.9719 31.0461C38.0719 30.6672 40.1383 30.4688 42.1133 30.4688C40.5555 35.3305 36.9664 39.3867 32.1758 41.4742Z" fill="black"/>
<path d="M33.5938 22.6562H35.1562V24.2188H33.5938V22.6562Z" fill="black"/>
<path d="M36.7188 22.6562H38.2812V24.2188H36.7188V22.6562Z" fill="black"/>
<path d="M39.8438 22.6562H41.4062V24.2188H39.8438V22.6562Z" fill="black"/>
<path d="M39.8438 25.7812H41.4062V27.3438H39.8438V25.7812Z" fill="black"/>
<path d="M36.7188 25.7812H38.2812V27.3438H36.7188V25.7812Z" fill="black"/>
<path d="M11.7399 18.3211C11.9961 17.8133 12.286 17.3133 12.6008 16.8359L11.2961 15.9766C10.9492 16.5031 10.6289 17.0555 10.3453 17.6164L11.7399 18.3211Z" fill="black"/>
<path d="M25 10.1562V8.59375C20.2 8.59375 15.6554 10.6867 12.532 14.3359L13.7195 15.3523C16.5453 12.05 20.657 10.1562 25 10.1562Z" fill="black"/>
</g>
<defs>
<clipPath id="clip0_547_206">
<rect width="50" height="50" fill="white"/>
</clipPath>
</defs>
</svg>
