<svg width="40" height="40" viewBox="0 0 40 40" fill="none" xmlns="http://www.w3.org/2000/svg">
<g clip-path="url(#clip0_637_387)">
<path d="M26.0187 3.75C24.5894 2.21563 22.5569 1.25 20.2937 1.25H19.7062C17.4437 1.25 15.4112 2.21563 13.9812 3.75H14.375C15.7837 3.75 16.9525 4.83875 17.0531 6.24375L17.3219 10.0063C17.4225 11.4113 18.5912 12.5 20 12.5C21.4087 12.5 22.5775 11.4113 22.6781 10.0063L22.9469 6.24375C23.0475 4.83875 24.2162 3.75 25.625 3.75H26.0187Z" fill="#F5B754"/>
<path d="M36.25 18.125H25V17.6731L27.545 13.4319C28.3331 12.1175 28.75 10.6131 28.75 9.08063C28.75 4.41813 24.9569 0.625 20.2944 0.625H19.7063C15.0431 0.625 11.25 4.41813 11.25 9.08063C11.25 10.6131 11.6669 12.1175 12.455 13.4312L15 17.6731V18.125H3.75C2.02688 18.125 0.625 19.5269 0.625 21.25V36.25C0.625 37.9731 2.02688 39.375 3.75 39.375H36.25C37.9731 39.375 39.375 37.9731 39.375 36.25V21.25C39.375 19.5269 37.9731 18.125 36.25 18.125ZM22.5 26.875H25C26.0338 26.875 26.875 27.7162 26.875 28.75C26.875 29.7838 26.0338 30.625 25 30.625H22.5V26.875ZM21.25 30.625H18.75V20.625H21.25V30.625ZM17.5 30.625H15C13.9663 30.625 13.125 29.7838 13.125 28.75C13.125 27.7162 13.9663 26.875 15 26.875H17.5V30.625ZM16.25 19.375V18.125H23.75V19.375H16.25ZM13.5269 12.7881C12.855 11.6687 12.5 10.3869 12.5 9.08063C12.5 5.1075 15.7325 1.875 19.7056 1.875H20.2938C24.2675 1.875 27.5 5.1075 27.5 9.08063C27.5 10.3863 27.145 11.6687 26.4731 12.7881L24.0212 16.875H15.9788L13.5269 12.7881ZM38.125 36.25C38.125 37.2837 37.2837 38.125 36.25 38.125H3.75C2.71625 38.125 1.875 37.2837 1.875 36.25V21.25C1.875 20.2162 2.71625 19.375 3.75 19.375H15V20.625H17.5V25.625H15C13.2769 25.625 11.875 27.0269 11.875 28.75C11.875 30.4731 13.2769 31.875 15 31.875H25C26.7231 31.875 28.125 30.4731 28.125 28.75C28.125 27.0269 26.7231 25.625 25 25.625H22.5V20.625H25V19.375H36.25C37.2837 19.375 38.125 20.2162 38.125 21.25V36.25Z" fill="white"/>
<path d="M35 20.625H31.25C30.2162 20.625 29.375 21.4662 29.375 22.5V35C29.375 36.0337 30.2162 36.875 31.25 36.875H35C36.0338 36.875 36.875 36.0337 36.875 35V22.5C36.875 21.4662 36.0338 20.625 35 20.625ZM31.25 21.875H35C35.3444 21.875 35.625 22.1556 35.625 22.5V23.125H30.625V22.5C30.625 22.1556 30.9056 21.875 31.25 21.875ZM30.625 30.625V29.375H35.625V30.625H30.625ZM35.625 31.875V33.125H30.625V31.875H35.625ZM30.625 28.125V26.875H35.625V28.125H30.625ZM30.625 25.625V24.375H35.625V25.625H30.625ZM35 35.625H31.25C30.9056 35.625 30.625 35.3444 30.625 35V34.375H35.625V35C35.625 35.3444 35.3444 35.625 35 35.625Z" fill="white"/>
<path d="M4.375 34.375H8.125V33.125H4.375V31.875H10.625V30.625H4.375V29.375H8.125V28.125H4.375V26.875H10.625V25.625H4.375V24.375H8.125V23.125H4.375V21.875H10.625V20.625H3.125V36.875H11.25V35.625H4.375V34.375Z" fill="white"/>
<path d="M25 36.875C23.9662 36.875 23.125 36.0338 23.125 35C23.125 33.9662 23.9662 33.125 25 33.125C26.0338 33.125 26.875 33.9662 26.875 35C26.875 36.0338 26.0338 36.875 25 36.875Z" fill="#F5B754"/>
<path d="M20 36.875C18.9662 36.875 18.125 36.0338 18.125 35C18.125 33.9662 18.9662 33.125 20 33.125C21.0338 33.125 21.875 33.9662 21.875 35C21.875 36.0338 21.0338 36.875 20 36.875Z" fill="#F5B754"/>
<path d="M15 36.875C13.9662 36.875 13.125 36.0338 13.125 35C13.125 33.9662 13.9662 33.125 15 33.125C16.0338 33.125 16.875 33.9662 16.875 35C16.875 36.0338 16.0338 36.875 15 36.875Z" fill="#F5B754"/>
</g>
<defs>
<clipPath id="clip0_637_387">
<rect width="40" height="40" fill="white"/>
</clipPath>
</defs>
</svg>
