<svg width="30" height="30" viewBox="0 0 30 30" fill="none" xmlns="http://www.w3.org/2000/svg">
<path d="M26.6849 11.7827L17.0485 2.14633C15.6774 0.767463 13.8115 -0.00546609 11.8669 2.91021e-05H4.44231C3.09415 0.00167766 2.00165 1.09418 2 2.44234V28.8192C2 29.089 2.21871 29.3077 2.48846 29.3077H16.8678C18.119 29.3076 19.2702 28.6242 19.8694 27.5258C21.1931 25.0967 23.189 23.1008 25.6181 21.7771C26.7165 21.1779 27.3999 20.0267 27.4 18.7755V13.5094C27.4018 12.8615 27.1443 12.2396 26.6849 11.7827ZM26.4231 18.7755C26.4231 19.6694 25.9349 20.4919 25.1501 20.9198C22.5562 22.3327 20.425 24.4639 19.0121 27.0579C18.5841 27.8426 17.7617 28.3308 16.8678 28.3308H2.97692V2.44234C2.97692 1.63302 3.63299 0.976952 4.44231 0.976952H11.8669C13.5521 0.972372 15.169 1.64217 16.3573 2.83701L25.9942 12.4734C26.2679 12.7488 26.422 13.1211 26.4231 13.5094V18.7755Z" fill="black"/>
<path d="M24.3264 12.3549L15.4994 3.52794C14.494 2.51695 13.1259 1.95027 11.7001 1.95412H5.41949C4.61017 1.95412 3.9541 2.61019 3.9541 3.41951V12.7003C3.9541 12.97 4.17281 13.1887 4.44256 13.1887H23.981C24.1785 13.1888 24.3567 13.0699 24.4324 12.8874C24.508 12.7048 24.4661 12.4946 24.3264 12.3549ZM16.6541 12.2118H4.93102V3.41951C4.93102 3.14975 5.14973 2.93104 5.41949 2.93104H11.7001C12.8667 2.92787 13.9861 3.39148 14.8087 4.21863L16.6541 6.06403V12.2118ZM17.631 12.2118V7.04096L22.8019 12.2118H17.631Z" fill="black"/>
<path d="M23.0045 14.6543H20.0738C19.2645 14.6543 18.6084 15.3104 18.6084 16.1197C18.6084 16.929 19.2645 17.5851 20.0738 17.5851H23.0045C23.8139 17.5851 24.4699 16.929 24.4699 16.1197C24.4699 15.3104 23.8139 14.6543 23.0045 14.6543ZM23.0045 16.6081H20.0738C19.804 16.6081 19.5853 16.3894 19.5853 16.1197C19.5853 15.8499 19.804 15.6312 20.0738 15.6312H23.0045C23.2743 15.6312 23.493 15.8499 23.493 16.1197C23.493 16.3894 23.2743 16.6081 23.0045 16.6081Z" fill="#F5B754"/>
</svg>
