<svg width="50" height="50" viewBox="0 0 50 50" fill="none" xmlns="http://www.w3.org/2000/svg">
<path d="M34.375 46.0938H15.625C14.3328 46.0938 13.2812 45.0422 13.2812 43.75V29.6875C13.2812 28.3953 14.3328 27.3438 15.625 27.3438H34.375C35.6672 27.3438 36.7188 28.3953 36.7188 29.6875V43.75C36.7188 45.0422 35.6672 46.0938 34.375 46.0938Z" fill="#F5B754"/>
<path d="M25.2633 42.9684H24.7367C22.2969 42.9684 20.3125 40.984 20.3125 38.5441C20.3125 37.7137 20.5453 36.9027 20.9852 36.1996L25 29.7754L29.0148 36.1996C29.4547 36.9027 29.6875 37.7137 29.6875 38.5441C29.6875 40.984 27.7031 42.9684 25.2633 42.9684ZM25 32.7238L22.3102 37.0285C22.025 37.4832 21.875 38.0066 21.875 38.5441C21.875 40.1215 23.1594 41.4059 24.7367 41.4059H25.2633C26.8406 41.4059 28.125 40.1215 28.125 38.5441C28.125 38.0066 27.975 37.4832 27.6898 37.0285L25 32.7238Z" fill="black"/>
<path d="M27.093 13.2812C26.5367 13.2812 25.9953 13.3906 25.4836 13.6063L14.7156 18.1398C13.8445 18.5062 13.2812 19.3539 13.2812 20.3V20.5805C13.2812 23.4484 15.6141 25.7812 18.482 25.7812C19.8703 25.7812 21.1758 25.2406 22.1594 24.2578L29.6875 16.7297V15.8758C29.6875 14.4453 28.5234 13.2812 27.093 13.2812ZM28.125 16.0828L21.0547 23.1531C20.3672 23.8406 19.4531 24.2188 18.482 24.2188C16.4758 24.2188 14.8438 22.5867 14.8438 20.5805V20.3C14.8438 19.9852 15.0312 19.7023 15.3211 19.5805L26.0898 15.0469C26.4094 14.9117 26.7461 14.8438 27.093 14.8438C27.6617 14.8438 28.125 15.307 28.125 15.8758V16.0828Z" fill="black"/>
<path d="M36.7188 10.6914V8.59375C38.0109 8.59375 39.0625 7.54219 39.0625 6.25V3.125C39.0625 1.83281 38.0109 0.78125 36.7188 0.78125H27.3438C26.0516 0.78125 25 1.83281 25 3.125V6.25C25 7.54219 26.0516 8.59375 27.3438 8.59375V10.1562H26.7281C25.9945 10.1562 25.2797 10.3008 24.6055 10.5852L13.5031 15.2594C11.4703 16.1148 10.1562 18.0938 10.1562 20.3V43.75C10.1562 46.7648 12.6102 49.2188 15.625 49.2188H34.375C37.3898 49.2188 39.8438 46.7648 39.8438 43.75V15.625C39.8438 13.4492 38.5633 11.5711 36.7188 10.6914ZM26.5625 6.25V3.125C26.5625 2.69453 26.9125 2.34375 27.3438 2.34375H36.7188C37.15 2.34375 37.5 2.69453 37.5 3.125V6.25C37.5 6.68047 37.15 7.03125 36.7188 7.03125H27.3438C26.9125 7.03125 26.5625 6.68047 26.5625 6.25ZM28.9062 8.59375H35.1562V10.2188C34.9 10.182 34.6406 10.1562 34.375 10.1562H28.9062V8.59375ZM38.2812 43.75C38.2812 45.9039 36.5289 47.6562 34.375 47.6562H15.625C13.4711 47.6562 11.7188 45.9039 11.7188 43.75V20.3C11.7188 18.7242 12.657 17.3109 14.1094 16.7L25.2125 12.025C25.6937 11.8219 26.2039 11.7188 26.7281 11.7188H34.375C36.5289 11.7188 38.2812 13.4711 38.2812 15.625V43.75Z" fill="black"/>
<path d="M35.1562 14.8438H36.7188V16.4062H35.1562V14.8438Z" fill="black"/>
<path d="M35.1562 17.9688H36.7188V19.5312H35.1562V17.9688Z" fill="black"/>
<path d="M35.1562 21.0938H36.7188V22.6562H35.1562V21.0938Z" fill="black"/>
</svg>
